%TF.GenerationSoftware,KiCad,Pcbnew,8.0.2*%
%TF.CreationDate,2024-05-20T21:07:15-07:00*%
%TF.ProjectId,snifferlyzer,736e6966-6665-4726-9c79-7a65722e6b69,rev?*%
%TF.SameCoordinates,Original*%
%TF.FileFunction,Copper,L1,Top*%
%TF.FilePolarity,Positive*%
%FSLAX46Y46*%
G04 Gerber Fmt 4.6, Leading zero omitted, Abs format (unit mm)*
G04 Created by KiCad (PCBNEW 8.0.2) date 2024-05-20 21:07:15*
%MOMM*%
%LPD*%
G01*
G04 APERTURE LIST*
G04 Aperture macros list*
%AMRoundRect*
0 Rectangle with rounded corners*
0 $1 Rounding radius*
0 $2 $3 $4 $5 $6 $7 $8 $9 X,Y pos of 4 corners*
0 Add a 4 corners polygon primitive as box body*
4,1,4,$2,$3,$4,$5,$6,$7,$8,$9,$2,$3,0*
0 Add four circle primitives for the rounded corners*
1,1,$1+$1,$2,$3*
1,1,$1+$1,$4,$5*
1,1,$1+$1,$6,$7*
1,1,$1+$1,$8,$9*
0 Add four rect primitives between the rounded corners*
20,1,$1+$1,$2,$3,$4,$5,0*
20,1,$1+$1,$4,$5,$6,$7,0*
20,1,$1+$1,$6,$7,$8,$9,0*
20,1,$1+$1,$8,$9,$2,$3,0*%
%AMFreePoly0*
4,1,45,-0.121464,1.703536,-0.120000,1.700000,-0.120000,1.205000,0.120000,1.205000,0.120000,1.700000,0.121464,1.703536,0.125000,1.705000,0.375000,1.705000,0.378536,1.703536,0.380000,1.700000,0.380000,1.205000,0.825000,1.205000,0.828536,1.203536,0.830000,1.200000,0.830000,-1.200000,0.828536,-1.203536,0.825000,-1.205000,0.380000,-1.205000,0.380000,-1.700000,0.378536,-1.703536,
0.375000,-1.705000,0.125000,-1.705000,0.121464,-1.703536,0.120000,-1.700000,0.120000,-1.205000,-0.120000,-1.205000,-0.120000,-1.700000,-0.121464,-1.703536,-0.125000,-1.705000,-0.375000,-1.705000,-0.378536,-1.703536,-0.380000,-1.700000,-0.380000,-1.205000,-0.825000,-1.205000,-0.828536,-1.203536,-0.830000,-1.200000,-0.830000,1.200000,-0.828536,1.203536,-0.825000,1.205000,-0.380000,1.205000,
-0.380000,1.700000,-0.378536,1.703536,-0.375000,1.705000,-0.125000,1.705000,-0.121464,1.703536,-0.121464,1.703536,$1*%
G04 Aperture macros list end*
%TA.AperFunction,SMDPad,CuDef*%
%ADD10RoundRect,0.100000X0.225000X0.100000X-0.225000X0.100000X-0.225000X-0.100000X0.225000X-0.100000X0*%
%TD*%
%TA.AperFunction,SMDPad,CuDef*%
%ADD11RoundRect,0.100000X-0.225000X-0.100000X0.225000X-0.100000X0.225000X0.100000X-0.225000X0.100000X0*%
%TD*%
%TA.AperFunction,SMDPad,CuDef*%
%ADD12R,0.500000X0.550000*%
%TD*%
%TA.AperFunction,SMDPad,CuDef*%
%ADD13RoundRect,0.250000X-0.450000X0.262500X-0.450000X-0.262500X0.450000X-0.262500X0.450000X0.262500X0*%
%TD*%
%TA.AperFunction,SMDPad,CuDef*%
%ADD14R,0.300000X0.400000*%
%TD*%
%TA.AperFunction,HeatsinkPad*%
%ADD15R,1.600000X0.200000*%
%TD*%
%TA.AperFunction,ComponentPad*%
%ADD16C,1.650000*%
%TD*%
%TA.AperFunction,ComponentPad*%
%ADD17O,2.250000X3.250000*%
%TD*%
%TA.AperFunction,SMDPad,CuDef*%
%ADD18RoundRect,0.100000X0.100000X-0.130000X0.100000X0.130000X-0.100000X0.130000X-0.100000X-0.130000X0*%
%TD*%
%TA.AperFunction,SMDPad,CuDef*%
%ADD19RoundRect,0.140000X-0.140000X-0.170000X0.140000X-0.170000X0.140000X0.170000X-0.140000X0.170000X0*%
%TD*%
%TA.AperFunction,SMDPad,CuDef*%
%ADD20RoundRect,0.007200X-0.112800X0.292800X-0.112800X-0.292800X0.112800X-0.292800X0.112800X0.292800X0*%
%TD*%
%TA.AperFunction,SMDPad,CuDef*%
%ADD21FreePoly0,270.000000*%
%TD*%
%TA.AperFunction,SMDPad,CuDef*%
%ADD22R,1.900000X0.400000*%
%TD*%
%TA.AperFunction,SMDPad,CuDef*%
%ADD23RoundRect,0.140000X0.140000X0.170000X-0.140000X0.170000X-0.140000X-0.170000X0.140000X-0.170000X0*%
%TD*%
%TA.AperFunction,SMDPad,CuDef*%
%ADD24RoundRect,0.100000X-0.130000X-0.100000X0.130000X-0.100000X0.130000X0.100000X-0.130000X0.100000X0*%
%TD*%
%TA.AperFunction,SMDPad,CuDef*%
%ADD25RoundRect,0.250000X-0.375000X-0.850000X0.375000X-0.850000X0.375000X0.850000X-0.375000X0.850000X0*%
%TD*%
%TA.AperFunction,SMDPad,CuDef*%
%ADD26RoundRect,0.100000X0.130000X0.100000X-0.130000X0.100000X-0.130000X-0.100000X0.130000X-0.100000X0*%
%TD*%
%TA.AperFunction,SMDPad,CuDef*%
%ADD27RoundRect,0.050000X0.050000X-0.387500X0.050000X0.387500X-0.050000X0.387500X-0.050000X-0.387500X0*%
%TD*%
%TA.AperFunction,SMDPad,CuDef*%
%ADD28RoundRect,0.050000X0.387500X-0.050000X0.387500X0.050000X-0.387500X0.050000X-0.387500X-0.050000X0*%
%TD*%
%TA.AperFunction,HeatsinkPad*%
%ADD29R,3.200000X3.200000*%
%TD*%
%TA.AperFunction,SMDPad,CuDef*%
%ADD30RoundRect,0.250000X0.475000X-0.250000X0.475000X0.250000X-0.475000X0.250000X-0.475000X-0.250000X0*%
%TD*%
%TA.AperFunction,ComponentPad*%
%ADD31R,1.700000X1.700000*%
%TD*%
%TA.AperFunction,ComponentPad*%
%ADD32O,1.700000X1.700000*%
%TD*%
%TA.AperFunction,SMDPad,CuDef*%
%ADD33RoundRect,0.140000X-0.170000X0.140000X-0.170000X-0.140000X0.170000X-0.140000X0.170000X0.140000X0*%
%TD*%
%TA.AperFunction,SMDPad,CuDef*%
%ADD34RoundRect,0.250000X0.450000X-0.262500X0.450000X0.262500X-0.450000X0.262500X-0.450000X-0.262500X0*%
%TD*%
%TA.AperFunction,SMDPad,CuDef*%
%ADD35RoundRect,0.250000X-0.262500X-0.450000X0.262500X-0.450000X0.262500X0.450000X-0.262500X0.450000X0*%
%TD*%
%TA.AperFunction,SMDPad,CuDef*%
%ADD36R,0.600000X1.150000*%
%TD*%
%TA.AperFunction,SMDPad,CuDef*%
%ADD37R,0.300000X1.150000*%
%TD*%
%TA.AperFunction,ComponentPad*%
%ADD38O,1.050000X2.100000*%
%TD*%
%TA.AperFunction,ComponentPad*%
%ADD39O,1.000000X2.000000*%
%TD*%
%TA.AperFunction,SMDPad,CuDef*%
%ADD40RoundRect,0.100000X-0.100000X0.130000X-0.100000X-0.130000X0.100000X-0.130000X0.100000X0.130000X0*%
%TD*%
%TA.AperFunction,SMDPad,CuDef*%
%ADD41RoundRect,0.250000X-0.475000X0.250000X-0.475000X-0.250000X0.475000X-0.250000X0.475000X0.250000X0*%
%TD*%
%TA.AperFunction,SMDPad,CuDef*%
%ADD42RoundRect,0.250000X0.250000X-0.250000X0.250000X0.250000X-0.250000X0.250000X-0.250000X-0.250000X0*%
%TD*%
%TA.AperFunction,ViaPad*%
%ADD43C,0.600000*%
%TD*%
%TA.AperFunction,ViaPad*%
%ADD44C,1.000000*%
%TD*%
%TA.AperFunction,Conductor*%
%ADD45C,0.350000*%
%TD*%
%TA.AperFunction,Conductor*%
%ADD46C,0.200000*%
%TD*%
%TA.AperFunction,Conductor*%
%ADD47C,0.750000*%
%TD*%
G04 APERTURE END LIST*
D10*
%TO.P,U19,1,NC*%
%TO.N,unconnected-(U19-NC-Pad1)*%
X196707800Y-129087400D03*
%TO.P,U19,2,IN_A*%
%TO.N,IN8*%
X196707800Y-128437400D03*
%TO.P,U19,3,GND*%
%TO.N,GND*%
X196707800Y-127787400D03*
%TO.P,U19,4,OUT_Y*%
%TO.N,GPIO_8*%
X194807800Y-127787400D03*
%TO.P,U19,5,VC*%
%TO.N,+3V3*%
X194807800Y-129087400D03*
%TD*%
%TO.P,U4,1,NC*%
%TO.N,unconnected-(U4-NC-Pad1)*%
X196733200Y-140668100D03*
%TO.P,U4,2,IN_A*%
%TO.N,USB-DM-IN0*%
X196733200Y-140018100D03*
%TO.P,U4,3,GND*%
%TO.N,GND*%
X196733200Y-139368100D03*
%TO.P,U4,4,OUT_Y*%
%TO.N,GPIO_0*%
X194833200Y-139368100D03*
%TO.P,U4,5,VC*%
%TO.N,+3V3*%
X194833200Y-140668100D03*
%TD*%
D11*
%TO.P,U7,1,NC*%
%TO.N,unconnected-(U7-NC-Pad1)*%
X208635600Y-136557900D03*
%TO.P,U7,2,IN_A*%
%TO.N,IN3*%
X208635600Y-137207900D03*
%TO.P,U7,3,GND*%
%TO.N,GND*%
X208635600Y-137857900D03*
%TO.P,U7,4,OUT_Y*%
%TO.N,GPIO_3*%
X210535600Y-137857900D03*
%TO.P,U7,5,VC*%
%TO.N,+3V3*%
X210535600Y-136557900D03*
%TD*%
%TO.P,U16,1,NC*%
%TO.N,unconnected-(U16-NC-Pad1)*%
X208635600Y-125217400D03*
%TO.P,U16,2,IN_A*%
%TO.N,IN11*%
X208635600Y-125867400D03*
%TO.P,U16,3,GND*%
%TO.N,GND*%
X208635600Y-126517400D03*
%TO.P,U16,4,OUT_Y*%
%TO.N,GPIO_11*%
X210535600Y-126517400D03*
%TO.P,U16,5,VC*%
%TO.N,+3V3*%
X210535600Y-125217400D03*
%TD*%
D12*
%TO.P,SW1,1,1*%
%TO.N,GND*%
X191738200Y-108225200D03*
%TO.P,SW1,2,2*%
X190938200Y-108225200D03*
%TO.P,SW1,3,3*%
%TO.N,USB_BOOT*%
X191738200Y-110875200D03*
%TO.P,SW1,4,4*%
X190938200Y-110875200D03*
%TD*%
D13*
%TO.P,R7,1*%
%TO.N,USB-DP-IN1*%
X198932800Y-144426300D03*
%TO.P,R7,2*%
%TO.N,USB-DP*%
X198932800Y-146251300D03*
%TD*%
D14*
%TO.P,U3,1,/CS*%
%TO.N,Net-(U3-{slash}CS)*%
X193411600Y-109740400D03*
%TO.P,U3,2,IO1*%
%TO.N,SIO1*%
X193911600Y-109740400D03*
%TO.P,U3,3,IO2*%
%TO.N,SIO2*%
X194411600Y-109740400D03*
%TO.P,U3,4,VSS*%
%TO.N,GND*%
X194911600Y-109740400D03*
%TO.P,U3,5,IO0*%
%TO.N,SIO0*%
X194911600Y-107340400D03*
%TO.P,U3,6,SCLK*%
%TO.N,SCLK*%
X194411600Y-107340400D03*
%TO.P,U3,7,IO3*%
%TO.N,SIO3*%
X193911600Y-107340400D03*
%TO.P,U3,8,VCC*%
%TO.N,+3V3*%
X193411600Y-107340400D03*
D15*
%TO.P,U3,9*%
%TO.N,N/C*%
X194161600Y-108540400D03*
%TD*%
D11*
%TO.P,U14,1,NC*%
%TO.N,unconnected-(U14-NC-Pad1)*%
X208588600Y-122300940D03*
%TO.P,U14,2,IN_A*%
%TO.N,IN13*%
X208588600Y-122950940D03*
%TO.P,U14,3,GND*%
%TO.N,GND*%
X208588600Y-123600940D03*
%TO.P,U14,4,OUT_Y*%
%TO.N,GPIO_13*%
X210488600Y-123600940D03*
%TO.P,U14,5,VC*%
%TO.N,+3V3*%
X210488600Y-122300940D03*
%TD*%
D10*
%TO.P,U6,1,NC*%
%TO.N,unconnected-(U6-NC-Pad1)*%
X196743400Y-137795000D03*
%TO.P,U6,2,IN_A*%
%TO.N,IN2*%
X196743400Y-137145000D03*
%TO.P,U6,3,GND*%
%TO.N,GND*%
X196743400Y-136495000D03*
%TO.P,U6,4,OUT_Y*%
%TO.N,GPIO_2*%
X194843400Y-136495000D03*
%TO.P,U6,5,VC*%
%TO.N,+3V3*%
X194843400Y-137795000D03*
%TD*%
D16*
%TO.P,J1,1,VBUS*%
%TO.N,USB_VBUS*%
X192715000Y-149906500D03*
%TO.P,J1,2,D-*%
%TO.N,USB-DM*%
X195215000Y-149906500D03*
%TO.P,J1,3,D+*%
%TO.N,USB-DP*%
X197215000Y-149906500D03*
%TO.P,J1,4,GND*%
%TO.N,GND*%
X199715000Y-149906500D03*
D17*
%TO.P,J1,5,Shield*%
X189745000Y-151246500D03*
X202685000Y-151246500D03*
%TD*%
D18*
%TO.P,C11,1*%
%TO.N,+3V3*%
X192532000Y-107330200D03*
%TO.P,C11,2*%
%TO.N,GND*%
X192532000Y-106690200D03*
%TD*%
D19*
%TO.P,C10,1*%
%TO.N,GND*%
X197360600Y-110744000D03*
%TO.P,C10,2*%
%TO.N,+3V3*%
X198320600Y-110744000D03*
%TD*%
D20*
%TO.P,U1,1,VOUT*%
%TO.N,+3V3*%
X194132200Y-102158800D03*
%TO.P,U1,2,L2*%
%TO.N,Net-(U1-L2)*%
X193632200Y-102158800D03*
%TO.P,U1,3,PGND*%
%TO.N,GND*%
X193132200Y-102158800D03*
%TO.P,U1,4,L1*%
%TO.N,Net-(U1-L1)*%
X192632200Y-102158800D03*
%TO.P,U1,5,VIN*%
%TO.N,VBUS_SYS*%
X192132200Y-102158800D03*
%TO.P,U1,6,EN*%
%TO.N,Net-(U1-EN)*%
X192132200Y-104958800D03*
%TO.P,U1,7,PS/SYNC*%
X192632200Y-104958800D03*
%TO.P,U1,8,VINA*%
X193132200Y-104958800D03*
%TO.P,U1,9,GND*%
%TO.N,GND*%
X193632200Y-104958800D03*
%TO.P,U1,10,FB*%
%TO.N,+3V3*%
X194132200Y-104958800D03*
D21*
%TO.P,U1,11,EP*%
%TO.N,GND*%
X193132200Y-103558800D03*
%TD*%
D22*
%TO.P,Y1,1,1*%
%TO.N,XTAL_IN*%
X210540600Y-107736100D03*
%TO.P,Y1,2,2*%
%TO.N,GND*%
X210540600Y-106536100D03*
%TO.P,Y1,3,3*%
%TO.N,Net-(R2-Pad1)*%
X210540600Y-105336100D03*
%TD*%
D10*
%TO.P,U15,1,NC*%
%TO.N,unconnected-(U15-NC-Pad1)*%
X196698370Y-123342430D03*
%TO.P,U15,2,IN_A*%
%TO.N,IN12*%
X196698370Y-122692430D03*
%TO.P,U15,3,GND*%
%TO.N,GND*%
X196698370Y-122042430D03*
%TO.P,U15,4,OUT_Y*%
%TO.N,GPIO_12*%
X194798370Y-122042430D03*
%TO.P,U15,5,VC*%
%TO.N,+3V3*%
X194798370Y-123342430D03*
%TD*%
D13*
%TO.P,R9,1*%
%TO.N,GND*%
X210845400Y-147956900D03*
%TO.P,R9,2*%
%TO.N,Net-(J3-CC2)*%
X210845400Y-149781900D03*
%TD*%
D23*
%TO.P,C7,1*%
%TO.N,+3V3*%
X197990400Y-105943400D03*
%TO.P,C7,2*%
%TO.N,GND*%
X197030400Y-105943400D03*
%TD*%
D24*
%TO.P,R5,1*%
%TO.N,RP_USB-*%
X197380400Y-104292400D03*
%TO.P,R5,2*%
%TO.N,Net-(U2-USB_DM)*%
X198020400Y-104292400D03*
%TD*%
D13*
%TO.P,R8,1*%
%TO.N,USB-DM-IN0*%
X196951600Y-144428200D03*
%TO.P,R8,2*%
%TO.N,USB-DM*%
X196951600Y-146253200D03*
%TD*%
D10*
%TO.P,U17,1,NC*%
%TO.N,unconnected-(U17-NC-Pad1)*%
X196707800Y-126215500D03*
%TO.P,U17,2,IN_A*%
%TO.N,IN10*%
X196707800Y-125565500D03*
%TO.P,U17,3,GND*%
%TO.N,GND*%
X196707800Y-124915500D03*
%TO.P,U17,4,OUT_Y*%
%TO.N,GPIO_10*%
X194807800Y-124915500D03*
%TO.P,U17,5,VC*%
%TO.N,+3V3*%
X194807800Y-126215500D03*
%TD*%
D23*
%TO.P,C8,1*%
%TO.N,+3V3*%
X198079800Y-102302700D03*
%TO.P,C8,2*%
%TO.N,GND*%
X197119800Y-102302700D03*
%TD*%
D25*
%TO.P,L1,1,1*%
%TO.N,Net-(U1-L1)*%
X193209600Y-99466400D03*
%TO.P,L1,2,2*%
%TO.N,Net-(U1-L2)*%
X195359600Y-99466400D03*
%TD*%
D26*
%TO.P,R6,1*%
%TO.N,USB_BOOT*%
X194579200Y-111074200D03*
%TO.P,R6,2*%
%TO.N,Net-(U3-{slash}CS)*%
X193939200Y-111074200D03*
%TD*%
D10*
%TO.P,U10,1,NC*%
%TO.N,unconnected-(U10-NC-Pad1)*%
X196743400Y-131957600D03*
%TO.P,U10,2,IN_A*%
%TO.N,IN6*%
X196743400Y-131307600D03*
%TO.P,U10,3,GND*%
%TO.N,GND*%
X196743400Y-130657600D03*
%TO.P,U10,4,OUT_Y*%
%TO.N,GPIO_6*%
X194843400Y-130657600D03*
%TO.P,U10,5,VC*%
%TO.N,+3V3*%
X194843400Y-131957600D03*
%TD*%
%TO.P,U8,1,NC*%
%TO.N,unconnected-(U8-NC-Pad1)*%
X196743400Y-134924800D03*
%TO.P,U8,2,IN_A*%
%TO.N,IN4*%
X196743400Y-134274800D03*
%TO.P,U8,3,GND*%
%TO.N,GND*%
X196743400Y-133624800D03*
%TO.P,U8,4,OUT_Y*%
%TO.N,GPIO_4*%
X194843400Y-133624800D03*
%TO.P,U8,5,VC*%
%TO.N,+3V3*%
X194843400Y-134924800D03*
%TD*%
D11*
%TO.P,U9,1,NC*%
%TO.N,unconnected-(U9-NC-Pad1)*%
X208620400Y-133736800D03*
%TO.P,U9,2,IN_A*%
%TO.N,IN5*%
X208620400Y-134386800D03*
%TO.P,U9,3,GND*%
%TO.N,GND*%
X208620400Y-135036800D03*
%TO.P,U9,4,OUT_Y*%
%TO.N,GPIO_5*%
X210520400Y-135036800D03*
%TO.P,U9,5,VC*%
%TO.N,+3V3*%
X210520400Y-133736800D03*
%TD*%
D19*
%TO.P,C5,1*%
%TO.N,GND*%
X197132000Y-103301800D03*
%TO.P,C5,2*%
%TO.N,+1V1*%
X198092000Y-103301800D03*
%TD*%
D27*
%TO.P,U2,1,IOVDD*%
%TO.N,+3V3*%
X200396800Y-109457100D03*
%TO.P,U2,2,GPIO0*%
%TO.N,GPIO_0*%
X200796800Y-109457100D03*
%TO.P,U2,3,GPIO1*%
%TO.N,GPIO_1*%
X201196800Y-109457100D03*
%TO.P,U2,4,GPIO2*%
%TO.N,GPIO_2*%
X201596800Y-109457100D03*
%TO.P,U2,5,GPIO3*%
%TO.N,GPIO_3*%
X201996800Y-109457100D03*
%TO.P,U2,6,GPIO4*%
%TO.N,GPIO_4*%
X202396800Y-109457100D03*
%TO.P,U2,7,GPIO5*%
%TO.N,GPIO_5*%
X202796800Y-109457100D03*
%TO.P,U2,8,GPIO6*%
%TO.N,GPIO_6*%
X203196800Y-109457100D03*
%TO.P,U2,9,GPIO7*%
%TO.N,GPIO_7*%
X203596800Y-109457100D03*
%TO.P,U2,10,IOVDD*%
%TO.N,+3V3*%
X203996800Y-109457100D03*
%TO.P,U2,11,GPIO8*%
%TO.N,GPIO_8*%
X204396800Y-109457100D03*
%TO.P,U2,12,GPIO9*%
%TO.N,GPIO_9*%
X204796800Y-109457100D03*
%TO.P,U2,13,GPIO10*%
%TO.N,GPIO_10*%
X205196800Y-109457100D03*
%TO.P,U2,14,GPIO11*%
%TO.N,GPIO_11*%
X205596800Y-109457100D03*
D28*
%TO.P,U2,15,GPIO12*%
%TO.N,GPIO_12*%
X206434300Y-108619600D03*
%TO.P,U2,16,GPIO13*%
%TO.N,GPIO_13*%
X206434300Y-108219600D03*
%TO.P,U2,17,GPIO14*%
%TO.N,GPIO_14*%
X206434300Y-107819600D03*
%TO.P,U2,18,GPIO15*%
%TO.N,GPIO_15*%
X206434300Y-107419600D03*
%TO.P,U2,19,TESTEN*%
%TO.N,GND*%
X206434300Y-107019600D03*
%TO.P,U2,20,XIN*%
%TO.N,XTAL_IN*%
X206434300Y-106619600D03*
%TO.P,U2,21,XOUT*%
%TO.N,XTAL_OUT*%
X206434300Y-106219600D03*
%TO.P,U2,22,IOVDD*%
%TO.N,+3V3*%
X206434300Y-105819600D03*
%TO.P,U2,23,DVDD*%
%TO.N,+1V1*%
X206434300Y-105419600D03*
%TO.P,U2,24,SWCLK*%
%TO.N,/SWCLK*%
X206434300Y-105019600D03*
%TO.P,U2,25,SWD*%
%TO.N,/SWD*%
X206434300Y-104619600D03*
%TO.P,U2,26,RUN*%
%TO.N,/RUN*%
X206434300Y-104219600D03*
%TO.P,U2,27,GPIO16*%
%TO.N,unconnected-(U2-GPIO16-Pad27)*%
X206434300Y-103819600D03*
%TO.P,U2,28,GPIO17*%
%TO.N,unconnected-(U2-GPIO17-Pad28)*%
X206434300Y-103419600D03*
D27*
%TO.P,U2,29,GPIO18*%
%TO.N,unconnected-(U2-GPIO18-Pad29)*%
X205596800Y-102582100D03*
%TO.P,U2,30,GPIO19*%
%TO.N,unconnected-(U2-GPIO19-Pad30)*%
X205196800Y-102582100D03*
%TO.P,U2,31,GPIO20*%
%TO.N,unconnected-(U2-GPIO20-Pad31)*%
X204796800Y-102582100D03*
%TO.P,U2,32,GPIO21*%
%TO.N,unconnected-(U2-GPIO21-Pad32)*%
X204396800Y-102582100D03*
%TO.P,U2,33,IOVDD*%
%TO.N,+3V3*%
X203996800Y-102582100D03*
%TO.P,U2,34,GPIO22*%
%TO.N,unconnected-(U2-GPIO22-Pad34)*%
X203596800Y-102582100D03*
%TO.P,U2,35,GPIO23*%
%TO.N,unconnected-(U2-GPIO23-Pad35)*%
X203196800Y-102582100D03*
%TO.P,U2,36,GPIO24*%
%TO.N,unconnected-(U2-GPIO24-Pad36)*%
X202796800Y-102582100D03*
%TO.P,U2,37,GPIO25*%
%TO.N,unconnected-(U2-GPIO25-Pad37)*%
X202396800Y-102582100D03*
%TO.P,U2,38,GPIO26_ADC0*%
%TO.N,unconnected-(U2-GPIO26_ADC0-Pad38)*%
X201996800Y-102582100D03*
%TO.P,U2,39,GPIO27_ADC1*%
%TO.N,unconnected-(U2-GPIO27_ADC1-Pad39)*%
X201596800Y-102582100D03*
%TO.P,U2,40,GPIO28_ADC2*%
%TO.N,unconnected-(U2-GPIO28_ADC2-Pad40)*%
X201196800Y-102582100D03*
%TO.P,U2,41,GPIO29_ADC3*%
%TO.N,unconnected-(U2-GPIO29_ADC3-Pad41)*%
X200796800Y-102582100D03*
%TO.P,U2,42,IOVDD*%
%TO.N,+3V3*%
X200396800Y-102582100D03*
D28*
%TO.P,U2,43,ADC_AVDD*%
X199559300Y-103419600D03*
%TO.P,U2,44,VREG_IN*%
X199559300Y-103819600D03*
%TO.P,U2,45,VREG_VOUT*%
%TO.N,+1V1*%
X199559300Y-104219600D03*
%TO.P,U2,46,USB_DM*%
%TO.N,Net-(U2-USB_DM)*%
X199559300Y-104619600D03*
%TO.P,U2,47,USB_DP*%
%TO.N,Net-(U2-USB_DP)*%
X199559300Y-105019600D03*
%TO.P,U2,48,USB_VDD*%
%TO.N,+3V3*%
X199559300Y-105419600D03*
%TO.P,U2,49,IOVDD*%
X199559300Y-105819600D03*
%TO.P,U2,50,DVDD*%
%TO.N,+1V1*%
X199559300Y-106219600D03*
%TO.P,U2,51,QSPI_SD3*%
%TO.N,SIO3*%
X199559300Y-106619600D03*
%TO.P,U2,52,QSPI_SCLK*%
%TO.N,SCLK*%
X199559300Y-107019600D03*
%TO.P,U2,53,QSPI_SD0*%
%TO.N,SIO0*%
X199559300Y-107419600D03*
%TO.P,U2,54,QSPI_SD2*%
%TO.N,SIO2*%
X199559300Y-107819600D03*
%TO.P,U2,55,QSPI_SD1*%
%TO.N,SIO1*%
X199559300Y-108219600D03*
%TO.P,U2,56,QSPI_SS*%
%TO.N,USB_BOOT*%
X199559300Y-108619600D03*
D29*
%TO.P,U2,57,GND*%
%TO.N,GND*%
X202996800Y-106019600D03*
%TD*%
D30*
%TO.P,C4,1*%
%TO.N,+3V3*%
X197307200Y-100772000D03*
%TO.P,C4,2*%
%TO.N,GND*%
X197307200Y-98872000D03*
%TD*%
D11*
%TO.P,U5,1,NC*%
%TO.N,unconnected-(U5-NC-Pad1)*%
X208625400Y-139431000D03*
%TO.P,U5,2,IN_A*%
%TO.N,USB-DP-IN1*%
X208625400Y-140081000D03*
%TO.P,U5,3,GND*%
%TO.N,GND*%
X208625400Y-140731000D03*
%TO.P,U5,4,OUT_Y*%
%TO.N,GPIO_1*%
X210525400Y-140731000D03*
%TO.P,U5,5,VC*%
%TO.N,+3V3*%
X210525400Y-139431000D03*
%TD*%
D31*
%TO.P,J4,1,Pin_1*%
%TO.N,USB-DP-IN1*%
X204012800Y-139928600D03*
D32*
%TO.P,J4,2,Pin_2*%
%TO.N,USB-DM-IN0*%
X201472800Y-139928600D03*
%TO.P,J4,3,Pin_3*%
%TO.N,IN3*%
X204012800Y-137388600D03*
%TO.P,J4,4,Pin_4*%
%TO.N,IN2*%
X201472800Y-137388600D03*
%TO.P,J4,5,Pin_5*%
%TO.N,IN5*%
X204012800Y-134848600D03*
%TO.P,J4,6,Pin_6*%
%TO.N,IN4*%
X201472800Y-134848600D03*
%TO.P,J4,7,Pin_7*%
%TO.N,IN7*%
X204012800Y-132308600D03*
%TO.P,J4,8,Pin_8*%
%TO.N,IN6*%
X201472800Y-132308600D03*
%TO.P,J4,9,Pin_9*%
%TO.N,IN9*%
X204012800Y-129768600D03*
%TO.P,J4,10,Pin_10*%
%TO.N,IN8*%
X201472800Y-129768600D03*
%TO.P,J4,11,Pin_11*%
%TO.N,IN11*%
X204012800Y-127228600D03*
%TO.P,J4,12,Pin_12*%
%TO.N,IN10*%
X201472800Y-127228600D03*
%TO.P,J4,13,Pin_13*%
%TO.N,IN13*%
X204012800Y-124688600D03*
%TO.P,J4,14,Pin_14*%
%TO.N,IN12*%
X201472800Y-124688600D03*
%TO.P,J4,15,Pin_15*%
%TO.N,IN15*%
X204012800Y-122148600D03*
%TO.P,J4,16,Pin_16*%
%TO.N,IN14*%
X201472800Y-122148600D03*
%TO.P,J4,17,Pin_17*%
%TO.N,GND*%
X204012800Y-119608600D03*
%TO.P,J4,18,Pin_18*%
X201472800Y-119608600D03*
%TD*%
D33*
%TO.P,C9,1*%
%TO.N,GND*%
X200390200Y-100188700D03*
%TO.P,C9,2*%
%TO.N,+3V3*%
X200390200Y-101148700D03*
%TD*%
D34*
%TO.P,R11,1*%
%TO.N,Net-(J2-CC2)*%
X194925200Y-95955700D03*
%TO.P,R11,2*%
%TO.N,GND*%
X194925200Y-94130700D03*
%TD*%
D11*
%TO.P,U11,1,NC*%
%TO.N,unconnected-(U11-NC-Pad1)*%
X208661000Y-130868300D03*
%TO.P,U11,2,IN_A*%
%TO.N,IN7*%
X208661000Y-131518300D03*
%TO.P,U11,3,GND*%
%TO.N,GND*%
X208661000Y-132168300D03*
%TO.P,U11,4,OUT_Y*%
%TO.N,GPIO_7*%
X210561000Y-132168300D03*
%TO.P,U11,5,VC*%
%TO.N,+3V3*%
X210561000Y-130868300D03*
%TD*%
D35*
%TO.P,R10,1*%
%TO.N,GND*%
X205845400Y-150088600D03*
%TO.P,R10,2*%
%TO.N,Net-(J3-CC1)*%
X207670400Y-150088600D03*
%TD*%
D36*
%TO.P,J2,A1_B12,GND*%
%TO.N,GND*%
X205084800Y-95944000D03*
%TO.P,J2,A4_B9,VBUS*%
%TO.N,VBUS_PRE*%
X204284800Y-95944000D03*
D37*
%TO.P,J2,A5,CC1*%
%TO.N,Net-(J2-CC1)*%
X203134800Y-95944000D03*
%TO.P,J2,A6,DP1*%
%TO.N,RP_USB+*%
X202134800Y-95944000D03*
%TO.P,J2,A7,DN1*%
%TO.N,RP_USB-*%
X201634800Y-95944000D03*
%TO.P,J2,A8,SBU1*%
%TO.N,unconnected-(J2-SBU1-PadA8)*%
X200634800Y-95944000D03*
D36*
%TO.P,J2,B1_A12,GND*%
%TO.N,GND*%
X198684800Y-95944000D03*
%TO.P,J2,B4_A9,VBUS*%
%TO.N,VBUS_PRE*%
X199484800Y-95944000D03*
D37*
%TO.P,J2,B5,CC2*%
%TO.N,Net-(J2-CC2)*%
X200134800Y-95944000D03*
%TO.P,J2,B6,DP2*%
%TO.N,RP_USB+*%
X201134800Y-95944000D03*
%TO.P,J2,B7,DN2*%
%TO.N,RP_USB-*%
X202634800Y-95944000D03*
%TO.P,J2,B8,SBU2*%
%TO.N,unconnected-(J2-SBU2-PadB8)*%
X203634800Y-95944000D03*
D38*
%TO.P,J2,S1,SHELL_GND*%
%TO.N,GND*%
X206204800Y-95369000D03*
D39*
%TO.P,J2,S2,SHELL_GND*%
X206204800Y-91189000D03*
%TO.P,J2,S3,SHELL_GND*%
X197564800Y-91189000D03*
D38*
%TO.P,J2,S4,SHELL_GND*%
X197564800Y-95369000D03*
%TD*%
D11*
%TO.P,U18,1,NC*%
%TO.N,unconnected-(U18-NC-Pad1)*%
X208625000Y-128032340D03*
%TO.P,U18,2,IN_A*%
%TO.N,IN9*%
X208625000Y-128682340D03*
%TO.P,U18,3,GND*%
%TO.N,GND*%
X208625000Y-129332340D03*
%TO.P,U18,4,OUT_Y*%
%TO.N,GPIO_9*%
X210525000Y-129332340D03*
%TO.P,U18,5,VC*%
%TO.N,+3V3*%
X210525000Y-128032340D03*
%TD*%
D40*
%TO.P,R2,1*%
%TO.N,Net-(R2-Pad1)*%
X208035600Y-105327100D03*
%TO.P,R2,2*%
%TO.N,XTAL_OUT*%
X208035600Y-105967100D03*
%TD*%
D41*
%TO.P,C2,1*%
%TO.N,GND*%
X191287400Y-98872000D03*
%TO.P,C2,2*%
%TO.N,VBUS_SYS*%
X191287400Y-100772000D03*
%TD*%
D24*
%TO.P,R4,1*%
%TO.N,RP_USB+*%
X197380400Y-105054400D03*
%TO.P,R4,2*%
%TO.N,Net-(U2-USB_DP)*%
X198020400Y-105054400D03*
%TD*%
D26*
%TO.P,R3,1*%
%TO.N,+3V3*%
X208787400Y-104224700D03*
%TO.P,R3,2*%
%TO.N,/RUN*%
X208147400Y-104224700D03*
%TD*%
D10*
%TO.P,U13,1,NC*%
%TO.N,unconnected-(U13-NC-Pad1)*%
X196707800Y-120475100D03*
%TO.P,U13,2,IN_A*%
%TO.N,IN14*%
X196707800Y-119825100D03*
%TO.P,U13,3,GND*%
%TO.N,GND*%
X196707800Y-119175100D03*
%TO.P,U13,4,OUT_Y*%
%TO.N,GPIO_14*%
X194807800Y-119175100D03*
%TO.P,U13,5,VC*%
%TO.N,+3V3*%
X194807800Y-120475100D03*
%TD*%
D13*
%TO.P,R12,1*%
%TO.N,GND*%
X209123800Y-94206900D03*
%TO.P,R12,2*%
%TO.N,Net-(J2-CC1)*%
X209123800Y-96031900D03*
%TD*%
D11*
%TO.P,U12,1,NC*%
%TO.N,unconnected-(U12-NC-Pad1)*%
X208595000Y-119385800D03*
%TO.P,U12,2,IN_A*%
%TO.N,IN15*%
X208595000Y-120035800D03*
%TO.P,U12,3,GND*%
%TO.N,GND*%
X208595000Y-120685800D03*
%TO.P,U12,4,OUT_Y*%
%TO.N,GPIO_15*%
X210495000Y-120685800D03*
%TO.P,U12,5,VC*%
%TO.N,+3V3*%
X210495000Y-119385800D03*
%TD*%
D40*
%TO.P,R1,1*%
%TO.N,VBUS_SYS*%
X190754000Y-104480400D03*
%TO.P,R1,2*%
%TO.N,Net-(U1-EN)*%
X190754000Y-105120400D03*
%TD*%
D36*
%TO.P,J3,A1_B12,GND*%
%TO.N,GND*%
X206146800Y-152515200D03*
%TO.P,J3,A4_B9,VBUS*%
%TO.N,USB_VBUS*%
X206946800Y-152515200D03*
D37*
%TO.P,J3,A5,CC1*%
%TO.N,Net-(J3-CC1)*%
X208096800Y-152515200D03*
%TO.P,J3,A6,DP1*%
%TO.N,USB-DP*%
X209096800Y-152515200D03*
%TO.P,J3,A7,DN1*%
%TO.N,USB-DM*%
X209596800Y-152515200D03*
%TO.P,J3,A8,SBU1*%
%TO.N,unconnected-(J3-SBU1-PadA8)*%
X210596800Y-152515200D03*
D36*
%TO.P,J3,B1_A12,GND*%
%TO.N,GND*%
X212546800Y-152515200D03*
%TO.P,J3,B4_A9,VBUS*%
%TO.N,USB_VBUS*%
X211746800Y-152515200D03*
D37*
%TO.P,J3,B5,CC2*%
%TO.N,Net-(J3-CC2)*%
X211096800Y-152515200D03*
%TO.P,J3,B6,DP2*%
%TO.N,USB-DP*%
X210096800Y-152515200D03*
%TO.P,J3,B7,DN2*%
%TO.N,USB-DM*%
X208596800Y-152515200D03*
%TO.P,J3,B8,SBU2*%
%TO.N,unconnected-(J3-SBU2-PadB8)*%
X207596800Y-152515200D03*
D38*
%TO.P,J3,S1,SHELL_GND*%
%TO.N,GND*%
X205026800Y-153090200D03*
D39*
%TO.P,J3,S2,SHELL_GND*%
X205026800Y-157270200D03*
%TO.P,J3,S3,SHELL_GND*%
X213666800Y-157270200D03*
D38*
%TO.P,J3,S4,SHELL_GND*%
X213666800Y-153090200D03*
%TD*%
D42*
%TO.P,D2,1,K*%
%TO.N,VBUS_SYS*%
X191236600Y-97033400D03*
%TO.P,D2,2,A*%
%TO.N,VBUS_PRE*%
X191236600Y-94533400D03*
%TD*%
D18*
%TO.P,C6,1*%
%TO.N,+3V3*%
X203997000Y-101115700D03*
%TO.P,C6,2*%
%TO.N,GND*%
X203997000Y-100475700D03*
%TD*%
D26*
%TO.P,C3,1*%
%TO.N,GND*%
X191429600Y-105918000D03*
%TO.P,C3,2*%
%TO.N,Net-(U1-EN)*%
X190789600Y-105918000D03*
%TD*%
D43*
%TO.N,GND*%
X212140800Y-144805400D03*
X211531200Y-144297400D03*
X207314800Y-133502400D03*
X209727800Y-117703600D03*
X207137000Y-113458652D03*
X194691000Y-143459200D03*
X192354200Y-103987600D03*
X193878200Y-103149400D03*
X209600800Y-121488200D03*
X207670400Y-130606800D03*
X209550000Y-124383800D03*
X195808600Y-109855000D03*
X193548000Y-106095800D03*
X213334600Y-117195600D03*
X201549000Y-116611400D03*
X193903600Y-103987600D03*
X197434200Y-129844800D03*
X203581000Y-105384600D03*
X193954400Y-143916400D03*
X202285600Y-106680000D03*
X209245200Y-146685000D03*
X195783200Y-127025400D03*
X207492600Y-139039600D03*
X212750400Y-145338800D03*
X213004400Y-117805200D03*
X210337400Y-99796600D03*
X201777600Y-117322600D03*
X198374000Y-121056400D03*
X198704200Y-138861800D03*
X202996800Y-106019600D03*
X196088000Y-102819200D03*
X193979800Y-143002000D03*
X213741000Y-117779800D03*
X207492600Y-136118600D03*
X198399400Y-135915400D03*
X211048600Y-99822000D03*
X199440800Y-133273800D03*
X210693000Y-99212400D03*
D44*
X192786000Y-97332800D03*
D43*
X200964800Y-117119400D03*
X197891400Y-123596400D03*
X209626200Y-127228600D03*
X192252600Y-103047800D03*
D44*
%TO.N,+3V3*%
X211366100Y-117817900D03*
D43*
X198729600Y-105740200D03*
D44*
X195732400Y-101447600D03*
D43*
X205079600Y-101066600D03*
X205359000Y-106172000D03*
D44*
X191541400Y-117195600D03*
D43*
X204190600Y-111531400D03*
X192760600Y-108153200D03*
D44*
%TO.N,VBUS_PRE*%
X200101200Y-93497400D03*
X193316882Y-93280872D03*
%TO.N,USB_VBUS*%
X212598000Y-148361400D03*
X204427443Y-149642734D03*
D43*
%TO.N,USB-DM*%
X208286361Y-154391671D03*
X209600800Y-154457400D03*
%TO.N,USB-DP*%
X198932800Y-146278600D03*
X198780400Y-148742400D03*
%TO.N,RP_USB-*%
X201625200Y-98069400D03*
X196172487Y-104146444D03*
%TO.N,RP_USB+*%
X196164200Y-104927400D03*
X202234800Y-97510600D03*
X202234800Y-98806000D03*
%TO.N,GPIO_10*%
X205602191Y-114898441D03*
X195441600Y-125356440D03*
%TO.N,GPIO_3*%
X204136499Y-117353989D03*
X209767200Y-137699640D03*
%TO.N,GPIO_12*%
X207346659Y-115278883D03*
X195482970Y-122407170D03*
%TO.N,GPIO_14*%
X195507600Y-119590640D03*
X208571498Y-115882024D03*
%TO.N,GPIO_4*%
X195601600Y-133798060D03*
X201816954Y-113580412D03*
%TO.N,GPIO_13*%
X209788800Y-123251200D03*
X208098265Y-116568676D03*
%TO.N,GPIO_9*%
X206507347Y-116874959D03*
X209891200Y-128916800D03*
%TO.N,GPIO_8*%
X204317600Y-114477800D03*
X195441600Y-128202940D03*
%TO.N,GPIO_15*%
X209193197Y-115316000D03*
X209744400Y-120295660D03*
%TO.N,GPIO_11*%
X209861200Y-126137660D03*
X207340200Y-116890800D03*
%TO.N,GPIO_0*%
X195601600Y-139536760D03*
X199339200Y-112877600D03*
%TO.N,GPIO_6*%
X203059722Y-114035486D03*
X195601600Y-130856260D03*
%TO.N,GPIO_1*%
X209762800Y-140562340D03*
X203301382Y-117409664D03*
%TO.N,GPIO_2*%
X195611800Y-136266400D03*
X200611276Y-113179864D03*
%TO.N,GPIO_7*%
X209802800Y-131944240D03*
X205694982Y-116986235D03*
%TO.N,GPIO_5*%
X204959245Y-117310687D03*
X209752000Y-134853140D03*
%TD*%
D45*
%TO.N,GND*%
X197510400Y-98094800D02*
X197688200Y-97917000D01*
X206146800Y-152515200D02*
X205601800Y-152515200D01*
D46*
X193632200Y-104958800D02*
X193632200Y-106011600D01*
D45*
X205845400Y-150600400D02*
X205845400Y-150088600D01*
D46*
X197794400Y-136495000D02*
X198247000Y-136042400D01*
X192532000Y-106690200D02*
X192532000Y-106197400D01*
D45*
X197307200Y-98298000D02*
X197510400Y-98094800D01*
D46*
X197132000Y-103301800D02*
X196570600Y-103301800D01*
D45*
X204325500Y-153090200D02*
X202685000Y-151449700D01*
D46*
X208588600Y-123600940D02*
X208588600Y-123778000D01*
D45*
X204694200Y-153090200D02*
X203885800Y-153898600D01*
D46*
X196238700Y-119175100D02*
X195834000Y-118770400D01*
X209856700Y-147956900D02*
X209473800Y-147574000D01*
X191795400Y-106629200D02*
X191922400Y-106629200D01*
D45*
X198139800Y-95944000D02*
X197564800Y-95369000D01*
D46*
X194925200Y-94130700D02*
X194032300Y-94130700D01*
X207543400Y-136067800D02*
X207492600Y-136118600D01*
X207340200Y-133426200D02*
X207340200Y-133553200D01*
X207807800Y-140731000D02*
X207619600Y-140919200D01*
D45*
X213091800Y-152515200D02*
X213666800Y-153090200D01*
D46*
X198223300Y-139368100D02*
X198704200Y-138887200D01*
X192763600Y-103558800D02*
X192252600Y-103047800D01*
X196570600Y-103301800D02*
X196088000Y-102819200D01*
D45*
X205845400Y-150088600D02*
X205845400Y-149203400D01*
D46*
X192811400Y-105918000D02*
X193370200Y-105918000D01*
D45*
X212546800Y-152515200D02*
X213091800Y-152515200D01*
X205181200Y-148539200D02*
X203377800Y-148539200D01*
D46*
X191429600Y-106263400D02*
X191795400Y-106629200D01*
X197891400Y-124180600D02*
X197156500Y-124915500D01*
X208595000Y-120685800D02*
X208798400Y-120685800D01*
X191738200Y-108225200D02*
X190938200Y-108225200D01*
X197891400Y-123596400D02*
X197891400Y-124180600D01*
X194032300Y-94130700D02*
X193471800Y-94691200D01*
X197388000Y-133624800D02*
X197662800Y-133350000D01*
X203997000Y-100475700D02*
X203396500Y-100475700D01*
X193132200Y-102158800D02*
X193132200Y-103558800D01*
D45*
X205084800Y-95944000D02*
X205629800Y-95944000D01*
X203377800Y-148539200D02*
X202971400Y-148539200D01*
D46*
X197119800Y-102302700D02*
X197119800Y-103289600D01*
X208013900Y-132168300D02*
X207645000Y-132537200D01*
X196743400Y-130657600D02*
X196743400Y-130535600D01*
X210845400Y-147956900D02*
X209856700Y-147956900D01*
X193468800Y-103558800D02*
X193878200Y-103149400D01*
D45*
X205409800Y-148767800D02*
X205181200Y-148539200D01*
D46*
X207340200Y-132842000D02*
X207340200Y-133426200D01*
X195783200Y-127025400D02*
X195945800Y-127025400D01*
X197360600Y-110744000D02*
X197053200Y-110744000D01*
X193827400Y-105816400D02*
X193548000Y-106095800D01*
X206434300Y-107019600D02*
X203996800Y-107019600D01*
X193632200Y-104958800D02*
X193632200Y-104259000D01*
X196903400Y-105816400D02*
X195122800Y-105816400D01*
D45*
X205026800Y-153090200D02*
X204694200Y-153090200D01*
D46*
X203996800Y-107019600D02*
X202996800Y-106019600D01*
X208620400Y-135036800D02*
X207787000Y-135036800D01*
X207721200Y-138023600D02*
X207492600Y-138252200D01*
X193632200Y-106011600D02*
X193548000Y-106095800D01*
X208635600Y-126517400D02*
X208635600Y-126974600D01*
X208798400Y-120685800D02*
X209600800Y-121488200D01*
X191429600Y-105918000D02*
X191429600Y-106263400D01*
D45*
X197688200Y-97917000D02*
X198856600Y-97917000D01*
D46*
X197387970Y-122042430D02*
X198374000Y-121056400D01*
X208635600Y-137857900D02*
X207886900Y-137857900D01*
X202996800Y-106019600D02*
X203581000Y-105435400D01*
D45*
X202971400Y-148539200D02*
X202615800Y-148894800D01*
D46*
X208625400Y-140731000D02*
X207807800Y-140731000D01*
X196707800Y-119175100D02*
X196238700Y-119175100D01*
X207645000Y-129895600D02*
X207645000Y-130556000D01*
D45*
X204012800Y-119608600D02*
X201472800Y-119608600D01*
D46*
X191429600Y-105918000D02*
X192811400Y-105918000D01*
X193132200Y-103558800D02*
X192763600Y-103558800D01*
X193632200Y-104259000D02*
X193903600Y-103987600D01*
X197918500Y-119175100D02*
X198247000Y-118846600D01*
X203581000Y-105435400D02*
X203581000Y-105384600D01*
X208208260Y-129332340D02*
X207772000Y-129768600D01*
X207772000Y-129768600D02*
X207645000Y-129895600D01*
X197119800Y-103289600D02*
X197132000Y-103301800D01*
X193132200Y-103558800D02*
X192783000Y-103558800D01*
X193370200Y-105918000D02*
X193548000Y-106095800D01*
X208889600Y-127228600D02*
X209626200Y-127228600D01*
X196733200Y-139368100D02*
X198223300Y-139368100D01*
X196697600Y-111379000D02*
X196672200Y-111404400D01*
X191983400Y-106690200D02*
X192532000Y-106690200D01*
X209042000Y-124231400D02*
X209194400Y-124383800D01*
X196707800Y-119175100D02*
X197918500Y-119175100D01*
X195694000Y-109740400D02*
X195808600Y-109855000D01*
X197053200Y-110744000D02*
X196697600Y-111099600D01*
D45*
X198684800Y-95944000D02*
X198139800Y-95944000D01*
D46*
X208588600Y-123778000D02*
X209042000Y-124231400D01*
D45*
X191287400Y-98872000D02*
X192786000Y-97373400D01*
D46*
X207886900Y-137857900D02*
X207721200Y-138023600D01*
X197156500Y-124915500D02*
X196707800Y-124915500D01*
X191922400Y-106629200D02*
X191983400Y-106690200D01*
X207787000Y-135036800D02*
X207543400Y-135280400D01*
X208762600Y-127101600D02*
X208889600Y-127228600D01*
X196698370Y-122042430D02*
X197387970Y-122042430D01*
X208635600Y-126974600D02*
X208762600Y-127101600D01*
X193132200Y-103558800D02*
X193474800Y-103558800D01*
X208661000Y-132168300D02*
X208013900Y-132168300D01*
X208625000Y-129332340D02*
X208208260Y-129332340D01*
D45*
X192786000Y-97373400D02*
X192786000Y-97332800D01*
X205629800Y-95944000D02*
X206204800Y-95369000D01*
D46*
X193474800Y-103558800D02*
X193903600Y-103987600D01*
X196743400Y-130535600D02*
X197434200Y-129844800D01*
X192783000Y-103558800D02*
X192354200Y-103987600D01*
X196743400Y-133624800D02*
X197388000Y-133624800D01*
X207645000Y-132537200D02*
X207340200Y-132842000D01*
D45*
X197307200Y-98872000D02*
X197307200Y-98298000D01*
D46*
X207492600Y-138252200D02*
X207492600Y-139039600D01*
X196743400Y-136495000D02*
X197794400Y-136495000D01*
X209194400Y-124383800D02*
X209550000Y-124383800D01*
X197030400Y-105943400D02*
X196903400Y-105816400D01*
X202996800Y-106019600D02*
X202946000Y-106019600D01*
D45*
X205026800Y-153090200D02*
X204325500Y-153090200D01*
D46*
X203396500Y-100475700D02*
X203377800Y-100457000D01*
X195122800Y-105816400D02*
X193827400Y-105816400D01*
X196697600Y-111099600D02*
X196697600Y-111379000D01*
X193132200Y-103558800D02*
X193468800Y-103558800D01*
X195945800Y-127025400D02*
X196707800Y-127787400D01*
X192532000Y-106197400D02*
X192811400Y-105918000D01*
X207543400Y-135280400D02*
X207543400Y-136067800D01*
D45*
X205601800Y-152515200D02*
X205026800Y-153090200D01*
D46*
X194911600Y-109740400D02*
X195694000Y-109740400D01*
D45*
X205845400Y-149203400D02*
X205409800Y-148767800D01*
D46*
X202946000Y-106019600D02*
X202285600Y-106680000D01*
D47*
%TO.N,VBUS_SYS*%
X191236600Y-97033400D02*
X190062800Y-97033400D01*
D46*
X190754000Y-104480400D02*
X190754000Y-102260400D01*
D45*
X191598488Y-102038088D02*
X192076355Y-102038088D01*
D47*
X190062800Y-97033400D02*
X189407800Y-97688400D01*
X190027600Y-100772000D02*
X191287400Y-100772000D01*
D46*
X190754000Y-102260400D02*
X191287400Y-101727000D01*
D45*
X191287400Y-100772000D02*
X191287400Y-101727000D01*
X191287400Y-101727000D02*
X191598488Y-102038088D01*
D47*
X189407800Y-100152200D02*
X190027600Y-100772000D01*
X189407800Y-97688400D02*
X189407800Y-100152200D01*
D46*
%TO.N,Net-(U1-EN)*%
X190789600Y-105918000D02*
X190789600Y-105156000D01*
X190789600Y-105156000D02*
X190754000Y-105120400D01*
X193132200Y-104958800D02*
X192632200Y-104958800D01*
X191450000Y-105120400D02*
X190754000Y-105120400D01*
X191611600Y-104958800D02*
X191450000Y-105120400D01*
X192132200Y-104958800D02*
X191611600Y-104958800D01*
X192632200Y-104958800D02*
X192132200Y-104958800D01*
%TO.N,+3V3*%
X211038200Y-139431000D02*
X211277200Y-139192000D01*
X198526400Y-105943400D02*
X198729600Y-105740200D01*
X203996800Y-101115900D02*
X203997000Y-101115700D01*
X194335400Y-134924800D02*
X193649600Y-134239000D01*
X203996800Y-102582100D02*
X203996800Y-101115900D01*
X194843400Y-131957600D02*
X194365400Y-131957600D01*
X195300600Y-102197820D02*
X195141390Y-102038610D01*
X194335400Y-137795000D02*
X193649600Y-137109200D01*
X199050200Y-105419600D02*
X199559300Y-105419600D01*
X210749600Y-119385800D02*
X211277200Y-119913400D01*
D45*
X195732400Y-101447600D02*
X195141390Y-102038610D01*
D46*
X211277200Y-124475800D02*
X211277200Y-122021600D01*
X210930660Y-128032340D02*
X211277200Y-127685800D01*
X193649600Y-125057300D02*
X193649600Y-122193660D01*
X203996800Y-109457100D02*
X203996800Y-108721400D01*
X198729600Y-105740200D02*
X199050200Y-105419600D01*
X193649600Y-134239000D02*
X193649600Y-133731000D01*
X207416400Y-104978200D02*
X207670400Y-104724200D01*
X193649600Y-122193660D02*
X193649600Y-120015000D01*
X193649600Y-128295400D02*
X193649600Y-127929200D01*
X211277200Y-133400800D02*
X211277200Y-132980000D01*
X193649600Y-136601200D02*
X193649600Y-133731000D01*
X194843400Y-134924800D02*
X194335400Y-134924800D01*
X200390200Y-101148700D02*
X200390200Y-102575500D01*
X207670400Y-104724200D02*
X208584800Y-104724200D01*
X194109700Y-120475100D02*
X193802000Y-120167400D01*
X211277200Y-139192000D02*
X211277200Y-135813800D01*
X194807800Y-120475100D02*
X194109700Y-120475100D01*
X192252600Y-117195600D02*
X191541400Y-117195600D01*
X199559300Y-103819600D02*
X199018800Y-103819600D01*
X198416300Y-102302700D02*
X198079800Y-102302700D01*
X210997860Y-122300940D02*
X210488600Y-122300940D01*
X211277200Y-132980000D02*
X211277200Y-130152100D01*
D45*
X197307200Y-100772000D02*
X198079800Y-101544600D01*
D46*
X211277200Y-124815600D02*
X211277200Y-124475800D01*
X211277200Y-136194800D02*
X211277200Y-135813800D01*
X211277200Y-130556000D02*
X211277200Y-130152100D01*
X199847200Y-110744000D02*
X198320600Y-110744000D01*
X194365400Y-131957600D02*
X193649600Y-131241800D01*
X193401400Y-107330200D02*
X192532000Y-107330200D01*
X210561000Y-130868300D02*
X210964900Y-130868300D01*
X199559300Y-105819600D02*
X198809000Y-105819600D01*
X210525000Y-128032340D02*
X210930660Y-128032340D01*
X198729600Y-102616000D02*
X200362900Y-102616000D01*
X203997000Y-101115700D02*
X205030500Y-101115700D01*
X194439900Y-140668100D02*
X193649600Y-139877800D01*
X193649600Y-130763800D02*
X193649600Y-127929200D01*
X200396800Y-110194400D02*
X199847200Y-110744000D01*
X210525400Y-139431000D02*
X211038200Y-139431000D01*
X211277200Y-119913400D02*
X211277200Y-119964200D01*
X193649600Y-125450600D02*
X193649600Y-125057300D01*
X194414500Y-126215500D02*
X193649600Y-125450600D01*
X198729600Y-103530400D02*
X198729600Y-103098600D01*
X193649600Y-120015000D02*
X193649600Y-118592600D01*
X211277200Y-135813800D02*
X211277200Y-132980000D01*
X197990400Y-105943400D02*
X198526400Y-105943400D01*
X193411600Y-107340400D02*
X193401400Y-107330200D01*
X200396800Y-108695800D02*
X200396800Y-109457100D01*
X194807800Y-129087400D02*
X194441600Y-129087400D01*
X193649600Y-139877800D02*
X193649600Y-136601200D01*
X203996800Y-109457100D02*
X203996800Y-111337600D01*
X193649600Y-122707400D02*
X193649600Y-122193660D01*
X193649600Y-133731000D02*
X193649600Y-130763800D01*
X194964400Y-104958800D02*
X195300600Y-104622600D01*
X205030500Y-101115700D02*
X205079600Y-101066600D01*
X194798370Y-123342430D02*
X194284630Y-123342430D01*
X207184600Y-105819600D02*
X207416400Y-105587800D01*
X192532000Y-107924600D02*
X192760600Y-108153200D01*
X200396800Y-109457100D02*
X200396800Y-110194400D01*
X211277200Y-117906800D02*
X211277200Y-119964200D01*
X210535600Y-136557900D02*
X210914100Y-136557900D01*
D45*
X196408000Y-100772000D02*
X195732400Y-101447600D01*
D46*
X198809000Y-105819600D02*
X198729600Y-105740200D01*
X192532000Y-107330200D02*
X192532000Y-107924600D01*
X211277200Y-130152100D02*
X211277200Y-127280140D01*
X211277200Y-122021600D02*
X210997860Y-122300940D01*
X210941200Y-133736800D02*
X211277200Y-133400800D01*
X194284630Y-123342430D02*
X193649600Y-122707400D01*
X198729600Y-102616000D02*
X198416300Y-102302700D01*
X193649600Y-118592600D02*
X192252600Y-117195600D01*
D45*
X195141390Y-102038610D02*
X194189708Y-102038610D01*
D46*
X207416400Y-105587800D02*
X207416400Y-104978200D01*
X210520400Y-133736800D02*
X210941200Y-133736800D01*
D45*
X198079800Y-101544600D02*
X198079800Y-102302700D01*
D46*
X199050600Y-103419600D02*
X198729600Y-103098600D01*
X210495000Y-119385800D02*
X210749600Y-119385800D01*
X195300600Y-104622600D02*
X195300600Y-102197820D01*
X211277200Y-127685800D02*
X211277200Y-127280140D01*
X198729600Y-103098600D02*
X198729600Y-102616000D01*
X211277200Y-119964200D02*
X211277200Y-122021600D01*
X194807800Y-126215500D02*
X194414500Y-126215500D01*
X203733400Y-108458000D02*
X200634600Y-108458000D01*
X194843400Y-137795000D02*
X194335400Y-137795000D01*
X194441600Y-129087400D02*
X193649600Y-128295400D01*
X194833200Y-140668100D02*
X194439900Y-140668100D01*
X203996800Y-108721400D02*
X203733400Y-108458000D01*
X203996800Y-111337600D02*
X204190600Y-111531400D01*
X206434300Y-105819600D02*
X205711400Y-105819600D01*
X199018800Y-103819600D02*
X198729600Y-103530400D01*
X210914100Y-136557900D02*
X211277200Y-136194800D01*
X210964900Y-130868300D02*
X211277200Y-130556000D01*
X200362900Y-102616000D02*
X200396800Y-102582100D01*
D45*
X197307200Y-100772000D02*
X196408000Y-100772000D01*
D46*
X208584800Y-104724200D02*
X208787400Y-104521600D01*
X200634600Y-108458000D02*
X200396800Y-108695800D01*
X210875400Y-125217400D02*
X211277200Y-124815600D01*
X194132200Y-104958800D02*
X194964400Y-104958800D01*
X208787400Y-104521600D02*
X208787400Y-104224700D01*
X211277200Y-127280140D02*
X211277200Y-124475800D01*
X193649600Y-127929200D02*
X193649600Y-125057300D01*
X205711400Y-105819600D02*
X205359000Y-106172000D01*
X211366100Y-117817900D02*
X211277200Y-117906800D01*
X210535600Y-125217400D02*
X210875400Y-125217400D01*
X193802000Y-120167400D02*
X193649600Y-120015000D01*
X193649600Y-131241800D02*
X193649600Y-130763800D01*
X193649600Y-137109200D02*
X193649600Y-136601200D01*
X206434300Y-105819600D02*
X207184600Y-105819600D01*
X200390200Y-102575500D02*
X200396800Y-102582100D01*
X199559300Y-103419600D02*
X199050600Y-103419600D01*
%TO.N,+1V1*%
X200765000Y-104114600D02*
X204851000Y-104114600D01*
X204851000Y-104114600D02*
X205359000Y-104622600D01*
X205359000Y-105156000D02*
X205622600Y-105419600D01*
X200714200Y-104219600D02*
X200660000Y-104219600D01*
X200660000Y-104219600D02*
X199559300Y-104219600D01*
X200764800Y-106219600D02*
X201117200Y-105867200D01*
X198092000Y-103502400D02*
X198092000Y-103301800D01*
X200660000Y-104219600D02*
X200765000Y-104114600D01*
X205359000Y-104622600D02*
X205359000Y-105156000D01*
X198809200Y-104219600D02*
X198092000Y-103502400D01*
X199559300Y-104219600D02*
X198809200Y-104219600D01*
X199559300Y-106219600D02*
X200764800Y-106219600D01*
X205622600Y-105419600D02*
X206434300Y-105419600D01*
X201117200Y-104622600D02*
X200714200Y-104219600D01*
X201117200Y-105867200D02*
X201117200Y-104622600D01*
D47*
%TO.N,VBUS_PRE*%
X193231128Y-93280872D02*
X191978600Y-94533400D01*
D45*
X204284800Y-95944000D02*
X204284800Y-95331165D01*
X200101200Y-94694083D02*
X200101200Y-93497400D01*
X203647718Y-94694083D02*
X200101200Y-94694083D01*
D47*
X193316882Y-93280872D02*
X193231128Y-93280872D01*
X191978600Y-94533400D02*
X191236600Y-94533400D01*
D45*
X199484800Y-95944000D02*
X199484800Y-95310483D01*
X199484800Y-95310483D02*
X200101200Y-94694083D01*
X204284800Y-95331165D02*
X203647718Y-94694083D01*
%TO.N,USB_VBUS*%
X206946800Y-151803400D02*
X206946800Y-152515200D01*
X204724000Y-150876000D02*
X205054200Y-151206200D01*
X211746800Y-151397000D02*
X212598000Y-150545800D01*
X211746800Y-152515200D02*
X211746800Y-151397000D01*
X212598000Y-150545800D02*
X212598000Y-148361400D01*
X212799300Y-148562700D02*
X212598000Y-148361400D01*
X206349600Y-151206200D02*
X206946800Y-151803400D01*
X204724000Y-149939291D02*
X204724000Y-150876000D01*
X205054200Y-151206200D02*
X206349600Y-151206200D01*
X204427443Y-149642734D02*
X204724000Y-149939291D01*
D46*
%TO.N,USB-DM*%
X208286361Y-154391671D02*
X208286361Y-154044639D01*
D45*
X195215000Y-148701000D02*
X196621400Y-147294600D01*
X196621400Y-147294600D02*
X196951600Y-147294600D01*
D46*
X209596800Y-154453400D02*
X209600800Y-154457400D01*
D45*
X195215000Y-149906500D02*
X195215000Y-148701000D01*
X196951600Y-147294600D02*
X207899000Y-147294600D01*
D46*
X209596800Y-148992400D02*
X209596800Y-152515200D01*
X208286361Y-154044639D02*
X208596800Y-153734200D01*
X209596800Y-152515200D02*
X209596800Y-154453400D01*
X209219800Y-148615400D02*
X209596800Y-148992400D01*
X208596800Y-153734200D02*
X208596800Y-152515200D01*
D45*
X196951600Y-146253200D02*
X196951600Y-147294600D01*
X207899000Y-147294600D02*
X209219800Y-148615400D01*
D46*
%TO.N,USB-DP*%
X209245200Y-155092400D02*
X209956400Y-155092400D01*
X209096800Y-154021600D02*
X208915000Y-154203400D01*
X209096800Y-149305200D02*
X208584800Y-148793200D01*
D45*
X198297800Y-147904200D02*
X197215000Y-148987000D01*
D46*
X210096800Y-154013600D02*
X210096800Y-152515200D01*
X210286600Y-154762200D02*
X210286600Y-154203400D01*
D45*
X198932800Y-148590000D02*
X198932800Y-147980400D01*
X208584800Y-148793200D02*
X207695800Y-147904200D01*
D46*
X210286600Y-154203400D02*
X210096800Y-154013600D01*
X209096800Y-152515200D02*
X209096800Y-154021600D01*
X198932800Y-146251300D02*
X198932800Y-146278600D01*
D45*
X198780400Y-148742400D02*
X198932800Y-148590000D01*
X207695800Y-147904200D02*
X198297800Y-147904200D01*
X197215000Y-148987000D02*
X197215000Y-149906500D01*
D46*
X208915000Y-154203400D02*
X208915000Y-154762200D01*
X209096800Y-152515200D02*
X209096800Y-149305200D01*
X209956400Y-155092400D02*
X210286600Y-154762200D01*
X208915000Y-154762200D02*
X209245200Y-155092400D01*
%TO.N,Net-(J2-CC1)*%
X203134800Y-96810400D02*
X203479400Y-97155000D01*
X209123800Y-96692200D02*
X209123800Y-96031900D01*
X203479400Y-97155000D02*
X208661000Y-97155000D01*
X208661000Y-97155000D02*
X209123800Y-96692200D01*
X203134800Y-95944000D02*
X203134800Y-96810400D01*
%TO.N,Net-(J2-CC2)*%
X195326000Y-97129600D02*
X194925200Y-96728800D01*
X200134800Y-96791200D02*
X199796400Y-97129600D01*
X200134800Y-95944000D02*
X200134800Y-96791200D01*
X199796400Y-97129600D02*
X195326000Y-97129600D01*
X194925200Y-96728800D02*
X194925200Y-95955700D01*
%TO.N,RP_USB-*%
X201634800Y-98059800D02*
X201625200Y-98069400D01*
X202844400Y-97155000D02*
X202844400Y-97764600D01*
X201726800Y-98171000D02*
X201625200Y-98069400D01*
X196318443Y-104292400D02*
X197380400Y-104292400D01*
X202438000Y-98171000D02*
X201726800Y-98171000D01*
X202844400Y-97764600D02*
X202438000Y-98171000D01*
X202634800Y-95944000D02*
X202634800Y-96945400D01*
X202634800Y-96945400D02*
X202844400Y-97155000D01*
X196172487Y-104146444D02*
X196318443Y-104292400D01*
X201634800Y-95944000D02*
X201634800Y-98059800D01*
%TO.N,RP_USB+*%
X202134800Y-97410600D02*
X202234800Y-97510600D01*
X202133200Y-98704400D02*
X201396600Y-98704400D01*
X197253400Y-104927400D02*
X197380400Y-105054400D01*
X201396600Y-98704400D02*
X201015600Y-98323400D01*
X196164200Y-104927400D02*
X197253400Y-104927400D01*
X201015600Y-97739200D02*
X201134800Y-97620000D01*
X201015600Y-98323400D02*
X201015600Y-97739200D01*
X201134800Y-97620000D02*
X201134800Y-95944000D01*
X202134800Y-95944000D02*
X202134800Y-97410600D01*
X202234800Y-98806000D02*
X202133200Y-98704400D01*
%TO.N,Net-(J3-CC2)*%
X210845400Y-149985100D02*
X210845400Y-149781900D01*
X210845400Y-149781900D02*
X211096800Y-150033300D01*
X210974300Y-150114000D02*
X210845400Y-149985100D01*
X211096800Y-150033300D02*
X211096800Y-152515200D01*
%TO.N,Net-(J3-CC1)*%
X208096800Y-150515000D02*
X208096800Y-152515200D01*
X207670400Y-150088600D02*
X208096800Y-150515000D01*
D45*
%TO.N,IN11*%
X208635600Y-125867400D02*
X205374000Y-125867400D01*
X205374000Y-125867400D02*
X204012800Y-127228600D01*
%TO.N,IN2*%
X196743400Y-137145000D02*
X201229200Y-137145000D01*
X201229200Y-137145000D02*
X201472800Y-137388600D01*
%TO.N,USB-DM-IN0*%
X200837800Y-142163800D02*
X201472800Y-141528800D01*
X196951600Y-144428200D02*
X196951600Y-143738600D01*
X201383300Y-140018100D02*
X201472800Y-139928600D01*
X196733200Y-140018100D02*
X201383300Y-140018100D01*
X201472800Y-141528800D02*
X201472800Y-139928600D01*
X198526400Y-142163800D02*
X200837800Y-142163800D01*
X196951600Y-143738600D02*
X198526400Y-142163800D01*
%TO.N,IN13*%
X208588600Y-122950940D02*
X205750460Y-122950940D01*
X205750460Y-122950940D02*
X204012800Y-124688600D01*
%TO.N,IN7*%
X208661000Y-131518300D02*
X204803100Y-131518300D01*
X204803100Y-131518300D02*
X204012800Y-132308600D01*
%TO.N,IN9*%
X205099060Y-128682340D02*
X204012800Y-129768600D01*
X208625000Y-128682340D02*
X205099060Y-128682340D01*
%TO.N,IN5*%
X208620400Y-134386800D02*
X204474600Y-134386800D01*
X204474600Y-134386800D02*
X204012800Y-134848600D01*
%TO.N,IN12*%
X196698370Y-122692430D02*
X199476630Y-122692430D01*
X199476630Y-122692430D02*
X201472800Y-124688600D01*
%TO.N,USB-DP-IN1*%
X198932800Y-144426300D02*
X198932800Y-143764000D01*
X198932800Y-143764000D02*
X199898000Y-142798800D01*
X204165200Y-140081000D02*
X204012800Y-139928600D01*
X208625400Y-140081000D02*
X204165200Y-140081000D01*
X203022200Y-142798800D02*
X204012800Y-141808200D01*
X204012800Y-141808200D02*
X204012800Y-139928600D01*
X199898000Y-142798800D02*
X203022200Y-142798800D01*
%TO.N,IN15*%
X206125600Y-120035800D02*
X208595000Y-120035800D01*
X204012800Y-122148600D02*
X206125600Y-120035800D01*
%TO.N,IN10*%
X196707800Y-125565500D02*
X199809700Y-125565500D01*
X199809700Y-125565500D02*
X201472800Y-127228600D01*
%TO.N,IN14*%
X196707800Y-119825100D02*
X199149300Y-119825100D01*
X199149300Y-119825100D02*
X201472800Y-122148600D01*
%TO.N,IN4*%
X200899000Y-134274800D02*
X201472800Y-134848600D01*
X196743400Y-134274800D02*
X200899000Y-134274800D01*
%TO.N,IN6*%
X200471800Y-131307600D02*
X201472800Y-132308600D01*
X196743400Y-131307600D02*
X200471800Y-131307600D01*
%TO.N,IN8*%
X200141600Y-128437400D02*
X201472800Y-129768600D01*
X196707800Y-128437400D02*
X200141600Y-128437400D01*
%TO.N,IN3*%
X208635600Y-137207900D02*
X204193500Y-137207900D01*
X204193500Y-137207900D02*
X204012800Y-137388600D01*
D46*
%TO.N,Net-(U1-L1)*%
X192632200Y-101296600D02*
X193209600Y-100719200D01*
X193209600Y-100719200D02*
X193209600Y-99466400D01*
X192632200Y-102158800D02*
X192632200Y-101296600D01*
%TO.N,Net-(U1-L2)*%
X195359600Y-100575800D02*
X195359600Y-99466400D01*
X194487800Y-101015800D02*
X194919600Y-101015800D01*
X193632200Y-102158800D02*
X193632200Y-101871400D01*
X193632200Y-101871400D02*
X194487800Y-101015800D01*
X194919600Y-101015800D02*
X195359600Y-100575800D01*
%TO.N,XTAL_OUT*%
X206434300Y-106219600D02*
X207783100Y-106219600D01*
X207783100Y-106219600D02*
X208035600Y-105967100D01*
%TO.N,Net-(R2-Pad1)*%
X210531600Y-105327100D02*
X210540600Y-105336100D01*
X208035600Y-105327100D02*
X210531600Y-105327100D01*
%TO.N,/RUN*%
X208142300Y-104219600D02*
X208147400Y-104224700D01*
X206434300Y-104219600D02*
X208142300Y-104219600D01*
%TO.N,Net-(U2-USB_DP)*%
X199559300Y-105019600D02*
X198055200Y-105019600D01*
X198055200Y-105019600D02*
X198020400Y-105054400D01*
%TO.N,Net-(U2-USB_DM)*%
X198574200Y-104619600D02*
X199559300Y-104619600D01*
X198020400Y-104292400D02*
X198247000Y-104292400D01*
X198247000Y-104292400D02*
X198574200Y-104619600D01*
%TO.N,Net-(U3-{slash}CS)*%
X193411600Y-109740400D02*
X193411600Y-110546600D01*
X193411600Y-110546600D02*
X193939200Y-111074200D01*
%TO.N,USB_BOOT*%
X191738200Y-110875200D02*
X192510800Y-110875200D01*
X197965286Y-108619600D02*
X199559300Y-108619600D01*
X196875400Y-109709486D02*
X197965286Y-108619600D01*
X192510800Y-110875200D02*
X193395600Y-111760000D01*
X196062600Y-111074200D02*
X196875400Y-110261400D01*
X194579200Y-111617800D02*
X194579200Y-111074200D01*
X190938200Y-110875200D02*
X191738200Y-110875200D01*
X194437000Y-111760000D02*
X194579200Y-111617800D01*
X194579200Y-111074200D02*
X196062600Y-111074200D01*
X196875400Y-110261400D02*
X196875400Y-109709486D01*
X193395600Y-111760000D02*
X194437000Y-111760000D01*
%TO.N,GPIO_10*%
X194807800Y-124915500D02*
X195000660Y-124915500D01*
X205740000Y-110972600D02*
X205196800Y-110429400D01*
X205602191Y-114898441D02*
X205740000Y-114760632D01*
X205740000Y-114760632D02*
X205740000Y-110972600D01*
X205196800Y-110429400D02*
X205196800Y-109457100D01*
X195000660Y-124915500D02*
X195441600Y-125356440D01*
%TO.N,SCLK*%
X199559300Y-107019600D02*
X196300600Y-107019600D01*
X194411600Y-106857800D02*
X194411600Y-107340400D01*
X194640200Y-106629200D02*
X194411600Y-106857800D01*
X196300600Y-107019600D02*
X195910200Y-106629200D01*
X195910200Y-106629200D02*
X194640200Y-106629200D01*
%TO.N,GPIO_3*%
X201216954Y-114272754D02*
X201216954Y-113260446D01*
X204136499Y-117353989D02*
X204136499Y-117192299D01*
X201216954Y-113260446D02*
X201996800Y-112480600D01*
X204136499Y-117192299D02*
X201216954Y-114272754D01*
X210535600Y-137857900D02*
X209925460Y-137857900D01*
X209925460Y-137857900D02*
X209767200Y-137699640D01*
X201996800Y-112480600D02*
X201996800Y-109457100D01*
%TO.N,GPIO_12*%
X207949800Y-109626400D02*
X206943000Y-108619600D01*
X207949800Y-114452400D02*
X207949800Y-109626400D01*
X206943000Y-108619600D02*
X206434300Y-108619600D01*
X207346659Y-115055541D02*
X207949800Y-114452400D01*
X207346659Y-115278883D02*
X207346659Y-115055541D01*
X194798370Y-122042430D02*
X195118230Y-122042430D01*
X195118230Y-122042430D02*
X195482970Y-122407170D01*
%TO.N,GPIO_14*%
X208737200Y-109067600D02*
X207489200Y-107819600D01*
X194807800Y-119175100D02*
X195092060Y-119175100D01*
X195092060Y-119175100D02*
X195507600Y-119590640D01*
X208559400Y-115869926D02*
X208559400Y-115011200D01*
X208559400Y-115011200D02*
X208737200Y-114833400D01*
X207489200Y-107819600D02*
X206434300Y-107819600D01*
X208571498Y-115882024D02*
X208559400Y-115869926D01*
X208737200Y-114833400D02*
X208737200Y-109067600D01*
%TO.N,GPIO_4*%
X202039988Y-113580412D02*
X201816954Y-113580412D01*
X195428340Y-133624800D02*
X195601600Y-133798060D01*
X202396800Y-113223600D02*
X202039988Y-113580412D01*
X194843400Y-133624800D02*
X195428340Y-133624800D01*
X202396800Y-109457100D02*
X202396800Y-113223600D01*
%TO.N,GPIO_13*%
X207949800Y-115062000D02*
X208356200Y-114655600D01*
X207949800Y-116420211D02*
X207949800Y-115062000D01*
X207323514Y-108219600D02*
X206434300Y-108219600D01*
X210488600Y-123600940D02*
X210138540Y-123600940D01*
X208356200Y-109252286D02*
X207323514Y-108219600D01*
X208098265Y-116568676D02*
X207949800Y-116420211D01*
X208356200Y-114655600D02*
X208356200Y-109252286D01*
X210138540Y-123600940D02*
X209788800Y-123251200D01*
%TO.N,GPIO_9*%
X210525000Y-129332340D02*
X210306740Y-129332340D01*
X205282800Y-114350800D02*
X205282800Y-111099600D01*
X204796800Y-110613600D02*
X204796800Y-109457100D01*
X210306740Y-129332340D02*
X209891200Y-128916800D01*
X205282800Y-111099600D02*
X204796800Y-110613600D01*
X204927200Y-114706400D02*
X205282800Y-114350800D01*
X204927200Y-115294812D02*
X204927200Y-114706400D01*
X206507347Y-116874959D02*
X204927200Y-115294812D01*
%TO.N,SIO0*%
X194990800Y-107419600D02*
X199559300Y-107419600D01*
X194911600Y-107340400D02*
X194990800Y-107419600D01*
%TO.N,SIO3*%
X193911600Y-107340400D02*
X193911600Y-106621200D01*
X196088000Y-106222800D02*
X196484800Y-106619600D01*
X194310000Y-106222800D02*
X196088000Y-106222800D01*
X193911600Y-106621200D02*
X194310000Y-106222800D01*
X196484800Y-106619600D02*
X199559300Y-106619600D01*
%TO.N,GPIO_8*%
X195026060Y-127787400D02*
X195441600Y-128202940D01*
X204317600Y-114477800D02*
X204774800Y-114020600D01*
X204774800Y-114020600D02*
X204774800Y-111175800D01*
X204396800Y-110797800D02*
X204396800Y-109457100D01*
X194807800Y-127787400D02*
X195026060Y-127787400D01*
X204774800Y-111175800D02*
X204396800Y-110797800D01*
%TO.N,GPIO_15*%
X209118200Y-108882914D02*
X207654886Y-107419600D01*
X210134540Y-120685800D02*
X209744400Y-120295660D01*
X209118200Y-115241003D02*
X209118200Y-108882914D01*
X210495000Y-120685800D02*
X210134540Y-120685800D01*
X207654886Y-107419600D02*
X206434300Y-107419600D01*
X209193197Y-115316000D02*
X209118200Y-115241003D01*
%TO.N,GPIO_11*%
X206248000Y-110896400D02*
X205596800Y-110245200D01*
X210240940Y-126517400D02*
X209861200Y-126137660D01*
X206248000Y-115798600D02*
X206248000Y-110896400D01*
X205596800Y-110245200D02*
X205596800Y-109457100D01*
X207340200Y-116890800D02*
X206248000Y-115798600D01*
X210535600Y-126517400D02*
X210240940Y-126517400D01*
%TO.N,GPIO_0*%
X199339200Y-112801400D02*
X199339200Y-112877600D01*
X200796800Y-109457100D02*
X200796800Y-111343800D01*
X200796800Y-111343800D02*
X199872600Y-112268000D01*
X199872600Y-112268000D02*
X199339200Y-112801400D01*
X195432940Y-139368100D02*
X195601600Y-139536760D01*
X194833200Y-139368100D02*
X195432940Y-139368100D01*
%TO.N,GPIO_6*%
X194843400Y-130657600D02*
X195402940Y-130657600D01*
X203196800Y-113898408D02*
X203196800Y-109457100D01*
X203059722Y-114035486D02*
X203196800Y-113898408D01*
X195402940Y-130657600D02*
X195601600Y-130856260D01*
%TO.N,XTAL_IN*%
X208321200Y-106619600D02*
X209437700Y-107736100D01*
X209437700Y-107736100D02*
X210540600Y-107736100D01*
X206434300Y-106619600D02*
X208321200Y-106619600D01*
%TO.N,SIO1*%
X199559300Y-108219600D02*
X197799600Y-108219600D01*
X196443600Y-109575600D02*
X196443600Y-110083600D01*
X196443600Y-110083600D02*
X195961000Y-110566200D01*
X197799600Y-108219600D02*
X196443600Y-109575600D01*
X194310000Y-110566200D02*
X193911600Y-110167800D01*
X195961000Y-110566200D02*
X194310000Y-110566200D01*
X193911600Y-110167800D02*
X193911600Y-109740400D01*
%TO.N,GPIO_1*%
X201196800Y-111578800D02*
X199999600Y-112776000D01*
X210525400Y-140731000D02*
X209931460Y-140731000D01*
X209931460Y-140731000D02*
X209762800Y-140562340D01*
X199999600Y-114107882D02*
X203301382Y-117409664D01*
X199999600Y-112776000D02*
X199999600Y-114107882D01*
X201196800Y-109457100D02*
X201196800Y-111578800D01*
%TO.N,SIO2*%
X194411600Y-109296200D02*
X194691000Y-109016800D01*
X196418200Y-109016800D02*
X197615400Y-107819600D01*
X194691000Y-109016800D02*
X196418200Y-109016800D01*
X197615400Y-107819600D02*
X199559300Y-107819600D01*
X194411600Y-109740400D02*
X194411600Y-109296200D01*
%TO.N,GPIO_2*%
X201596800Y-112296400D02*
X201596800Y-109457100D01*
X195383200Y-136495000D02*
X194843400Y-136495000D01*
X195611800Y-136266400D02*
X195383200Y-136495000D01*
X200611276Y-113179864D02*
X200713336Y-113179864D01*
X200713336Y-113179864D02*
X201596800Y-112296400D01*
%TO.N,GPIO_7*%
X205694982Y-116947382D02*
X205694982Y-116986235D01*
X210561000Y-132168300D02*
X210026860Y-132168300D01*
X203596800Y-109457100D02*
X203596800Y-113122000D01*
X203596800Y-113122000D02*
X203708000Y-113233200D01*
X203708000Y-114960400D02*
X205694982Y-116947382D01*
X203708000Y-113233200D02*
X203708000Y-114960400D01*
X210026860Y-132168300D02*
X209802800Y-131944240D01*
%TO.N,GPIO_5*%
X204959245Y-117085616D02*
X202412600Y-114538971D01*
X202412600Y-113792000D02*
X202796800Y-113407800D01*
X210520400Y-135036800D02*
X209935660Y-135036800D01*
X204959245Y-117310687D02*
X204959245Y-117085616D01*
X202796800Y-113407800D02*
X202796800Y-109457100D01*
X202412600Y-114538971D02*
X202412600Y-113792000D01*
X209935660Y-135036800D02*
X209752000Y-134853140D01*
%TD*%
%TA.AperFunction,Conductor*%
%TO.N,GND*%
G36*
X199249075Y-150099493D02*
G01*
X199314901Y-150213507D01*
X199407993Y-150306599D01*
X199522007Y-150372425D01*
X199585590Y-150389462D01*
X198971576Y-151003475D01*
X199049969Y-151058367D01*
X199260090Y-151156347D01*
X199260099Y-151156351D01*
X199484031Y-151216352D01*
X199484041Y-151216354D01*
X199714999Y-151236561D01*
X199715001Y-151236561D01*
X199945958Y-151216354D01*
X199945968Y-151216352D01*
X200169900Y-151156351D01*
X200169909Y-151156347D01*
X200380030Y-151058367D01*
X200380034Y-151058365D01*
X200458422Y-151003476D01*
X200458422Y-151003475D01*
X199844410Y-150389462D01*
X199907993Y-150372425D01*
X200022007Y-150306599D01*
X200115099Y-150213507D01*
X200180925Y-150099493D01*
X200197962Y-150035909D01*
X200811975Y-150649921D01*
X200834425Y-150617861D01*
X200889002Y-150574236D01*
X200958501Y-150567044D01*
X201020855Y-150598566D01*
X201056269Y-150658796D01*
X201060000Y-150688985D01*
X201060000Y-151874389D01*
X201100013Y-152127023D01*
X201179052Y-152370282D01*
X201179053Y-152370284D01*
X201188710Y-152389235D01*
X201188710Y-152389236D01*
X202060000Y-151517946D01*
X202060000Y-151808057D01*
X202084019Y-151928806D01*
X202131132Y-152042548D01*
X202175741Y-152109309D01*
X201462727Y-152822324D01*
X201462727Y-152822325D01*
X201626380Y-152985978D01*
X201833313Y-153136324D01*
X202061215Y-153252447D01*
X202061218Y-153252448D01*
X202304476Y-153331486D01*
X202557111Y-153371500D01*
X202812889Y-153371500D01*
X203065523Y-153331486D01*
X203308781Y-153252448D01*
X203308784Y-153252447D01*
X203536686Y-153136324D01*
X203743619Y-152985978D01*
X203857918Y-152871680D01*
X203919241Y-152838195D01*
X203950438Y-152840426D01*
X203950438Y-152840200D01*
X204726800Y-152840200D01*
X204726800Y-153340200D01*
X204001800Y-153340200D01*
X204001800Y-153716158D01*
X204041187Y-153914174D01*
X204041190Y-153914183D01*
X204118452Y-154100713D01*
X204118459Y-154100726D01*
X204230629Y-154268599D01*
X204230632Y-154268603D01*
X204373396Y-154411367D01*
X204373400Y-154411370D01*
X204541273Y-154523540D01*
X204541286Y-154523547D01*
X204727816Y-154600809D01*
X204727825Y-154600812D01*
X204776800Y-154610553D01*
X204776800Y-153807188D01*
X204786740Y-153824405D01*
X204842595Y-153880260D01*
X204911004Y-153919756D01*
X204987304Y-153940200D01*
X205066296Y-153940200D01*
X205142596Y-153919756D01*
X205211005Y-153880260D01*
X205266860Y-153824405D01*
X205276800Y-153807188D01*
X205276800Y-154610552D01*
X205325774Y-154600812D01*
X205325783Y-154600809D01*
X205512313Y-154523547D01*
X205512326Y-154523540D01*
X205680199Y-154411370D01*
X205680203Y-154411367D01*
X205822967Y-154268603D01*
X205822970Y-154268599D01*
X205935140Y-154100726D01*
X205935142Y-154100722D01*
X205969567Y-154017612D01*
X206013408Y-153963209D01*
X206079702Y-153941143D01*
X206147401Y-153958422D01*
X206159621Y-153966693D01*
X206164834Y-153970694D01*
X206164836Y-153970695D01*
X206273264Y-154033295D01*
X206394199Y-154065700D01*
X206394201Y-154065700D01*
X206519399Y-154065700D01*
X206519401Y-154065700D01*
X206640336Y-154033295D01*
X206748764Y-153970695D01*
X206837295Y-153882164D01*
X206899895Y-153773736D01*
X206924314Y-153682602D01*
X206960678Y-153622945D01*
X207023525Y-153592416D01*
X207044088Y-153590699D01*
X207294672Y-153590699D01*
X207294685Y-153590698D01*
X207333544Y-153586520D01*
X207360052Y-153586520D01*
X207398927Y-153590700D01*
X207640270Y-153590699D01*
X207707309Y-153610383D01*
X207753064Y-153663187D01*
X207763008Y-153732346D01*
X207747658Y-153776697D01*
X207726321Y-153813655D01*
X207706615Y-153839337D01*
X207656547Y-153889405D01*
X207560572Y-154042147D01*
X207500992Y-154212416D01*
X207500991Y-154212421D01*
X207480796Y-154391667D01*
X207480796Y-154391674D01*
X207500991Y-154570920D01*
X207500992Y-154570925D01*
X207560572Y-154741194D01*
X207623446Y-154841256D01*
X207656545Y-154893933D01*
X207784099Y-155021487D01*
X207936839Y-155117460D01*
X208096003Y-155173154D01*
X208107106Y-155177039D01*
X208107111Y-155177040D01*
X208286357Y-155197236D01*
X208286361Y-155197236D01*
X208286363Y-155197236D01*
X208336650Y-155191569D01*
X208419746Y-155182207D01*
X208488567Y-155194261D01*
X208521310Y-155217746D01*
X208553349Y-155249785D01*
X208553355Y-155249790D01*
X208760339Y-155456774D01*
X208760349Y-155456785D01*
X208764679Y-155461115D01*
X208764680Y-155461116D01*
X208876484Y-155572920D01*
X208963295Y-155623039D01*
X208963297Y-155623041D01*
X209013413Y-155651976D01*
X209013415Y-155651977D01*
X209166142Y-155692900D01*
X209166143Y-155692900D01*
X209869731Y-155692900D01*
X209869747Y-155692901D01*
X209877343Y-155692901D01*
X210035454Y-155692901D01*
X210035457Y-155692901D01*
X210188185Y-155651977D01*
X210238304Y-155623039D01*
X210325116Y-155572920D01*
X210436920Y-155461116D01*
X210436920Y-155461114D01*
X210447128Y-155450907D01*
X210447130Y-155450904D01*
X210645106Y-155252928D01*
X210645111Y-155252924D01*
X210655314Y-155242720D01*
X210655316Y-155242720D01*
X210767120Y-155130916D01*
X210774889Y-155117459D01*
X210826579Y-155027930D01*
X210826582Y-155027921D01*
X210826588Y-155027913D01*
X210846177Y-154993985D01*
X210887100Y-154841258D01*
X210887100Y-154683143D01*
X210887100Y-154292460D01*
X210887101Y-154292447D01*
X210887101Y-154124344D01*
X210887101Y-154124343D01*
X210846177Y-153971616D01*
X210845644Y-153970693D01*
X210767124Y-153834690D01*
X210767118Y-153834682D01*
X210733619Y-153801183D01*
X210700134Y-153739860D01*
X210697300Y-153713502D01*
X210697300Y-153712551D01*
X210716985Y-153645512D01*
X210769789Y-153599757D01*
X210808043Y-153589262D01*
X210833544Y-153586520D01*
X210860052Y-153586520D01*
X210898927Y-153590700D01*
X211294672Y-153590699D01*
X211294673Y-153590698D01*
X211294685Y-153590698D01*
X211333544Y-153586520D01*
X211360052Y-153586520D01*
X211398927Y-153590700D01*
X211649512Y-153590699D01*
X211716550Y-153610383D01*
X211762305Y-153663187D01*
X211769285Y-153682604D01*
X211793703Y-153773731D01*
X211793705Y-153773736D01*
X211856305Y-153882164D01*
X211944836Y-153970695D01*
X212053264Y-154033295D01*
X212174199Y-154065700D01*
X212174201Y-154065700D01*
X212299399Y-154065700D01*
X212299401Y-154065700D01*
X212420336Y-154033295D01*
X212528764Y-153970695D01*
X212528770Y-153970688D01*
X212533974Y-153966696D01*
X212599141Y-153941495D01*
X212667587Y-153955527D01*
X212717581Y-154004336D01*
X212724031Y-154017611D01*
X212758454Y-154100717D01*
X212758459Y-154100726D01*
X212870629Y-154268599D01*
X212870632Y-154268603D01*
X213013396Y-154411367D01*
X213013400Y-154411370D01*
X213181273Y-154523540D01*
X213181286Y-154523547D01*
X213367816Y-154600809D01*
X213367825Y-154600812D01*
X213416800Y-154610553D01*
X213416800Y-153807188D01*
X213426740Y-153824405D01*
X213482595Y-153880260D01*
X213551004Y-153919756D01*
X213627304Y-153940200D01*
X213706296Y-153940200D01*
X213782596Y-153919756D01*
X213851005Y-153880260D01*
X213906860Y-153824405D01*
X213916800Y-153807188D01*
X213916800Y-154610552D01*
X213965774Y-154600812D01*
X213965783Y-154600809D01*
X214152313Y-154523547D01*
X214152322Y-154523542D01*
X214159607Y-154518675D01*
X214226284Y-154497796D01*
X214293665Y-154516279D01*
X214340356Y-154568257D01*
X214352500Y-154621776D01*
X214352500Y-155793691D01*
X214332815Y-155860730D01*
X214280011Y-155906485D01*
X214210853Y-155916429D01*
X214159610Y-155896794D01*
X214140482Y-155884013D01*
X214140471Y-155884007D01*
X213958491Y-155808629D01*
X213958483Y-155808627D01*
X213916800Y-155800335D01*
X213916800Y-156703211D01*
X213906860Y-156685995D01*
X213851005Y-156630140D01*
X213782596Y-156590644D01*
X213706296Y-156570200D01*
X213627304Y-156570200D01*
X213551004Y-156590644D01*
X213482595Y-156630140D01*
X213426740Y-156685995D01*
X213416800Y-156703211D01*
X213416800Y-155800336D01*
X213416799Y-155800335D01*
X213375116Y-155808627D01*
X213375108Y-155808629D01*
X213193128Y-155884007D01*
X213193115Y-155884014D01*
X213029337Y-155993448D01*
X213029333Y-155993451D01*
X212890051Y-156132733D01*
X212890048Y-156132737D01*
X212780614Y-156296515D01*
X212780607Y-156296528D01*
X212705230Y-156478506D01*
X212705227Y-156478518D01*
X212666800Y-156671704D01*
X212666800Y-157020200D01*
X213366800Y-157020200D01*
X213366800Y-157520200D01*
X212666800Y-157520200D01*
X212666800Y-157868695D01*
X212705227Y-158061881D01*
X212705230Y-158061893D01*
X212780607Y-158243871D01*
X212780614Y-158243884D01*
X212890048Y-158407662D01*
X212890051Y-158407666D01*
X213029333Y-158546948D01*
X213029337Y-158546951D01*
X213110223Y-158600998D01*
X213155028Y-158654610D01*
X213163735Y-158723935D01*
X213133580Y-158786963D01*
X213074137Y-158823682D01*
X213041332Y-158828100D01*
X205652268Y-158828100D01*
X205585229Y-158808415D01*
X205539474Y-158755611D01*
X205529530Y-158686453D01*
X205558555Y-158622897D01*
X205583377Y-158600998D01*
X205664262Y-158546951D01*
X205664266Y-158546948D01*
X205803548Y-158407666D01*
X205803551Y-158407662D01*
X205912985Y-158243884D01*
X205912992Y-158243871D01*
X205988369Y-158061893D01*
X205988372Y-158061881D01*
X206026799Y-157868695D01*
X206026800Y-157868692D01*
X206026800Y-157520200D01*
X205326800Y-157520200D01*
X205326800Y-157020200D01*
X206026800Y-157020200D01*
X206026800Y-156671708D01*
X206026799Y-156671704D01*
X205988372Y-156478518D01*
X205988369Y-156478506D01*
X205912992Y-156296528D01*
X205912985Y-156296515D01*
X205803551Y-156132737D01*
X205803548Y-156132733D01*
X205664266Y-155993451D01*
X205664262Y-155993448D01*
X205500484Y-155884014D01*
X205500471Y-155884007D01*
X205318491Y-155808629D01*
X205318483Y-155808627D01*
X205276800Y-155800335D01*
X205276800Y-156703211D01*
X205266860Y-156685995D01*
X205211005Y-156630140D01*
X205142596Y-156590644D01*
X205066296Y-156570200D01*
X204987304Y-156570200D01*
X204911004Y-156590644D01*
X204842595Y-156630140D01*
X204786740Y-156685995D01*
X204776800Y-156703211D01*
X204776800Y-155800336D01*
X204776799Y-155800335D01*
X204735116Y-155808627D01*
X204735108Y-155808629D01*
X204553128Y-155884007D01*
X204553115Y-155884014D01*
X204389337Y-155993448D01*
X204389333Y-155993451D01*
X204250051Y-156132733D01*
X204250048Y-156132737D01*
X204140614Y-156296515D01*
X204140607Y-156296528D01*
X204065230Y-156478506D01*
X204065227Y-156478518D01*
X204026800Y-156671704D01*
X204026800Y-157020200D01*
X204726800Y-157020200D01*
X204726800Y-157520200D01*
X204026800Y-157520200D01*
X204026800Y-157868695D01*
X204065227Y-158061881D01*
X204065230Y-158061893D01*
X204140607Y-158243871D01*
X204140614Y-158243884D01*
X204250048Y-158407662D01*
X204250051Y-158407666D01*
X204389333Y-158546948D01*
X204389337Y-158546951D01*
X204470223Y-158600998D01*
X204515028Y-158654610D01*
X204523735Y-158723935D01*
X204493580Y-158786963D01*
X204434137Y-158823682D01*
X204401332Y-158828100D01*
X188844100Y-158828100D01*
X188777061Y-158808415D01*
X188731306Y-158755611D01*
X188720100Y-158704100D01*
X188720100Y-153250417D01*
X188739785Y-153183378D01*
X188792589Y-153137623D01*
X188861747Y-153127679D01*
X188900395Y-153139932D01*
X189121215Y-153252447D01*
X189121218Y-153252448D01*
X189364476Y-153331486D01*
X189617111Y-153371500D01*
X189872889Y-153371500D01*
X190125523Y-153331486D01*
X190368781Y-153252448D01*
X190368784Y-153252447D01*
X190596686Y-153136324D01*
X190803619Y-152985978D01*
X190967272Y-152822325D01*
X190967272Y-152822324D01*
X190254258Y-152109310D01*
X190298868Y-152042548D01*
X190345981Y-151928806D01*
X190370000Y-151808057D01*
X190370000Y-151517947D01*
X191241289Y-152389236D01*
X191250946Y-152370285D01*
X191329986Y-152127023D01*
X191370000Y-151874389D01*
X191370000Y-150689856D01*
X191389685Y-150622817D01*
X191442489Y-150577062D01*
X191511647Y-150567118D01*
X191575203Y-150596143D01*
X191595573Y-150618731D01*
X191695730Y-150761769D01*
X191859731Y-150925770D01*
X192049718Y-151058801D01*
X192259921Y-151156820D01*
X192483950Y-151216849D01*
X192648985Y-151231287D01*
X192714998Y-151237063D01*
X192715000Y-151237063D01*
X192715002Y-151237063D01*
X192772762Y-151232009D01*
X192946050Y-151216849D01*
X193170079Y-151156820D01*
X193380282Y-151058801D01*
X193570269Y-150925770D01*
X193734270Y-150761769D01*
X193863427Y-150577314D01*
X193918002Y-150533692D01*
X193987501Y-150526499D01*
X194049855Y-150558021D01*
X194066569Y-150577309D01*
X194195730Y-150761769D01*
X194359731Y-150925770D01*
X194549718Y-151058801D01*
X194759921Y-151156820D01*
X194983950Y-151216849D01*
X195148985Y-151231287D01*
X195214998Y-151237063D01*
X195215000Y-151237063D01*
X195215002Y-151237063D01*
X195272762Y-151232009D01*
X195446050Y-151216849D01*
X195670079Y-151156820D01*
X195880282Y-151058801D01*
X196070269Y-150925770D01*
X196127319Y-150868720D01*
X196188642Y-150835235D01*
X196258334Y-150840219D01*
X196302681Y-150868720D01*
X196359731Y-150925770D01*
X196549718Y-151058801D01*
X196759921Y-151156820D01*
X196983950Y-151216849D01*
X197148985Y-151231287D01*
X197214998Y-151237063D01*
X197215000Y-151237063D01*
X197215002Y-151237063D01*
X197272762Y-151232009D01*
X197446050Y-151216849D01*
X197670079Y-151156820D01*
X197880282Y-151058801D01*
X198070269Y-150925770D01*
X198234270Y-150761769D01*
X198363731Y-150576880D01*
X198418306Y-150533257D01*
X198487804Y-150526063D01*
X198550159Y-150557586D01*
X198566879Y-150576881D01*
X198618023Y-150649922D01*
X199232037Y-150035908D01*
X199249075Y-150099493D01*
G37*
%TD.AperFunction*%
%TA.AperFunction,Conductor*%
G36*
X214295539Y-89044785D02*
G01*
X214341294Y-89097589D01*
X214352500Y-89149100D01*
X214352500Y-151558623D01*
X214332815Y-151625662D01*
X214280011Y-151671417D01*
X214210853Y-151681361D01*
X214159613Y-151661728D01*
X214152325Y-151656859D01*
X214152313Y-151656852D01*
X213965784Y-151579590D01*
X213965777Y-151579588D01*
X213916800Y-151569845D01*
X213916800Y-152373211D01*
X213906860Y-152355995D01*
X213851005Y-152300140D01*
X213782596Y-152260644D01*
X213706296Y-152240200D01*
X213627304Y-152240200D01*
X213551004Y-152260644D01*
X213482595Y-152300140D01*
X213426740Y-152355995D01*
X213416800Y-152373211D01*
X213416800Y-151569846D01*
X213416799Y-151569845D01*
X213367823Y-151579588D01*
X213324637Y-151597475D01*
X213255167Y-151604941D01*
X213202877Y-151582178D01*
X213088893Y-151496849D01*
X213088886Y-151496845D01*
X212954179Y-151446603D01*
X212954173Y-151446601D01*
X212939473Y-151445021D01*
X212874922Y-151418282D01*
X212835075Y-151360889D01*
X212832582Y-151291064D01*
X212865046Y-151234053D01*
X213122695Y-150976406D01*
X213145329Y-150942531D01*
X213196620Y-150865769D01*
X213219940Y-150809469D01*
X213247541Y-150742836D01*
X213273500Y-150612331D01*
X213273500Y-150479269D01*
X213273500Y-149159029D01*
X213293185Y-149091990D01*
X213305170Y-149077116D01*
X213305019Y-149076992D01*
X213406131Y-148953787D01*
X213433910Y-148919938D01*
X213518675Y-148761354D01*
X213526811Y-148746133D01*
X213526811Y-148746132D01*
X213526814Y-148746127D01*
X213584024Y-148557532D01*
X213603341Y-148361400D01*
X213584024Y-148165268D01*
X213526814Y-147976673D01*
X213526811Y-147976669D01*
X213526811Y-147976666D01*
X213433913Y-147802867D01*
X213433909Y-147802860D01*
X213308883Y-147650516D01*
X213156539Y-147525490D01*
X213156532Y-147525486D01*
X212982733Y-147432588D01*
X212982727Y-147432586D01*
X212794132Y-147375376D01*
X212794129Y-147375375D01*
X212598000Y-147356059D01*
X212401870Y-147375375D01*
X212213266Y-147432588D01*
X212160874Y-147460593D01*
X212092471Y-147474835D01*
X212027227Y-147449835D01*
X211985857Y-147393530D01*
X211984715Y-147390238D01*
X211979759Y-147375282D01*
X211979756Y-147375275D01*
X211887715Y-147226054D01*
X211763745Y-147102084D01*
X211614524Y-147010043D01*
X211614519Y-147010041D01*
X211448097Y-146954894D01*
X211448090Y-146954893D01*
X211345386Y-146944400D01*
X211095400Y-146944400D01*
X211095400Y-148082900D01*
X211075715Y-148149939D01*
X211022911Y-148195694D01*
X210971400Y-148206900D01*
X210719400Y-148206900D01*
X210652361Y-148187215D01*
X210606606Y-148134411D01*
X210595400Y-148082900D01*
X210595400Y-146944400D01*
X210345429Y-146944400D01*
X210345412Y-146944401D01*
X210242702Y-146954894D01*
X210076280Y-147010041D01*
X210076275Y-147010043D01*
X209927054Y-147102084D01*
X209803084Y-147226054D01*
X209711043Y-147375275D01*
X209711041Y-147375280D01*
X209655894Y-147541702D01*
X209655893Y-147541709D01*
X209645400Y-147644413D01*
X209645400Y-147786336D01*
X209625715Y-147853375D01*
X209572911Y-147899130D01*
X209503753Y-147909074D01*
X209440197Y-147880049D01*
X209433719Y-147874017D01*
X208329609Y-146769907D01*
X208329605Y-146769904D01*
X208218975Y-146695983D01*
X208218965Y-146695978D01*
X208096036Y-146645059D01*
X208096028Y-146645057D01*
X207965535Y-146619100D01*
X207965531Y-146619100D01*
X200257300Y-146619100D01*
X200190261Y-146599415D01*
X200144506Y-146546611D01*
X200133300Y-146495100D01*
X200133299Y-145938798D01*
X200133298Y-145938780D01*
X200122799Y-145836003D01*
X200122798Y-145836000D01*
X200068244Y-145671368D01*
X200067614Y-145669466D01*
X199975512Y-145520144D01*
X199881849Y-145426481D01*
X199848364Y-145365158D01*
X199853348Y-145295466D01*
X199881849Y-145251119D01*
X199922450Y-145210518D01*
X199975512Y-145157456D01*
X200067614Y-145008134D01*
X200122799Y-144841597D01*
X200133300Y-144738809D01*
X200133299Y-144113792D01*
X200122799Y-144011003D01*
X200067614Y-143844466D01*
X200029776Y-143783121D01*
X200019904Y-143767115D01*
X200001464Y-143699723D01*
X200022387Y-143633060D01*
X200037755Y-143614344D01*
X200141483Y-143510617D01*
X200202805Y-143477134D01*
X200229163Y-143474300D01*
X203088732Y-143474300D01*
X203088733Y-143474299D01*
X203219236Y-143448341D01*
X203342169Y-143397420D01*
X203452806Y-143323495D01*
X204104502Y-142671799D01*
X210697571Y-142671799D01*
X210697571Y-142671800D01*
X210717244Y-142884110D01*
X210775596Y-143089192D01*
X210775596Y-143089194D01*
X210870632Y-143280053D01*
X210999127Y-143450206D01*
X210999128Y-143450207D01*
X211156698Y-143593852D01*
X211337981Y-143706098D01*
X211536802Y-143783121D01*
X211746390Y-143822300D01*
X211746392Y-143822300D01*
X211959608Y-143822300D01*
X211959610Y-143822300D01*
X212169198Y-143783121D01*
X212368019Y-143706098D01*
X212549302Y-143593852D01*
X212706872Y-143450207D01*
X212835366Y-143280055D01*
X212930405Y-143089189D01*
X212988756Y-142884110D01*
X213008429Y-142671800D01*
X212988756Y-142459490D01*
X212930405Y-142254411D01*
X212930403Y-142254406D01*
X212930403Y-142254405D01*
X212835367Y-142063546D01*
X212706871Y-141893392D01*
X212633992Y-141826954D01*
X212549302Y-141749748D01*
X212368019Y-141637502D01*
X212368017Y-141637501D01*
X212259160Y-141595330D01*
X212169198Y-141560479D01*
X211959610Y-141521300D01*
X211746390Y-141521300D01*
X211536802Y-141560479D01*
X211536799Y-141560479D01*
X211536799Y-141560480D01*
X211337982Y-141637501D01*
X211337980Y-141637502D01*
X211156699Y-141749747D01*
X210999129Y-141893392D01*
X210870632Y-142063546D01*
X210775596Y-142254405D01*
X210775596Y-142254407D01*
X210717244Y-142459489D01*
X210697571Y-142671799D01*
X204104502Y-142671799D01*
X204537495Y-142238806D01*
X204611420Y-142128169D01*
X204662341Y-142005236D01*
X204688300Y-141874731D01*
X204688300Y-141741669D01*
X204688300Y-141403099D01*
X204707985Y-141336060D01*
X204760789Y-141290305D01*
X204812300Y-141279099D01*
X204910671Y-141279099D01*
X204910672Y-141279099D01*
X204970283Y-141272691D01*
X205105131Y-141222396D01*
X205220346Y-141136146D01*
X205306596Y-141020931D01*
X205356891Y-140886083D01*
X205358917Y-140867243D01*
X205385656Y-140802692D01*
X205443049Y-140762845D01*
X205482206Y-140756500D01*
X207676802Y-140756500D01*
X207743841Y-140776185D01*
X207789596Y-140828989D01*
X207799029Y-140866408D01*
X207799871Y-140866298D01*
X207815842Y-140987628D01*
X207815844Y-140987633D01*
X207876299Y-141133585D01*
X207972475Y-141258924D01*
X208097813Y-141355100D01*
X208243765Y-141415554D01*
X208243769Y-141415555D01*
X208361076Y-141430999D01*
X208425399Y-141430998D01*
X208425400Y-141430998D01*
X208425400Y-140905499D01*
X208445085Y-140838460D01*
X208497889Y-140792705D01*
X208549397Y-140781499D01*
X208701401Y-140781499D01*
X208768439Y-140801184D01*
X208814194Y-140853988D01*
X208825400Y-140905499D01*
X208825400Y-141430999D01*
X208889724Y-141430999D01*
X209007028Y-141415557D01*
X209007033Y-141415555D01*
X209152987Y-141355100D01*
X209152990Y-141355098D01*
X209249729Y-141280867D01*
X209314898Y-141255672D01*
X209383343Y-141269710D01*
X209391178Y-141274242D01*
X209413278Y-141288129D01*
X209550257Y-141336060D01*
X209583545Y-141347708D01*
X209583550Y-141347709D01*
X209762796Y-141367905D01*
X209762800Y-141367905D01*
X209762803Y-141367905D01*
X209939047Y-141348047D01*
X210000383Y-141356705D01*
X210143638Y-141416044D01*
X210261039Y-141431500D01*
X210789760Y-141431499D01*
X210789763Y-141431499D01*
X210907153Y-141416046D01*
X210907157Y-141416044D01*
X210907162Y-141416044D01*
X211053241Y-141355536D01*
X211178682Y-141259282D01*
X211274936Y-141133841D01*
X211335444Y-140987762D01*
X211350900Y-140870361D01*
X211350899Y-140591640D01*
X211350899Y-140591636D01*
X211335446Y-140474246D01*
X211335444Y-140474241D01*
X211335444Y-140474238D01*
X211274936Y-140328159D01*
X211178682Y-140202718D01*
X211178679Y-140202716D01*
X211173734Y-140196271D01*
X211175972Y-140194553D01*
X211149049Y-140145247D01*
X211154033Y-140075555D01*
X211195905Y-140019622D01*
X211238120Y-139999115D01*
X211269985Y-139990577D01*
X211337548Y-139951569D01*
X211406916Y-139911520D01*
X211518720Y-139799716D01*
X211518720Y-139799714D01*
X211528924Y-139789511D01*
X211528928Y-139789506D01*
X211635706Y-139682728D01*
X211635711Y-139682724D01*
X211645914Y-139672520D01*
X211645916Y-139672520D01*
X211757720Y-139560716D01*
X211817195Y-139457702D01*
X211836777Y-139423785D01*
X211877701Y-139271057D01*
X211877701Y-139112943D01*
X211877701Y-139105348D01*
X211877700Y-139105330D01*
X211877700Y-136283859D01*
X211877701Y-136283846D01*
X211877701Y-136108148D01*
X211877700Y-136108130D01*
X211877700Y-133489859D01*
X211877701Y-133489846D01*
X211877701Y-133314147D01*
X211877700Y-133314129D01*
X211877700Y-130645059D01*
X211877701Y-130645046D01*
X211877701Y-130469348D01*
X211877700Y-130469330D01*
X211877700Y-127774859D01*
X211877701Y-127774846D01*
X211877701Y-127599147D01*
X211877700Y-127599129D01*
X211877700Y-124904659D01*
X211877701Y-124904646D01*
X211877701Y-124728948D01*
X211877700Y-124728930D01*
X211877700Y-118750978D01*
X211897385Y-118683939D01*
X211923035Y-118655125D01*
X211924636Y-118653811D01*
X211924638Y-118653810D01*
X212076983Y-118528783D01*
X212202010Y-118376438D01*
X212248462Y-118289532D01*
X212294911Y-118202633D01*
X212294911Y-118202632D01*
X212294914Y-118202627D01*
X212352124Y-118014032D01*
X212371441Y-117817900D01*
X212352124Y-117621768D01*
X212294914Y-117433173D01*
X212294911Y-117433169D01*
X212294911Y-117433166D01*
X212202013Y-117259367D01*
X212202009Y-117259360D01*
X212076983Y-117107016D01*
X211924639Y-116981990D01*
X211924632Y-116981986D01*
X211750833Y-116889088D01*
X211750827Y-116889086D01*
X211562232Y-116831876D01*
X211562229Y-116831875D01*
X211366100Y-116812559D01*
X211169970Y-116831875D01*
X210981366Y-116889088D01*
X210807567Y-116981986D01*
X210807560Y-116981990D01*
X210655216Y-117107016D01*
X210530190Y-117259360D01*
X210530186Y-117259367D01*
X210437288Y-117433166D01*
X210380075Y-117621770D01*
X210360759Y-117817900D01*
X210380075Y-118014029D01*
X210380076Y-118014032D01*
X210434982Y-118195033D01*
X210437288Y-118202633D01*
X210530186Y-118376432D01*
X210530190Y-118376439D01*
X210617344Y-118482635D01*
X210644657Y-118546945D01*
X210632866Y-118615812D01*
X210585714Y-118667373D01*
X210521491Y-118685300D01*
X210230636Y-118685300D01*
X210113246Y-118700753D01*
X210113237Y-118700756D01*
X209967160Y-118761263D01*
X209841718Y-118857518D01*
X209745463Y-118982960D01*
X209684956Y-119129037D01*
X209684955Y-119129039D01*
X209672127Y-119226483D01*
X209669501Y-119246436D01*
X209669500Y-119246445D01*
X209669500Y-119387720D01*
X209649815Y-119454759D01*
X209597011Y-119500514D01*
X209559410Y-119510937D01*
X209558409Y-119511050D01*
X209489584Y-119499010D01*
X209438195Y-119451672D01*
X209420499Y-119387834D01*
X209420499Y-119246440D01*
X209420499Y-119246439D01*
X209420499Y-119246436D01*
X209405046Y-119129046D01*
X209405044Y-119129039D01*
X209405044Y-119129038D01*
X209344536Y-118982959D01*
X209248282Y-118857518D01*
X209122841Y-118761264D01*
X209098008Y-118750978D01*
X208976762Y-118700756D01*
X208976760Y-118700755D01*
X208859361Y-118685300D01*
X208330636Y-118685300D01*
X208213246Y-118700753D01*
X208213237Y-118700756D01*
X208067160Y-118761263D01*
X207941718Y-118857518D01*
X207845463Y-118982960D01*
X207784956Y-119129037D01*
X207784955Y-119129039D01*
X207768970Y-119250463D01*
X207767494Y-119250268D01*
X207745588Y-119310042D01*
X207689895Y-119352232D01*
X207645898Y-119360300D01*
X206059067Y-119360300D01*
X205928569Y-119386258D01*
X205928559Y-119386261D01*
X205805637Y-119437176D01*
X205805624Y-119437183D01*
X205736040Y-119483679D01*
X205694995Y-119511104D01*
X205694991Y-119511107D01*
X205383817Y-119822281D01*
X205322494Y-119855766D01*
X205296136Y-119858600D01*
X204445812Y-119858600D01*
X204478725Y-119801593D01*
X204512800Y-119674426D01*
X204512800Y-119542774D01*
X204478725Y-119415607D01*
X204445812Y-119358600D01*
X205343436Y-119358600D01*
X205343435Y-119358599D01*
X205286232Y-119145113D01*
X205286229Y-119145107D01*
X205186400Y-118931022D01*
X205186399Y-118931020D01*
X205050913Y-118737526D01*
X205050908Y-118737520D01*
X204883882Y-118570494D01*
X204690378Y-118434999D01*
X204476292Y-118335170D01*
X204476285Y-118335167D01*
X204456758Y-118329935D01*
X204397098Y-118293570D01*
X204366569Y-118230723D01*
X204374864Y-118161347D01*
X204419349Y-118107469D01*
X204447898Y-118093118D01*
X204486015Y-118079780D01*
X204486014Y-118079780D01*
X204486021Y-118079778D01*
X204523971Y-118055931D01*
X204591204Y-118036932D01*
X204630896Y-118043885D01*
X204779982Y-118096053D01*
X204779988Y-118096054D01*
X204779990Y-118096055D01*
X204779991Y-118096055D01*
X204779995Y-118096056D01*
X204959241Y-118116252D01*
X204959245Y-118116252D01*
X204959249Y-118116252D01*
X205138494Y-118096056D01*
X205138497Y-118096055D01*
X205138500Y-118096055D01*
X205308767Y-118036476D01*
X205461507Y-117940503D01*
X205576572Y-117825437D01*
X205637891Y-117791955D01*
X205678131Y-117789901D01*
X205694982Y-117791800D01*
X205807734Y-117779095D01*
X205874231Y-117771604D01*
X205874234Y-117771603D01*
X205874237Y-117771603D01*
X206044504Y-117712024D01*
X206148224Y-117646851D01*
X206215461Y-117627851D01*
X206255152Y-117634804D01*
X206328095Y-117660328D01*
X206507343Y-117680524D01*
X206507347Y-117680524D01*
X206507351Y-117680524D01*
X206686596Y-117660328D01*
X206686598Y-117660327D01*
X206686602Y-117660327D01*
X206686605Y-117660325D01*
X206686609Y-117660325D01*
X206863442Y-117598448D01*
X206863873Y-117599681D01*
X206925524Y-117589520D01*
X206976374Y-117607601D01*
X206990678Y-117616589D01*
X207115677Y-117660328D01*
X207160945Y-117676168D01*
X207160950Y-117676169D01*
X207340196Y-117696365D01*
X207340200Y-117696365D01*
X207340204Y-117696365D01*
X207519449Y-117676169D01*
X207519452Y-117676168D01*
X207519455Y-117676168D01*
X207689722Y-117616589D01*
X207842462Y-117520616D01*
X207957693Y-117405385D01*
X208019016Y-117371900D01*
X208059258Y-117369846D01*
X208098263Y-117374241D01*
X208098265Y-117374241D01*
X208098268Y-117374241D01*
X208277514Y-117354045D01*
X208277517Y-117354044D01*
X208277520Y-117354044D01*
X208447787Y-117294465D01*
X208600527Y-117198492D01*
X208728081Y-117070938D01*
X208824054Y-116918198D01*
X208883633Y-116747931D01*
X208891088Y-116681757D01*
X208918153Y-116617346D01*
X208948331Y-116590652D01*
X209073760Y-116511840D01*
X209201314Y-116384286D01*
X209297287Y-116231546D01*
X209318982Y-116169542D01*
X209359702Y-116112766D01*
X209395066Y-116093454D01*
X209542719Y-116041789D01*
X209695459Y-115945816D01*
X209823013Y-115818262D01*
X209918986Y-115665522D01*
X209978565Y-115495255D01*
X209998762Y-115316000D01*
X209978565Y-115136745D01*
X209918986Y-114966478D01*
X209823013Y-114813738D01*
X209755019Y-114745744D01*
X209721534Y-114684421D01*
X209718700Y-114658063D01*
X209718700Y-108971974D01*
X209718701Y-108971961D01*
X209718701Y-108803858D01*
X209718701Y-108803857D01*
X209677777Y-108651130D01*
X209661303Y-108622597D01*
X209644832Y-108554698D01*
X209667685Y-108488671D01*
X209722607Y-108445481D01*
X209768687Y-108436599D01*
X211538472Y-108436599D01*
X211598083Y-108430191D01*
X211732931Y-108379896D01*
X211848146Y-108293646D01*
X211934396Y-108178431D01*
X211984691Y-108043583D01*
X211991100Y-107983973D01*
X211991099Y-107488228D01*
X211985899Y-107439857D01*
X211984691Y-107428616D01*
X211934397Y-107293771D01*
X211934395Y-107293768D01*
X211889941Y-107234385D01*
X211871681Y-107209993D01*
X211847264Y-107144531D01*
X211862115Y-107076258D01*
X211871682Y-107061371D01*
X211933952Y-106978189D01*
X211933954Y-106978186D01*
X211984196Y-106843479D01*
X211984198Y-106843472D01*
X211990599Y-106783944D01*
X211990600Y-106783927D01*
X211990600Y-106736100D01*
X210464600Y-106736100D01*
X210397561Y-106716415D01*
X210351806Y-106663611D01*
X210340600Y-106612100D01*
X210340600Y-106460100D01*
X210360285Y-106393061D01*
X210413089Y-106347306D01*
X210464600Y-106336100D01*
X211990600Y-106336100D01*
X211990600Y-106288272D01*
X211990599Y-106288255D01*
X211984198Y-106228727D01*
X211984196Y-106228720D01*
X211933954Y-106094013D01*
X211933952Y-106094010D01*
X211871682Y-106010827D01*
X211847265Y-105945362D01*
X211862117Y-105877089D01*
X211871683Y-105862204D01*
X211934396Y-105778431D01*
X211984691Y-105643583D01*
X211991100Y-105583973D01*
X211991099Y-105088228D01*
X211984691Y-105028617D01*
X211955756Y-104951039D01*
X211934397Y-104893771D01*
X211934393Y-104893764D01*
X211848147Y-104778555D01*
X211848144Y-104778552D01*
X211732935Y-104692306D01*
X211732928Y-104692302D01*
X211598082Y-104642008D01*
X211598083Y-104642008D01*
X211538483Y-104635601D01*
X211538481Y-104635600D01*
X211538473Y-104635600D01*
X211538465Y-104635600D01*
X209622742Y-104635600D01*
X209555703Y-104615915D01*
X209509948Y-104563111D01*
X209500004Y-104493953D01*
X209502224Y-104483126D01*
X209502442Y-104481465D01*
X209502444Y-104481462D01*
X209517900Y-104364061D01*
X209517899Y-104085340D01*
X209517899Y-104085336D01*
X209502446Y-103967946D01*
X209502444Y-103967941D01*
X209502444Y-103967938D01*
X209441936Y-103821859D01*
X209345682Y-103696418D01*
X209220241Y-103600164D01*
X209200292Y-103591901D01*
X209074162Y-103539656D01*
X209074160Y-103539655D01*
X208956761Y-103524200D01*
X208618036Y-103524200D01*
X208500634Y-103539655D01*
X208499483Y-103539964D01*
X208498291Y-103539964D01*
X208492579Y-103540716D01*
X208492480Y-103539964D01*
X208442319Y-103539964D01*
X208442220Y-103540717D01*
X208436507Y-103539964D01*
X208435317Y-103539965D01*
X208434165Y-103539656D01*
X208316761Y-103524200D01*
X207978036Y-103524200D01*
X207860646Y-103539653D01*
X207860637Y-103539656D01*
X207714556Y-103600165D01*
X207710533Y-103602488D01*
X207648535Y-103619100D01*
X207496300Y-103619100D01*
X207429261Y-103599415D01*
X207383506Y-103546611D01*
X207372300Y-103495100D01*
X207372300Y-103326503D01*
X207372300Y-103326498D01*
X207361677Y-103238036D01*
X207306161Y-103097258D01*
X207306160Y-103097257D01*
X207306160Y-103097256D01*
X207214722Y-102976677D01*
X207094143Y-102885239D01*
X206953361Y-102829722D01*
X206907726Y-102824242D01*
X206864902Y-102819100D01*
X206864897Y-102819100D01*
X206321300Y-102819100D01*
X206254261Y-102799415D01*
X206208506Y-102746611D01*
X206197300Y-102695100D01*
X206197300Y-102151503D01*
X206197300Y-102151498D01*
X206186677Y-102063036D01*
X206131161Y-101922258D01*
X206131160Y-101922257D01*
X206131160Y-101922256D01*
X206039722Y-101801677D01*
X205919141Y-101710238D01*
X205919139Y-101710237D01*
X205818868Y-101670695D01*
X205763724Y-101627789D01*
X205740531Y-101561882D01*
X205756652Y-101493897D01*
X205759365Y-101489368D01*
X205761793Y-101485505D01*
X205805389Y-101416122D01*
X205864968Y-101245855D01*
X205867359Y-101224638D01*
X205885165Y-101066603D01*
X205885165Y-101066596D01*
X205864969Y-100887350D01*
X205864968Y-100887345D01*
X205862142Y-100879268D01*
X205805389Y-100717078D01*
X205801129Y-100710299D01*
X205748907Y-100627187D01*
X205709416Y-100564338D01*
X205581862Y-100436784D01*
X205429123Y-100340811D01*
X205258854Y-100281231D01*
X205258849Y-100281230D01*
X205079604Y-100261035D01*
X205079596Y-100261035D01*
X204900350Y-100281230D01*
X204900339Y-100281233D01*
X204846771Y-100299977D01*
X204776993Y-100303538D01*
X204716366Y-100268809D01*
X204684139Y-100206815D01*
X204682878Y-100199114D01*
X204681555Y-100189066D01*
X204621100Y-100043114D01*
X204524924Y-99917775D01*
X204399586Y-99821599D01*
X204253631Y-99761144D01*
X204197000Y-99753687D01*
X204197000Y-100261200D01*
X204177315Y-100328239D01*
X204124511Y-100373994D01*
X204073000Y-100385200D01*
X203921000Y-100385200D01*
X203853961Y-100365515D01*
X203808206Y-100312711D01*
X203797000Y-100261200D01*
X203797000Y-99753687D01*
X203740368Y-99761144D01*
X203594413Y-99821599D01*
X203469075Y-99917775D01*
X203372899Y-100043113D01*
X203312445Y-100189065D01*
X203312444Y-100189069D01*
X203301038Y-100275700D01*
X203470568Y-100275700D01*
X203537607Y-100295385D01*
X203583362Y-100348189D01*
X203593306Y-100417347D01*
X203564281Y-100480903D01*
X203546058Y-100498072D01*
X203523738Y-100515200D01*
X203468718Y-100557418D01*
X203415183Y-100627187D01*
X203358755Y-100668389D01*
X203316807Y-100675700D01*
X203301041Y-100675700D01*
X203301039Y-100675701D01*
X203312442Y-100762328D01*
X203312525Y-100762635D01*
X203312525Y-100762951D01*
X203313504Y-100770389D01*
X203312525Y-100770517D01*
X203312526Y-100820816D01*
X203313017Y-100820881D01*
X203312526Y-100824603D01*
X203312527Y-100826806D01*
X203311956Y-100828935D01*
X203296500Y-100946338D01*
X203296500Y-101285063D01*
X203311953Y-101402453D01*
X203311956Y-101402462D01*
X203332494Y-101452046D01*
X203341028Y-101472647D01*
X203348497Y-101542116D01*
X203317222Y-101604596D01*
X203257133Y-101640248D01*
X203226467Y-101644100D01*
X203103698Y-101644100D01*
X203060240Y-101649318D01*
X203011583Y-101655161D01*
X202982017Y-101655161D01*
X202933359Y-101649318D01*
X202889902Y-101644100D01*
X202703698Y-101644100D01*
X202660240Y-101649318D01*
X202611583Y-101655161D01*
X202582017Y-101655161D01*
X202533359Y-101649318D01*
X202489902Y-101644100D01*
X202303698Y-101644100D01*
X202260240Y-101649318D01*
X202211583Y-101655161D01*
X202182017Y-101655161D01*
X202133359Y-101649318D01*
X202089902Y-101644100D01*
X201903698Y-101644100D01*
X201860240Y-101649318D01*
X201811583Y-101655161D01*
X201782017Y-101655161D01*
X201733359Y-101649318D01*
X201689902Y-101644100D01*
X201503698Y-101644100D01*
X201460240Y-101649318D01*
X201411583Y-101655161D01*
X201382017Y-101655161D01*
X201333359Y-101649318D01*
X201289902Y-101644100D01*
X201289083Y-101644100D01*
X201288872Y-101644038D01*
X201286197Y-101643878D01*
X201286233Y-101643263D01*
X201222044Y-101624415D01*
X201176289Y-101571611D01*
X201166345Y-101502453D01*
X201170007Y-101485505D01*
X201197842Y-101389697D01*
X201197843Y-101389691D01*
X201200699Y-101353397D01*
X201200700Y-101353390D01*
X201200700Y-100944010D01*
X201197843Y-100907707D01*
X201191927Y-100887345D01*
X201152695Y-100752309D01*
X201152694Y-100752305D01*
X201152693Y-100752304D01*
X201140289Y-100731330D01*
X201123106Y-100663609D01*
X201140291Y-100605084D01*
X201152232Y-100584894D01*
X201194704Y-100438700D01*
X200888552Y-100438700D01*
X200825433Y-100421432D01*
X200816595Y-100416206D01*
X200816593Y-100416205D01*
X200816589Y-100416203D01*
X200661197Y-100371057D01*
X200661191Y-100371056D01*
X200624897Y-100368200D01*
X200624890Y-100368200D01*
X200155510Y-100368200D01*
X200155502Y-100368200D01*
X200119208Y-100371056D01*
X200119202Y-100371057D01*
X199963810Y-100416203D01*
X199963805Y-100416206D01*
X199954966Y-100421432D01*
X199891848Y-100438700D01*
X199585696Y-100438700D01*
X199628168Y-100584894D01*
X199640111Y-100605089D01*
X199657292Y-100672813D01*
X199640111Y-100731328D01*
X199627706Y-100752304D01*
X199627704Y-100752309D01*
X199582557Y-100907702D01*
X199582556Y-100907708D01*
X199579700Y-100944002D01*
X199579700Y-101353397D01*
X199582556Y-101389691D01*
X199582557Y-101389697D01*
X199627704Y-101545090D01*
X199627705Y-101545093D01*
X199710081Y-101684384D01*
X199710087Y-101684392D01*
X199753380Y-101727684D01*
X199786866Y-101789007D01*
X199789700Y-101815366D01*
X199789700Y-101891500D01*
X199770015Y-101958539D01*
X199717211Y-102004294D01*
X199665700Y-102015500D01*
X199029697Y-102015500D01*
X198962658Y-101995815D01*
X198942016Y-101979181D01*
X198903890Y-101941055D01*
X198903887Y-101941051D01*
X198903887Y-101941052D01*
X198896820Y-101933985D01*
X198896820Y-101933984D01*
X198791618Y-101828782D01*
X198758134Y-101767459D01*
X198755300Y-101741101D01*
X198755300Y-101478066D01*
X198729341Y-101347569D01*
X198729340Y-101347568D01*
X198729340Y-101347564D01*
X198678420Y-101224631D01*
X198604495Y-101113994D01*
X198604492Y-101113990D01*
X198569018Y-101078516D01*
X198535533Y-101017193D01*
X198532699Y-100990835D01*
X198532699Y-100471998D01*
X198532698Y-100471981D01*
X198522199Y-100369203D01*
X198522198Y-100369200D01*
X198503479Y-100312711D01*
X198467014Y-100202666D01*
X198374912Y-100053344D01*
X198260268Y-99938700D01*
X199585696Y-99938700D01*
X200140200Y-99938700D01*
X200640200Y-99938700D01*
X201194704Y-99938700D01*
X201152231Y-99792504D01*
X201069921Y-99653325D01*
X201069914Y-99653316D01*
X200955583Y-99538985D01*
X200955574Y-99538978D01*
X200816395Y-99456668D01*
X200816390Y-99456666D01*
X200661118Y-99411555D01*
X200661112Y-99411554D01*
X200640200Y-99409909D01*
X200640200Y-99938700D01*
X200140200Y-99938700D01*
X200140200Y-99409910D01*
X200140199Y-99409909D01*
X200119287Y-99411554D01*
X200119281Y-99411555D01*
X199964009Y-99456666D01*
X199964004Y-99456668D01*
X199824825Y-99538978D01*
X199824816Y-99538985D01*
X199710485Y-99653316D01*
X199710478Y-99653325D01*
X199628168Y-99792504D01*
X199585696Y-99938700D01*
X198260268Y-99938700D01*
X198250856Y-99929288D01*
X198247542Y-99927243D01*
X198245746Y-99925248D01*
X198245189Y-99924807D01*
X198245264Y-99924711D01*
X198200818Y-99875297D01*
X198189597Y-99806334D01*
X198217440Y-99742252D01*
X198247548Y-99716165D01*
X198250542Y-99714318D01*
X198374515Y-99590345D01*
X198466556Y-99441124D01*
X198466558Y-99441119D01*
X198521705Y-99274697D01*
X198521706Y-99274690D01*
X198532199Y-99171986D01*
X198532200Y-99171973D01*
X198532200Y-99122000D01*
X197181200Y-99122000D01*
X197114161Y-99102315D01*
X197068406Y-99049511D01*
X197057200Y-98998000D01*
X197057200Y-98746000D01*
X197076885Y-98678961D01*
X197129689Y-98633206D01*
X197181200Y-98622000D01*
X198532199Y-98622000D01*
X198532199Y-98572028D01*
X198532198Y-98572013D01*
X198521705Y-98469302D01*
X198466558Y-98302880D01*
X198466556Y-98302875D01*
X198374515Y-98153654D01*
X198250545Y-98029684D01*
X198136984Y-97959639D01*
X198090260Y-97907691D01*
X198079037Y-97838728D01*
X198106881Y-97774646D01*
X198164950Y-97735790D01*
X198202081Y-97730100D01*
X199709731Y-97730100D01*
X199709747Y-97730101D01*
X199717343Y-97730101D01*
X199875454Y-97730101D01*
X199875457Y-97730101D01*
X200028185Y-97689177D01*
X200028187Y-97689175D01*
X200028189Y-97689175D01*
X200028190Y-97689174D01*
X200078472Y-97660144D01*
X200078473Y-97660143D01*
X200165116Y-97610120D01*
X200203418Y-97571818D01*
X200264741Y-97538333D01*
X200334433Y-97543317D01*
X200390366Y-97585189D01*
X200414783Y-97650653D01*
X200415099Y-97659499D01*
X200415099Y-97828246D01*
X200415100Y-97828259D01*
X200415100Y-98236730D01*
X200415099Y-98236748D01*
X200415099Y-98402454D01*
X200415098Y-98402454D01*
X200456024Y-98555187D01*
X200465535Y-98571660D01*
X200465536Y-98571662D01*
X200535077Y-98692112D01*
X200535081Y-98692117D01*
X200653949Y-98810985D01*
X200653955Y-98810990D01*
X200911739Y-99068774D01*
X200911749Y-99068785D01*
X200916079Y-99073115D01*
X200916080Y-99073116D01*
X201027884Y-99184920D01*
X201027886Y-99184921D01*
X201027890Y-99184924D01*
X201164809Y-99263973D01*
X201164816Y-99263977D01*
X201276619Y-99293934D01*
X201317542Y-99304900D01*
X201317543Y-99304900D01*
X201550259Y-99304900D01*
X201617298Y-99324585D01*
X201637940Y-99341218D01*
X201732538Y-99435816D01*
X201885278Y-99531789D01*
X202052621Y-99590345D01*
X202055545Y-99591368D01*
X202055550Y-99591369D01*
X202234796Y-99611565D01*
X202234800Y-99611565D01*
X202234804Y-99611565D01*
X202414049Y-99591369D01*
X202414052Y-99591368D01*
X202414055Y-99591368D01*
X202584322Y-99531789D01*
X202737062Y-99435816D01*
X202864616Y-99308262D01*
X202960589Y-99155522D01*
X203020168Y-98985255D01*
X203039803Y-98810990D01*
X203040365Y-98806003D01*
X203040365Y-98805996D01*
X203020169Y-98626750D01*
X203020166Y-98626737D01*
X202996994Y-98560515D01*
X202993432Y-98490736D01*
X203026352Y-98431881D01*
X203202906Y-98255328D01*
X203202911Y-98255324D01*
X203213114Y-98245120D01*
X203213116Y-98245120D01*
X203324920Y-98133316D01*
X203403977Y-97996384D01*
X203442722Y-97851785D01*
X203442722Y-97851784D01*
X203442730Y-97851786D01*
X203442730Y-97851751D01*
X203443905Y-97847369D01*
X203480289Y-97787721D01*
X203543145Y-97757211D01*
X203550696Y-97756581D01*
X203550681Y-97756459D01*
X203550689Y-97756458D01*
X203556610Y-97756089D01*
X203563670Y-97755501D01*
X203566053Y-97755501D01*
X203566069Y-97755500D01*
X208574331Y-97755500D01*
X208574347Y-97755501D01*
X208581943Y-97755501D01*
X208740054Y-97755501D01*
X208740057Y-97755501D01*
X208892785Y-97714577D01*
X208964027Y-97673445D01*
X209003505Y-97650653D01*
X209029709Y-97635524D01*
X209029708Y-97635524D01*
X209029716Y-97635520D01*
X209141520Y-97523716D01*
X209141520Y-97523714D01*
X209151724Y-97513511D01*
X209151728Y-97513506D01*
X209492513Y-97172721D01*
X209492516Y-97172720D01*
X209588751Y-97076484D01*
X209650070Y-97043002D01*
X209663814Y-97040812D01*
X209726597Y-97034399D01*
X209893134Y-96979214D01*
X210042456Y-96887112D01*
X210166512Y-96763056D01*
X210258614Y-96613734D01*
X210313799Y-96447197D01*
X210324300Y-96344409D01*
X210324299Y-95719392D01*
X210313799Y-95616603D01*
X210258614Y-95450066D01*
X210166512Y-95300744D01*
X210072495Y-95206727D01*
X210039010Y-95145404D01*
X210043994Y-95075712D01*
X210072495Y-95031364D01*
X210166117Y-94937742D01*
X210258156Y-94788524D01*
X210258158Y-94788519D01*
X210313305Y-94622097D01*
X210313306Y-94622090D01*
X210323799Y-94519386D01*
X210323800Y-94519373D01*
X210323800Y-94456900D01*
X207923801Y-94456900D01*
X207923801Y-94519386D01*
X207934294Y-94622097D01*
X207989441Y-94788519D01*
X207989443Y-94788524D01*
X208081484Y-94937745D01*
X208175104Y-95031365D01*
X208208589Y-95092688D01*
X208203605Y-95162380D01*
X208175105Y-95206727D01*
X208081087Y-95300745D01*
X207988987Y-95450063D01*
X207988985Y-95450068D01*
X207982973Y-95468212D01*
X207933801Y-95616603D01*
X207933801Y-95616604D01*
X207933800Y-95616604D01*
X207923300Y-95719383D01*
X207923300Y-96344401D01*
X207923301Y-96344419D01*
X207930808Y-96417899D01*
X207918038Y-96486592D01*
X207870157Y-96537476D01*
X207807450Y-96554500D01*
X207226244Y-96554500D01*
X207159205Y-96534815D01*
X207113450Y-96482011D01*
X207103506Y-96412853D01*
X207111683Y-96383048D01*
X207190409Y-96192983D01*
X207190412Y-96192974D01*
X207229799Y-95994958D01*
X207229800Y-95994955D01*
X207229800Y-95619000D01*
X206504800Y-95619000D01*
X206504800Y-95119000D01*
X207229800Y-95119000D01*
X207229800Y-94743045D01*
X207229799Y-94743041D01*
X207190412Y-94545025D01*
X207190409Y-94545016D01*
X207113147Y-94358486D01*
X207113140Y-94358473D01*
X207000970Y-94190600D01*
X207000967Y-94190596D01*
X206858203Y-94047832D01*
X206858199Y-94047829D01*
X206690326Y-93935659D01*
X206690313Y-93935652D01*
X206590752Y-93894413D01*
X207923800Y-93894413D01*
X207923800Y-93956900D01*
X208873800Y-93956900D01*
X209373800Y-93956900D01*
X210323799Y-93956900D01*
X210323799Y-93894428D01*
X210323798Y-93894413D01*
X210313305Y-93791702D01*
X210258158Y-93625280D01*
X210258156Y-93625275D01*
X210166115Y-93476054D01*
X210042145Y-93352084D01*
X209892924Y-93260043D01*
X209892919Y-93260041D01*
X209726497Y-93204894D01*
X209726490Y-93204893D01*
X209623786Y-93194400D01*
X209373800Y-93194400D01*
X209373800Y-93956900D01*
X208873800Y-93956900D01*
X208873800Y-93194400D01*
X208623829Y-93194400D01*
X208623812Y-93194401D01*
X208521102Y-93204894D01*
X208354680Y-93260041D01*
X208354675Y-93260043D01*
X208205454Y-93352084D01*
X208081484Y-93476054D01*
X207989443Y-93625275D01*
X207989441Y-93625280D01*
X207934294Y-93791702D01*
X207934293Y-93791709D01*
X207923800Y-93894413D01*
X206590752Y-93894413D01*
X206503784Y-93858390D01*
X206503777Y-93858388D01*
X206454800Y-93848645D01*
X206454800Y-94652011D01*
X206444860Y-94634795D01*
X206389005Y-94578940D01*
X206320596Y-94539444D01*
X206244296Y-94519000D01*
X206165304Y-94519000D01*
X206089004Y-94539444D01*
X206020595Y-94578940D01*
X205964740Y-94634795D01*
X205954800Y-94652011D01*
X205954800Y-93848646D01*
X205954799Y-93848645D01*
X205905822Y-93858388D01*
X205905815Y-93858390D01*
X205719286Y-93935652D01*
X205719273Y-93935659D01*
X205551400Y-94047829D01*
X205551396Y-94047832D01*
X205408632Y-94190596D01*
X205408629Y-94190600D01*
X205296459Y-94358473D01*
X205296454Y-94358483D01*
X205262031Y-94441588D01*
X205218190Y-94495991D01*
X205151895Y-94518056D01*
X205084196Y-94500777D01*
X205071979Y-94492507D01*
X205066764Y-94488505D01*
X204958336Y-94425905D01*
X204958337Y-94425905D01*
X204914959Y-94414282D01*
X204837401Y-94393500D01*
X204712199Y-94393500D01*
X204651731Y-94409702D01*
X204591262Y-94425905D01*
X204591259Y-94425907D01*
X204511096Y-94472188D01*
X204443196Y-94488659D01*
X204377169Y-94465806D01*
X204361417Y-94452481D01*
X204078327Y-94169390D01*
X204078323Y-94169387D01*
X203967693Y-94095466D01*
X203967683Y-94095461D01*
X203844754Y-94044542D01*
X203844746Y-94044540D01*
X203714253Y-94018583D01*
X203714249Y-94018583D01*
X201155815Y-94018583D01*
X201088776Y-93998898D01*
X201043021Y-93946094D01*
X201033077Y-93876936D01*
X201037155Y-93858587D01*
X201087223Y-93693534D01*
X201087224Y-93693532D01*
X201106541Y-93497400D01*
X201087224Y-93301268D01*
X201030014Y-93112673D01*
X201030011Y-93112669D01*
X201030011Y-93112666D01*
X200937113Y-92938867D01*
X200937109Y-92938860D01*
X200812083Y-92786516D01*
X200659739Y-92661490D01*
X200659732Y-92661486D01*
X200485933Y-92568588D01*
X200485927Y-92568586D01*
X200297332Y-92511376D01*
X200297329Y-92511375D01*
X200101200Y-92492059D01*
X199905070Y-92511375D01*
X199716466Y-92568588D01*
X199542667Y-92661486D01*
X199542660Y-92661490D01*
X199390316Y-92786516D01*
X199265290Y-92938860D01*
X199265286Y-92938867D01*
X199172388Y-93112666D01*
X199115175Y-93301270D01*
X199095859Y-93497400D01*
X199115175Y-93693529D01*
X199115176Y-93693532D01*
X199165185Y-93858390D01*
X199172388Y-93882133D01*
X199265286Y-94055932D01*
X199265290Y-94055939D01*
X199394181Y-94212992D01*
X199392994Y-94213965D01*
X199422866Y-94268671D01*
X199425700Y-94295029D01*
X199425700Y-94353945D01*
X199406015Y-94420984D01*
X199353211Y-94466739D01*
X199284053Y-94476683D01*
X199239702Y-94461333D01*
X199178340Y-94425907D01*
X199178337Y-94425905D01*
X199134959Y-94414282D01*
X199057401Y-94393500D01*
X198932199Y-94393500D01*
X198854641Y-94414282D01*
X198811263Y-94425905D01*
X198702838Y-94488503D01*
X198697616Y-94492511D01*
X198632447Y-94517705D01*
X198564002Y-94503667D01*
X198514012Y-94454853D01*
X198507568Y-94441587D01*
X198473147Y-94358486D01*
X198473140Y-94358473D01*
X198360970Y-94190600D01*
X198360967Y-94190596D01*
X198218203Y-94047832D01*
X198218199Y-94047829D01*
X198050326Y-93935659D01*
X198050313Y-93935652D01*
X197863784Y-93858390D01*
X197863777Y-93858388D01*
X197814800Y-93848645D01*
X197814800Y-94652011D01*
X197804860Y-94634795D01*
X197749005Y-94578940D01*
X197680596Y-94539444D01*
X197604296Y-94519000D01*
X197525304Y-94519000D01*
X197449004Y-94539444D01*
X197380595Y-94578940D01*
X197324740Y-94634795D01*
X197314800Y-94652011D01*
X197314800Y-93848646D01*
X197314799Y-93848645D01*
X197265822Y-93858388D01*
X197265815Y-93858390D01*
X197079286Y-93935652D01*
X197079273Y-93935659D01*
X196911400Y-94047829D01*
X196911396Y-94047832D01*
X196768632Y-94190596D01*
X196768629Y-94190600D01*
X196656459Y-94358473D01*
X196656452Y-94358486D01*
X196579190Y-94545016D01*
X196579187Y-94545025D01*
X196539800Y-94743041D01*
X196539800Y-95119000D01*
X197264800Y-95119000D01*
X197264800Y-95619000D01*
X196539800Y-95619000D01*
X196539800Y-95994958D01*
X196579187Y-96192974D01*
X196579190Y-96192983D01*
X196647396Y-96357648D01*
X196654865Y-96427117D01*
X196623589Y-96489596D01*
X196563500Y-96525248D01*
X196532835Y-96529100D01*
X196234528Y-96529100D01*
X196167489Y-96509415D01*
X196121734Y-96456611D01*
X196111790Y-96387453D01*
X196114094Y-96377677D01*
X196113782Y-96377611D01*
X196115194Y-96371009D01*
X196115199Y-96370997D01*
X196125700Y-96268209D01*
X196125699Y-95643192D01*
X196115199Y-95540403D01*
X196060014Y-95373866D01*
X195967912Y-95224544D01*
X195873895Y-95130527D01*
X195840410Y-95069204D01*
X195845394Y-94999512D01*
X195873895Y-94955164D01*
X195967517Y-94861542D01*
X196059556Y-94712324D01*
X196059558Y-94712319D01*
X196114705Y-94545897D01*
X196114706Y-94545890D01*
X196125199Y-94443186D01*
X196125200Y-94443173D01*
X196125200Y-94380700D01*
X194799200Y-94380700D01*
X194732161Y-94361015D01*
X194686406Y-94308211D01*
X194675200Y-94256700D01*
X194675200Y-93880700D01*
X195175200Y-93880700D01*
X196125199Y-93880700D01*
X196125199Y-93818228D01*
X196125198Y-93818213D01*
X196114705Y-93715502D01*
X196059558Y-93549080D01*
X196059556Y-93549075D01*
X195967515Y-93399854D01*
X195843545Y-93275884D01*
X195694324Y-93183843D01*
X195694319Y-93183841D01*
X195527897Y-93128694D01*
X195527890Y-93128693D01*
X195425186Y-93118200D01*
X195175200Y-93118200D01*
X195175200Y-93880700D01*
X194675200Y-93880700D01*
X194675200Y-93118200D01*
X194425229Y-93118200D01*
X194425214Y-93118201D01*
X194418033Y-93118935D01*
X194349341Y-93106161D01*
X194298459Y-93058278D01*
X194286778Y-93031572D01*
X194258654Y-92938862D01*
X194245696Y-92896145D01*
X194152792Y-92722334D01*
X194152791Y-92722332D01*
X194027765Y-92569988D01*
X193875421Y-92444962D01*
X193875414Y-92444958D01*
X193701615Y-92352060D01*
X193701609Y-92352058D01*
X193575879Y-92313918D01*
X193513011Y-92294847D01*
X193316882Y-92275531D01*
X193120752Y-92294847D01*
X192932148Y-92352060D01*
X192758349Y-92444958D01*
X192758342Y-92444962D01*
X192605998Y-92569988D01*
X192480972Y-92722332D01*
X192408628Y-92857676D01*
X192386952Y-92886902D01*
X191761873Y-93511981D01*
X191700550Y-93545466D01*
X191646493Y-93542604D01*
X191646020Y-93544818D01*
X191639403Y-93543401D01*
X191536610Y-93532900D01*
X190936598Y-93532900D01*
X190936580Y-93532901D01*
X190833803Y-93543400D01*
X190833800Y-93543401D01*
X190667268Y-93598585D01*
X190667263Y-93598587D01*
X190517942Y-93690689D01*
X190393889Y-93814742D01*
X190301787Y-93964063D01*
X190301785Y-93964068D01*
X190275119Y-94044542D01*
X190246601Y-94130603D01*
X190246601Y-94130604D01*
X190246600Y-94130604D01*
X190236100Y-94233383D01*
X190236100Y-94833401D01*
X190236101Y-94833419D01*
X190246600Y-94936196D01*
X190246601Y-94936199D01*
X190298457Y-95092688D01*
X190301786Y-95102734D01*
X190393888Y-95252056D01*
X190517944Y-95376112D01*
X190667266Y-95468214D01*
X190833803Y-95523399D01*
X190936591Y-95533900D01*
X191536608Y-95533899D01*
X191536616Y-95533898D01*
X191536619Y-95533898D01*
X191592902Y-95528148D01*
X191639397Y-95523399D01*
X191805934Y-95468214D01*
X191872168Y-95427361D01*
X191937264Y-95408900D01*
X192064831Y-95408900D01*
X192064832Y-95408899D01*
X192233974Y-95375255D01*
X192393305Y-95309258D01*
X192536699Y-95213445D01*
X193449259Y-94300883D01*
X193507336Y-94269171D01*
X193507183Y-94268665D01*
X193509613Y-94267927D01*
X193510580Y-94267400D01*
X193512755Y-94266947D01*
X193513006Y-94266896D01*
X193513014Y-94266896D01*
X193565204Y-94251063D01*
X193635071Y-94250440D01*
X193694184Y-94287687D01*
X193723775Y-94350981D01*
X193725200Y-94369722D01*
X193725200Y-94443170D01*
X193725201Y-94443187D01*
X193735694Y-94545897D01*
X193790841Y-94712319D01*
X193790843Y-94712324D01*
X193882884Y-94861545D01*
X193976504Y-94955165D01*
X194009989Y-95016488D01*
X194005005Y-95086180D01*
X193976505Y-95130527D01*
X193882487Y-95224545D01*
X193790387Y-95373863D01*
X193790385Y-95373868D01*
X193778777Y-95408899D01*
X193735201Y-95540403D01*
X193735201Y-95540404D01*
X193735200Y-95540404D01*
X193724700Y-95643183D01*
X193724700Y-96268201D01*
X193724701Y-96268219D01*
X193735200Y-96370996D01*
X193735201Y-96370999D01*
X193790385Y-96537531D01*
X193790387Y-96537536D01*
X193825269Y-96594088D01*
X193882488Y-96686856D01*
X194006544Y-96810912D01*
X194155866Y-96903014D01*
X194275041Y-96942504D01*
X194328830Y-96960329D01*
X194327876Y-96963205D01*
X194377594Y-96990062D01*
X194397695Y-97016136D01*
X194444680Y-97097516D01*
X194556484Y-97209320D01*
X194556485Y-97209321D01*
X194957284Y-97610120D01*
X194999538Y-97634515D01*
X195047751Y-97685079D01*
X195060975Y-97753686D01*
X195035007Y-97818551D01*
X194978093Y-97859080D01*
X194937556Y-97865900D01*
X194934608Y-97865900D01*
X194934580Y-97865901D01*
X194831803Y-97876400D01*
X194831800Y-97876401D01*
X194665268Y-97931585D01*
X194665263Y-97931587D01*
X194515942Y-98023689D01*
X194391885Y-98147746D01*
X194390137Y-98150582D01*
X194388429Y-98152117D01*
X194387407Y-98153411D01*
X194387185Y-98153236D01*
X194338189Y-98197305D01*
X194269226Y-98208526D01*
X194205144Y-98180682D01*
X194179063Y-98150582D01*
X194177314Y-98147746D01*
X194053257Y-98023689D01*
X194053256Y-98023688D01*
X193903934Y-97931586D01*
X193737397Y-97876401D01*
X193737395Y-97876400D01*
X193634610Y-97865900D01*
X192784598Y-97865900D01*
X192784580Y-97865901D01*
X192681803Y-97876400D01*
X192681800Y-97876401D01*
X192515268Y-97931585D01*
X192515263Y-97931587D01*
X192455882Y-97968214D01*
X192365944Y-98023688D01*
X192365941Y-98023690D01*
X192359798Y-98027480D01*
X192358280Y-98025020D01*
X192305628Y-98046202D01*
X192236999Y-98033094D01*
X192228537Y-98028322D01*
X192098844Y-97948327D01*
X192052120Y-97896379D01*
X192040897Y-97827416D01*
X192068741Y-97763334D01*
X192076243Y-97755124D01*
X192079312Y-97752056D01*
X192171414Y-97602734D01*
X192226599Y-97436197D01*
X192237100Y-97333409D01*
X192237099Y-96733392D01*
X192232345Y-96686857D01*
X192226599Y-96630603D01*
X192226598Y-96630600D01*
X192201381Y-96554500D01*
X192171414Y-96464066D01*
X192079312Y-96314744D01*
X191955256Y-96190688D01*
X191805934Y-96098586D01*
X191639397Y-96043401D01*
X191639395Y-96043400D01*
X191536610Y-96032900D01*
X190936598Y-96032900D01*
X190936580Y-96032901D01*
X190833803Y-96043400D01*
X190833800Y-96043401D01*
X190667268Y-96098585D01*
X190667259Y-96098589D01*
X190601032Y-96139439D01*
X190535936Y-96157900D01*
X189976568Y-96157900D01*
X189807433Y-96191543D01*
X189807421Y-96191546D01*
X189648101Y-96257538D01*
X189648088Y-96257545D01*
X189504701Y-96353354D01*
X189504697Y-96353357D01*
X188931781Y-96926274D01*
X188870458Y-96959759D01*
X188800766Y-96954775D01*
X188744833Y-96912903D01*
X188720416Y-96847439D01*
X188720100Y-96838593D01*
X188720100Y-91524599D01*
X190064171Y-91524599D01*
X190064171Y-91524600D01*
X190083844Y-91736910D01*
X190142196Y-91941992D01*
X190142196Y-91941994D01*
X190237232Y-92132853D01*
X190365727Y-92303006D01*
X190365728Y-92303007D01*
X190523298Y-92446652D01*
X190704581Y-92558898D01*
X190903402Y-92635921D01*
X191112990Y-92675100D01*
X191112992Y-92675100D01*
X191326208Y-92675100D01*
X191326210Y-92675100D01*
X191535798Y-92635921D01*
X191734619Y-92558898D01*
X191915902Y-92446652D01*
X192073472Y-92303007D01*
X192201966Y-92132855D01*
X192297005Y-91941989D01*
X192355356Y-91736910D01*
X192375029Y-91524600D01*
X192355356Y-91312290D01*
X192297005Y-91107211D01*
X192297003Y-91107206D01*
X192297003Y-91107205D01*
X192201967Y-90916346D01*
X192073472Y-90746193D01*
X191993407Y-90673204D01*
X191915902Y-90602548D01*
X191896450Y-90590504D01*
X196564800Y-90590504D01*
X196564800Y-90939000D01*
X197264800Y-90939000D01*
X197264800Y-91439000D01*
X196564800Y-91439000D01*
X196564800Y-91787495D01*
X196603227Y-91980681D01*
X196603230Y-91980693D01*
X196678607Y-92162671D01*
X196678614Y-92162684D01*
X196788048Y-92326462D01*
X196788051Y-92326466D01*
X196927333Y-92465748D01*
X196927337Y-92465751D01*
X197091115Y-92575185D01*
X197091128Y-92575192D01*
X197273108Y-92650569D01*
X197314800Y-92658862D01*
X197314800Y-91755988D01*
X197324740Y-91773205D01*
X197380595Y-91829060D01*
X197449004Y-91868556D01*
X197525304Y-91889000D01*
X197604296Y-91889000D01*
X197680596Y-91868556D01*
X197749005Y-91829060D01*
X197804860Y-91773205D01*
X197814800Y-91755988D01*
X197814800Y-92658862D01*
X197856490Y-92650569D01*
X197856492Y-92650569D01*
X198038471Y-92575192D01*
X198038484Y-92575185D01*
X198202262Y-92465751D01*
X198202266Y-92465748D01*
X198341548Y-92326466D01*
X198341551Y-92326462D01*
X198450985Y-92162684D01*
X198450992Y-92162671D01*
X198526369Y-91980693D01*
X198526372Y-91980681D01*
X198564799Y-91787495D01*
X198564800Y-91787492D01*
X198564800Y-91439000D01*
X197864800Y-91439000D01*
X197864800Y-90939000D01*
X198564800Y-90939000D01*
X198564800Y-90590508D01*
X198564799Y-90590504D01*
X205204800Y-90590504D01*
X205204800Y-90939000D01*
X205904800Y-90939000D01*
X205904800Y-91439000D01*
X205204800Y-91439000D01*
X205204800Y-91787495D01*
X205243227Y-91980681D01*
X205243230Y-91980693D01*
X205318607Y-92162671D01*
X205318614Y-92162684D01*
X205428048Y-92326462D01*
X205428051Y-92326466D01*
X205567333Y-92465748D01*
X205567337Y-92465751D01*
X205731115Y-92575185D01*
X205731128Y-92575192D01*
X205913108Y-92650569D01*
X205954800Y-92658862D01*
X205954800Y-91755988D01*
X205964740Y-91773205D01*
X206020595Y-91829060D01*
X206089004Y-91868556D01*
X206165304Y-91889000D01*
X206244296Y-91889000D01*
X206320596Y-91868556D01*
X206389005Y-91829060D01*
X206444860Y-91773205D01*
X206454800Y-91755988D01*
X206454800Y-92658862D01*
X206496490Y-92650569D01*
X206496492Y-92650569D01*
X206678471Y-92575192D01*
X206678484Y-92575185D01*
X206842262Y-92465751D01*
X206842266Y-92465748D01*
X206981548Y-92326466D01*
X206981551Y-92326462D01*
X207090985Y-92162684D01*
X207090992Y-92162671D01*
X207166369Y-91980693D01*
X207166372Y-91980681D01*
X207204799Y-91787495D01*
X207204800Y-91787492D01*
X207204800Y-91524599D01*
X210697571Y-91524599D01*
X210697571Y-91524600D01*
X210717244Y-91736910D01*
X210775596Y-91941992D01*
X210775596Y-91941994D01*
X210870632Y-92132853D01*
X210999127Y-92303006D01*
X210999128Y-92303007D01*
X211156698Y-92446652D01*
X211337981Y-92558898D01*
X211536802Y-92635921D01*
X211746390Y-92675100D01*
X211746392Y-92675100D01*
X211959608Y-92675100D01*
X211959610Y-92675100D01*
X212169198Y-92635921D01*
X212368019Y-92558898D01*
X212549302Y-92446652D01*
X212706872Y-92303007D01*
X212835366Y-92132855D01*
X212930405Y-91941989D01*
X212988756Y-91736910D01*
X213008429Y-91524600D01*
X212988756Y-91312290D01*
X212930405Y-91107211D01*
X212930403Y-91107206D01*
X212930403Y-91107205D01*
X212835367Y-90916346D01*
X212706872Y-90746193D01*
X212626807Y-90673204D01*
X212549302Y-90602548D01*
X212368019Y-90490302D01*
X212368017Y-90490301D01*
X212268608Y-90451790D01*
X212169198Y-90413279D01*
X211959610Y-90374100D01*
X211746390Y-90374100D01*
X211536802Y-90413279D01*
X211536799Y-90413279D01*
X211536799Y-90413280D01*
X211337982Y-90490301D01*
X211337980Y-90490302D01*
X211156699Y-90602547D01*
X210999127Y-90746193D01*
X210870632Y-90916346D01*
X210775596Y-91107205D01*
X210775596Y-91107207D01*
X210717244Y-91312289D01*
X210697571Y-91524599D01*
X207204800Y-91524599D01*
X207204800Y-91439000D01*
X206504800Y-91439000D01*
X206504800Y-90939000D01*
X207204800Y-90939000D01*
X207204800Y-90590508D01*
X207204799Y-90590504D01*
X207166372Y-90397318D01*
X207166369Y-90397306D01*
X207090992Y-90215328D01*
X207090985Y-90215315D01*
X206981551Y-90051537D01*
X206981548Y-90051533D01*
X206842266Y-89912251D01*
X206842262Y-89912248D01*
X206678484Y-89802814D01*
X206678471Y-89802807D01*
X206496491Y-89727429D01*
X206496483Y-89727427D01*
X206454800Y-89719135D01*
X206454800Y-90622011D01*
X206444860Y-90604795D01*
X206389005Y-90548940D01*
X206320596Y-90509444D01*
X206244296Y-90489000D01*
X206165304Y-90489000D01*
X206089004Y-90509444D01*
X206020595Y-90548940D01*
X205964740Y-90604795D01*
X205954800Y-90622011D01*
X205954800Y-89719136D01*
X205954799Y-89719135D01*
X205913116Y-89727427D01*
X205913108Y-89727429D01*
X205731128Y-89802807D01*
X205731115Y-89802814D01*
X205567337Y-89912248D01*
X205567333Y-89912251D01*
X205428051Y-90051533D01*
X205428048Y-90051537D01*
X205318614Y-90215315D01*
X205318607Y-90215328D01*
X205243230Y-90397306D01*
X205243227Y-90397318D01*
X205204800Y-90590504D01*
X198564799Y-90590504D01*
X198526372Y-90397318D01*
X198526369Y-90397306D01*
X198450992Y-90215328D01*
X198450985Y-90215315D01*
X198341551Y-90051537D01*
X198341548Y-90051533D01*
X198202266Y-89912251D01*
X198202262Y-89912248D01*
X198038484Y-89802814D01*
X198038471Y-89802807D01*
X197856491Y-89727429D01*
X197856483Y-89727427D01*
X197814800Y-89719135D01*
X197814800Y-90622011D01*
X197804860Y-90604795D01*
X197749005Y-90548940D01*
X197680596Y-90509444D01*
X197604296Y-90489000D01*
X197525304Y-90489000D01*
X197449004Y-90509444D01*
X197380595Y-90548940D01*
X197324740Y-90604795D01*
X197314800Y-90622011D01*
X197314800Y-89719136D01*
X197314799Y-89719135D01*
X197273116Y-89727427D01*
X197273108Y-89727429D01*
X197091128Y-89802807D01*
X197091115Y-89802814D01*
X196927337Y-89912248D01*
X196927333Y-89912251D01*
X196788051Y-90051533D01*
X196788048Y-90051537D01*
X196678614Y-90215315D01*
X196678607Y-90215328D01*
X196603230Y-90397306D01*
X196603227Y-90397318D01*
X196564800Y-90590504D01*
X191896450Y-90590504D01*
X191734619Y-90490302D01*
X191734617Y-90490301D01*
X191635208Y-90451790D01*
X191535798Y-90413279D01*
X191326210Y-90374100D01*
X191112990Y-90374100D01*
X190903402Y-90413279D01*
X190903399Y-90413279D01*
X190903399Y-90413280D01*
X190704582Y-90490301D01*
X190704580Y-90490302D01*
X190523299Y-90602547D01*
X190365727Y-90746193D01*
X190237232Y-90916346D01*
X190142196Y-91107205D01*
X190142196Y-91107207D01*
X190083844Y-91312289D01*
X190064171Y-91524599D01*
X188720100Y-91524599D01*
X188720100Y-89149100D01*
X188739785Y-89082061D01*
X188792589Y-89036306D01*
X188844100Y-89025100D01*
X214228500Y-89025100D01*
X214295539Y-89044785D01*
G37*
%TD.AperFunction*%
%TA.AperFunction,Conductor*%
G36*
X203867085Y-148599385D02*
G01*
X203912840Y-148652189D01*
X203922784Y-148721347D01*
X203893759Y-148784903D01*
X203873479Y-148802794D01*
X203873614Y-148802959D01*
X203869021Y-148806728D01*
X203868941Y-148806799D01*
X203868908Y-148806820D01*
X203716559Y-148931850D01*
X203591533Y-149084194D01*
X203591529Y-149084201D01*
X203522641Y-149213082D01*
X203473679Y-149262927D01*
X203405541Y-149278387D01*
X203356988Y-149265114D01*
X203308784Y-149240553D01*
X203308781Y-149240551D01*
X203065523Y-149161513D01*
X202812889Y-149121500D01*
X202557111Y-149121500D01*
X202304476Y-149161513D01*
X202061218Y-149240551D01*
X202061215Y-149240552D01*
X201833310Y-149356677D01*
X201626390Y-149507012D01*
X201462727Y-149670674D01*
X202175741Y-150383688D01*
X202131132Y-150450452D01*
X202084019Y-150564194D01*
X202060000Y-150684943D01*
X202060000Y-150975052D01*
X201188709Y-150103762D01*
X201182297Y-150104778D01*
X201113004Y-150095822D01*
X201059552Y-150050825D01*
X201038914Y-149984073D01*
X201039373Y-149971494D01*
X201040746Y-149955797D01*
X201031345Y-149929966D01*
X201032181Y-149929661D01*
X201019834Y-149907048D01*
X201017000Y-149880690D01*
X201017000Y-149646227D01*
X201016999Y-149646225D01*
X200964851Y-149451599D01*
X200964847Y-149451590D01*
X200866867Y-149241471D01*
X200866866Y-149241469D01*
X200811975Y-149163077D01*
X200811975Y-149163076D01*
X200197962Y-149777089D01*
X200180925Y-149713507D01*
X200115099Y-149599493D01*
X200022007Y-149506401D01*
X199907993Y-149440575D01*
X199844409Y-149423537D01*
X200458422Y-148809523D01*
X200452355Y-148805275D01*
X200408730Y-148750698D01*
X200401536Y-148681200D01*
X200433059Y-148618845D01*
X200493289Y-148583431D01*
X200523478Y-148579700D01*
X203800046Y-148579700D01*
X203867085Y-148599385D01*
G37*
%TD.AperFunction*%
%TA.AperFunction,Conductor*%
G36*
X188925303Y-100908293D02*
G01*
X188931781Y-100914325D01*
X189347555Y-101330099D01*
X189419909Y-101402453D01*
X189469502Y-101452046D01*
X189612888Y-101547854D01*
X189612901Y-101547861D01*
X189772221Y-101613853D01*
X189772226Y-101613855D01*
X189924278Y-101644100D01*
X189941366Y-101647499D01*
X189941369Y-101647500D01*
X189941371Y-101647500D01*
X190113829Y-101647500D01*
X190218302Y-101647500D01*
X190285341Y-101667185D01*
X190331096Y-101719989D01*
X190341040Y-101789147D01*
X190312015Y-101852703D01*
X190305983Y-101859181D01*
X190273481Y-101891682D01*
X190273479Y-101891684D01*
X190255828Y-101922258D01*
X190239548Y-101950457D01*
X190194423Y-102028615D01*
X190153499Y-102181343D01*
X190153499Y-102181345D01*
X190153499Y-102349446D01*
X190153500Y-102349459D01*
X190153500Y-103974142D01*
X190133815Y-104041181D01*
X190130073Y-104046503D01*
X190129465Y-104047556D01*
X190068956Y-104193637D01*
X190068955Y-104193639D01*
X190053500Y-104311038D01*
X190053500Y-104649763D01*
X190068955Y-104767163D01*
X190069263Y-104768312D01*
X190069263Y-104769501D01*
X190070016Y-104775221D01*
X190069263Y-104775320D01*
X190069265Y-104825481D01*
X190070017Y-104825580D01*
X190069265Y-104831284D01*
X190069266Y-104832479D01*
X190068956Y-104833634D01*
X190053500Y-104951038D01*
X190053500Y-105289763D01*
X190068954Y-105407158D01*
X190068956Y-105407164D01*
X190104720Y-105493507D01*
X190112189Y-105562976D01*
X190104721Y-105588410D01*
X190074556Y-105661236D01*
X190059100Y-105778638D01*
X190059100Y-106057363D01*
X190074553Y-106174753D01*
X190074556Y-106174762D01*
X190106749Y-106252484D01*
X190135064Y-106320841D01*
X190231318Y-106446282D01*
X190356759Y-106542536D01*
X190502838Y-106603044D01*
X190620239Y-106618500D01*
X190958960Y-106618499D01*
X190958961Y-106618499D01*
X190978527Y-106615923D01*
X191076362Y-106603044D01*
X191076371Y-106603040D01*
X191078479Y-106602476D01*
X191080676Y-106602476D01*
X191084421Y-106601983D01*
X191084486Y-106602476D01*
X191134783Y-106602476D01*
X191134912Y-106601495D01*
X191142363Y-106602476D01*
X191142672Y-106602476D01*
X191142970Y-106602555D01*
X191229600Y-106613961D01*
X191229600Y-106598192D01*
X191249285Y-106531153D01*
X191278111Y-106499818D01*
X191347882Y-106446282D01*
X191407225Y-106368943D01*
X191463652Y-106327742D01*
X191533398Y-106323587D01*
X191594318Y-106357799D01*
X191627071Y-106419516D01*
X191629600Y-106444431D01*
X191629600Y-106613959D01*
X191629601Y-106613960D01*
X191716222Y-106602558D01*
X191716231Y-106602555D01*
X191789001Y-106572413D01*
X191807111Y-106545310D01*
X191860723Y-106500504D01*
X191910213Y-106490200D01*
X192005568Y-106490200D01*
X192072607Y-106509885D01*
X192118362Y-106562689D01*
X192128306Y-106631847D01*
X192099281Y-106695403D01*
X192081058Y-106712572D01*
X192003718Y-106771918D01*
X191958149Y-106831306D01*
X191950183Y-106841687D01*
X191893755Y-106882889D01*
X191851807Y-106890200D01*
X191836041Y-106890200D01*
X191836039Y-106890201D01*
X191847442Y-106976828D01*
X191847525Y-106977135D01*
X191847525Y-106977451D01*
X191848504Y-106984889D01*
X191847525Y-106985017D01*
X191847526Y-107035316D01*
X191848017Y-107035381D01*
X191847526Y-107039103D01*
X191847527Y-107041306D01*
X191846956Y-107043435D01*
X191837837Y-107112702D01*
X191831500Y-107160839D01*
X191831500Y-107326200D01*
X191811817Y-107393239D01*
X191759013Y-107438994D01*
X191737788Y-107443611D01*
X191731200Y-107450200D01*
X191731200Y-107734390D01*
X191711515Y-107801429D01*
X191694880Y-107822072D01*
X191691753Y-107825198D01*
X191691752Y-107825199D01*
X191738199Y-107871647D01*
X191919363Y-108052810D01*
X191952848Y-108114133D01*
X191954489Y-108146238D01*
X191955035Y-108146238D01*
X191955035Y-108153203D01*
X191975230Y-108332449D01*
X191975231Y-108332454D01*
X192034811Y-108502723D01*
X192079297Y-108573521D01*
X192098297Y-108640757D01*
X192077929Y-108707593D01*
X192024662Y-108752807D01*
X191955405Y-108762045D01*
X191892149Y-108732373D01*
X191886622Y-108727174D01*
X191738201Y-108578753D01*
X191738200Y-108578753D01*
X191691753Y-108625200D01*
X191694881Y-108628328D01*
X191728366Y-108689651D01*
X191731200Y-108716009D01*
X191731200Y-109000200D01*
X192036028Y-109000200D01*
X192036044Y-109000199D01*
X192095576Y-108993798D01*
X192137578Y-108978132D01*
X192151887Y-108912352D01*
X192185371Y-108851029D01*
X192246694Y-108817543D01*
X192316385Y-108822527D01*
X192339024Y-108833714D01*
X192411078Y-108878989D01*
X192581345Y-108938568D01*
X192581350Y-108938569D01*
X192760596Y-108958765D01*
X192760600Y-108958765D01*
X192760603Y-108958765D01*
X192828168Y-108951152D01*
X192896990Y-108963206D01*
X192948370Y-109010555D01*
X192965994Y-109078165D01*
X192944268Y-109144571D01*
X192916367Y-109173636D01*
X192904052Y-109182855D01*
X192817806Y-109298064D01*
X192817802Y-109298071D01*
X192767510Y-109432913D01*
X192767509Y-109432917D01*
X192761100Y-109492527D01*
X192761100Y-109492534D01*
X192761100Y-109492535D01*
X192761100Y-109988270D01*
X192761101Y-109988276D01*
X192767508Y-110047883D01*
X192797171Y-110127411D01*
X192802155Y-110197102D01*
X192768670Y-110258425D01*
X192707347Y-110291910D01*
X192648897Y-110290519D01*
X192589857Y-110274699D01*
X192431743Y-110274699D01*
X192429153Y-110274699D01*
X192362114Y-110255014D01*
X192353042Y-110247703D01*
X192352845Y-110247968D01*
X192230535Y-110156406D01*
X192230528Y-110156402D01*
X192095686Y-110106110D01*
X192095685Y-110106109D01*
X192095683Y-110106109D01*
X192036073Y-110099700D01*
X192036063Y-110099700D01*
X191440329Y-110099700D01*
X191440323Y-110099701D01*
X191380720Y-110106108D01*
X191373174Y-110107892D01*
X191372828Y-110106430D01*
X191311822Y-110110784D01*
X191296800Y-110106372D01*
X191295682Y-110106108D01*
X191236082Y-110099701D01*
X191236073Y-110099700D01*
X191236063Y-110099700D01*
X190640329Y-110099700D01*
X190640323Y-110099701D01*
X190580716Y-110106108D01*
X190445871Y-110156402D01*
X190445864Y-110156406D01*
X190330655Y-110242652D01*
X190330652Y-110242655D01*
X190244406Y-110357864D01*
X190244402Y-110357871D01*
X190201460Y-110473007D01*
X190194109Y-110492717D01*
X190187700Y-110552327D01*
X190187700Y-110552334D01*
X190187700Y-110552335D01*
X190187700Y-111198070D01*
X190187701Y-111198076D01*
X190194108Y-111257683D01*
X190244402Y-111392528D01*
X190244406Y-111392535D01*
X190330652Y-111507744D01*
X190330655Y-111507747D01*
X190445864Y-111593993D01*
X190445871Y-111593997D01*
X190477592Y-111605828D01*
X190580717Y-111644291D01*
X190640327Y-111650700D01*
X191236072Y-111650699D01*
X191295683Y-111644291D01*
X191295685Y-111644290D01*
X191295687Y-111644290D01*
X191303231Y-111642508D01*
X191303577Y-111643975D01*
X191364542Y-111639608D01*
X191379578Y-111644022D01*
X191380711Y-111644289D01*
X191380717Y-111644291D01*
X191440327Y-111650700D01*
X192036072Y-111650699D01*
X192095683Y-111644291D01*
X192198808Y-111605828D01*
X192230529Y-111593997D01*
X192238312Y-111589747D01*
X192238979Y-111590969D01*
X192295657Y-111569826D01*
X192363931Y-111584672D01*
X192392193Y-111605828D01*
X192910739Y-112124374D01*
X192910749Y-112124385D01*
X192915079Y-112128715D01*
X192915080Y-112128716D01*
X193026884Y-112240520D01*
X193113695Y-112290639D01*
X193113697Y-112290641D01*
X193151751Y-112312611D01*
X193163815Y-112319577D01*
X193316543Y-112360500D01*
X194350331Y-112360500D01*
X194350347Y-112360501D01*
X194357943Y-112360501D01*
X194516054Y-112360501D01*
X194516057Y-112360501D01*
X194668785Y-112319577D01*
X194718904Y-112290639D01*
X194805716Y-112240520D01*
X194917520Y-112128716D01*
X194917520Y-112128714D01*
X194927728Y-112118507D01*
X194927730Y-112118504D01*
X194937706Y-112108528D01*
X194937711Y-112108524D01*
X194947914Y-112098320D01*
X194947916Y-112098320D01*
X195059720Y-111986516D01*
X195120684Y-111880922D01*
X195138777Y-111849585D01*
X195161011Y-111766604D01*
X195197375Y-111706947D01*
X195260221Y-111676417D01*
X195280785Y-111674700D01*
X195975931Y-111674700D01*
X195975947Y-111674701D01*
X195983543Y-111674701D01*
X196141654Y-111674701D01*
X196141657Y-111674701D01*
X196294385Y-111633777D01*
X196363287Y-111593996D01*
X196431316Y-111554720D01*
X196543120Y-111442916D01*
X196543120Y-111442914D01*
X196553324Y-111432711D01*
X196553327Y-111432706D01*
X196606089Y-111379944D01*
X196667410Y-111346461D01*
X196737102Y-111351445D01*
X196781450Y-111379947D01*
X196825216Y-111423714D01*
X196825225Y-111423721D01*
X196964404Y-111506031D01*
X197110600Y-111548504D01*
X197110600Y-110926797D01*
X197130285Y-110859758D01*
X197146919Y-110839116D01*
X197328421Y-110657614D01*
X197389742Y-110624131D01*
X197459434Y-110629115D01*
X197515367Y-110670987D01*
X197539784Y-110736451D01*
X197540100Y-110745297D01*
X197540100Y-110978697D01*
X197542956Y-111014991D01*
X197542957Y-111014997D01*
X197588103Y-111170389D01*
X197588105Y-111170393D01*
X197588106Y-111170395D01*
X197593332Y-111179233D01*
X197610600Y-111242352D01*
X197610600Y-111548503D01*
X197756794Y-111506032D01*
X197776984Y-111494091D01*
X197844708Y-111476906D01*
X197903229Y-111494089D01*
X197924205Y-111506494D01*
X197928518Y-111507747D01*
X198079602Y-111551642D01*
X198079605Y-111551642D01*
X198079607Y-111551643D01*
X198115910Y-111554500D01*
X198115918Y-111554500D01*
X198525282Y-111554500D01*
X198525290Y-111554500D01*
X198561593Y-111551643D01*
X198561595Y-111551642D01*
X198561597Y-111551642D01*
X198602575Y-111539736D01*
X198716995Y-111506494D01*
X198856287Y-111424117D01*
X198899584Y-111380820D01*
X198960907Y-111347334D01*
X198987266Y-111344500D01*
X199647502Y-111344500D01*
X199714541Y-111364185D01*
X199760296Y-111416989D01*
X199770240Y-111486147D01*
X199741215Y-111549703D01*
X199735183Y-111556181D01*
X199503884Y-111787480D01*
X199234789Y-112056574D01*
X199173466Y-112090059D01*
X199160997Y-112092113D01*
X199159949Y-112092231D01*
X199159946Y-112092231D01*
X199159945Y-112092232D01*
X199142544Y-112098321D01*
X198989678Y-112151810D01*
X198836937Y-112247784D01*
X198709384Y-112375337D01*
X198613411Y-112528076D01*
X198553831Y-112698345D01*
X198553830Y-112698350D01*
X198533635Y-112877596D01*
X198533635Y-112877603D01*
X198553830Y-113056849D01*
X198553831Y-113056854D01*
X198613411Y-113227123D01*
X198709384Y-113379862D01*
X198836938Y-113507416D01*
X198989678Y-113603389D01*
X199159945Y-113662968D01*
X199159950Y-113662969D01*
X199288983Y-113677507D01*
X199353397Y-113704573D01*
X199392952Y-113762168D01*
X199399100Y-113800727D01*
X199399100Y-114021212D01*
X199399099Y-114021230D01*
X199399099Y-114186936D01*
X199399098Y-114186936D01*
X199440024Y-114339669D01*
X199451703Y-114359897D01*
X199451704Y-114359899D01*
X199519077Y-114476594D01*
X199519081Y-114476599D01*
X199637949Y-114595467D01*
X199637955Y-114595472D01*
X202470680Y-117428197D01*
X202504165Y-117489520D01*
X202506219Y-117501994D01*
X202516012Y-117588913D01*
X202575592Y-117759185D01*
X202612485Y-117817900D01*
X202671566Y-117911926D01*
X202799120Y-118039480D01*
X202806131Y-118043885D01*
X202934291Y-118124414D01*
X202951860Y-118135453D01*
X203020737Y-118159554D01*
X203122127Y-118195032D01*
X203122131Y-118195033D01*
X203206378Y-118204524D01*
X203275045Y-118212261D01*
X203339458Y-118239327D01*
X203379013Y-118296921D01*
X203381152Y-118366758D01*
X203345194Y-118426665D01*
X203332285Y-118437056D01*
X203141722Y-118570490D01*
X203141720Y-118570491D01*
X202974691Y-118737520D01*
X202974690Y-118737522D01*
X202844375Y-118923631D01*
X202789798Y-118967255D01*
X202720299Y-118974448D01*
X202657945Y-118942926D01*
X202641225Y-118923631D01*
X202510909Y-118737522D01*
X202510908Y-118737520D01*
X202343882Y-118570494D01*
X202150378Y-118434999D01*
X201936292Y-118335170D01*
X201936286Y-118335167D01*
X201722800Y-118277964D01*
X201722800Y-119175588D01*
X201665793Y-119142675D01*
X201538626Y-119108600D01*
X201406974Y-119108600D01*
X201279807Y-119142675D01*
X201222800Y-119175588D01*
X201222800Y-118277964D01*
X201222799Y-118277964D01*
X201009313Y-118335167D01*
X201009307Y-118335170D01*
X200795222Y-118434999D01*
X200795220Y-118435000D01*
X200601726Y-118570486D01*
X200601720Y-118570491D01*
X200434691Y-118737520D01*
X200434686Y-118737526D01*
X200299200Y-118931020D01*
X200299199Y-118931022D01*
X200199370Y-119145107D01*
X200199367Y-119145113D01*
X200142164Y-119358599D01*
X200142164Y-119358600D01*
X201039788Y-119358600D01*
X201006875Y-119415607D01*
X200972800Y-119542774D01*
X200972800Y-119674426D01*
X201006875Y-119801593D01*
X201039788Y-119858600D01*
X200189463Y-119858600D01*
X200122424Y-119838915D01*
X200101782Y-119822281D01*
X199579909Y-119300407D01*
X199579905Y-119300404D01*
X199469275Y-119226483D01*
X199469265Y-119226478D01*
X199346336Y-119175559D01*
X199346328Y-119175557D01*
X199215835Y-119149600D01*
X199215831Y-119149600D01*
X197656398Y-119149600D01*
X197589359Y-119129915D01*
X197543604Y-119077111D01*
X197534170Y-119039691D01*
X197533329Y-119039802D01*
X197517357Y-118918471D01*
X197517355Y-118918466D01*
X197456900Y-118772514D01*
X197360724Y-118647175D01*
X197235386Y-118550999D01*
X197089434Y-118490545D01*
X197089430Y-118490544D01*
X196972130Y-118475100D01*
X196907800Y-118475100D01*
X196907800Y-119000600D01*
X196888115Y-119067639D01*
X196835311Y-119113394D01*
X196783800Y-119124600D01*
X196631800Y-119124600D01*
X196564761Y-119104915D01*
X196519006Y-119052111D01*
X196507800Y-119000600D01*
X196507800Y-118475100D01*
X196507799Y-118475099D01*
X196443476Y-118475100D01*
X196326171Y-118490542D01*
X196326166Y-118490544D01*
X196180214Y-118550999D01*
X196054875Y-118647175D01*
X195958700Y-118772512D01*
X195957298Y-118775899D01*
X195955347Y-118778319D01*
X195954637Y-118779550D01*
X195954445Y-118779439D01*
X195913456Y-118830302D01*
X195847161Y-118852366D01*
X195801783Y-118845487D01*
X195686849Y-118805270D01*
X195625200Y-118798324D01*
X195560787Y-118771257D01*
X195540711Y-118750593D01*
X195461082Y-118646818D01*
X195335641Y-118550564D01*
X195189562Y-118490056D01*
X195189560Y-118490055D01*
X195072161Y-118474600D01*
X194543436Y-118474600D01*
X194426046Y-118490053D01*
X194426035Y-118490057D01*
X194392640Y-118503889D01*
X194323171Y-118511356D01*
X194260692Y-118480080D01*
X194225416Y-118421422D01*
X194209177Y-118360816D01*
X194209173Y-118360809D01*
X194130124Y-118223890D01*
X194130121Y-118223886D01*
X194130120Y-118223884D01*
X194018316Y-118112080D01*
X194018315Y-118112079D01*
X194013985Y-118107749D01*
X194013974Y-118107739D01*
X192740190Y-116833955D01*
X192740188Y-116833952D01*
X192621317Y-116715081D01*
X192621309Y-116715075D01*
X192524209Y-116659015D01*
X192524207Y-116659014D01*
X192484390Y-116636025D01*
X192484381Y-116636021D01*
X192384515Y-116609261D01*
X192324855Y-116572896D01*
X192320757Y-116568152D01*
X192252283Y-116484716D01*
X192099939Y-116359690D01*
X192099932Y-116359686D01*
X191926133Y-116266788D01*
X191926127Y-116266786D01*
X191737532Y-116209576D01*
X191737529Y-116209575D01*
X191541400Y-116190259D01*
X191345270Y-116209575D01*
X191156666Y-116266788D01*
X190982867Y-116359686D01*
X190982860Y-116359690D01*
X190830516Y-116484716D01*
X190705490Y-116637060D01*
X190705486Y-116637067D01*
X190612588Y-116810866D01*
X190555375Y-116999470D01*
X190536059Y-117195600D01*
X190555375Y-117391729D01*
X190555376Y-117391732D01*
X190594472Y-117520615D01*
X190612588Y-117580333D01*
X190705486Y-117754132D01*
X190705490Y-117754139D01*
X190830516Y-117906483D01*
X190982860Y-118031509D01*
X190982867Y-118031513D01*
X191156666Y-118124411D01*
X191156669Y-118124411D01*
X191156673Y-118124414D01*
X191345268Y-118181624D01*
X191541400Y-118200941D01*
X191737532Y-118181624D01*
X191926127Y-118124414D01*
X191926133Y-118124411D01*
X192105311Y-118028639D01*
X192106035Y-118029994D01*
X192165492Y-118011358D01*
X192232878Y-118029824D01*
X192255422Y-118047657D01*
X193012781Y-118805016D01*
X193046266Y-118866339D01*
X193049100Y-118892697D01*
X193049100Y-119928330D01*
X193049099Y-119928348D01*
X193049099Y-120104046D01*
X193049100Y-120104059D01*
X193049100Y-122620730D01*
X193049099Y-122620748D01*
X193049099Y-122796446D01*
X193049100Y-122796459D01*
X193049100Y-125363930D01*
X193049099Y-125363948D01*
X193049099Y-125539646D01*
X193049100Y-125539659D01*
X193049100Y-128208730D01*
X193049099Y-128208748D01*
X193049099Y-128384446D01*
X193049100Y-128384459D01*
X193049100Y-131155130D01*
X193049099Y-131155148D01*
X193049099Y-131330846D01*
X193049100Y-131330859D01*
X193049100Y-134152330D01*
X193049099Y-134152348D01*
X193049099Y-134328046D01*
X193049100Y-134328059D01*
X193049100Y-137022530D01*
X193049099Y-137022548D01*
X193049099Y-137198246D01*
X193049100Y-137198259D01*
X193049100Y-139791130D01*
X193049099Y-139791148D01*
X193049099Y-139956854D01*
X193049098Y-139956854D01*
X193090023Y-140109585D01*
X193110612Y-140145247D01*
X193117664Y-140157460D01*
X193169079Y-140246514D01*
X193169081Y-140246517D01*
X193287949Y-140365385D01*
X193287955Y-140365390D01*
X193955039Y-141032474D01*
X193955049Y-141032485D01*
X193959379Y-141036815D01*
X193959380Y-141036816D01*
X194071184Y-141148620D01*
X194146591Y-141192156D01*
X194208115Y-141227677D01*
X194208117Y-141227677D01*
X194215625Y-141230788D01*
X194215072Y-141232121D01*
X194247022Y-141247872D01*
X194305359Y-141292636D01*
X194305362Y-141292637D01*
X194305363Y-141292638D01*
X194378398Y-141322890D01*
X194451438Y-141353144D01*
X194568839Y-141368600D01*
X195097560Y-141368599D01*
X195097563Y-141368599D01*
X195214953Y-141353146D01*
X195214957Y-141353144D01*
X195214962Y-141353144D01*
X195361041Y-141292636D01*
X195486482Y-141196382D01*
X195582736Y-141070941D01*
X195643244Y-140924862D01*
X195658700Y-140807461D01*
X195658699Y-140528740D01*
X195658698Y-140528736D01*
X195651524Y-140474237D01*
X195650172Y-140463968D01*
X195660938Y-140394935D01*
X195707318Y-140342679D01*
X195759225Y-140324565D01*
X195779706Y-140322257D01*
X195848527Y-140334310D01*
X195899907Y-140381658D01*
X195917533Y-140449268D01*
X195916530Y-140461661D01*
X195907700Y-140528736D01*
X195907700Y-140807463D01*
X195923153Y-140924853D01*
X195923156Y-140924862D01*
X195949154Y-140987628D01*
X195983664Y-141070941D01*
X196079918Y-141196382D01*
X196205359Y-141292636D01*
X196351438Y-141353144D01*
X196468839Y-141368600D01*
X196997560Y-141368599D01*
X196997563Y-141368599D01*
X197114953Y-141353146D01*
X197114957Y-141353144D01*
X197114962Y-141353144D01*
X197261041Y-141292636D01*
X197386482Y-141196382D01*
X197482736Y-141070941D01*
X197543244Y-140924862D01*
X197558700Y-140807461D01*
X197558700Y-140807460D01*
X197559230Y-140803437D01*
X197560705Y-140803631D01*
X197582612Y-140743858D01*
X197638305Y-140701668D01*
X197682302Y-140693600D01*
X200295252Y-140693600D01*
X200362291Y-140713285D01*
X200396826Y-140746476D01*
X200434305Y-140800001D01*
X200601397Y-140967093D01*
X200601403Y-140967098D01*
X200638126Y-140992811D01*
X200744424Y-141067242D01*
X200788048Y-141121818D01*
X200797300Y-141168816D01*
X200797300Y-141197637D01*
X200777615Y-141264676D01*
X200760981Y-141285318D01*
X200594318Y-141451981D01*
X200532995Y-141485466D01*
X200506637Y-141488300D01*
X198459864Y-141488300D01*
X198329371Y-141514256D01*
X198329367Y-141514258D01*
X198329365Y-141514258D01*
X198329364Y-141514259D01*
X198295227Y-141528399D01*
X198242434Y-141550266D01*
X198242433Y-141550265D01*
X198206434Y-141565178D01*
X198161307Y-141595331D01*
X198095791Y-141639106D01*
X196426907Y-143307990D01*
X196426904Y-143307994D01*
X196371764Y-143390517D01*
X196318151Y-143435322D01*
X196307667Y-143439332D01*
X196182266Y-143480886D01*
X196182263Y-143480887D01*
X196032942Y-143572989D01*
X195908889Y-143697042D01*
X195816787Y-143846363D01*
X195816786Y-143846366D01*
X195761601Y-144012903D01*
X195761601Y-144012904D01*
X195761600Y-144012904D01*
X195751100Y-144115683D01*
X195751100Y-144740701D01*
X195751101Y-144740719D01*
X195761600Y-144843496D01*
X195761601Y-144843499D01*
X195816785Y-145010031D01*
X195816787Y-145010036D01*
X195908889Y-145159357D01*
X196002551Y-145253019D01*
X196036036Y-145314342D01*
X196031052Y-145384034D01*
X196002551Y-145428381D01*
X195908889Y-145522042D01*
X195816787Y-145671363D01*
X195816786Y-145671366D01*
X195761601Y-145837903D01*
X195761601Y-145837904D01*
X195761600Y-145837904D01*
X195751100Y-145940683D01*
X195751100Y-146565701D01*
X195751101Y-146565719D01*
X195761600Y-146668496D01*
X195761601Y-146668499D01*
X195795204Y-146769904D01*
X195816786Y-146835034D01*
X195883150Y-146942628D01*
X195901590Y-147010020D01*
X195880667Y-147076683D01*
X195865292Y-147095405D01*
X194690307Y-148270390D01*
X194690304Y-148270394D01*
X194616383Y-148381024D01*
X194616378Y-148381034D01*
X194565459Y-148503963D01*
X194565457Y-148503969D01*
X194541645Y-148623677D01*
X194541646Y-148623678D01*
X194539500Y-148634469D01*
X194539500Y-148696803D01*
X194519815Y-148763842D01*
X194486624Y-148798377D01*
X194359730Y-148887230D01*
X194195731Y-149051229D01*
X194195726Y-149051235D01*
X194066575Y-149235683D01*
X194011998Y-149279308D01*
X193942500Y-149286502D01*
X193880145Y-149254979D01*
X193863425Y-149235683D01*
X193734273Y-149051235D01*
X193734268Y-149051229D01*
X193570269Y-148887230D01*
X193459292Y-148809523D01*
X193380282Y-148754199D01*
X193170079Y-148656180D01*
X193170076Y-148656179D01*
X193170074Y-148656178D01*
X192946051Y-148596151D01*
X192946044Y-148596150D01*
X192715002Y-148575937D01*
X192714998Y-148575937D01*
X192483955Y-148596150D01*
X192483948Y-148596151D01*
X192259917Y-148656181D01*
X192049718Y-148754199D01*
X192049714Y-148754201D01*
X191859735Y-148887226D01*
X191859729Y-148887231D01*
X191695731Y-149051229D01*
X191695726Y-149051235D01*
X191562701Y-149241214D01*
X191562699Y-149241218D01*
X191464681Y-149451417D01*
X191404651Y-149675448D01*
X191404650Y-149675455D01*
X191384437Y-149906498D01*
X191384437Y-149906502D01*
X191390116Y-149971417D01*
X191376349Y-150039917D01*
X191327734Y-150090100D01*
X191259705Y-150106033D01*
X191247193Y-150104698D01*
X191241288Y-150103762D01*
X190370000Y-150975050D01*
X190370000Y-150684943D01*
X190345981Y-150564194D01*
X190298868Y-150450452D01*
X190254258Y-150383688D01*
X190967272Y-149670675D01*
X190967272Y-149670673D01*
X190803620Y-149507022D01*
X190803619Y-149507021D01*
X190596686Y-149356675D01*
X190368784Y-149240552D01*
X190368781Y-149240551D01*
X190125523Y-149161513D01*
X189872889Y-149121500D01*
X189617111Y-149121500D01*
X189364476Y-149161513D01*
X189121218Y-149240551D01*
X189121215Y-149240552D01*
X188900395Y-149353067D01*
X188831726Y-149365963D01*
X188766985Y-149339687D01*
X188726728Y-149282580D01*
X188720100Y-149242582D01*
X188720100Y-142671799D01*
X190064171Y-142671799D01*
X190064171Y-142671800D01*
X190083844Y-142884110D01*
X190142196Y-143089192D01*
X190142196Y-143089194D01*
X190237232Y-143280053D01*
X190365727Y-143450206D01*
X190365728Y-143450207D01*
X190523298Y-143593852D01*
X190704581Y-143706098D01*
X190903402Y-143783121D01*
X191112990Y-143822300D01*
X191112992Y-143822300D01*
X191326208Y-143822300D01*
X191326210Y-143822300D01*
X191535798Y-143783121D01*
X191734619Y-143706098D01*
X191915902Y-143593852D01*
X192073472Y-143450207D01*
X192201966Y-143280055D01*
X192297005Y-143089189D01*
X192355356Y-142884110D01*
X192375029Y-142671800D01*
X192355356Y-142459490D01*
X192297005Y-142254411D01*
X192297003Y-142254406D01*
X192297003Y-142254405D01*
X192201967Y-142063546D01*
X192073471Y-141893392D01*
X192000592Y-141826954D01*
X191915902Y-141749748D01*
X191734619Y-141637502D01*
X191734617Y-141637501D01*
X191625760Y-141595330D01*
X191535798Y-141560479D01*
X191326210Y-141521300D01*
X191112990Y-141521300D01*
X190903402Y-141560479D01*
X190903399Y-141560479D01*
X190903399Y-141560480D01*
X190704582Y-141637501D01*
X190704580Y-141637502D01*
X190523299Y-141749747D01*
X190365729Y-141893392D01*
X190237232Y-142063546D01*
X190142196Y-142254405D01*
X190142196Y-142254407D01*
X190083844Y-142459489D01*
X190064171Y-142671799D01*
X188720100Y-142671799D01*
X188720100Y-108978131D01*
X190538821Y-108978131D01*
X190580823Y-108993797D01*
X190580827Y-108993798D01*
X190640355Y-109000199D01*
X190640372Y-109000200D01*
X190945200Y-109000200D01*
X190945200Y-108716008D01*
X190964885Y-108648969D01*
X190981519Y-108628327D01*
X190984646Y-108625200D01*
X190984646Y-108625199D01*
X190938201Y-108578753D01*
X190938200Y-108578753D01*
X190538821Y-108978131D01*
X188720100Y-108978131D01*
X188720100Y-107902371D01*
X190188200Y-107902371D01*
X190188200Y-108548044D01*
X190194601Y-108607575D01*
X190194602Y-108607577D01*
X190196684Y-108613160D01*
X190196685Y-108613161D01*
X190584647Y-108225200D01*
X191291753Y-108225200D01*
X191338200Y-108271647D01*
X191384647Y-108225200D01*
X191338200Y-108178753D01*
X191291753Y-108225200D01*
X190584647Y-108225200D01*
X190584647Y-108225199D01*
X190196685Y-107837237D01*
X190194602Y-107842823D01*
X190188200Y-107902371D01*
X188720100Y-107902371D01*
X188720100Y-107472267D01*
X190538820Y-107472267D01*
X190938199Y-107871645D01*
X190984646Y-107825198D01*
X190981519Y-107822071D01*
X190948034Y-107760748D01*
X190945200Y-107734390D01*
X190945200Y-107450200D01*
X190640355Y-107450200D01*
X190580826Y-107456601D01*
X190580823Y-107456602D01*
X190538821Y-107472267D01*
X190538820Y-107472267D01*
X188720100Y-107472267D01*
X188720100Y-101002006D01*
X188739785Y-100934967D01*
X188792589Y-100889212D01*
X188861747Y-100879268D01*
X188925303Y-100908293D01*
G37*
%TD.AperFunction*%
%TA.AperFunction,Conductor*%
G36*
X207431676Y-148599385D02*
G01*
X207452318Y-148616019D01*
X207512718Y-148676419D01*
X207546203Y-148737742D01*
X207541219Y-148807434D01*
X207499347Y-148863367D01*
X207433883Y-148887784D01*
X207425039Y-148888100D01*
X207357899Y-148888100D01*
X207357880Y-148888101D01*
X207255103Y-148898600D01*
X207255100Y-148898601D01*
X207088568Y-148953785D01*
X207088563Y-148953787D01*
X206939245Y-149045887D01*
X206845227Y-149139905D01*
X206783903Y-149173389D01*
X206714212Y-149168405D01*
X206669865Y-149139904D01*
X206576245Y-149046284D01*
X206427024Y-148954243D01*
X206427019Y-148954241D01*
X206260597Y-148899094D01*
X206260590Y-148899093D01*
X206157886Y-148888600D01*
X206095400Y-148888600D01*
X206095400Y-150214600D01*
X206075715Y-150281639D01*
X206022911Y-150327394D01*
X205971400Y-150338600D01*
X205719400Y-150338600D01*
X205652361Y-150318915D01*
X205606606Y-150266111D01*
X205595400Y-150214600D01*
X205595400Y-148888600D01*
X205595399Y-148888599D01*
X205532928Y-148888600D01*
X205532911Y-148888601D01*
X205430202Y-148899094D01*
X205258701Y-148955924D01*
X205188872Y-148958326D01*
X205141032Y-148934071D01*
X204985977Y-148806820D01*
X204985945Y-148806799D01*
X204985931Y-148806783D01*
X204981272Y-148802959D01*
X204981997Y-148802075D01*
X204941142Y-148753185D01*
X204932437Y-148683860D01*
X204962595Y-148620834D01*
X205022039Y-148584117D01*
X205054840Y-148579700D01*
X207364637Y-148579700D01*
X207431676Y-148599385D01*
G37*
%TD.AperFunction*%
%TA.AperFunction,Conductor*%
G36*
X207754041Y-137903085D02*
G01*
X207799796Y-137955889D01*
X207809229Y-137993308D01*
X207810071Y-137993198D01*
X207826042Y-138114528D01*
X207826044Y-138114533D01*
X207886499Y-138260485D01*
X207982675Y-138385824D01*
X208108013Y-138482000D01*
X208217874Y-138527505D01*
X208272278Y-138571345D01*
X208294343Y-138637639D01*
X208277064Y-138705339D01*
X208225927Y-138752949D01*
X208217875Y-138756627D01*
X208097560Y-138806463D01*
X207972118Y-138902718D01*
X207875863Y-139028160D01*
X207815356Y-139174237D01*
X207815355Y-139174239D01*
X207799370Y-139295663D01*
X207797894Y-139295468D01*
X207775988Y-139355242D01*
X207720295Y-139397432D01*
X207676298Y-139405500D01*
X205487299Y-139405500D01*
X205420260Y-139385815D01*
X205374505Y-139333011D01*
X205363299Y-139281500D01*
X205363299Y-139030729D01*
X205363298Y-139030723D01*
X205363022Y-139028159D01*
X205356891Y-138971117D01*
X205355610Y-138967683D01*
X205306597Y-138836271D01*
X205306593Y-138836264D01*
X205220347Y-138721055D01*
X205220344Y-138721052D01*
X205105135Y-138634806D01*
X205105128Y-138634802D01*
X204973717Y-138585789D01*
X204917783Y-138543918D01*
X204893366Y-138478453D01*
X204908218Y-138410180D01*
X204929363Y-138381932D01*
X205051295Y-138260001D01*
X205186835Y-138066430D01*
X205238798Y-137954993D01*
X205284970Y-137902556D01*
X205351180Y-137883400D01*
X207687002Y-137883400D01*
X207754041Y-137903085D01*
G37*
%TD.AperFunction*%
%TA.AperFunction,Conductor*%
G36*
X200172128Y-137840185D02*
G01*
X200217471Y-137892095D01*
X200298765Y-138066430D01*
X200298767Y-138066434D01*
X200332447Y-138114533D01*
X200434301Y-138259996D01*
X200434306Y-138260002D01*
X200601397Y-138427093D01*
X200601403Y-138427098D01*
X200786958Y-138557025D01*
X200830583Y-138611602D01*
X200837777Y-138681100D01*
X200806254Y-138743455D01*
X200786958Y-138760175D01*
X200601397Y-138890105D01*
X200434305Y-139057197D01*
X200298765Y-139250769D01*
X200298763Y-139250772D01*
X200289328Y-139271007D01*
X200243155Y-139323445D01*
X200176947Y-139342600D01*
X197681798Y-139342600D01*
X197614759Y-139322915D01*
X197569004Y-139270111D01*
X197559570Y-139232691D01*
X197558729Y-139232802D01*
X197542757Y-139111471D01*
X197542755Y-139111466D01*
X197482300Y-138965514D01*
X197386124Y-138840175D01*
X197260786Y-138743999D01*
X197150925Y-138698494D01*
X197096521Y-138654653D01*
X197074456Y-138588359D01*
X197091735Y-138520660D01*
X197142872Y-138473049D01*
X197150910Y-138469378D01*
X197271241Y-138419536D01*
X197396682Y-138323282D01*
X197492936Y-138197841D01*
X197553444Y-138051762D01*
X197568900Y-137934361D01*
X197568900Y-137934360D01*
X197569430Y-137930337D01*
X197570905Y-137930531D01*
X197592812Y-137870758D01*
X197648505Y-137828568D01*
X197692502Y-137820500D01*
X200105089Y-137820500D01*
X200172128Y-137840185D01*
G37*
%TD.AperFunction*%
%TA.AperFunction,Conductor*%
G36*
X207738841Y-135081985D02*
G01*
X207784596Y-135134789D01*
X207794029Y-135172208D01*
X207794871Y-135172098D01*
X207810842Y-135293428D01*
X207810844Y-135293433D01*
X207871299Y-135439385D01*
X207967475Y-135564724D01*
X208092813Y-135660900D01*
X208152604Y-135685666D01*
X208207008Y-135729506D01*
X208229073Y-135795801D01*
X208211794Y-135863500D01*
X208160657Y-135911111D01*
X208152605Y-135914788D01*
X208107760Y-135933363D01*
X207982318Y-136029618D01*
X207886063Y-136155060D01*
X207825556Y-136301137D01*
X207825555Y-136301139D01*
X207809570Y-136422563D01*
X207808094Y-136422368D01*
X207786188Y-136482142D01*
X207730495Y-136524332D01*
X207686498Y-136532400D01*
X205117858Y-136532400D01*
X205050819Y-136512715D01*
X205030177Y-136496081D01*
X204884202Y-136350106D01*
X204884196Y-136350101D01*
X204698642Y-136220175D01*
X204655017Y-136165598D01*
X204647823Y-136096100D01*
X204679346Y-136033745D01*
X204698642Y-136017025D01*
X204818122Y-135933364D01*
X204884201Y-135887095D01*
X205051295Y-135720001D01*
X205186835Y-135526430D01*
X205286703Y-135312263D01*
X205321724Y-135181562D01*
X205329054Y-135154207D01*
X205365419Y-135094546D01*
X205428266Y-135064017D01*
X205448829Y-135062300D01*
X207671802Y-135062300D01*
X207738841Y-135081985D01*
G37*
%TD.AperFunction*%
%TA.AperFunction,Conductor*%
G36*
X200079453Y-134969985D02*
G01*
X200125208Y-135022789D01*
X200135942Y-135063491D01*
X200137736Y-135084004D01*
X200137738Y-135084013D01*
X200198894Y-135312255D01*
X200198896Y-135312259D01*
X200198897Y-135312263D01*
X200270566Y-135465957D01*
X200298765Y-135526430D01*
X200298767Y-135526434D01*
X200392922Y-135660900D01*
X200434301Y-135719996D01*
X200434306Y-135720002D01*
X200601397Y-135887093D01*
X200601403Y-135887098D01*
X200786958Y-136017025D01*
X200830583Y-136071602D01*
X200837777Y-136141100D01*
X200806254Y-136203455D01*
X200786958Y-136220175D01*
X200601400Y-136350103D01*
X200559862Y-136391642D01*
X200518321Y-136433182D01*
X200457001Y-136466666D01*
X200430642Y-136469500D01*
X197691998Y-136469500D01*
X197624959Y-136449815D01*
X197579204Y-136397011D01*
X197569770Y-136359591D01*
X197568929Y-136359702D01*
X197552957Y-136238371D01*
X197552955Y-136238366D01*
X197492500Y-136092414D01*
X197396324Y-135967075D01*
X197270986Y-135870899D01*
X197159526Y-135824732D01*
X197105122Y-135780892D01*
X197083057Y-135714598D01*
X197100336Y-135646898D01*
X197151473Y-135599287D01*
X197159516Y-135595613D01*
X197271241Y-135549336D01*
X197396682Y-135453082D01*
X197492936Y-135327641D01*
X197553444Y-135181562D01*
X197565854Y-135087299D01*
X197569430Y-135060137D01*
X197570905Y-135060331D01*
X197592812Y-135000558D01*
X197648505Y-134958368D01*
X197692502Y-134950300D01*
X200012414Y-134950300D01*
X200079453Y-134969985D01*
G37*
%TD.AperFunction*%
%TA.AperFunction,Conductor*%
G36*
X207779441Y-132213485D02*
G01*
X207825196Y-132266289D01*
X207834629Y-132303708D01*
X207835471Y-132303598D01*
X207851442Y-132424928D01*
X207851444Y-132424933D01*
X207911899Y-132570885D01*
X208008075Y-132696224D01*
X208133413Y-132792400D01*
X208222521Y-132829309D01*
X208276925Y-132873149D01*
X208298990Y-132939443D01*
X208281711Y-133007143D01*
X208230574Y-133054753D01*
X208222522Y-133058431D01*
X208092560Y-133112263D01*
X207967118Y-133208518D01*
X207870863Y-133333960D01*
X207810356Y-133480037D01*
X207810355Y-133480039D01*
X207794370Y-133601463D01*
X207792894Y-133601268D01*
X207770988Y-133661042D01*
X207715295Y-133703232D01*
X207671298Y-133711300D01*
X204782190Y-133711300D01*
X204715151Y-133691615D01*
X204711067Y-133688875D01*
X204698642Y-133680175D01*
X204655017Y-133625598D01*
X204647823Y-133556100D01*
X204679346Y-133493745D01*
X204698642Y-133477025D01*
X204736809Y-133450300D01*
X204884201Y-133347095D01*
X205051295Y-133180001D01*
X205186835Y-132986430D01*
X205286703Y-132772263D01*
X205347863Y-132544008D01*
X205359918Y-132406217D01*
X205368600Y-132306992D01*
X205394053Y-132241924D01*
X205450644Y-132200945D01*
X205492128Y-132193800D01*
X207712402Y-132193800D01*
X207779441Y-132213485D01*
G37*
%TD.AperFunction*%
%TA.AperFunction,Conductor*%
G36*
X195854870Y-131653094D02*
G01*
X195906251Y-131700441D01*
X195923878Y-131768051D01*
X195922875Y-131780446D01*
X195917900Y-131818236D01*
X195917900Y-132096963D01*
X195933353Y-132214353D01*
X195933356Y-132214362D01*
X195993864Y-132360441D01*
X196090118Y-132485882D01*
X196215559Y-132582136D01*
X196361638Y-132642644D01*
X196479039Y-132658100D01*
X197007760Y-132658099D01*
X197007763Y-132658099D01*
X197125153Y-132642646D01*
X197125157Y-132642644D01*
X197125162Y-132642644D01*
X197271241Y-132582136D01*
X197396682Y-132485882D01*
X197492936Y-132360441D01*
X197553444Y-132214362D01*
X197568900Y-132096961D01*
X197568900Y-132096960D01*
X197569430Y-132092937D01*
X197570905Y-132093131D01*
X197592812Y-132033358D01*
X197648505Y-131991168D01*
X197692502Y-131983100D01*
X200010297Y-131983100D01*
X200077336Y-132002785D01*
X200123091Y-132055589D01*
X200133825Y-132117908D01*
X200117141Y-132308599D01*
X200117141Y-132308600D01*
X200137736Y-132544003D01*
X200137738Y-132544013D01*
X200198894Y-132772255D01*
X200198896Y-132772259D01*
X200198897Y-132772263D01*
X200277227Y-132940242D01*
X200298765Y-132986430D01*
X200298767Y-132986434D01*
X200368204Y-133085599D01*
X200434305Y-133180001D01*
X200601399Y-133347095D01*
X200622974Y-133362202D01*
X200639430Y-133373725D01*
X200683055Y-133428302D01*
X200690249Y-133497800D01*
X200658726Y-133560155D01*
X200598496Y-133595569D01*
X200568307Y-133599300D01*
X197691998Y-133599300D01*
X197624959Y-133579615D01*
X197579204Y-133526811D01*
X197569770Y-133489391D01*
X197568929Y-133489502D01*
X197552957Y-133368171D01*
X197552955Y-133368166D01*
X197492500Y-133222214D01*
X197396324Y-133096875D01*
X197270986Y-133000699D01*
X197125034Y-132940245D01*
X197125030Y-132940244D01*
X197007730Y-132924800D01*
X196943400Y-132924800D01*
X196943400Y-133450300D01*
X196923715Y-133517339D01*
X196870911Y-133563094D01*
X196819400Y-133574300D01*
X196667400Y-133574300D01*
X196600361Y-133554615D01*
X196554606Y-133501811D01*
X196543400Y-133450300D01*
X196543400Y-132924800D01*
X196543399Y-132924799D01*
X196479076Y-132924800D01*
X196361771Y-132940242D01*
X196361766Y-132940244D01*
X196215812Y-133000699D01*
X196215810Y-133000701D01*
X196113793Y-133078982D01*
X196048624Y-133104176D01*
X195980179Y-133090138D01*
X195972334Y-133085599D01*
X195951124Y-133072271D01*
X195780854Y-133012691D01*
X195780849Y-133012690D01*
X195601604Y-132992495D01*
X195601596Y-132992495D01*
X195437541Y-133010979D01*
X195376205Y-133002320D01*
X195225162Y-132939756D01*
X195225160Y-132939755D01*
X195107761Y-132924300D01*
X194579036Y-132924300D01*
X194461646Y-132939753D01*
X194461637Y-132939756D01*
X194452302Y-132943623D01*
X194421552Y-132956360D01*
X194352083Y-132963829D01*
X194289604Y-132932554D01*
X194253952Y-132872465D01*
X194250100Y-132841799D01*
X194250100Y-132740601D01*
X194269785Y-132673562D01*
X194322589Y-132627807D01*
X194391747Y-132617863D01*
X194421551Y-132626039D01*
X194461638Y-132642644D01*
X194579039Y-132658100D01*
X195107760Y-132658099D01*
X195107763Y-132658099D01*
X195225153Y-132642646D01*
X195225157Y-132642644D01*
X195225162Y-132642644D01*
X195371241Y-132582136D01*
X195496682Y-132485882D01*
X195592936Y-132360441D01*
X195653444Y-132214362D01*
X195668900Y-132096961D01*
X195668899Y-131818240D01*
X195668898Y-131818236D01*
X195664115Y-131781898D01*
X195674881Y-131712863D01*
X195721261Y-131660608D01*
X195773163Y-131642494D01*
X195780855Y-131641628D01*
X195780858Y-131641626D01*
X195786047Y-131641042D01*
X195854870Y-131653094D01*
G37*
%TD.AperFunction*%
%TA.AperFunction,Conductor*%
G36*
X207743441Y-129377525D02*
G01*
X207789196Y-129430329D01*
X207798629Y-129467748D01*
X207799471Y-129467638D01*
X207815442Y-129588968D01*
X207815444Y-129588973D01*
X207875899Y-129734925D01*
X207972075Y-129860264D01*
X208097412Y-129956439D01*
X208185541Y-129992942D01*
X208239945Y-130036783D01*
X208262011Y-130103077D01*
X208244733Y-130170776D01*
X208193596Y-130218387D01*
X208185544Y-130222064D01*
X208133162Y-130243762D01*
X208007718Y-130340018D01*
X207911463Y-130465460D01*
X207850956Y-130611537D01*
X207850955Y-130611539D01*
X207834970Y-130732963D01*
X207833494Y-130732768D01*
X207811588Y-130792542D01*
X207755895Y-130834732D01*
X207711898Y-130842800D01*
X205147045Y-130842800D01*
X205080006Y-130823115D01*
X205034251Y-130770311D01*
X205024307Y-130701153D01*
X205049316Y-130645224D01*
X205048190Y-130644436D01*
X205144607Y-130506738D01*
X205186835Y-130446430D01*
X205286703Y-130232263D01*
X205347863Y-130004008D01*
X205368459Y-129768600D01*
X205347863Y-129533192D01*
X205342703Y-129513934D01*
X205344364Y-129444086D01*
X205383526Y-129386223D01*
X205447754Y-129358717D01*
X205462477Y-129357840D01*
X207676402Y-129357840D01*
X207743441Y-129377525D01*
G37*
%TD.AperFunction*%
%TA.AperFunction,Conductor*%
G36*
X199877476Y-129132585D02*
G01*
X199898118Y-129149219D01*
X200117619Y-129368720D01*
X200151104Y-129430043D01*
X200149713Y-129488493D01*
X200137739Y-129533183D01*
X200137736Y-129533196D01*
X200117141Y-129768599D01*
X200117141Y-129768600D01*
X200137736Y-130004003D01*
X200137738Y-130004013D01*
X200198894Y-130232255D01*
X200198896Y-130232259D01*
X200198897Y-130232263D01*
X200209506Y-130255014D01*
X200301053Y-130451337D01*
X200299967Y-130451843D01*
X200315046Y-130514002D01*
X200292193Y-130580029D01*
X200237271Y-130623218D01*
X200191187Y-130632100D01*
X197691998Y-130632100D01*
X197624959Y-130612415D01*
X197579204Y-130559611D01*
X197569770Y-130522191D01*
X197568929Y-130522302D01*
X197552957Y-130400971D01*
X197552955Y-130400966D01*
X197492500Y-130255014D01*
X197396324Y-130129675D01*
X197270986Y-130033499D01*
X197141726Y-129979959D01*
X197087322Y-129936119D01*
X197065257Y-129869824D01*
X197082536Y-129802125D01*
X197133673Y-129754514D01*
X197141716Y-129750840D01*
X197235641Y-129711936D01*
X197361082Y-129615682D01*
X197457336Y-129490241D01*
X197517844Y-129344162D01*
X197533300Y-129226761D01*
X197533300Y-129226760D01*
X197533830Y-129222737D01*
X197535305Y-129222931D01*
X197557212Y-129163158D01*
X197612905Y-129120968D01*
X197656902Y-129112900D01*
X199810437Y-129112900D01*
X199877476Y-129132585D01*
G37*
%TD.AperFunction*%
%TA.AperFunction,Conductor*%
G36*
X209530170Y-126869920D02*
G01*
X209681937Y-126923026D01*
X209681942Y-126923027D01*
X209681945Y-126923028D01*
X209745865Y-126930229D01*
X209810276Y-126957294D01*
X209830352Y-126977959D01*
X209882318Y-127045682D01*
X210007759Y-127141936D01*
X210007760Y-127141936D01*
X210007761Y-127141937D01*
X210046814Y-127158113D01*
X210101218Y-127201953D01*
X210123283Y-127268247D01*
X210106004Y-127335947D01*
X210054867Y-127383557D01*
X210046816Y-127387234D01*
X209997162Y-127407802D01*
X209997159Y-127407803D01*
X209997159Y-127407804D01*
X209984429Y-127417572D01*
X209871718Y-127504058D01*
X209775463Y-127629500D01*
X209714956Y-127775577D01*
X209714955Y-127775579D01*
X209699501Y-127892969D01*
X209699501Y-127892976D01*
X209699500Y-127892985D01*
X209699500Y-128047804D01*
X209679815Y-128114843D01*
X209627011Y-128160598D01*
X209616427Y-128164855D01*
X209615426Y-128165205D01*
X209545646Y-128168751D01*
X209485027Y-128134007D01*
X209452815Y-128072006D01*
X209450499Y-128048159D01*
X209450499Y-127892980D01*
X209450499Y-127892979D01*
X209450499Y-127892976D01*
X209435046Y-127775586D01*
X209435044Y-127775579D01*
X209435044Y-127775578D01*
X209374536Y-127629499D01*
X209278282Y-127504058D01*
X209152841Y-127407804D01*
X209152836Y-127407802D01*
X209113130Y-127391355D01*
X209058727Y-127347514D01*
X209036662Y-127281219D01*
X209053942Y-127213520D01*
X209105079Y-127165910D01*
X209113132Y-127162232D01*
X209163187Y-127141499D01*
X209288524Y-127045324D01*
X209389646Y-126913541D01*
X209391952Y-126915310D01*
X209432380Y-126876753D01*
X209500985Y-126863521D01*
X209530170Y-126869920D01*
G37*
%TD.AperFunction*%
%TA.AperFunction,Conductor*%
G36*
X195847695Y-126139152D02*
G01*
X195879963Y-126201124D01*
X195882300Y-126225084D01*
X195882300Y-126354862D01*
X195897753Y-126472253D01*
X195897756Y-126472262D01*
X195945026Y-126586383D01*
X195958264Y-126618341D01*
X196054518Y-126743782D01*
X196179959Y-126840036D01*
X196293726Y-126887160D01*
X196348129Y-126930999D01*
X196370194Y-126997293D01*
X196352915Y-127064993D01*
X196301778Y-127112604D01*
X196293726Y-127116281D01*
X196180213Y-127163300D01*
X196054875Y-127259475D01*
X195958698Y-127384814D01*
X195948942Y-127408369D01*
X195905101Y-127462772D01*
X195838806Y-127484836D01*
X195793428Y-127477957D01*
X195699066Y-127444939D01*
X195620855Y-127417572D01*
X195620851Y-127417571D01*
X195620850Y-127417571D01*
X195618130Y-127416950D01*
X195616550Y-127416066D01*
X195614283Y-127415273D01*
X195614422Y-127414875D01*
X195557152Y-127382839D01*
X195547355Y-127371552D01*
X195461082Y-127259118D01*
X195335641Y-127162864D01*
X195334115Y-127162232D01*
X195284059Y-127141498D01*
X195222525Y-127116010D01*
X195168124Y-127072170D01*
X195146059Y-127005876D01*
X195163338Y-126938177D01*
X195214475Y-126890566D01*
X195222516Y-126886893D01*
X195335641Y-126840036D01*
X195461082Y-126743782D01*
X195557336Y-126618341D01*
X195617844Y-126472262D01*
X195633300Y-126354861D01*
X195633299Y-126225435D01*
X195652983Y-126158397D01*
X195705787Y-126112642D01*
X195716263Y-126108422D01*
X195717272Y-126108069D01*
X195787045Y-126104463D01*
X195847695Y-126139152D01*
G37*
%TD.AperFunction*%
%TA.AperFunction,Conductor*%
G36*
X209459955Y-123984225D02*
G01*
X209609537Y-124036566D01*
X209609541Y-124036567D01*
X209609542Y-124036567D01*
X209609545Y-124036568D01*
X209696468Y-124046361D01*
X209760879Y-124073426D01*
X209769506Y-124081216D01*
X209769827Y-124081462D01*
X209800248Y-124099025D01*
X209828893Y-124124145D01*
X209829567Y-124123472D01*
X209835311Y-124129215D01*
X209835314Y-124129218D01*
X209835318Y-124129222D01*
X209960759Y-124225476D01*
X210106838Y-124285984D01*
X210136839Y-124289933D01*
X210200735Y-124318198D01*
X210239207Y-124376522D01*
X210240040Y-124446386D01*
X210202969Y-124505611D01*
X210160932Y-124528246D01*
X210161347Y-124529246D01*
X210153839Y-124532355D01*
X210153838Y-124532356D01*
X210105508Y-124552374D01*
X210007760Y-124592863D01*
X209882318Y-124689118D01*
X209786063Y-124814560D01*
X209725556Y-124960637D01*
X209725555Y-124960639D01*
X209713758Y-125050253D01*
X209710101Y-125078036D01*
X209710100Y-125078045D01*
X209710100Y-125254457D01*
X209690415Y-125321496D01*
X209637611Y-125367251D01*
X209627027Y-125371508D01*
X209626026Y-125371858D01*
X209556246Y-125375404D01*
X209495627Y-125340660D01*
X209463415Y-125278659D01*
X209461099Y-125254813D01*
X209461099Y-125078040D01*
X209461099Y-125078039D01*
X209461099Y-125078036D01*
X209445646Y-124960646D01*
X209445644Y-124960639D01*
X209445644Y-124960638D01*
X209385136Y-124814559D01*
X209288882Y-124689118D01*
X209163441Y-124592864D01*
X209099609Y-124566424D01*
X209017362Y-124532356D01*
X208986048Y-124528233D01*
X208922152Y-124499965D01*
X208883682Y-124441639D01*
X208882852Y-124371775D01*
X208919926Y-124312552D01*
X208963030Y-124289350D01*
X208962722Y-124288607D01*
X208970053Y-124285570D01*
X208970156Y-124285515D01*
X208970243Y-124285491D01*
X209116185Y-124225040D01*
X209241526Y-124128863D01*
X209320624Y-124025780D01*
X209377052Y-123984577D01*
X209446798Y-123980422D01*
X209459955Y-123984225D01*
G37*
%TD.AperFunction*%
%TA.AperFunction,Conductor*%
G36*
X199212506Y-123387615D02*
G01*
X199233148Y-123404249D01*
X200117619Y-124288720D01*
X200151104Y-124350043D01*
X200149713Y-124408493D01*
X200137739Y-124453183D01*
X200137736Y-124453196D01*
X200117141Y-124688599D01*
X200117141Y-124688600D01*
X200124933Y-124777661D01*
X200111167Y-124846161D01*
X200062551Y-124896344D01*
X199994523Y-124912278D01*
X199977214Y-124910086D01*
X199876235Y-124890000D01*
X199876231Y-124890000D01*
X197656398Y-124890000D01*
X197589359Y-124870315D01*
X197543604Y-124817511D01*
X197534170Y-124780091D01*
X197533329Y-124780202D01*
X197517357Y-124658871D01*
X197517355Y-124658866D01*
X197456900Y-124512914D01*
X197360724Y-124387575D01*
X197235386Y-124291399D01*
X197115746Y-124241844D01*
X197061342Y-124198004D01*
X197039277Y-124131710D01*
X197056556Y-124064010D01*
X197107693Y-124016399D01*
X197115746Y-124012722D01*
X197116403Y-124012450D01*
X197226211Y-123966966D01*
X197351652Y-123870712D01*
X197447906Y-123745271D01*
X197508414Y-123599192D01*
X197523870Y-123481791D01*
X197523870Y-123481790D01*
X197524400Y-123477767D01*
X197525875Y-123477961D01*
X197547782Y-123418188D01*
X197603475Y-123375998D01*
X197647472Y-123367930D01*
X199145467Y-123367930D01*
X199212506Y-123387615D01*
G37*
%TD.AperFunction*%
%TA.AperFunction,Conductor*%
G36*
X209480039Y-121051248D02*
G01*
X209505689Y-121060223D01*
X209565141Y-121081027D01*
X209565142Y-121081027D01*
X209565145Y-121081028D01*
X209652068Y-121090821D01*
X209716479Y-121117886D01*
X209725864Y-121126360D01*
X209765824Y-121166320D01*
X209765825Y-121166321D01*
X209765827Y-121166322D01*
X209790033Y-121180297D01*
X209818245Y-121196585D01*
X209835022Y-121209458D01*
X209835271Y-121209134D01*
X209841716Y-121214079D01*
X209841718Y-121214082D01*
X209967159Y-121310336D01*
X210113238Y-121370844D01*
X210113243Y-121370844D01*
X210121088Y-121372947D01*
X210120287Y-121375935D01*
X210170779Y-121398261D01*
X210209261Y-121456579D01*
X210210104Y-121526443D01*
X210173043Y-121585673D01*
X210114547Y-121613245D01*
X210114694Y-121613791D01*
X210111674Y-121614600D01*
X210109842Y-121615464D01*
X210106903Y-121615887D01*
X210106843Y-121615894D01*
X210106837Y-121615896D01*
X209960760Y-121676403D01*
X209835318Y-121772658D01*
X209739063Y-121898100D01*
X209678556Y-122044177D01*
X209678555Y-122044179D01*
X209663100Y-122161578D01*
X209663100Y-122359109D01*
X209643415Y-122426148D01*
X209590611Y-122471903D01*
X209580027Y-122476160D01*
X209579026Y-122476510D01*
X209509246Y-122480056D01*
X209448627Y-122445312D01*
X209416415Y-122383311D01*
X209414099Y-122359466D01*
X209414099Y-122161580D01*
X209414099Y-122161578D01*
X209414099Y-122161576D01*
X209398646Y-122044186D01*
X209398644Y-122044179D01*
X209398644Y-122044178D01*
X209338136Y-121898099D01*
X209241882Y-121772658D01*
X209116441Y-121676404D01*
X209112595Y-121674811D01*
X208970362Y-121615896D01*
X208962512Y-121613793D01*
X208963169Y-121611340D01*
X208910886Y-121588213D01*
X208872414Y-121529890D01*
X208871581Y-121460025D01*
X208908652Y-121400801D01*
X208968782Y-121372468D01*
X208968780Y-121372460D01*
X208968828Y-121372447D01*
X208971857Y-121371020D01*
X208974784Y-121370599D01*
X208976633Y-121370355D01*
X209122585Y-121309900D01*
X209247926Y-121213723D01*
X209340710Y-121092804D01*
X209397138Y-121051601D01*
X209466884Y-121047446D01*
X209480039Y-121051248D01*
G37*
%TD.AperFunction*%
%TA.AperFunction,Conductor*%
G36*
X198885176Y-120520285D02*
G01*
X198905818Y-120536919D01*
X200117619Y-121748720D01*
X200151104Y-121810043D01*
X200149713Y-121868493D01*
X200137739Y-121913183D01*
X200137736Y-121913196D01*
X200121891Y-122094307D01*
X200096438Y-122159375D01*
X200039847Y-122200354D01*
X199970085Y-122204232D01*
X199910682Y-122171180D01*
X199907239Y-122167737D01*
X199907235Y-122167734D01*
X199796605Y-122093813D01*
X199796595Y-122093808D01*
X199673666Y-122042889D01*
X199673658Y-122042887D01*
X199543165Y-122016930D01*
X199543161Y-122016930D01*
X197646968Y-122016930D01*
X197579929Y-121997245D01*
X197534174Y-121944441D01*
X197524740Y-121907021D01*
X197523899Y-121907132D01*
X197507927Y-121785801D01*
X197507925Y-121785796D01*
X197447470Y-121639844D01*
X197351294Y-121514505D01*
X197225956Y-121418329D01*
X197122675Y-121375550D01*
X197068271Y-121331710D01*
X197046206Y-121265416D01*
X197063485Y-121197716D01*
X197114622Y-121150105D01*
X197122675Y-121146428D01*
X197235641Y-121099636D01*
X197361082Y-121003382D01*
X197457336Y-120877941D01*
X197517844Y-120731862D01*
X197533300Y-120614461D01*
X197533300Y-120614460D01*
X197533830Y-120610437D01*
X197535305Y-120610631D01*
X197557212Y-120550858D01*
X197612905Y-120508668D01*
X197656902Y-120500600D01*
X198818137Y-120500600D01*
X198885176Y-120520285D01*
G37*
%TD.AperFunction*%
%TA.AperFunction,Conductor*%
G36*
X203546875Y-119415607D02*
G01*
X203512800Y-119542774D01*
X203512800Y-119674426D01*
X203546875Y-119801593D01*
X203579788Y-119858600D01*
X201905812Y-119858600D01*
X201938725Y-119801593D01*
X201972800Y-119674426D01*
X201972800Y-119542774D01*
X201938725Y-119415607D01*
X201905812Y-119358600D01*
X203579788Y-119358600D01*
X203546875Y-119415607D01*
G37*
%TD.AperFunction*%
%TA.AperFunction,Conductor*%
G36*
X206709942Y-109239785D02*
G01*
X206730584Y-109256419D01*
X207312981Y-109838816D01*
X207346466Y-109900139D01*
X207349300Y-109926497D01*
X207349300Y-114152302D01*
X207329615Y-114219341D01*
X207312981Y-114239983D01*
X207060181Y-114492783D01*
X206998858Y-114526268D01*
X206929166Y-114521284D01*
X206873233Y-114479412D01*
X206848816Y-114413948D01*
X206848500Y-114405102D01*
X206848500Y-110985459D01*
X206848501Y-110985446D01*
X206848501Y-110817345D01*
X206848501Y-110817343D01*
X206807577Y-110664615D01*
X206766622Y-110593680D01*
X206728520Y-110527684D01*
X206616716Y-110415880D01*
X206616715Y-110415879D01*
X206612385Y-110411549D01*
X206612374Y-110411539D01*
X206233619Y-110032784D01*
X206200134Y-109971461D01*
X206197300Y-109945103D01*
X206197300Y-109344100D01*
X206216985Y-109277061D01*
X206269789Y-109231306D01*
X206321300Y-109220100D01*
X206355243Y-109220100D01*
X206642903Y-109220100D01*
X206709942Y-109239785D01*
G37*
%TD.AperFunction*%
%TA.AperFunction,Conductor*%
G36*
X204617942Y-104734785D02*
G01*
X204638584Y-104751419D01*
X204722181Y-104835016D01*
X204755666Y-104896339D01*
X204758500Y-104922697D01*
X204758500Y-105069330D01*
X204758499Y-105069348D01*
X204758499Y-105235054D01*
X204758498Y-105235054D01*
X204758499Y-105235057D01*
X204799423Y-105387785D01*
X204810608Y-105407158D01*
X204819820Y-105423112D01*
X204819821Y-105423115D01*
X204829341Y-105439604D01*
X204845814Y-105507504D01*
X204822962Y-105573531D01*
X204809636Y-105589284D01*
X204729185Y-105669736D01*
X204729184Y-105669737D01*
X204633211Y-105822476D01*
X204573631Y-105992745D01*
X204573630Y-105992750D01*
X204553435Y-106171996D01*
X204553435Y-106172003D01*
X204573630Y-106351249D01*
X204573631Y-106351254D01*
X204633211Y-106521523D01*
X204729184Y-106674262D01*
X204856738Y-106801816D01*
X204903671Y-106831306D01*
X205008793Y-106897359D01*
X205009478Y-106897789D01*
X205091524Y-106926498D01*
X205179745Y-106957368D01*
X205179750Y-106957369D01*
X205358997Y-106977565D01*
X205365964Y-106977565D01*
X205365964Y-106978810D01*
X205427726Y-106989622D01*
X205479111Y-107036966D01*
X205496800Y-107100794D01*
X205496800Y-107112654D01*
X205507614Y-107202713D01*
X205507614Y-107232279D01*
X205506923Y-107238036D01*
X205496300Y-107326498D01*
X205496300Y-107512702D01*
X205502022Y-107560354D01*
X205507361Y-107604817D01*
X205507361Y-107634383D01*
X205501518Y-107683040D01*
X205496300Y-107726498D01*
X205496300Y-107912702D01*
X205502022Y-107960354D01*
X205507361Y-108004817D01*
X205507361Y-108034383D01*
X205503110Y-108069787D01*
X205496300Y-108126498D01*
X205496300Y-108312702D01*
X205502946Y-108368051D01*
X205505648Y-108390549D01*
X205494096Y-108459457D01*
X205447123Y-108511181D01*
X205379643Y-108529298D01*
X205367749Y-108528448D01*
X205342226Y-108525383D01*
X205289902Y-108519100D01*
X205103698Y-108519100D01*
X205063102Y-108523975D01*
X205011583Y-108530161D01*
X204982017Y-108530161D01*
X204930498Y-108523975D01*
X204889902Y-108519100D01*
X204703698Y-108519100D01*
X204680202Y-108521921D01*
X204663099Y-108523975D01*
X204594191Y-108512422D01*
X204542468Y-108465449D01*
X204540931Y-108462860D01*
X204510110Y-108409478D01*
X204510108Y-108409476D01*
X204505309Y-108401164D01*
X204477320Y-108352684D01*
X204365516Y-108240880D01*
X204361185Y-108236549D01*
X204361174Y-108236539D01*
X204220990Y-108096355D01*
X204220988Y-108096352D01*
X204102117Y-107977481D01*
X204102109Y-107977475D01*
X204005009Y-107921415D01*
X204005007Y-107921414D01*
X203965190Y-107898425D01*
X203965189Y-107898424D01*
X203952663Y-107895067D01*
X203812457Y-107857499D01*
X203654343Y-107857499D01*
X203646747Y-107857499D01*
X203646731Y-107857500D01*
X200721269Y-107857500D01*
X200721253Y-107857499D01*
X200713657Y-107857499D01*
X200621300Y-107857499D01*
X200554261Y-107837814D01*
X200508506Y-107785010D01*
X200497300Y-107733499D01*
X200497300Y-107726497D01*
X200495369Y-107710421D01*
X200486677Y-107638036D01*
X200486676Y-107638034D01*
X200486238Y-107634385D01*
X200486238Y-107604815D01*
X200486676Y-107601165D01*
X200486677Y-107601164D01*
X200497300Y-107512702D01*
X200497300Y-107326498D01*
X200486677Y-107238036D01*
X200486676Y-107238034D01*
X200486238Y-107234385D01*
X200486238Y-107204815D01*
X200486676Y-107201165D01*
X200486677Y-107201164D01*
X200497300Y-107112702D01*
X200497300Y-106944100D01*
X200516985Y-106877061D01*
X200569789Y-106831306D01*
X200621300Y-106820100D01*
X200678131Y-106820100D01*
X200678147Y-106820101D01*
X200685743Y-106820101D01*
X200843854Y-106820101D01*
X200843857Y-106820101D01*
X200996585Y-106779177D01*
X201064616Y-106739899D01*
X201133516Y-106700120D01*
X201245320Y-106588316D01*
X201245320Y-106588314D01*
X201255524Y-106578111D01*
X201255528Y-106578106D01*
X201475706Y-106357928D01*
X201475711Y-106357924D01*
X201485914Y-106347720D01*
X201485916Y-106347720D01*
X201597720Y-106235916D01*
X201633027Y-106174762D01*
X201655140Y-106136462D01*
X201655141Y-106136459D01*
X201676776Y-106098987D01*
X201678110Y-106094010D01*
X201717701Y-105946257D01*
X201717701Y-105788143D01*
X201717701Y-105780548D01*
X201717700Y-105780530D01*
X201717700Y-104839100D01*
X201737385Y-104772061D01*
X201790189Y-104726306D01*
X201841700Y-104715100D01*
X204550903Y-104715100D01*
X204617942Y-104734785D01*
G37*
%TD.AperFunction*%
%TA.AperFunction,Conductor*%
G36*
X193470874Y-105758799D02*
G01*
X193625400Y-105758799D01*
X193692440Y-105778483D01*
X193738195Y-105831287D01*
X193748139Y-105900445D01*
X193719114Y-105964001D01*
X193713082Y-105970480D01*
X193535817Y-106147746D01*
X193535814Y-106147748D01*
X193535815Y-106147749D01*
X193431077Y-106252487D01*
X193395455Y-106314187D01*
X193344888Y-106362403D01*
X193276281Y-106375625D01*
X193211416Y-106349657D01*
X193173506Y-106299638D01*
X193156099Y-106257612D01*
X193059924Y-106132275D01*
X192934586Y-106036099D01*
X192823822Y-105990220D01*
X192769418Y-105946379D01*
X192747353Y-105880085D01*
X192764632Y-105812386D01*
X192815769Y-105764775D01*
X192846726Y-105755686D01*
X192846466Y-105754586D01*
X192853669Y-105752883D01*
X192856277Y-105752883D01*
X192858028Y-105752369D01*
X192861751Y-105751969D01*
X192861849Y-105752883D01*
X192902560Y-105752883D01*
X192902658Y-105751969D01*
X192910367Y-105752797D01*
X192910371Y-105752799D01*
X192970838Y-105759300D01*
X192970848Y-105759300D01*
X193293552Y-105759300D01*
X193293562Y-105759300D01*
X193354029Y-105752799D01*
X193354034Y-105752796D01*
X193354771Y-105752623D01*
X193355659Y-105752623D01*
X193361742Y-105751969D01*
X193361812Y-105752623D01*
X193402644Y-105752623D01*
X193402767Y-105751477D01*
X193470874Y-105758799D01*
G37*
%TD.AperFunction*%
%TA.AperFunction,Conductor*%
G36*
X197242339Y-102072385D02*
G01*
X197288094Y-102125189D01*
X197299300Y-102176700D01*
X197299300Y-102537397D01*
X197302156Y-102573691D01*
X197302157Y-102573697D01*
X197347304Y-102729090D01*
X197347305Y-102729093D01*
X197359340Y-102749443D01*
X197376523Y-102817167D01*
X197361647Y-102867829D01*
X197362605Y-102868244D01*
X197359504Y-102875410D01*
X197314357Y-103030802D01*
X197314356Y-103030808D01*
X197311500Y-103067102D01*
X197311500Y-103427800D01*
X197291815Y-103494839D01*
X197239011Y-103540594D01*
X197187500Y-103551800D01*
X196761283Y-103551800D01*
X196694244Y-103532115D01*
X196680278Y-103520860D01*
X196680192Y-103520969D01*
X196674749Y-103516628D01*
X196522010Y-103420655D01*
X196351741Y-103361075D01*
X196351736Y-103361074D01*
X196172491Y-103340879D01*
X196172483Y-103340879D01*
X196038983Y-103355920D01*
X195970161Y-103343865D01*
X195918782Y-103296516D01*
X195901100Y-103232700D01*
X195901100Y-102533909D01*
X195920785Y-102466870D01*
X195973589Y-102421115D01*
X195989087Y-102415254D01*
X196117127Y-102376414D01*
X196157348Y-102354915D01*
X196225746Y-102340673D01*
X196290991Y-102365671D01*
X196332363Y-102421975D01*
X196339800Y-102464271D01*
X196339800Y-102537324D01*
X196339801Y-102537347D01*
X196342654Y-102573610D01*
X196387768Y-102728895D01*
X196399921Y-102749444D01*
X196417103Y-102817168D01*
X196402163Y-102868056D01*
X196403066Y-102868447D01*
X196399966Y-102875609D01*
X196354855Y-103030881D01*
X196354854Y-103030887D01*
X196353209Y-103051799D01*
X196353210Y-103051800D01*
X196869800Y-103051800D01*
X196869800Y-102176700D01*
X196889485Y-102109661D01*
X196942289Y-102063906D01*
X196993800Y-102052700D01*
X197175300Y-102052700D01*
X197242339Y-102072385D01*
G37*
%TD.AperFunction*%
%TD*%
M02*
