M48
; DRILL file {KiCad 8.0.2} date 2024-05-20T21:07:19-0700
; FORMAT={-:-/ absolute / inch / decimal}
; #@! TF.CreationDate,2024-05-20T21:07:19-07:00
; #@! TF.GenerationSoftware,Kicad,Pcbnew,8.0.2
; #@! TF.FileFunction,Plated,1,2,PTH
FMAT,2
INCH
; #@! TA.AperFunction,Plated,PTH,ViaDrill
T1C0.0138
; #@! TA.AperFunction,Plated,PTH,ViaDrill
T2C0.0197
; #@! TA.AperFunction,Plated,PTH,ComponentDrill
T3C0.0236
; #@! TA.AperFunction,Plated,PTH,ComponentDrill
T4C0.0394
; #@! TA.AperFunction,Plated,PTH,ComponentDrill
T5C0.0492
%
G90
G05
T1
X7.569Y-4.057
X7.573Y-4.094
X7.589Y-4.258
X7.62Y-4.177
X7.633Y-4.061
X7.634Y-4.094
X7.636Y-5.666
X7.637Y-5.63
X7.665Y-5.648
X7.6946Y-4.9353
X7.6946Y-5.0474
X7.6962Y-4.8192
X7.6971Y-4.7083
X7.7009Y-5.1518
X7.7009Y-5.2676
X7.7009Y-5.4936
X7.7013Y-5.3648
X7.708Y-5.001
X7.709Y-4.325
X7.72Y-4.048
X7.723Y-4.131
X7.7233Y-4.1003
X7.773Y-5.112
X7.791Y-4.866
X7.81Y-4.766
X7.811Y-5.351
X7.823Y-5.467
X7.824Y-4.163
X7.826Y-5.856
X7.832Y-5.759
X7.848Y-4.444
X7.852Y-5.247
X7.8981Y-4.4559
X7.912Y-4.611
X7.935Y-4.591
X7.938Y-3.861
X7.944Y-4.619
X7.9455Y-4.4717
X7.962Y-3.839
X7.962Y-3.89
X7.964Y-4.2
X7.992Y-4.174
X7.9945Y-4.4896
X8.004Y-4.6224
X8.015Y-4.149
X8.0369Y-4.6202
X8.039Y-4.391
X8.044Y-4.507
X8.0693Y-4.6185
X8.074Y-3.979
X8.085Y-4.18
X8.0946Y-4.5236
X8.0982Y-4.6058
X8.1302Y-4.6014
X8.155Y-4.4669
X8.162Y-5.256
X8.163Y-4.602
X8.1633Y-4.5385
X8.169Y-5.359
X8.169Y-5.474
X8.176Y-5.142
X8.1928Y-4.5893
X8.2003Y-6.0784
X8.2115Y-4.5623
X8.236Y-4.54
X8.238Y-5.775
X8.25Y-4.897
X8.252Y-4.783
X8.252Y-6.081
X8.253Y-5.009
X8.257Y-4.634
X8.2577Y-4.736
X8.258Y-5.3092
X8.2584Y-5.534
X8.2586Y-5.4212
X8.2594Y-4.8524
X8.26Y-5.1947
X8.2623Y-4.966
X8.2634Y-5.0755
X8.281Y-3.929
X8.295Y-3.906
X8.309Y-3.93
X8.328Y-5.681
X8.352Y-5.701
X8.376Y-5.722
X8.386Y-4.638
X8.399Y-4.614
X8.415Y-4.637
T2
X7.541Y-4.614
X7.59Y-3.832
X7.6109Y-3.6725
X7.706Y-3.994
X7.878Y-3.681
X8.0483Y-5.8914
X8.3215Y-4.6385
X8.37Y-5.841
T4
X7.5872Y-5.9018
X7.6856Y-5.9018
X7.7644Y-5.9018
X7.8628Y-5.9018
X7.932Y-4.709
X7.932Y-4.809
X7.932Y-4.909
X7.932Y-5.009
X7.932Y-5.109
X7.932Y-5.209
X7.932Y-5.309
X7.932Y-5.409
X7.932Y-5.509
X8.032Y-4.709
X8.032Y-4.809
X8.032Y-4.909
X8.032Y-5.009
X8.032Y-5.109
X8.032Y-5.209
X8.032Y-5.309
X8.032Y-5.409
X8.032Y-5.509
T3
G00X7.7781Y-3.6059
M15
G01X7.7781Y-3.5744
M16
G05
G00X7.7781Y-3.7763
M15
G01X7.7781Y-3.733
M16
G05
G00X8.0719Y-6.0055
M15
G01X8.0719Y-6.0488
M16
G05
G00X8.0719Y-6.176
M15
G01X8.0719Y-6.2075
M16
G05
G00X8.1183Y-3.6059
M15
G01X8.1183Y-3.5744
M16
G05
G00X8.1183Y-3.7763
M15
G01X8.1183Y-3.733
M16
G05
G00X8.4121Y-6.0055
M15
G01X8.4121Y-6.0488
M16
G05
G00X8.4121Y-6.176
M15
G01X8.4121Y-6.2075
M16
G05
T5
G00X7.4703Y-5.9349
M15
G01X7.4703Y-5.9743
M16
G05
G00X7.9797Y-5.9349
M15
G01X7.9797Y-5.9743
M16
G05
M30
