%TF.GenerationSoftware,KiCad,Pcbnew,8.0.2*%
%TF.CreationDate,2024-05-20T21:07:15-07:00*%
%TF.ProjectId,snifferlyzer,736e6966-6665-4726-9c79-7a65722e6b69,rev?*%
%TF.SameCoordinates,Original*%
%TF.FileFunction,Legend,Top*%
%TF.FilePolarity,Positive*%
%FSLAX46Y46*%
G04 Gerber Fmt 4.6, Leading zero omitted, Abs format (unit mm)*
G04 Created by KiCad (PCBNEW 8.0.2) date 2024-05-20 21:07:15*
%MOMM*%
%LPD*%
G01*
G04 APERTURE LIST*
%ADD10C,0.200000*%
%ADD11C,0.100000*%
%ADD12C,0.120000*%
%ADD13C,0.127000*%
G04 APERTURE END LIST*
D10*
X206354949Y-136889623D02*
X207128758Y-136889623D01*
X207128758Y-136889623D02*
X206712092Y-137365814D01*
X206712092Y-137365814D02*
X206890663Y-137365814D01*
X206890663Y-137365814D02*
X207009711Y-137425338D01*
X207009711Y-137425338D02*
X207069235Y-137484861D01*
X207069235Y-137484861D02*
X207128758Y-137603909D01*
X207128758Y-137603909D02*
X207128758Y-137901528D01*
X207128758Y-137901528D02*
X207069235Y-138020576D01*
X207069235Y-138020576D02*
X207009711Y-138080100D01*
X207009711Y-138080100D02*
X206890663Y-138139623D01*
X206890663Y-138139623D02*
X206533520Y-138139623D01*
X206533520Y-138139623D02*
X206414473Y-138080100D01*
X206414473Y-138080100D02*
X206354949Y-138020576D01*
X198881711Y-134690090D02*
X198881711Y-135523423D01*
X198584092Y-134213900D02*
X198286473Y-135106757D01*
X198286473Y-135106757D02*
X199060282Y-135106757D01*
X206558920Y-130392623D02*
X206797016Y-130392623D01*
X206797016Y-130392623D02*
X206916063Y-130333100D01*
X206916063Y-130333100D02*
X206975587Y-130273576D01*
X206975587Y-130273576D02*
X207094635Y-130095004D01*
X207094635Y-130095004D02*
X207154158Y-129856909D01*
X207154158Y-129856909D02*
X207154158Y-129380719D01*
X207154158Y-129380719D02*
X207094635Y-129261671D01*
X207094635Y-129261671D02*
X207035111Y-129202147D01*
X207035111Y-129202147D02*
X206916063Y-129142623D01*
X206916063Y-129142623D02*
X206677968Y-129142623D01*
X206677968Y-129142623D02*
X206558920Y-129202147D01*
X206558920Y-129202147D02*
X206499397Y-129261671D01*
X206499397Y-129261671D02*
X206439873Y-129380719D01*
X206439873Y-129380719D02*
X206439873Y-129678338D01*
X206439873Y-129678338D02*
X206499397Y-129797385D01*
X206499397Y-129797385D02*
X206558920Y-129856909D01*
X206558920Y-129856909D02*
X206677968Y-129916433D01*
X206677968Y-129916433D02*
X206916063Y-129916433D01*
X206916063Y-129916433D02*
X207035111Y-129856909D01*
X207035111Y-129856909D02*
X207094635Y-129797385D01*
X207094635Y-129797385D02*
X207154158Y-129678338D01*
X198289558Y-122645623D02*
X197575273Y-122645623D01*
X197932416Y-122645623D02*
X197932416Y-121395623D01*
X197932416Y-121395623D02*
X197813368Y-121574195D01*
X197813368Y-121574195D02*
X197694320Y-121693242D01*
X197694320Y-121693242D02*
X197575273Y-121752766D01*
X199360987Y-121812290D02*
X199360987Y-122645623D01*
X199063368Y-121336100D02*
X198765749Y-122228957D01*
X198765749Y-122228957D02*
X199539558Y-122228957D01*
X198311873Y-136830871D02*
X198371397Y-136771347D01*
X198371397Y-136771347D02*
X198490444Y-136711823D01*
X198490444Y-136711823D02*
X198788063Y-136711823D01*
X198788063Y-136711823D02*
X198907111Y-136771347D01*
X198907111Y-136771347D02*
X198966635Y-136830871D01*
X198966635Y-136830871D02*
X199026158Y-136949919D01*
X199026158Y-136949919D02*
X199026158Y-137068966D01*
X199026158Y-137068966D02*
X198966635Y-137247538D01*
X198966635Y-137247538D02*
X198252349Y-137961823D01*
X198252349Y-137961823D02*
X199026158Y-137961823D01*
X207094635Y-134324223D02*
X206499397Y-134324223D01*
X206499397Y-134324223D02*
X206439873Y-134919461D01*
X206439873Y-134919461D02*
X206499397Y-134859938D01*
X206499397Y-134859938D02*
X206618444Y-134800414D01*
X206618444Y-134800414D02*
X206916063Y-134800414D01*
X206916063Y-134800414D02*
X207035111Y-134859938D01*
X207035111Y-134859938D02*
X207094635Y-134919461D01*
X207094635Y-134919461D02*
X207154158Y-135038509D01*
X207154158Y-135038509D02*
X207154158Y-135336128D01*
X207154158Y-135336128D02*
X207094635Y-135455176D01*
X207094635Y-135455176D02*
X207035111Y-135514700D01*
X207035111Y-135514700D02*
X206916063Y-135574223D01*
X206916063Y-135574223D02*
X206618444Y-135574223D01*
X206618444Y-135574223D02*
X206499397Y-135514700D01*
X206499397Y-135514700D02*
X206439873Y-135455176D01*
X207128758Y-118991347D02*
X207009711Y-118931823D01*
X207009711Y-118931823D02*
X206831139Y-118931823D01*
X206831139Y-118931823D02*
X206652568Y-118991347D01*
X206652568Y-118991347D02*
X206533520Y-119110395D01*
X206533520Y-119110395D02*
X206473997Y-119229442D01*
X206473997Y-119229442D02*
X206414473Y-119467538D01*
X206414473Y-119467538D02*
X206414473Y-119646109D01*
X206414473Y-119646109D02*
X206473997Y-119884204D01*
X206473997Y-119884204D02*
X206533520Y-120003252D01*
X206533520Y-120003252D02*
X206652568Y-120122300D01*
X206652568Y-120122300D02*
X206831139Y-120181823D01*
X206831139Y-120181823D02*
X206950187Y-120181823D01*
X206950187Y-120181823D02*
X207128758Y-120122300D01*
X207128758Y-120122300D02*
X207188282Y-120062776D01*
X207188282Y-120062776D02*
X207188282Y-119646109D01*
X207188282Y-119646109D02*
X206950187Y-119646109D01*
X206671558Y-122671023D02*
X205957273Y-122671023D01*
X206314416Y-122671023D02*
X206314416Y-121421023D01*
X206314416Y-121421023D02*
X206195368Y-121599595D01*
X206195368Y-121599595D02*
X206076320Y-121718642D01*
X206076320Y-121718642D02*
X205957273Y-121778166D01*
X207802511Y-121421023D02*
X207207273Y-121421023D01*
X207207273Y-121421023D02*
X207147749Y-122016261D01*
X207147749Y-122016261D02*
X207207273Y-121956738D01*
X207207273Y-121956738D02*
X207326320Y-121897214D01*
X207326320Y-121897214D02*
X207623939Y-121897214D01*
X207623939Y-121897214D02*
X207742987Y-121956738D01*
X207742987Y-121956738D02*
X207802511Y-122016261D01*
X207802511Y-122016261D02*
X207862034Y-122135309D01*
X207862034Y-122135309D02*
X207862034Y-122432928D01*
X207862034Y-122432928D02*
X207802511Y-122551976D01*
X207802511Y-122551976D02*
X207742987Y-122611500D01*
X207742987Y-122611500D02*
X207623939Y-122671023D01*
X207623939Y-122671023D02*
X207326320Y-122671023D01*
X207326320Y-122671023D02*
X207207273Y-122611500D01*
X207207273Y-122611500D02*
X207147749Y-122551976D01*
X203515776Y-142790558D02*
X203515776Y-142076273D01*
X203515776Y-142433416D02*
X204765776Y-142433416D01*
X204765776Y-142433416D02*
X204587204Y-142314368D01*
X204587204Y-142314368D02*
X204468157Y-142195320D01*
X204468157Y-142195320D02*
X204408633Y-142076273D01*
X204825300Y-144219130D02*
X203218157Y-143147701D01*
X203515776Y-144635797D02*
X204765776Y-144635797D01*
X204765776Y-144635797D02*
X204765776Y-144933416D01*
X204765776Y-144933416D02*
X204706252Y-145111987D01*
X204706252Y-145111987D02*
X204587204Y-145231035D01*
X204587204Y-145231035D02*
X204468157Y-145290558D01*
X204468157Y-145290558D02*
X204230061Y-145350082D01*
X204230061Y-145350082D02*
X204051490Y-145350082D01*
X204051490Y-145350082D02*
X203813395Y-145290558D01*
X203813395Y-145290558D02*
X203694347Y-145231035D01*
X203694347Y-145231035D02*
X203575300Y-145111987D01*
X203575300Y-145111987D02*
X203515776Y-144933416D01*
X203515776Y-144933416D02*
X203515776Y-144635797D01*
X203991966Y-145885797D02*
X203991966Y-146838178D01*
X203515776Y-146361987D02*
X204468157Y-146361987D01*
X206675500Y-125119291D02*
X205961215Y-125119291D01*
X206318358Y-125119291D02*
X206318358Y-123869291D01*
X206318358Y-123869291D02*
X206199310Y-124047863D01*
X206199310Y-124047863D02*
X206080262Y-124166910D01*
X206080262Y-124166910D02*
X205961215Y-124226434D01*
X207092167Y-123869291D02*
X207865976Y-123869291D01*
X207865976Y-123869291D02*
X207449310Y-124345482D01*
X207449310Y-124345482D02*
X207627881Y-124345482D01*
X207627881Y-124345482D02*
X207746929Y-124405006D01*
X207746929Y-124405006D02*
X207806453Y-124464529D01*
X207806453Y-124464529D02*
X207865976Y-124583577D01*
X207865976Y-124583577D02*
X207865976Y-124881196D01*
X207865976Y-124881196D02*
X207806453Y-125000244D01*
X207806453Y-125000244D02*
X207746929Y-125059768D01*
X207746929Y-125059768D02*
X207627881Y-125119291D01*
X207627881Y-125119291D02*
X207270738Y-125119291D01*
X207270738Y-125119291D02*
X207151691Y-125059768D01*
X207151691Y-125059768D02*
X207092167Y-125000244D01*
X198448368Y-129678338D02*
X198329320Y-129618814D01*
X198329320Y-129618814D02*
X198269797Y-129559290D01*
X198269797Y-129559290D02*
X198210273Y-129440242D01*
X198210273Y-129440242D02*
X198210273Y-129380719D01*
X198210273Y-129380719D02*
X198269797Y-129261671D01*
X198269797Y-129261671D02*
X198329320Y-129202147D01*
X198329320Y-129202147D02*
X198448368Y-129142623D01*
X198448368Y-129142623D02*
X198686463Y-129142623D01*
X198686463Y-129142623D02*
X198805511Y-129202147D01*
X198805511Y-129202147D02*
X198865035Y-129261671D01*
X198865035Y-129261671D02*
X198924558Y-129380719D01*
X198924558Y-129380719D02*
X198924558Y-129440242D01*
X198924558Y-129440242D02*
X198865035Y-129559290D01*
X198865035Y-129559290D02*
X198805511Y-129618814D01*
X198805511Y-129618814D02*
X198686463Y-129678338D01*
X198686463Y-129678338D02*
X198448368Y-129678338D01*
X198448368Y-129678338D02*
X198329320Y-129737861D01*
X198329320Y-129737861D02*
X198269797Y-129797385D01*
X198269797Y-129797385D02*
X198210273Y-129916433D01*
X198210273Y-129916433D02*
X198210273Y-130154528D01*
X198210273Y-130154528D02*
X198269797Y-130273576D01*
X198269797Y-130273576D02*
X198329320Y-130333100D01*
X198329320Y-130333100D02*
X198448368Y-130392623D01*
X198448368Y-130392623D02*
X198686463Y-130392623D01*
X198686463Y-130392623D02*
X198805511Y-130333100D01*
X198805511Y-130333100D02*
X198865035Y-130273576D01*
X198865035Y-130273576D02*
X198924558Y-130154528D01*
X198924558Y-130154528D02*
X198924558Y-129916433D01*
X198924558Y-129916433D02*
X198865035Y-129797385D01*
X198865035Y-129797385D02*
X198805511Y-129737861D01*
X198805511Y-129737861D02*
X198686463Y-129678338D01*
X198289558Y-127801823D02*
X197575273Y-127801823D01*
X197932416Y-127801823D02*
X197932416Y-126551823D01*
X197932416Y-126551823D02*
X197813368Y-126730395D01*
X197813368Y-126730395D02*
X197694320Y-126849442D01*
X197694320Y-126849442D02*
X197575273Y-126908966D01*
X199063368Y-126551823D02*
X199182415Y-126551823D01*
X199182415Y-126551823D02*
X199301463Y-126611347D01*
X199301463Y-126611347D02*
X199360987Y-126670871D01*
X199360987Y-126670871D02*
X199420511Y-126789919D01*
X199420511Y-126789919D02*
X199480034Y-127028014D01*
X199480034Y-127028014D02*
X199480034Y-127325633D01*
X199480034Y-127325633D02*
X199420511Y-127563728D01*
X199420511Y-127563728D02*
X199360987Y-127682776D01*
X199360987Y-127682776D02*
X199301463Y-127742300D01*
X199301463Y-127742300D02*
X199182415Y-127801823D01*
X199182415Y-127801823D02*
X199063368Y-127801823D01*
X199063368Y-127801823D02*
X198944320Y-127742300D01*
X198944320Y-127742300D02*
X198884796Y-127682776D01*
X198884796Y-127682776D02*
X198825273Y-127563728D01*
X198825273Y-127563728D02*
X198765749Y-127325633D01*
X198765749Y-127325633D02*
X198765749Y-127028014D01*
X198765749Y-127028014D02*
X198825273Y-126789919D01*
X198825273Y-126789919D02*
X198884796Y-126670871D01*
X198884796Y-126670871D02*
X198944320Y-126611347D01*
X198944320Y-126611347D02*
X199063368Y-126551823D01*
X198873758Y-119042147D02*
X198754711Y-118982623D01*
X198754711Y-118982623D02*
X198576139Y-118982623D01*
X198576139Y-118982623D02*
X198397568Y-119042147D01*
X198397568Y-119042147D02*
X198278520Y-119161195D01*
X198278520Y-119161195D02*
X198218997Y-119280242D01*
X198218997Y-119280242D02*
X198159473Y-119518338D01*
X198159473Y-119518338D02*
X198159473Y-119696909D01*
X198159473Y-119696909D02*
X198218997Y-119935004D01*
X198218997Y-119935004D02*
X198278520Y-120054052D01*
X198278520Y-120054052D02*
X198397568Y-120173100D01*
X198397568Y-120173100D02*
X198576139Y-120232623D01*
X198576139Y-120232623D02*
X198695187Y-120232623D01*
X198695187Y-120232623D02*
X198873758Y-120173100D01*
X198873758Y-120173100D02*
X198933282Y-120113576D01*
X198933282Y-120113576D02*
X198933282Y-119696909D01*
X198933282Y-119696909D02*
X198695187Y-119696909D01*
X198264158Y-125363423D02*
X197549873Y-125363423D01*
X197907016Y-125363423D02*
X197907016Y-124113423D01*
X197907016Y-124113423D02*
X197787968Y-124291995D01*
X197787968Y-124291995D02*
X197668920Y-124411042D01*
X197668920Y-124411042D02*
X197549873Y-124470566D01*
X198740349Y-124232471D02*
X198799873Y-124172947D01*
X198799873Y-124172947D02*
X198918920Y-124113423D01*
X198918920Y-124113423D02*
X199216539Y-124113423D01*
X199216539Y-124113423D02*
X199335587Y-124172947D01*
X199335587Y-124172947D02*
X199395111Y-124232471D01*
X199395111Y-124232471D02*
X199454634Y-124351519D01*
X199454634Y-124351519D02*
X199454634Y-124470566D01*
X199454634Y-124470566D02*
X199395111Y-124649138D01*
X199395111Y-124649138D02*
X198680825Y-125363423D01*
X198680825Y-125363423D02*
X199454634Y-125363423D01*
X206431149Y-131733423D02*
X207264482Y-131733423D01*
X207264482Y-131733423D02*
X206728768Y-132983423D01*
X198856311Y-131860423D02*
X198618216Y-131860423D01*
X198618216Y-131860423D02*
X198499168Y-131919947D01*
X198499168Y-131919947D02*
X198439644Y-131979471D01*
X198439644Y-131979471D02*
X198320597Y-132158042D01*
X198320597Y-132158042D02*
X198261073Y-132396138D01*
X198261073Y-132396138D02*
X198261073Y-132872328D01*
X198261073Y-132872328D02*
X198320597Y-132991376D01*
X198320597Y-132991376D02*
X198380120Y-133050900D01*
X198380120Y-133050900D02*
X198499168Y-133110423D01*
X198499168Y-133110423D02*
X198737263Y-133110423D01*
X198737263Y-133110423D02*
X198856311Y-133050900D01*
X198856311Y-133050900D02*
X198915835Y-132991376D01*
X198915835Y-132991376D02*
X198975358Y-132872328D01*
X198975358Y-132872328D02*
X198975358Y-132574709D01*
X198975358Y-132574709D02*
X198915835Y-132455661D01*
X198915835Y-132455661D02*
X198856311Y-132396138D01*
X198856311Y-132396138D02*
X198737263Y-132336614D01*
X198737263Y-132336614D02*
X198499168Y-132336614D01*
X198499168Y-132336614D02*
X198380120Y-132396138D01*
X198380120Y-132396138D02*
X198320597Y-132455661D01*
X198320597Y-132455661D02*
X198261073Y-132574709D01*
X206671558Y-127776423D02*
X205957273Y-127776423D01*
X206314416Y-127776423D02*
X206314416Y-126526423D01*
X206314416Y-126526423D02*
X206195368Y-126704995D01*
X206195368Y-126704995D02*
X206076320Y-126824042D01*
X206076320Y-126824042D02*
X205957273Y-126883566D01*
X207862034Y-127776423D02*
X207147749Y-127776423D01*
X207504892Y-127776423D02*
X207504892Y-126526423D01*
X207504892Y-126526423D02*
X207385844Y-126704995D01*
X207385844Y-126704995D02*
X207266796Y-126824042D01*
X207266796Y-126824042D02*
X207147749Y-126883566D01*
X202047976Y-142399292D02*
X202047976Y-142518339D01*
X202047976Y-142518339D02*
X201988452Y-142637387D01*
X201988452Y-142637387D02*
X201928928Y-142696911D01*
X201928928Y-142696911D02*
X201809880Y-142756435D01*
X201809880Y-142756435D02*
X201571785Y-142815958D01*
X201571785Y-142815958D02*
X201274166Y-142815958D01*
X201274166Y-142815958D02*
X201036071Y-142756435D01*
X201036071Y-142756435D02*
X200917023Y-142696911D01*
X200917023Y-142696911D02*
X200857500Y-142637387D01*
X200857500Y-142637387D02*
X200797976Y-142518339D01*
X200797976Y-142518339D02*
X200797976Y-142399292D01*
X200797976Y-142399292D02*
X200857500Y-142280244D01*
X200857500Y-142280244D02*
X200917023Y-142220720D01*
X200917023Y-142220720D02*
X201036071Y-142161197D01*
X201036071Y-142161197D02*
X201274166Y-142101673D01*
X201274166Y-142101673D02*
X201571785Y-142101673D01*
X201571785Y-142101673D02*
X201809880Y-142161197D01*
X201809880Y-142161197D02*
X201928928Y-142220720D01*
X201928928Y-142220720D02*
X201988452Y-142280244D01*
X201988452Y-142280244D02*
X202047976Y-142399292D01*
X202107500Y-144244530D02*
X200500357Y-143173101D01*
X200797976Y-144661197D02*
X202047976Y-144661197D01*
X202047976Y-144661197D02*
X202047976Y-144958816D01*
X202047976Y-144958816D02*
X201988452Y-145137387D01*
X201988452Y-145137387D02*
X201869404Y-145256435D01*
X201869404Y-145256435D02*
X201750357Y-145315958D01*
X201750357Y-145315958D02*
X201512261Y-145375482D01*
X201512261Y-145375482D02*
X201333690Y-145375482D01*
X201333690Y-145375482D02*
X201095595Y-145315958D01*
X201095595Y-145315958D02*
X200976547Y-145256435D01*
X200976547Y-145256435D02*
X200857500Y-145137387D01*
X200857500Y-145137387D02*
X200797976Y-144958816D01*
X200797976Y-144958816D02*
X200797976Y-144661197D01*
X201274166Y-145911197D02*
X201274166Y-146863578D01*
D11*
X193946362Y-128827697D02*
X193946362Y-128301507D01*
X193946362Y-128301507D02*
X193915409Y-128239602D01*
X193915409Y-128239602D02*
X193884457Y-128208650D01*
X193884457Y-128208650D02*
X193822552Y-128177697D01*
X193822552Y-128177697D02*
X193698743Y-128177697D01*
X193698743Y-128177697D02*
X193636838Y-128208650D01*
X193636838Y-128208650D02*
X193605885Y-128239602D01*
X193605885Y-128239602D02*
X193574933Y-128301507D01*
X193574933Y-128301507D02*
X193574933Y-128827697D01*
X192924933Y-128177697D02*
X193296362Y-128177697D01*
X193110648Y-128177697D02*
X193110648Y-128827697D01*
X193110648Y-128827697D02*
X193172552Y-128734840D01*
X193172552Y-128734840D02*
X193234457Y-128672935D01*
X193234457Y-128672935D02*
X193296362Y-128641983D01*
X192615409Y-128177697D02*
X192491600Y-128177697D01*
X192491600Y-128177697D02*
X192429695Y-128208650D01*
X192429695Y-128208650D02*
X192398743Y-128239602D01*
X192398743Y-128239602D02*
X192336838Y-128332459D01*
X192336838Y-128332459D02*
X192305885Y-128456269D01*
X192305885Y-128456269D02*
X192305885Y-128703888D01*
X192305885Y-128703888D02*
X192336838Y-128765792D01*
X192336838Y-128765792D02*
X192367790Y-128796745D01*
X192367790Y-128796745D02*
X192429695Y-128827697D01*
X192429695Y-128827697D02*
X192553504Y-128827697D01*
X192553504Y-128827697D02*
X192615409Y-128796745D01*
X192615409Y-128796745D02*
X192646362Y-128765792D01*
X192646362Y-128765792D02*
X192677314Y-128703888D01*
X192677314Y-128703888D02*
X192677314Y-128549126D01*
X192677314Y-128549126D02*
X192646362Y-128487221D01*
X192646362Y-128487221D02*
X192615409Y-128456269D01*
X192615409Y-128456269D02*
X192553504Y-128425316D01*
X192553504Y-128425316D02*
X192429695Y-128425316D01*
X192429695Y-128425316D02*
X192367790Y-128456269D01*
X192367790Y-128456269D02*
X192336838Y-128487221D01*
X192336838Y-128487221D02*
X192305885Y-128549126D01*
X193332038Y-140308497D02*
X193332038Y-139782307D01*
X193332038Y-139782307D02*
X193301085Y-139720402D01*
X193301085Y-139720402D02*
X193270133Y-139689450D01*
X193270133Y-139689450D02*
X193208228Y-139658497D01*
X193208228Y-139658497D02*
X193084419Y-139658497D01*
X193084419Y-139658497D02*
X193022514Y-139689450D01*
X193022514Y-139689450D02*
X192991561Y-139720402D01*
X192991561Y-139720402D02*
X192960609Y-139782307D01*
X192960609Y-139782307D02*
X192960609Y-140308497D01*
X192372514Y-140091830D02*
X192372514Y-139658497D01*
X192527276Y-140339450D02*
X192682038Y-139875164D01*
X192682038Y-139875164D02*
X192279657Y-139875164D01*
X212030961Y-136076402D02*
X212030961Y-136602592D01*
X212030961Y-136602592D02*
X212061914Y-136664497D01*
X212061914Y-136664497D02*
X212092866Y-136695450D01*
X212092866Y-136695450D02*
X212154771Y-136726402D01*
X212154771Y-136726402D02*
X212278580Y-136726402D01*
X212278580Y-136726402D02*
X212340485Y-136695450D01*
X212340485Y-136695450D02*
X212371438Y-136664497D01*
X212371438Y-136664497D02*
X212402390Y-136602592D01*
X212402390Y-136602592D02*
X212402390Y-136076402D01*
X212650009Y-136076402D02*
X213083342Y-136076402D01*
X213083342Y-136076402D02*
X212804771Y-136726402D01*
X211468237Y-124619302D02*
X211468237Y-125145492D01*
X211468237Y-125145492D02*
X211499190Y-125207397D01*
X211499190Y-125207397D02*
X211530142Y-125238350D01*
X211530142Y-125238350D02*
X211592047Y-125269302D01*
X211592047Y-125269302D02*
X211715856Y-125269302D01*
X211715856Y-125269302D02*
X211777761Y-125238350D01*
X211777761Y-125238350D02*
X211808714Y-125207397D01*
X211808714Y-125207397D02*
X211839666Y-125145492D01*
X211839666Y-125145492D02*
X211839666Y-124619302D01*
X212489666Y-125269302D02*
X212118237Y-125269302D01*
X212303951Y-125269302D02*
X212303951Y-124619302D01*
X212303951Y-124619302D02*
X212242047Y-124712159D01*
X212242047Y-124712159D02*
X212180142Y-124774064D01*
X212180142Y-124774064D02*
X212118237Y-124805016D01*
X213046809Y-124619302D02*
X212922999Y-124619302D01*
X212922999Y-124619302D02*
X212861095Y-124650254D01*
X212861095Y-124650254D02*
X212830142Y-124681207D01*
X212830142Y-124681207D02*
X212768237Y-124774064D01*
X212768237Y-124774064D02*
X212737285Y-124897873D01*
X212737285Y-124897873D02*
X212737285Y-125145492D01*
X212737285Y-125145492D02*
X212768237Y-125207397D01*
X212768237Y-125207397D02*
X212799190Y-125238350D01*
X212799190Y-125238350D02*
X212861095Y-125269302D01*
X212861095Y-125269302D02*
X212984904Y-125269302D01*
X212984904Y-125269302D02*
X213046809Y-125238350D01*
X213046809Y-125238350D02*
X213077761Y-125207397D01*
X213077761Y-125207397D02*
X213108714Y-125145492D01*
X213108714Y-125145492D02*
X213108714Y-124990730D01*
X213108714Y-124990730D02*
X213077761Y-124928826D01*
X213077761Y-124928826D02*
X213046809Y-124897873D01*
X213046809Y-124897873D02*
X212984904Y-124866921D01*
X212984904Y-124866921D02*
X212861095Y-124866921D01*
X212861095Y-124866921D02*
X212799190Y-124897873D01*
X212799190Y-124897873D02*
X212768237Y-124928826D01*
X212768237Y-124928826D02*
X212737285Y-124990730D01*
X190471533Y-112151550D02*
X190564390Y-112182502D01*
X190564390Y-112182502D02*
X190719152Y-112182502D01*
X190719152Y-112182502D02*
X190781057Y-112151550D01*
X190781057Y-112151550D02*
X190812009Y-112120597D01*
X190812009Y-112120597D02*
X190842962Y-112058692D01*
X190842962Y-112058692D02*
X190842962Y-111996788D01*
X190842962Y-111996788D02*
X190812009Y-111934883D01*
X190812009Y-111934883D02*
X190781057Y-111903930D01*
X190781057Y-111903930D02*
X190719152Y-111872978D01*
X190719152Y-111872978D02*
X190595343Y-111842026D01*
X190595343Y-111842026D02*
X190533438Y-111811073D01*
X190533438Y-111811073D02*
X190502485Y-111780121D01*
X190502485Y-111780121D02*
X190471533Y-111718216D01*
X190471533Y-111718216D02*
X190471533Y-111656311D01*
X190471533Y-111656311D02*
X190502485Y-111594407D01*
X190502485Y-111594407D02*
X190533438Y-111563454D01*
X190533438Y-111563454D02*
X190595343Y-111532502D01*
X190595343Y-111532502D02*
X190750104Y-111532502D01*
X190750104Y-111532502D02*
X190842962Y-111563454D01*
X191059629Y-111532502D02*
X191214391Y-112182502D01*
X191214391Y-112182502D02*
X191338200Y-111718216D01*
X191338200Y-111718216D02*
X191462010Y-112182502D01*
X191462010Y-112182502D02*
X191616772Y-111532502D01*
X192204867Y-112182502D02*
X191833438Y-112182502D01*
X192019152Y-112182502D02*
X192019152Y-111532502D01*
X192019152Y-111532502D02*
X191957248Y-111625359D01*
X191957248Y-111625359D02*
X191895343Y-111687264D01*
X191895343Y-111687264D02*
X191833438Y-111718216D01*
X198205497Y-142842866D02*
X198515021Y-142626199D01*
X198205497Y-142471437D02*
X198855497Y-142471437D01*
X198855497Y-142471437D02*
X198855497Y-142719056D01*
X198855497Y-142719056D02*
X198824545Y-142780961D01*
X198824545Y-142780961D02*
X198793592Y-142811914D01*
X198793592Y-142811914D02*
X198731688Y-142842866D01*
X198731688Y-142842866D02*
X198638830Y-142842866D01*
X198638830Y-142842866D02*
X198576926Y-142811914D01*
X198576926Y-142811914D02*
X198545973Y-142780961D01*
X198545973Y-142780961D02*
X198515021Y-142719056D01*
X198515021Y-142719056D02*
X198515021Y-142471437D01*
X198855497Y-143059533D02*
X198855497Y-143492866D01*
X198855497Y-143492866D02*
X198205497Y-143214295D01*
X195432702Y-109035638D02*
X195958892Y-109035638D01*
X195958892Y-109035638D02*
X196020797Y-109004685D01*
X196020797Y-109004685D02*
X196051750Y-108973733D01*
X196051750Y-108973733D02*
X196082702Y-108911828D01*
X196082702Y-108911828D02*
X196082702Y-108788019D01*
X196082702Y-108788019D02*
X196051750Y-108726114D01*
X196051750Y-108726114D02*
X196020797Y-108695161D01*
X196020797Y-108695161D02*
X195958892Y-108664209D01*
X195958892Y-108664209D02*
X195432702Y-108664209D01*
X195432702Y-108416590D02*
X195432702Y-108014209D01*
X195432702Y-108014209D02*
X195680321Y-108230876D01*
X195680321Y-108230876D02*
X195680321Y-108138019D01*
X195680321Y-108138019D02*
X195711273Y-108076114D01*
X195711273Y-108076114D02*
X195742226Y-108045162D01*
X195742226Y-108045162D02*
X195804130Y-108014209D01*
X195804130Y-108014209D02*
X195958892Y-108014209D01*
X195958892Y-108014209D02*
X196020797Y-108045162D01*
X196020797Y-108045162D02*
X196051750Y-108076114D01*
X196051750Y-108076114D02*
X196082702Y-108138019D01*
X196082702Y-108138019D02*
X196082702Y-108323733D01*
X196082702Y-108323733D02*
X196051750Y-108385638D01*
X196051750Y-108385638D02*
X196020797Y-108416590D01*
X211381837Y-121840302D02*
X211381837Y-122366492D01*
X211381837Y-122366492D02*
X211412790Y-122428397D01*
X211412790Y-122428397D02*
X211443742Y-122459350D01*
X211443742Y-122459350D02*
X211505647Y-122490302D01*
X211505647Y-122490302D02*
X211629456Y-122490302D01*
X211629456Y-122490302D02*
X211691361Y-122459350D01*
X211691361Y-122459350D02*
X211722314Y-122428397D01*
X211722314Y-122428397D02*
X211753266Y-122366492D01*
X211753266Y-122366492D02*
X211753266Y-121840302D01*
X212403266Y-122490302D02*
X212031837Y-122490302D01*
X212217551Y-122490302D02*
X212217551Y-121840302D01*
X212217551Y-121840302D02*
X212155647Y-121933159D01*
X212155647Y-121933159D02*
X212093742Y-121995064D01*
X212093742Y-121995064D02*
X212031837Y-122026016D01*
X212960409Y-122056969D02*
X212960409Y-122490302D01*
X212805647Y-121809350D02*
X212650885Y-122273635D01*
X212650885Y-122273635D02*
X213053266Y-122273635D01*
X193357438Y-137412897D02*
X193357438Y-136886707D01*
X193357438Y-136886707D02*
X193326485Y-136824802D01*
X193326485Y-136824802D02*
X193295533Y-136793850D01*
X193295533Y-136793850D02*
X193233628Y-136762897D01*
X193233628Y-136762897D02*
X193109819Y-136762897D01*
X193109819Y-136762897D02*
X193047914Y-136793850D01*
X193047914Y-136793850D02*
X193016961Y-136824802D01*
X193016961Y-136824802D02*
X192986009Y-136886707D01*
X192986009Y-136886707D02*
X192986009Y-137412897D01*
X192397914Y-137412897D02*
X192521724Y-137412897D01*
X192521724Y-137412897D02*
X192583628Y-137381945D01*
X192583628Y-137381945D02*
X192614581Y-137350992D01*
X192614581Y-137350992D02*
X192676486Y-137258135D01*
X192676486Y-137258135D02*
X192707438Y-137134326D01*
X192707438Y-137134326D02*
X192707438Y-136886707D01*
X192707438Y-136886707D02*
X192676486Y-136824802D01*
X192676486Y-136824802D02*
X192645533Y-136793850D01*
X192645533Y-136793850D02*
X192583628Y-136762897D01*
X192583628Y-136762897D02*
X192459819Y-136762897D01*
X192459819Y-136762897D02*
X192397914Y-136793850D01*
X192397914Y-136793850D02*
X192366962Y-136824802D01*
X192366962Y-136824802D02*
X192336009Y-136886707D01*
X192336009Y-136886707D02*
X192336009Y-137041469D01*
X192336009Y-137041469D02*
X192366962Y-137103373D01*
X192366962Y-137103373D02*
X192397914Y-137134326D01*
X192397914Y-137134326D02*
X192459819Y-137165278D01*
X192459819Y-137165278D02*
X192583628Y-137165278D01*
X192583628Y-137165278D02*
X192645533Y-137134326D01*
X192645533Y-137134326D02*
X192676486Y-137103373D01*
X192676486Y-137103373D02*
X192707438Y-137041469D01*
X195998333Y-147393002D02*
X195998333Y-147857288D01*
X195998333Y-147857288D02*
X195967380Y-147950145D01*
X195967380Y-147950145D02*
X195905476Y-148012050D01*
X195905476Y-148012050D02*
X195812618Y-148043002D01*
X195812618Y-148043002D02*
X195750714Y-148043002D01*
X196648333Y-148043002D02*
X196276904Y-148043002D01*
X196462618Y-148043002D02*
X196462618Y-147393002D01*
X196462618Y-147393002D02*
X196400714Y-147485859D01*
X196400714Y-147485859D02*
X196338809Y-147547764D01*
X196338809Y-147547764D02*
X196276904Y-147578716D01*
X190818742Y-107497797D02*
X190787790Y-107528750D01*
X190787790Y-107528750D02*
X190694932Y-107559702D01*
X190694932Y-107559702D02*
X190633028Y-107559702D01*
X190633028Y-107559702D02*
X190540171Y-107528750D01*
X190540171Y-107528750D02*
X190478266Y-107466845D01*
X190478266Y-107466845D02*
X190447313Y-107404940D01*
X190447313Y-107404940D02*
X190416361Y-107281130D01*
X190416361Y-107281130D02*
X190416361Y-107188273D01*
X190416361Y-107188273D02*
X190447313Y-107064464D01*
X190447313Y-107064464D02*
X190478266Y-107002559D01*
X190478266Y-107002559D02*
X190540171Y-106940654D01*
X190540171Y-106940654D02*
X190633028Y-106909702D01*
X190633028Y-106909702D02*
X190694932Y-106909702D01*
X190694932Y-106909702D02*
X190787790Y-106940654D01*
X190787790Y-106940654D02*
X190818742Y-106971607D01*
X191437790Y-107559702D02*
X191066361Y-107559702D01*
X191252075Y-107559702D02*
X191252075Y-106909702D01*
X191252075Y-106909702D02*
X191190171Y-107002559D01*
X191190171Y-107002559D02*
X191128266Y-107064464D01*
X191128266Y-107064464D02*
X191066361Y-107095416D01*
X192056838Y-107559702D02*
X191685409Y-107559702D01*
X191871123Y-107559702D02*
X191871123Y-106909702D01*
X191871123Y-106909702D02*
X191809219Y-107002559D01*
X191809219Y-107002559D02*
X191747314Y-107064464D01*
X191747314Y-107064464D02*
X191685409Y-107095416D01*
X196609942Y-111917397D02*
X196578990Y-111948350D01*
X196578990Y-111948350D02*
X196486132Y-111979302D01*
X196486132Y-111979302D02*
X196424228Y-111979302D01*
X196424228Y-111979302D02*
X196331371Y-111948350D01*
X196331371Y-111948350D02*
X196269466Y-111886445D01*
X196269466Y-111886445D02*
X196238513Y-111824540D01*
X196238513Y-111824540D02*
X196207561Y-111700730D01*
X196207561Y-111700730D02*
X196207561Y-111607873D01*
X196207561Y-111607873D02*
X196238513Y-111484064D01*
X196238513Y-111484064D02*
X196269466Y-111422159D01*
X196269466Y-111422159D02*
X196331371Y-111360254D01*
X196331371Y-111360254D02*
X196424228Y-111329302D01*
X196424228Y-111329302D02*
X196486132Y-111329302D01*
X196486132Y-111329302D02*
X196578990Y-111360254D01*
X196578990Y-111360254D02*
X196609942Y-111391207D01*
X197228990Y-111979302D02*
X196857561Y-111979302D01*
X197043275Y-111979302D02*
X197043275Y-111329302D01*
X197043275Y-111329302D02*
X196981371Y-111422159D01*
X196981371Y-111422159D02*
X196919466Y-111484064D01*
X196919466Y-111484064D02*
X196857561Y-111515016D01*
X197631371Y-111329302D02*
X197693276Y-111329302D01*
X197693276Y-111329302D02*
X197755180Y-111360254D01*
X197755180Y-111360254D02*
X197786133Y-111391207D01*
X197786133Y-111391207D02*
X197817085Y-111453111D01*
X197817085Y-111453111D02*
X197848038Y-111576921D01*
X197848038Y-111576921D02*
X197848038Y-111731683D01*
X197848038Y-111731683D02*
X197817085Y-111855492D01*
X197817085Y-111855492D02*
X197786133Y-111917397D01*
X197786133Y-111917397D02*
X197755180Y-111948350D01*
X197755180Y-111948350D02*
X197693276Y-111979302D01*
X197693276Y-111979302D02*
X197631371Y-111979302D01*
X197631371Y-111979302D02*
X197569466Y-111948350D01*
X197569466Y-111948350D02*
X197538514Y-111917397D01*
X197538514Y-111917397D02*
X197507561Y-111855492D01*
X197507561Y-111855492D02*
X197476609Y-111731683D01*
X197476609Y-111731683D02*
X197476609Y-111576921D01*
X197476609Y-111576921D02*
X197507561Y-111453111D01*
X197507561Y-111453111D02*
X197538514Y-111391207D01*
X197538514Y-111391207D02*
X197569466Y-111360254D01*
X197569466Y-111360254D02*
X197631371Y-111329302D01*
X191006897Y-102984361D02*
X190480707Y-102984361D01*
X190480707Y-102984361D02*
X190418802Y-103015314D01*
X190418802Y-103015314D02*
X190387850Y-103046266D01*
X190387850Y-103046266D02*
X190356897Y-103108171D01*
X190356897Y-103108171D02*
X190356897Y-103231980D01*
X190356897Y-103231980D02*
X190387850Y-103293885D01*
X190387850Y-103293885D02*
X190418802Y-103324838D01*
X190418802Y-103324838D02*
X190480707Y-103355790D01*
X190480707Y-103355790D02*
X191006897Y-103355790D01*
X190356897Y-104005790D02*
X190356897Y-103634361D01*
X190356897Y-103820075D02*
X191006897Y-103820075D01*
X191006897Y-103820075D02*
X190914040Y-103758171D01*
X190914040Y-103758171D02*
X190852135Y-103696266D01*
X190852135Y-103696266D02*
X190821183Y-103634361D01*
X212355378Y-108217223D02*
X212664902Y-108217223D01*
X212014902Y-108433890D02*
X212355378Y-108217223D01*
X212355378Y-108217223D02*
X212014902Y-108000556D01*
X212664902Y-107443413D02*
X212664902Y-107814842D01*
X212664902Y-107629128D02*
X212014902Y-107629128D01*
X212014902Y-107629128D02*
X212107759Y-107691032D01*
X212107759Y-107691032D02*
X212169664Y-107752937D01*
X212169664Y-107752937D02*
X212200616Y-107814842D01*
X193895562Y-122960297D02*
X193895562Y-122434107D01*
X193895562Y-122434107D02*
X193864609Y-122372202D01*
X193864609Y-122372202D02*
X193833657Y-122341250D01*
X193833657Y-122341250D02*
X193771752Y-122310297D01*
X193771752Y-122310297D02*
X193647943Y-122310297D01*
X193647943Y-122310297D02*
X193586038Y-122341250D01*
X193586038Y-122341250D02*
X193555085Y-122372202D01*
X193555085Y-122372202D02*
X193524133Y-122434107D01*
X193524133Y-122434107D02*
X193524133Y-122960297D01*
X192874133Y-122310297D02*
X193245562Y-122310297D01*
X193059848Y-122310297D02*
X193059848Y-122960297D01*
X193059848Y-122960297D02*
X193121752Y-122867440D01*
X193121752Y-122867440D02*
X193183657Y-122805535D01*
X193183657Y-122805535D02*
X193245562Y-122774583D01*
X192286038Y-122960297D02*
X192595562Y-122960297D01*
X192595562Y-122960297D02*
X192626514Y-122650773D01*
X192626514Y-122650773D02*
X192595562Y-122681726D01*
X192595562Y-122681726D02*
X192533657Y-122712678D01*
X192533657Y-122712678D02*
X192378895Y-122712678D01*
X192378895Y-122712678D02*
X192316990Y-122681726D01*
X192316990Y-122681726D02*
X192286038Y-122650773D01*
X192286038Y-122650773D02*
X192255085Y-122588869D01*
X192255085Y-122588869D02*
X192255085Y-122434107D01*
X192255085Y-122434107D02*
X192286038Y-122372202D01*
X192286038Y-122372202D02*
X192316990Y-122341250D01*
X192316990Y-122341250D02*
X192378895Y-122310297D01*
X192378895Y-122310297D02*
X192533657Y-122310297D01*
X192533657Y-122310297D02*
X192595562Y-122341250D01*
X192595562Y-122341250D02*
X192626514Y-122372202D01*
X209769302Y-150146133D02*
X209459778Y-150362800D01*
X209769302Y-150517562D02*
X209119302Y-150517562D01*
X209119302Y-150517562D02*
X209119302Y-150269943D01*
X209119302Y-150269943D02*
X209150254Y-150208038D01*
X209150254Y-150208038D02*
X209181207Y-150177085D01*
X209181207Y-150177085D02*
X209243111Y-150146133D01*
X209243111Y-150146133D02*
X209335969Y-150146133D01*
X209335969Y-150146133D02*
X209397873Y-150177085D01*
X209397873Y-150177085D02*
X209428826Y-150208038D01*
X209428826Y-150208038D02*
X209459778Y-150269943D01*
X209459778Y-150269943D02*
X209459778Y-150517562D01*
X209769302Y-149836609D02*
X209769302Y-149712800D01*
X209769302Y-149712800D02*
X209738350Y-149650895D01*
X209738350Y-149650895D02*
X209707397Y-149619943D01*
X209707397Y-149619943D02*
X209614540Y-149558038D01*
X209614540Y-149558038D02*
X209490730Y-149527085D01*
X209490730Y-149527085D02*
X209243111Y-149527085D01*
X209243111Y-149527085D02*
X209181207Y-149558038D01*
X209181207Y-149558038D02*
X209150254Y-149588990D01*
X209150254Y-149588990D02*
X209119302Y-149650895D01*
X209119302Y-149650895D02*
X209119302Y-149774704D01*
X209119302Y-149774704D02*
X209150254Y-149836609D01*
X209150254Y-149836609D02*
X209181207Y-149867562D01*
X209181207Y-149867562D02*
X209243111Y-149898514D01*
X209243111Y-149898514D02*
X209397873Y-149898514D01*
X209397873Y-149898514D02*
X209459778Y-149867562D01*
X209459778Y-149867562D02*
X209490730Y-149836609D01*
X209490730Y-149836609D02*
X209521683Y-149774704D01*
X209521683Y-149774704D02*
X209521683Y-149650895D01*
X209521683Y-149650895D02*
X209490730Y-149588990D01*
X209490730Y-149588990D02*
X209459778Y-149558038D01*
X209459778Y-149558038D02*
X209397873Y-149527085D01*
X197249666Y-107167597D02*
X197218714Y-107198550D01*
X197218714Y-107198550D02*
X197125856Y-107229502D01*
X197125856Y-107229502D02*
X197063952Y-107229502D01*
X197063952Y-107229502D02*
X196971095Y-107198550D01*
X196971095Y-107198550D02*
X196909190Y-107136645D01*
X196909190Y-107136645D02*
X196878237Y-107074740D01*
X196878237Y-107074740D02*
X196847285Y-106950930D01*
X196847285Y-106950930D02*
X196847285Y-106858073D01*
X196847285Y-106858073D02*
X196878237Y-106734264D01*
X196878237Y-106734264D02*
X196909190Y-106672359D01*
X196909190Y-106672359D02*
X196971095Y-106610454D01*
X196971095Y-106610454D02*
X197063952Y-106579502D01*
X197063952Y-106579502D02*
X197125856Y-106579502D01*
X197125856Y-106579502D02*
X197218714Y-106610454D01*
X197218714Y-106610454D02*
X197249666Y-106641407D01*
X197466333Y-106579502D02*
X197899666Y-106579502D01*
X197899666Y-106579502D02*
X197621095Y-107229502D01*
X196106666Y-104537102D02*
X195889999Y-104227578D01*
X195735237Y-104537102D02*
X195735237Y-103887102D01*
X195735237Y-103887102D02*
X195982856Y-103887102D01*
X195982856Y-103887102D02*
X196044761Y-103918054D01*
X196044761Y-103918054D02*
X196075714Y-103949007D01*
X196075714Y-103949007D02*
X196106666Y-104010911D01*
X196106666Y-104010911D02*
X196106666Y-104103769D01*
X196106666Y-104103769D02*
X196075714Y-104165673D01*
X196075714Y-104165673D02*
X196044761Y-104196626D01*
X196044761Y-104196626D02*
X195982856Y-104227578D01*
X195982856Y-104227578D02*
X195735237Y-104227578D01*
X196694761Y-103887102D02*
X196385237Y-103887102D01*
X196385237Y-103887102D02*
X196354285Y-104196626D01*
X196354285Y-104196626D02*
X196385237Y-104165673D01*
X196385237Y-104165673D02*
X196447142Y-104134721D01*
X196447142Y-104134721D02*
X196601904Y-104134721D01*
X196601904Y-104134721D02*
X196663809Y-104165673D01*
X196663809Y-104165673D02*
X196694761Y-104196626D01*
X196694761Y-104196626D02*
X196725714Y-104258530D01*
X196725714Y-104258530D02*
X196725714Y-104413292D01*
X196725714Y-104413292D02*
X196694761Y-104475197D01*
X196694761Y-104475197D02*
X196663809Y-104506150D01*
X196663809Y-104506150D02*
X196601904Y-104537102D01*
X196601904Y-104537102D02*
X196447142Y-104537102D01*
X196447142Y-104537102D02*
X196385237Y-104506150D01*
X196385237Y-104506150D02*
X196354285Y-104475197D01*
X196884697Y-142792066D02*
X197194221Y-142575399D01*
X196884697Y-142420637D02*
X197534697Y-142420637D01*
X197534697Y-142420637D02*
X197534697Y-142668256D01*
X197534697Y-142668256D02*
X197503745Y-142730161D01*
X197503745Y-142730161D02*
X197472792Y-142761114D01*
X197472792Y-142761114D02*
X197410888Y-142792066D01*
X197410888Y-142792066D02*
X197318030Y-142792066D01*
X197318030Y-142792066D02*
X197256126Y-142761114D01*
X197256126Y-142761114D02*
X197225173Y-142730161D01*
X197225173Y-142730161D02*
X197194221Y-142668256D01*
X197194221Y-142668256D02*
X197194221Y-142420637D01*
X197256126Y-143163495D02*
X197287078Y-143101590D01*
X197287078Y-143101590D02*
X197318030Y-143070637D01*
X197318030Y-143070637D02*
X197379935Y-143039685D01*
X197379935Y-143039685D02*
X197410888Y-143039685D01*
X197410888Y-143039685D02*
X197472792Y-143070637D01*
X197472792Y-143070637D02*
X197503745Y-143101590D01*
X197503745Y-143101590D02*
X197534697Y-143163495D01*
X197534697Y-143163495D02*
X197534697Y-143287304D01*
X197534697Y-143287304D02*
X197503745Y-143349209D01*
X197503745Y-143349209D02*
X197472792Y-143380161D01*
X197472792Y-143380161D02*
X197410888Y-143411114D01*
X197410888Y-143411114D02*
X197379935Y-143411114D01*
X197379935Y-143411114D02*
X197318030Y-143380161D01*
X197318030Y-143380161D02*
X197287078Y-143349209D01*
X197287078Y-143349209D02*
X197256126Y-143287304D01*
X197256126Y-143287304D02*
X197256126Y-143163495D01*
X197256126Y-143163495D02*
X197225173Y-143101590D01*
X197225173Y-143101590D02*
X197194221Y-143070637D01*
X197194221Y-143070637D02*
X197132316Y-143039685D01*
X197132316Y-143039685D02*
X197008507Y-143039685D01*
X197008507Y-143039685D02*
X196946602Y-143070637D01*
X196946602Y-143070637D02*
X196915650Y-143101590D01*
X196915650Y-143101590D02*
X196884697Y-143163495D01*
X196884697Y-143163495D02*
X196884697Y-143287304D01*
X196884697Y-143287304D02*
X196915650Y-143349209D01*
X196915650Y-143349209D02*
X196946602Y-143380161D01*
X196946602Y-143380161D02*
X197008507Y-143411114D01*
X197008507Y-143411114D02*
X197132316Y-143411114D01*
X197132316Y-143411114D02*
X197194221Y-143380161D01*
X197194221Y-143380161D02*
X197225173Y-143349209D01*
X197225173Y-143349209D02*
X197256126Y-143287304D01*
X193920962Y-125855897D02*
X193920962Y-125329707D01*
X193920962Y-125329707D02*
X193890009Y-125267802D01*
X193890009Y-125267802D02*
X193859057Y-125236850D01*
X193859057Y-125236850D02*
X193797152Y-125205897D01*
X193797152Y-125205897D02*
X193673343Y-125205897D01*
X193673343Y-125205897D02*
X193611438Y-125236850D01*
X193611438Y-125236850D02*
X193580485Y-125267802D01*
X193580485Y-125267802D02*
X193549533Y-125329707D01*
X193549533Y-125329707D02*
X193549533Y-125855897D01*
X192899533Y-125205897D02*
X193270962Y-125205897D01*
X193085248Y-125205897D02*
X193085248Y-125855897D01*
X193085248Y-125855897D02*
X193147152Y-125763040D01*
X193147152Y-125763040D02*
X193209057Y-125701135D01*
X193209057Y-125701135D02*
X193270962Y-125670183D01*
X192682866Y-125855897D02*
X192249533Y-125855897D01*
X192249533Y-125855897D02*
X192528104Y-125205897D01*
X195979666Y-102493997D02*
X195948714Y-102524950D01*
X195948714Y-102524950D02*
X195855856Y-102555902D01*
X195855856Y-102555902D02*
X195793952Y-102555902D01*
X195793952Y-102555902D02*
X195701095Y-102524950D01*
X195701095Y-102524950D02*
X195639190Y-102463045D01*
X195639190Y-102463045D02*
X195608237Y-102401140D01*
X195608237Y-102401140D02*
X195577285Y-102277330D01*
X195577285Y-102277330D02*
X195577285Y-102184473D01*
X195577285Y-102184473D02*
X195608237Y-102060664D01*
X195608237Y-102060664D02*
X195639190Y-101998759D01*
X195639190Y-101998759D02*
X195701095Y-101936854D01*
X195701095Y-101936854D02*
X195793952Y-101905902D01*
X195793952Y-101905902D02*
X195855856Y-101905902D01*
X195855856Y-101905902D02*
X195948714Y-101936854D01*
X195948714Y-101936854D02*
X195979666Y-101967807D01*
X196351095Y-102184473D02*
X196289190Y-102153521D01*
X196289190Y-102153521D02*
X196258237Y-102122569D01*
X196258237Y-102122569D02*
X196227285Y-102060664D01*
X196227285Y-102060664D02*
X196227285Y-102029711D01*
X196227285Y-102029711D02*
X196258237Y-101967807D01*
X196258237Y-101967807D02*
X196289190Y-101936854D01*
X196289190Y-101936854D02*
X196351095Y-101905902D01*
X196351095Y-101905902D02*
X196474904Y-101905902D01*
X196474904Y-101905902D02*
X196536809Y-101936854D01*
X196536809Y-101936854D02*
X196567761Y-101967807D01*
X196567761Y-101967807D02*
X196598714Y-102029711D01*
X196598714Y-102029711D02*
X196598714Y-102060664D01*
X196598714Y-102060664D02*
X196567761Y-102122569D01*
X196567761Y-102122569D02*
X196536809Y-102153521D01*
X196536809Y-102153521D02*
X196474904Y-102184473D01*
X196474904Y-102184473D02*
X196351095Y-102184473D01*
X196351095Y-102184473D02*
X196289190Y-102215426D01*
X196289190Y-102215426D02*
X196258237Y-102246378D01*
X196258237Y-102246378D02*
X196227285Y-102308283D01*
X196227285Y-102308283D02*
X196227285Y-102432092D01*
X196227285Y-102432092D02*
X196258237Y-102493997D01*
X196258237Y-102493997D02*
X196289190Y-102524950D01*
X196289190Y-102524950D02*
X196351095Y-102555902D01*
X196351095Y-102555902D02*
X196474904Y-102555902D01*
X196474904Y-102555902D02*
X196536809Y-102524950D01*
X196536809Y-102524950D02*
X196567761Y-102493997D01*
X196567761Y-102493997D02*
X196598714Y-102432092D01*
X196598714Y-102432092D02*
X196598714Y-102308283D01*
X196598714Y-102308283D02*
X196567761Y-102246378D01*
X196567761Y-102246378D02*
X196536809Y-102215426D01*
X196536809Y-102215426D02*
X196474904Y-102184473D01*
X195674866Y-97933102D02*
X195365342Y-97933102D01*
X195365342Y-97933102D02*
X195365342Y-97283102D01*
X196232009Y-97933102D02*
X195860580Y-97933102D01*
X196046294Y-97933102D02*
X196046294Y-97283102D01*
X196046294Y-97283102D02*
X195984390Y-97375959D01*
X195984390Y-97375959D02*
X195922485Y-97437864D01*
X195922485Y-97437864D02*
X195860580Y-97468816D01*
X192804666Y-111725302D02*
X192587999Y-111415778D01*
X192433237Y-111725302D02*
X192433237Y-111075302D01*
X192433237Y-111075302D02*
X192680856Y-111075302D01*
X192680856Y-111075302D02*
X192742761Y-111106254D01*
X192742761Y-111106254D02*
X192773714Y-111137207D01*
X192773714Y-111137207D02*
X192804666Y-111199111D01*
X192804666Y-111199111D02*
X192804666Y-111291969D01*
X192804666Y-111291969D02*
X192773714Y-111353873D01*
X192773714Y-111353873D02*
X192742761Y-111384826D01*
X192742761Y-111384826D02*
X192680856Y-111415778D01*
X192680856Y-111415778D02*
X192433237Y-111415778D01*
X193361809Y-111075302D02*
X193237999Y-111075302D01*
X193237999Y-111075302D02*
X193176095Y-111106254D01*
X193176095Y-111106254D02*
X193145142Y-111137207D01*
X193145142Y-111137207D02*
X193083237Y-111230064D01*
X193083237Y-111230064D02*
X193052285Y-111353873D01*
X193052285Y-111353873D02*
X193052285Y-111601492D01*
X193052285Y-111601492D02*
X193083237Y-111663397D01*
X193083237Y-111663397D02*
X193114190Y-111694350D01*
X193114190Y-111694350D02*
X193176095Y-111725302D01*
X193176095Y-111725302D02*
X193299904Y-111725302D01*
X193299904Y-111725302D02*
X193361809Y-111694350D01*
X193361809Y-111694350D02*
X193392761Y-111663397D01*
X193392761Y-111663397D02*
X193423714Y-111601492D01*
X193423714Y-111601492D02*
X193423714Y-111446730D01*
X193423714Y-111446730D02*
X193392761Y-111384826D01*
X193392761Y-111384826D02*
X193361809Y-111353873D01*
X193361809Y-111353873D02*
X193299904Y-111322921D01*
X193299904Y-111322921D02*
X193176095Y-111322921D01*
X193176095Y-111322921D02*
X193114190Y-111353873D01*
X193114190Y-111353873D02*
X193083237Y-111384826D01*
X193083237Y-111384826D02*
X193052285Y-111446730D01*
X194022562Y-131723297D02*
X194022562Y-131197107D01*
X194022562Y-131197107D02*
X193991609Y-131135202D01*
X193991609Y-131135202D02*
X193960657Y-131104250D01*
X193960657Y-131104250D02*
X193898752Y-131073297D01*
X193898752Y-131073297D02*
X193774943Y-131073297D01*
X193774943Y-131073297D02*
X193713038Y-131104250D01*
X193713038Y-131104250D02*
X193682085Y-131135202D01*
X193682085Y-131135202D02*
X193651133Y-131197107D01*
X193651133Y-131197107D02*
X193651133Y-131723297D01*
X193001133Y-131073297D02*
X193372562Y-131073297D01*
X193186848Y-131073297D02*
X193186848Y-131723297D01*
X193186848Y-131723297D02*
X193248752Y-131630440D01*
X193248752Y-131630440D02*
X193310657Y-131568535D01*
X193310657Y-131568535D02*
X193372562Y-131537583D01*
X192598752Y-131723297D02*
X192536847Y-131723297D01*
X192536847Y-131723297D02*
X192474943Y-131692345D01*
X192474943Y-131692345D02*
X192443990Y-131661392D01*
X192443990Y-131661392D02*
X192413038Y-131599488D01*
X192413038Y-131599488D02*
X192382085Y-131475678D01*
X192382085Y-131475678D02*
X192382085Y-131320916D01*
X192382085Y-131320916D02*
X192413038Y-131197107D01*
X192413038Y-131197107D02*
X192443990Y-131135202D01*
X192443990Y-131135202D02*
X192474943Y-131104250D01*
X192474943Y-131104250D02*
X192536847Y-131073297D01*
X192536847Y-131073297D02*
X192598752Y-131073297D01*
X192598752Y-131073297D02*
X192660657Y-131104250D01*
X192660657Y-131104250D02*
X192691609Y-131135202D01*
X192691609Y-131135202D02*
X192722562Y-131197107D01*
X192722562Y-131197107D02*
X192753514Y-131320916D01*
X192753514Y-131320916D02*
X192753514Y-131475678D01*
X192753514Y-131475678D02*
X192722562Y-131599488D01*
X192722562Y-131599488D02*
X192691609Y-131661392D01*
X192691609Y-131661392D02*
X192660657Y-131692345D01*
X192660657Y-131692345D02*
X192598752Y-131723297D01*
X193408238Y-134568097D02*
X193408238Y-134041907D01*
X193408238Y-134041907D02*
X193377285Y-133980002D01*
X193377285Y-133980002D02*
X193346333Y-133949050D01*
X193346333Y-133949050D02*
X193284428Y-133918097D01*
X193284428Y-133918097D02*
X193160619Y-133918097D01*
X193160619Y-133918097D02*
X193098714Y-133949050D01*
X193098714Y-133949050D02*
X193067761Y-133980002D01*
X193067761Y-133980002D02*
X193036809Y-134041907D01*
X193036809Y-134041907D02*
X193036809Y-134568097D01*
X192634428Y-134289526D02*
X192696333Y-134320478D01*
X192696333Y-134320478D02*
X192727286Y-134351430D01*
X192727286Y-134351430D02*
X192758238Y-134413335D01*
X192758238Y-134413335D02*
X192758238Y-134444288D01*
X192758238Y-134444288D02*
X192727286Y-134506192D01*
X192727286Y-134506192D02*
X192696333Y-134537145D01*
X192696333Y-134537145D02*
X192634428Y-134568097D01*
X192634428Y-134568097D02*
X192510619Y-134568097D01*
X192510619Y-134568097D02*
X192448714Y-134537145D01*
X192448714Y-134537145D02*
X192417762Y-134506192D01*
X192417762Y-134506192D02*
X192386809Y-134444288D01*
X192386809Y-134444288D02*
X192386809Y-134413335D01*
X192386809Y-134413335D02*
X192417762Y-134351430D01*
X192417762Y-134351430D02*
X192448714Y-134320478D01*
X192448714Y-134320478D02*
X192510619Y-134289526D01*
X192510619Y-134289526D02*
X192634428Y-134289526D01*
X192634428Y-134289526D02*
X192696333Y-134258573D01*
X192696333Y-134258573D02*
X192727286Y-134227621D01*
X192727286Y-134227621D02*
X192758238Y-134165716D01*
X192758238Y-134165716D02*
X192758238Y-134041907D01*
X192758238Y-134041907D02*
X192727286Y-133980002D01*
X192727286Y-133980002D02*
X192696333Y-133949050D01*
X192696333Y-133949050D02*
X192634428Y-133918097D01*
X192634428Y-133918097D02*
X192510619Y-133918097D01*
X192510619Y-133918097D02*
X192448714Y-133949050D01*
X192448714Y-133949050D02*
X192417762Y-133980002D01*
X192417762Y-133980002D02*
X192386809Y-134041907D01*
X192386809Y-134041907D02*
X192386809Y-134165716D01*
X192386809Y-134165716D02*
X192417762Y-134227621D01*
X192417762Y-134227621D02*
X192448714Y-134258573D01*
X192448714Y-134258573D02*
X192510619Y-134289526D01*
X212072361Y-133244902D02*
X212072361Y-133771092D01*
X212072361Y-133771092D02*
X212103314Y-133832997D01*
X212103314Y-133832997D02*
X212134266Y-133863950D01*
X212134266Y-133863950D02*
X212196171Y-133894902D01*
X212196171Y-133894902D02*
X212319980Y-133894902D01*
X212319980Y-133894902D02*
X212381885Y-133863950D01*
X212381885Y-133863950D02*
X212412838Y-133832997D01*
X212412838Y-133832997D02*
X212443790Y-133771092D01*
X212443790Y-133771092D02*
X212443790Y-133244902D01*
X212784266Y-133894902D02*
X212908075Y-133894902D01*
X212908075Y-133894902D02*
X212969980Y-133863950D01*
X212969980Y-133863950D02*
X213000932Y-133832997D01*
X213000932Y-133832997D02*
X213062837Y-133740140D01*
X213062837Y-133740140D02*
X213093790Y-133616330D01*
X213093790Y-133616330D02*
X213093790Y-133368711D01*
X213093790Y-133368711D02*
X213062837Y-133306807D01*
X213062837Y-133306807D02*
X213031885Y-133275854D01*
X213031885Y-133275854D02*
X212969980Y-133244902D01*
X212969980Y-133244902D02*
X212846171Y-133244902D01*
X212846171Y-133244902D02*
X212784266Y-133275854D01*
X212784266Y-133275854D02*
X212753313Y-133306807D01*
X212753313Y-133306807D02*
X212722361Y-133368711D01*
X212722361Y-133368711D02*
X212722361Y-133523473D01*
X212722361Y-133523473D02*
X212753313Y-133585378D01*
X212753313Y-133585378D02*
X212784266Y-133616330D01*
X212784266Y-133616330D02*
X212846171Y-133647283D01*
X212846171Y-133647283D02*
X212969980Y-133647283D01*
X212969980Y-133647283D02*
X213031885Y-133616330D01*
X213031885Y-133616330D02*
X213062837Y-133585378D01*
X213062837Y-133585378D02*
X213093790Y-133523473D01*
X195979666Y-103687797D02*
X195948714Y-103718750D01*
X195948714Y-103718750D02*
X195855856Y-103749702D01*
X195855856Y-103749702D02*
X195793952Y-103749702D01*
X195793952Y-103749702D02*
X195701095Y-103718750D01*
X195701095Y-103718750D02*
X195639190Y-103656845D01*
X195639190Y-103656845D02*
X195608237Y-103594940D01*
X195608237Y-103594940D02*
X195577285Y-103471130D01*
X195577285Y-103471130D02*
X195577285Y-103378273D01*
X195577285Y-103378273D02*
X195608237Y-103254464D01*
X195608237Y-103254464D02*
X195639190Y-103192559D01*
X195639190Y-103192559D02*
X195701095Y-103130654D01*
X195701095Y-103130654D02*
X195793952Y-103099702D01*
X195793952Y-103099702D02*
X195855856Y-103099702D01*
X195855856Y-103099702D02*
X195948714Y-103130654D01*
X195948714Y-103130654D02*
X195979666Y-103161607D01*
X196567761Y-103099702D02*
X196258237Y-103099702D01*
X196258237Y-103099702D02*
X196227285Y-103409226D01*
X196227285Y-103409226D02*
X196258237Y-103378273D01*
X196258237Y-103378273D02*
X196320142Y-103347321D01*
X196320142Y-103347321D02*
X196474904Y-103347321D01*
X196474904Y-103347321D02*
X196536809Y-103378273D01*
X196536809Y-103378273D02*
X196567761Y-103409226D01*
X196567761Y-103409226D02*
X196598714Y-103471130D01*
X196598714Y-103471130D02*
X196598714Y-103625892D01*
X196598714Y-103625892D02*
X196567761Y-103687797D01*
X196567761Y-103687797D02*
X196536809Y-103718750D01*
X196536809Y-103718750D02*
X196474904Y-103749702D01*
X196474904Y-103749702D02*
X196320142Y-103749702D01*
X196320142Y-103749702D02*
X196258237Y-103718750D01*
X196258237Y-103718750D02*
X196227285Y-103687797D01*
X197943302Y-110121638D02*
X198469492Y-110121638D01*
X198469492Y-110121638D02*
X198531397Y-110090685D01*
X198531397Y-110090685D02*
X198562350Y-110059733D01*
X198562350Y-110059733D02*
X198593302Y-109997828D01*
X198593302Y-109997828D02*
X198593302Y-109874019D01*
X198593302Y-109874019D02*
X198562350Y-109812114D01*
X198562350Y-109812114D02*
X198531397Y-109781161D01*
X198531397Y-109781161D02*
X198469492Y-109750209D01*
X198469492Y-109750209D02*
X197943302Y-109750209D01*
X198005207Y-109471638D02*
X197974254Y-109440686D01*
X197974254Y-109440686D02*
X197943302Y-109378781D01*
X197943302Y-109378781D02*
X197943302Y-109224019D01*
X197943302Y-109224019D02*
X197974254Y-109162114D01*
X197974254Y-109162114D02*
X198005207Y-109131162D01*
X198005207Y-109131162D02*
X198067111Y-109100209D01*
X198067111Y-109100209D02*
X198129016Y-109100209D01*
X198129016Y-109100209D02*
X198221873Y-109131162D01*
X198221873Y-109131162D02*
X198593302Y-109502590D01*
X198593302Y-109502590D02*
X198593302Y-109100209D01*
X199039397Y-98711133D02*
X199070350Y-98742085D01*
X199070350Y-98742085D02*
X199101302Y-98834943D01*
X199101302Y-98834943D02*
X199101302Y-98896847D01*
X199101302Y-98896847D02*
X199070350Y-98989704D01*
X199070350Y-98989704D02*
X199008445Y-99051609D01*
X199008445Y-99051609D02*
X198946540Y-99082562D01*
X198946540Y-99082562D02*
X198822730Y-99113514D01*
X198822730Y-99113514D02*
X198729873Y-99113514D01*
X198729873Y-99113514D02*
X198606064Y-99082562D01*
X198606064Y-99082562D02*
X198544159Y-99051609D01*
X198544159Y-99051609D02*
X198482254Y-98989704D01*
X198482254Y-98989704D02*
X198451302Y-98896847D01*
X198451302Y-98896847D02*
X198451302Y-98834943D01*
X198451302Y-98834943D02*
X198482254Y-98742085D01*
X198482254Y-98742085D02*
X198513207Y-98711133D01*
X198667969Y-98153990D02*
X199101302Y-98153990D01*
X198420350Y-98308752D02*
X198884635Y-98463514D01*
X198884635Y-98463514D02*
X198884635Y-98061133D01*
X212026561Y-138964502D02*
X212026561Y-139490692D01*
X212026561Y-139490692D02*
X212057514Y-139552597D01*
X212057514Y-139552597D02*
X212088466Y-139583550D01*
X212088466Y-139583550D02*
X212150371Y-139614502D01*
X212150371Y-139614502D02*
X212274180Y-139614502D01*
X212274180Y-139614502D02*
X212336085Y-139583550D01*
X212336085Y-139583550D02*
X212367038Y-139552597D01*
X212367038Y-139552597D02*
X212397990Y-139490692D01*
X212397990Y-139490692D02*
X212397990Y-138964502D01*
X213017037Y-138964502D02*
X212707513Y-138964502D01*
X212707513Y-138964502D02*
X212676561Y-139274026D01*
X212676561Y-139274026D02*
X212707513Y-139243073D01*
X212707513Y-139243073D02*
X212769418Y-139212121D01*
X212769418Y-139212121D02*
X212924180Y-139212121D01*
X212924180Y-139212121D02*
X212986085Y-139243073D01*
X212986085Y-139243073D02*
X213017037Y-139274026D01*
X213017037Y-139274026D02*
X213047990Y-139335930D01*
X213047990Y-139335930D02*
X213047990Y-139490692D01*
X213047990Y-139490692D02*
X213017037Y-139552597D01*
X213017037Y-139552597D02*
X212986085Y-139583550D01*
X212986085Y-139583550D02*
X212924180Y-139614502D01*
X212924180Y-139614502D02*
X212769418Y-139614502D01*
X212769418Y-139614502D02*
X212707513Y-139583550D01*
X212707513Y-139583550D02*
X212676561Y-139552597D01*
X206566266Y-141248297D02*
X206566266Y-140784011D01*
X206566266Y-140784011D02*
X206597219Y-140691154D01*
X206597219Y-140691154D02*
X206659123Y-140629250D01*
X206659123Y-140629250D02*
X206751981Y-140598297D01*
X206751981Y-140598297D02*
X206813885Y-140598297D01*
X205978171Y-141031630D02*
X205978171Y-140598297D01*
X206132933Y-141279250D02*
X206287695Y-140814964D01*
X206287695Y-140814964D02*
X205885314Y-140814964D01*
X199709397Y-100396033D02*
X199740350Y-100426985D01*
X199740350Y-100426985D02*
X199771302Y-100519843D01*
X199771302Y-100519843D02*
X199771302Y-100581747D01*
X199771302Y-100581747D02*
X199740350Y-100674604D01*
X199740350Y-100674604D02*
X199678445Y-100736509D01*
X199678445Y-100736509D02*
X199616540Y-100767462D01*
X199616540Y-100767462D02*
X199492730Y-100798414D01*
X199492730Y-100798414D02*
X199399873Y-100798414D01*
X199399873Y-100798414D02*
X199276064Y-100767462D01*
X199276064Y-100767462D02*
X199214159Y-100736509D01*
X199214159Y-100736509D02*
X199152254Y-100674604D01*
X199152254Y-100674604D02*
X199121302Y-100581747D01*
X199121302Y-100581747D02*
X199121302Y-100519843D01*
X199121302Y-100519843D02*
X199152254Y-100426985D01*
X199152254Y-100426985D02*
X199183207Y-100396033D01*
X199771302Y-100086509D02*
X199771302Y-99962700D01*
X199771302Y-99962700D02*
X199740350Y-99900795D01*
X199740350Y-99900795D02*
X199709397Y-99869843D01*
X199709397Y-99869843D02*
X199616540Y-99807938D01*
X199616540Y-99807938D02*
X199492730Y-99776985D01*
X199492730Y-99776985D02*
X199245111Y-99776985D01*
X199245111Y-99776985D02*
X199183207Y-99807938D01*
X199183207Y-99807938D02*
X199152254Y-99838890D01*
X199152254Y-99838890D02*
X199121302Y-99900795D01*
X199121302Y-99900795D02*
X199121302Y-100024604D01*
X199121302Y-100024604D02*
X199152254Y-100086509D01*
X199152254Y-100086509D02*
X199183207Y-100117462D01*
X199183207Y-100117462D02*
X199245111Y-100148414D01*
X199245111Y-100148414D02*
X199399873Y-100148414D01*
X199399873Y-100148414D02*
X199461778Y-100117462D01*
X199461778Y-100117462D02*
X199492730Y-100086509D01*
X199492730Y-100086509D02*
X199523683Y-100024604D01*
X199523683Y-100024604D02*
X199523683Y-99900795D01*
X199523683Y-99900795D02*
X199492730Y-99838890D01*
X199492730Y-99838890D02*
X199461778Y-99807938D01*
X199461778Y-99807938D02*
X199399873Y-99776985D01*
X193570702Y-95461057D02*
X193261178Y-95677724D01*
X193570702Y-95832486D02*
X192920702Y-95832486D01*
X192920702Y-95832486D02*
X192920702Y-95584867D01*
X192920702Y-95584867D02*
X192951654Y-95522962D01*
X192951654Y-95522962D02*
X192982607Y-95492009D01*
X192982607Y-95492009D02*
X193044511Y-95461057D01*
X193044511Y-95461057D02*
X193137369Y-95461057D01*
X193137369Y-95461057D02*
X193199273Y-95492009D01*
X193199273Y-95492009D02*
X193230226Y-95522962D01*
X193230226Y-95522962D02*
X193261178Y-95584867D01*
X193261178Y-95584867D02*
X193261178Y-95832486D01*
X193570702Y-94842009D02*
X193570702Y-95213438D01*
X193570702Y-95027724D02*
X192920702Y-95027724D01*
X192920702Y-95027724D02*
X193013559Y-95089628D01*
X193013559Y-95089628D02*
X193075464Y-95151533D01*
X193075464Y-95151533D02*
X193106416Y-95213438D01*
X193570702Y-94222961D02*
X193570702Y-94594390D01*
X193570702Y-94408676D02*
X192920702Y-94408676D01*
X192920702Y-94408676D02*
X193013559Y-94470580D01*
X193013559Y-94470580D02*
X193075464Y-94532485D01*
X193075464Y-94532485D02*
X193106416Y-94594390D01*
X211483437Y-130437602D02*
X211483437Y-130963792D01*
X211483437Y-130963792D02*
X211514390Y-131025697D01*
X211514390Y-131025697D02*
X211545342Y-131056650D01*
X211545342Y-131056650D02*
X211607247Y-131087602D01*
X211607247Y-131087602D02*
X211731056Y-131087602D01*
X211731056Y-131087602D02*
X211792961Y-131056650D01*
X211792961Y-131056650D02*
X211823914Y-131025697D01*
X211823914Y-131025697D02*
X211854866Y-130963792D01*
X211854866Y-130963792D02*
X211854866Y-130437602D01*
X212504866Y-131087602D02*
X212133437Y-131087602D01*
X212319151Y-131087602D02*
X212319151Y-130437602D01*
X212319151Y-130437602D02*
X212257247Y-130530459D01*
X212257247Y-130530459D02*
X212195342Y-130592364D01*
X212195342Y-130592364D02*
X212133437Y-130623316D01*
X213123914Y-131087602D02*
X212752485Y-131087602D01*
X212938199Y-131087602D02*
X212938199Y-130437602D01*
X212938199Y-130437602D02*
X212876295Y-130530459D01*
X212876295Y-130530459D02*
X212814390Y-130592364D01*
X212814390Y-130592364D02*
X212752485Y-130623316D01*
X205474542Y-149012502D02*
X205257875Y-148702978D01*
X205103113Y-149012502D02*
X205103113Y-148362502D01*
X205103113Y-148362502D02*
X205350732Y-148362502D01*
X205350732Y-148362502D02*
X205412637Y-148393454D01*
X205412637Y-148393454D02*
X205443590Y-148424407D01*
X205443590Y-148424407D02*
X205474542Y-148486311D01*
X205474542Y-148486311D02*
X205474542Y-148579169D01*
X205474542Y-148579169D02*
X205443590Y-148641073D01*
X205443590Y-148641073D02*
X205412637Y-148672026D01*
X205412637Y-148672026D02*
X205350732Y-148702978D01*
X205350732Y-148702978D02*
X205103113Y-148702978D01*
X206093590Y-149012502D02*
X205722161Y-149012502D01*
X205907875Y-149012502D02*
X205907875Y-148362502D01*
X205907875Y-148362502D02*
X205845971Y-148455359D01*
X205845971Y-148455359D02*
X205784066Y-148517264D01*
X205784066Y-148517264D02*
X205722161Y-148548216D01*
X206495971Y-148362502D02*
X206557876Y-148362502D01*
X206557876Y-148362502D02*
X206619780Y-148393454D01*
X206619780Y-148393454D02*
X206650733Y-148424407D01*
X206650733Y-148424407D02*
X206681685Y-148486311D01*
X206681685Y-148486311D02*
X206712638Y-148610121D01*
X206712638Y-148610121D02*
X206712638Y-148764883D01*
X206712638Y-148764883D02*
X206681685Y-148888692D01*
X206681685Y-148888692D02*
X206650733Y-148950597D01*
X206650733Y-148950597D02*
X206619780Y-148981550D01*
X206619780Y-148981550D02*
X206557876Y-149012502D01*
X206557876Y-149012502D02*
X206495971Y-149012502D01*
X206495971Y-149012502D02*
X206434066Y-148981550D01*
X206434066Y-148981550D02*
X206403114Y-148950597D01*
X206403114Y-148950597D02*
X206372161Y-148888692D01*
X206372161Y-148888692D02*
X206341209Y-148764883D01*
X206341209Y-148764883D02*
X206341209Y-148610121D01*
X206341209Y-148610121D02*
X206372161Y-148486311D01*
X206372161Y-148486311D02*
X206403114Y-148424407D01*
X206403114Y-148424407D02*
X206434066Y-148393454D01*
X206434066Y-148393454D02*
X206495971Y-148362502D01*
X203246466Y-94803497D02*
X203246466Y-94339211D01*
X203246466Y-94339211D02*
X203277419Y-94246354D01*
X203277419Y-94246354D02*
X203339323Y-94184450D01*
X203339323Y-94184450D02*
X203432181Y-94153497D01*
X203432181Y-94153497D02*
X203494085Y-94153497D01*
X202967895Y-94741592D02*
X202936943Y-94772545D01*
X202936943Y-94772545D02*
X202875038Y-94803497D01*
X202875038Y-94803497D02*
X202720276Y-94803497D01*
X202720276Y-94803497D02*
X202658371Y-94772545D01*
X202658371Y-94772545D02*
X202627419Y-94741592D01*
X202627419Y-94741592D02*
X202596466Y-94679688D01*
X202596466Y-94679688D02*
X202596466Y-94617783D01*
X202596466Y-94617783D02*
X202627419Y-94524926D01*
X202627419Y-94524926D02*
X202998847Y-94153497D01*
X202998847Y-94153497D02*
X202596466Y-94153497D01*
X211447437Y-127474642D02*
X211447437Y-128000832D01*
X211447437Y-128000832D02*
X211478390Y-128062737D01*
X211478390Y-128062737D02*
X211509342Y-128093690D01*
X211509342Y-128093690D02*
X211571247Y-128124642D01*
X211571247Y-128124642D02*
X211695056Y-128124642D01*
X211695056Y-128124642D02*
X211756961Y-128093690D01*
X211756961Y-128093690D02*
X211787914Y-128062737D01*
X211787914Y-128062737D02*
X211818866Y-128000832D01*
X211818866Y-128000832D02*
X211818866Y-127474642D01*
X212468866Y-128124642D02*
X212097437Y-128124642D01*
X212283151Y-128124642D02*
X212283151Y-127474642D01*
X212283151Y-127474642D02*
X212221247Y-127567499D01*
X212221247Y-127567499D02*
X212159342Y-127629404D01*
X212159342Y-127629404D02*
X212097437Y-127660356D01*
X212840295Y-127753213D02*
X212778390Y-127722261D01*
X212778390Y-127722261D02*
X212747437Y-127691309D01*
X212747437Y-127691309D02*
X212716485Y-127629404D01*
X212716485Y-127629404D02*
X212716485Y-127598451D01*
X212716485Y-127598451D02*
X212747437Y-127536547D01*
X212747437Y-127536547D02*
X212778390Y-127505594D01*
X212778390Y-127505594D02*
X212840295Y-127474642D01*
X212840295Y-127474642D02*
X212964104Y-127474642D01*
X212964104Y-127474642D02*
X213026009Y-127505594D01*
X213026009Y-127505594D02*
X213056961Y-127536547D01*
X213056961Y-127536547D02*
X213087914Y-127598451D01*
X213087914Y-127598451D02*
X213087914Y-127629404D01*
X213087914Y-127629404D02*
X213056961Y-127691309D01*
X213056961Y-127691309D02*
X213026009Y-127722261D01*
X213026009Y-127722261D02*
X212964104Y-127753213D01*
X212964104Y-127753213D02*
X212840295Y-127753213D01*
X212840295Y-127753213D02*
X212778390Y-127784166D01*
X212778390Y-127784166D02*
X212747437Y-127815118D01*
X212747437Y-127815118D02*
X212716485Y-127877023D01*
X212716485Y-127877023D02*
X212716485Y-128000832D01*
X212716485Y-128000832D02*
X212747437Y-128062737D01*
X212747437Y-128062737D02*
X212778390Y-128093690D01*
X212778390Y-128093690D02*
X212840295Y-128124642D01*
X212840295Y-128124642D02*
X212964104Y-128124642D01*
X212964104Y-128124642D02*
X213026009Y-128093690D01*
X213026009Y-128093690D02*
X213056961Y-128062737D01*
X213056961Y-128062737D02*
X213087914Y-128000832D01*
X213087914Y-128000832D02*
X213087914Y-127877023D01*
X213087914Y-127877023D02*
X213056961Y-127815118D01*
X213056961Y-127815118D02*
X213026009Y-127784166D01*
X213026009Y-127784166D02*
X212964104Y-127753213D01*
X209159702Y-105772333D02*
X208850178Y-105989000D01*
X209159702Y-106143762D02*
X208509702Y-106143762D01*
X208509702Y-106143762D02*
X208509702Y-105896143D01*
X208509702Y-105896143D02*
X208540654Y-105834238D01*
X208540654Y-105834238D02*
X208571607Y-105803285D01*
X208571607Y-105803285D02*
X208633511Y-105772333D01*
X208633511Y-105772333D02*
X208726369Y-105772333D01*
X208726369Y-105772333D02*
X208788273Y-105803285D01*
X208788273Y-105803285D02*
X208819226Y-105834238D01*
X208819226Y-105834238D02*
X208850178Y-105896143D01*
X208850178Y-105896143D02*
X208850178Y-106143762D01*
X208571607Y-105524714D02*
X208540654Y-105493762D01*
X208540654Y-105493762D02*
X208509702Y-105431857D01*
X208509702Y-105431857D02*
X208509702Y-105277095D01*
X208509702Y-105277095D02*
X208540654Y-105215190D01*
X208540654Y-105215190D02*
X208571607Y-105184238D01*
X208571607Y-105184238D02*
X208633511Y-105153285D01*
X208633511Y-105153285D02*
X208695416Y-105153285D01*
X208695416Y-105153285D02*
X208788273Y-105184238D01*
X208788273Y-105184238D02*
X209159702Y-105555666D01*
X209159702Y-105555666D02*
X209159702Y-105153285D01*
X190368002Y-102025066D02*
X190337050Y-101994114D01*
X190337050Y-101994114D02*
X190306097Y-101901256D01*
X190306097Y-101901256D02*
X190306097Y-101839352D01*
X190306097Y-101839352D02*
X190337050Y-101746495D01*
X190337050Y-101746495D02*
X190398954Y-101684590D01*
X190398954Y-101684590D02*
X190460859Y-101653637D01*
X190460859Y-101653637D02*
X190584669Y-101622685D01*
X190584669Y-101622685D02*
X190677526Y-101622685D01*
X190677526Y-101622685D02*
X190801335Y-101653637D01*
X190801335Y-101653637D02*
X190863240Y-101684590D01*
X190863240Y-101684590D02*
X190925145Y-101746495D01*
X190925145Y-101746495D02*
X190956097Y-101839352D01*
X190956097Y-101839352D02*
X190956097Y-101901256D01*
X190956097Y-101901256D02*
X190925145Y-101994114D01*
X190925145Y-101994114D02*
X190894192Y-102025066D01*
X190894192Y-102272685D02*
X190925145Y-102303637D01*
X190925145Y-102303637D02*
X190956097Y-102365542D01*
X190956097Y-102365542D02*
X190956097Y-102520304D01*
X190956097Y-102520304D02*
X190925145Y-102582209D01*
X190925145Y-102582209D02*
X190894192Y-102613161D01*
X190894192Y-102613161D02*
X190832288Y-102644114D01*
X190832288Y-102644114D02*
X190770383Y-102644114D01*
X190770383Y-102644114D02*
X190677526Y-102613161D01*
X190677526Y-102613161D02*
X190306097Y-102241733D01*
X190306097Y-102241733D02*
X190306097Y-102644114D01*
X196157466Y-105375302D02*
X195940799Y-105065778D01*
X195786037Y-105375302D02*
X195786037Y-104725302D01*
X195786037Y-104725302D02*
X196033656Y-104725302D01*
X196033656Y-104725302D02*
X196095561Y-104756254D01*
X196095561Y-104756254D02*
X196126514Y-104787207D01*
X196126514Y-104787207D02*
X196157466Y-104849111D01*
X196157466Y-104849111D02*
X196157466Y-104941969D01*
X196157466Y-104941969D02*
X196126514Y-105003873D01*
X196126514Y-105003873D02*
X196095561Y-105034826D01*
X196095561Y-105034826D02*
X196033656Y-105065778D01*
X196033656Y-105065778D02*
X195786037Y-105065778D01*
X196714609Y-104941969D02*
X196714609Y-105375302D01*
X196559847Y-104694350D02*
X196405085Y-105158635D01*
X196405085Y-105158635D02*
X196807466Y-105158635D01*
X209705266Y-104545602D02*
X209488599Y-104236078D01*
X209333837Y-104545602D02*
X209333837Y-103895602D01*
X209333837Y-103895602D02*
X209581456Y-103895602D01*
X209581456Y-103895602D02*
X209643361Y-103926554D01*
X209643361Y-103926554D02*
X209674314Y-103957507D01*
X209674314Y-103957507D02*
X209705266Y-104019411D01*
X209705266Y-104019411D02*
X209705266Y-104112269D01*
X209705266Y-104112269D02*
X209674314Y-104174173D01*
X209674314Y-104174173D02*
X209643361Y-104205126D01*
X209643361Y-104205126D02*
X209581456Y-104236078D01*
X209581456Y-104236078D02*
X209333837Y-104236078D01*
X209921933Y-103895602D02*
X210324314Y-103895602D01*
X210324314Y-103895602D02*
X210107647Y-104143221D01*
X210107647Y-104143221D02*
X210200504Y-104143221D01*
X210200504Y-104143221D02*
X210262409Y-104174173D01*
X210262409Y-104174173D02*
X210293361Y-104205126D01*
X210293361Y-104205126D02*
X210324314Y-104267030D01*
X210324314Y-104267030D02*
X210324314Y-104421792D01*
X210324314Y-104421792D02*
X210293361Y-104483697D01*
X210293361Y-104483697D02*
X210262409Y-104514650D01*
X210262409Y-104514650D02*
X210200504Y-104545602D01*
X210200504Y-104545602D02*
X210014790Y-104545602D01*
X210014790Y-104545602D02*
X209952885Y-104514650D01*
X209952885Y-104514650D02*
X209921933Y-104483697D01*
X197400762Y-118210497D02*
X197400762Y-117684307D01*
X197400762Y-117684307D02*
X197369809Y-117622402D01*
X197369809Y-117622402D02*
X197338857Y-117591450D01*
X197338857Y-117591450D02*
X197276952Y-117560497D01*
X197276952Y-117560497D02*
X197153143Y-117560497D01*
X197153143Y-117560497D02*
X197091238Y-117591450D01*
X197091238Y-117591450D02*
X197060285Y-117622402D01*
X197060285Y-117622402D02*
X197029333Y-117684307D01*
X197029333Y-117684307D02*
X197029333Y-118210497D01*
X196379333Y-117560497D02*
X196750762Y-117560497D01*
X196565048Y-117560497D02*
X196565048Y-118210497D01*
X196565048Y-118210497D02*
X196626952Y-118117640D01*
X196626952Y-118117640D02*
X196688857Y-118055735D01*
X196688857Y-118055735D02*
X196750762Y-118024783D01*
X196162666Y-118210497D02*
X195760285Y-118210497D01*
X195760285Y-118210497D02*
X195976952Y-117962878D01*
X195976952Y-117962878D02*
X195884095Y-117962878D01*
X195884095Y-117962878D02*
X195822190Y-117931926D01*
X195822190Y-117931926D02*
X195791238Y-117900973D01*
X195791238Y-117900973D02*
X195760285Y-117839069D01*
X195760285Y-117839069D02*
X195760285Y-117684307D01*
X195760285Y-117684307D02*
X195791238Y-117622402D01*
X195791238Y-117622402D02*
X195822190Y-117591450D01*
X195822190Y-117591450D02*
X195884095Y-117560497D01*
X195884095Y-117560497D02*
X196069809Y-117560497D01*
X196069809Y-117560497D02*
X196131714Y-117591450D01*
X196131714Y-117591450D02*
X196162666Y-117622402D01*
X210326897Y-94701542D02*
X210636421Y-94484875D01*
X210326897Y-94330113D02*
X210976897Y-94330113D01*
X210976897Y-94330113D02*
X210976897Y-94577732D01*
X210976897Y-94577732D02*
X210945945Y-94639637D01*
X210945945Y-94639637D02*
X210914992Y-94670590D01*
X210914992Y-94670590D02*
X210853088Y-94701542D01*
X210853088Y-94701542D02*
X210760230Y-94701542D01*
X210760230Y-94701542D02*
X210698326Y-94670590D01*
X210698326Y-94670590D02*
X210667373Y-94639637D01*
X210667373Y-94639637D02*
X210636421Y-94577732D01*
X210636421Y-94577732D02*
X210636421Y-94330113D01*
X210326897Y-95320590D02*
X210326897Y-94949161D01*
X210326897Y-95134875D02*
X210976897Y-95134875D01*
X210976897Y-95134875D02*
X210884040Y-95072971D01*
X210884040Y-95072971D02*
X210822135Y-95011066D01*
X210822135Y-95011066D02*
X210791183Y-94949161D01*
X210914992Y-95568209D02*
X210945945Y-95599161D01*
X210945945Y-95599161D02*
X210976897Y-95661066D01*
X210976897Y-95661066D02*
X210976897Y-95815828D01*
X210976897Y-95815828D02*
X210945945Y-95877733D01*
X210945945Y-95877733D02*
X210914992Y-95908685D01*
X210914992Y-95908685D02*
X210853088Y-95939638D01*
X210853088Y-95939638D02*
X210791183Y-95939638D01*
X210791183Y-95939638D02*
X210698326Y-95908685D01*
X210698326Y-95908685D02*
X210326897Y-95537257D01*
X210326897Y-95537257D02*
X210326897Y-95939638D01*
X211361437Y-118746102D02*
X211361437Y-119272292D01*
X211361437Y-119272292D02*
X211392390Y-119334197D01*
X211392390Y-119334197D02*
X211423342Y-119365150D01*
X211423342Y-119365150D02*
X211485247Y-119396102D01*
X211485247Y-119396102D02*
X211609056Y-119396102D01*
X211609056Y-119396102D02*
X211670961Y-119365150D01*
X211670961Y-119365150D02*
X211701914Y-119334197D01*
X211701914Y-119334197D02*
X211732866Y-119272292D01*
X211732866Y-119272292D02*
X211732866Y-118746102D01*
X212382866Y-119396102D02*
X212011437Y-119396102D01*
X212197151Y-119396102D02*
X212197151Y-118746102D01*
X212197151Y-118746102D02*
X212135247Y-118838959D01*
X212135247Y-118838959D02*
X212073342Y-118900864D01*
X212073342Y-118900864D02*
X212011437Y-118931816D01*
X212630485Y-118808007D02*
X212661437Y-118777054D01*
X212661437Y-118777054D02*
X212723342Y-118746102D01*
X212723342Y-118746102D02*
X212878104Y-118746102D01*
X212878104Y-118746102D02*
X212940009Y-118777054D01*
X212940009Y-118777054D02*
X212970961Y-118808007D01*
X212970961Y-118808007D02*
X213001914Y-118869911D01*
X213001914Y-118869911D02*
X213001914Y-118931816D01*
X213001914Y-118931816D02*
X212970961Y-119024673D01*
X212970961Y-119024673D02*
X212599533Y-119396102D01*
X212599533Y-119396102D02*
X213001914Y-119396102D01*
X189493297Y-104641266D02*
X189802821Y-104424599D01*
X189493297Y-104269837D02*
X190143297Y-104269837D01*
X190143297Y-104269837D02*
X190143297Y-104517456D01*
X190143297Y-104517456D02*
X190112345Y-104579361D01*
X190112345Y-104579361D02*
X190081392Y-104610314D01*
X190081392Y-104610314D02*
X190019488Y-104641266D01*
X190019488Y-104641266D02*
X189926630Y-104641266D01*
X189926630Y-104641266D02*
X189864726Y-104610314D01*
X189864726Y-104610314D02*
X189833773Y-104579361D01*
X189833773Y-104579361D02*
X189802821Y-104517456D01*
X189802821Y-104517456D02*
X189802821Y-104269837D01*
X189493297Y-105260314D02*
X189493297Y-104888885D01*
X189493297Y-105074599D02*
X190143297Y-105074599D01*
X190143297Y-105074599D02*
X190050440Y-105012695D01*
X190050440Y-105012695D02*
X189988535Y-104950790D01*
X189988535Y-104950790D02*
X189957583Y-104888885D01*
X214237066Y-151560697D02*
X214237066Y-151096411D01*
X214237066Y-151096411D02*
X214268019Y-151003554D01*
X214268019Y-151003554D02*
X214329923Y-150941650D01*
X214329923Y-150941650D02*
X214422781Y-150910697D01*
X214422781Y-150910697D02*
X214484685Y-150910697D01*
X213989447Y-151560697D02*
X213587066Y-151560697D01*
X213587066Y-151560697D02*
X213803733Y-151313078D01*
X213803733Y-151313078D02*
X213710876Y-151313078D01*
X213710876Y-151313078D02*
X213648971Y-151282126D01*
X213648971Y-151282126D02*
X213618019Y-151251173D01*
X213618019Y-151251173D02*
X213587066Y-151189269D01*
X213587066Y-151189269D02*
X213587066Y-151034507D01*
X213587066Y-151034507D02*
X213618019Y-150972602D01*
X213618019Y-150972602D02*
X213648971Y-150941650D01*
X213648971Y-150941650D02*
X213710876Y-150910697D01*
X213710876Y-150910697D02*
X213896590Y-150910697D01*
X213896590Y-150910697D02*
X213958495Y-150941650D01*
X213958495Y-150941650D02*
X213989447Y-150972602D01*
X189682102Y-96263162D02*
X189032102Y-96263162D01*
X189032102Y-96263162D02*
X189032102Y-96108400D01*
X189032102Y-96108400D02*
X189063054Y-96015543D01*
X189063054Y-96015543D02*
X189124959Y-95953638D01*
X189124959Y-95953638D02*
X189186864Y-95922685D01*
X189186864Y-95922685D02*
X189310673Y-95891733D01*
X189310673Y-95891733D02*
X189403530Y-95891733D01*
X189403530Y-95891733D02*
X189527340Y-95922685D01*
X189527340Y-95922685D02*
X189589245Y-95953638D01*
X189589245Y-95953638D02*
X189651150Y-96015543D01*
X189651150Y-96015543D02*
X189682102Y-96108400D01*
X189682102Y-96108400D02*
X189682102Y-96263162D01*
X189094007Y-95644114D02*
X189063054Y-95613162D01*
X189063054Y-95613162D02*
X189032102Y-95551257D01*
X189032102Y-95551257D02*
X189032102Y-95396495D01*
X189032102Y-95396495D02*
X189063054Y-95334590D01*
X189063054Y-95334590D02*
X189094007Y-95303638D01*
X189094007Y-95303638D02*
X189155911Y-95272685D01*
X189155911Y-95272685D02*
X189217816Y-95272685D01*
X189217816Y-95272685D02*
X189310673Y-95303638D01*
X189310673Y-95303638D02*
X189682102Y-95675066D01*
X189682102Y-95675066D02*
X189682102Y-95272685D01*
X203443197Y-100675433D02*
X203474150Y-100706385D01*
X203474150Y-100706385D02*
X203505102Y-100799243D01*
X203505102Y-100799243D02*
X203505102Y-100861147D01*
X203505102Y-100861147D02*
X203474150Y-100954004D01*
X203474150Y-100954004D02*
X203412245Y-101015909D01*
X203412245Y-101015909D02*
X203350340Y-101046862D01*
X203350340Y-101046862D02*
X203226530Y-101077814D01*
X203226530Y-101077814D02*
X203133673Y-101077814D01*
X203133673Y-101077814D02*
X203009864Y-101046862D01*
X203009864Y-101046862D02*
X202947959Y-101015909D01*
X202947959Y-101015909D02*
X202886054Y-100954004D01*
X202886054Y-100954004D02*
X202855102Y-100861147D01*
X202855102Y-100861147D02*
X202855102Y-100799243D01*
X202855102Y-100799243D02*
X202886054Y-100706385D01*
X202886054Y-100706385D02*
X202917007Y-100675433D01*
X202855102Y-100118290D02*
X202855102Y-100242100D01*
X202855102Y-100242100D02*
X202886054Y-100304004D01*
X202886054Y-100304004D02*
X202917007Y-100334957D01*
X202917007Y-100334957D02*
X203009864Y-100396862D01*
X203009864Y-100396862D02*
X203133673Y-100427814D01*
X203133673Y-100427814D02*
X203381292Y-100427814D01*
X203381292Y-100427814D02*
X203443197Y-100396862D01*
X203443197Y-100396862D02*
X203474150Y-100365909D01*
X203474150Y-100365909D02*
X203505102Y-100304004D01*
X203505102Y-100304004D02*
X203505102Y-100180195D01*
X203505102Y-100180195D02*
X203474150Y-100118290D01*
X203474150Y-100118290D02*
X203443197Y-100087338D01*
X203443197Y-100087338D02*
X203381292Y-100056385D01*
X203381292Y-100056385D02*
X203226530Y-100056385D01*
X203226530Y-100056385D02*
X203164626Y-100087338D01*
X203164626Y-100087338D02*
X203133673Y-100118290D01*
X203133673Y-100118290D02*
X203102721Y-100180195D01*
X203102721Y-100180195D02*
X203102721Y-100304004D01*
X203102721Y-100304004D02*
X203133673Y-100365909D01*
X203133673Y-100365909D02*
X203164626Y-100396862D01*
X203164626Y-100396862D02*
X203226530Y-100427814D01*
X189629666Y-106202397D02*
X189598714Y-106233350D01*
X189598714Y-106233350D02*
X189505856Y-106264302D01*
X189505856Y-106264302D02*
X189443952Y-106264302D01*
X189443952Y-106264302D02*
X189351095Y-106233350D01*
X189351095Y-106233350D02*
X189289190Y-106171445D01*
X189289190Y-106171445D02*
X189258237Y-106109540D01*
X189258237Y-106109540D02*
X189227285Y-105985730D01*
X189227285Y-105985730D02*
X189227285Y-105892873D01*
X189227285Y-105892873D02*
X189258237Y-105769064D01*
X189258237Y-105769064D02*
X189289190Y-105707159D01*
X189289190Y-105707159D02*
X189351095Y-105645254D01*
X189351095Y-105645254D02*
X189443952Y-105614302D01*
X189443952Y-105614302D02*
X189505856Y-105614302D01*
X189505856Y-105614302D02*
X189598714Y-105645254D01*
X189598714Y-105645254D02*
X189629666Y-105676207D01*
X189846333Y-105614302D02*
X190248714Y-105614302D01*
X190248714Y-105614302D02*
X190032047Y-105861921D01*
X190032047Y-105861921D02*
X190124904Y-105861921D01*
X190124904Y-105861921D02*
X190186809Y-105892873D01*
X190186809Y-105892873D02*
X190217761Y-105923826D01*
X190217761Y-105923826D02*
X190248714Y-105985730D01*
X190248714Y-105985730D02*
X190248714Y-106140492D01*
X190248714Y-106140492D02*
X190217761Y-106202397D01*
X190217761Y-106202397D02*
X190186809Y-106233350D01*
X190186809Y-106233350D02*
X190124904Y-106264302D01*
X190124904Y-106264302D02*
X189939190Y-106264302D01*
X189939190Y-106264302D02*
X189877285Y-106233350D01*
X189877285Y-106233350D02*
X189846333Y-106202397D01*
D12*
%TO.C,U19*%
X196457800Y-127277400D02*
X195057800Y-127277400D01*
X196467800Y-129597400D02*
X195057800Y-129597400D01*
X197077800Y-129877400D02*
X196597800Y-129877400D01*
X196837800Y-129547400D01*
X197077800Y-129877400D01*
G36*
X197077800Y-129877400D02*
G01*
X196597800Y-129877400D01*
X196837800Y-129547400D01*
X197077800Y-129877400D01*
G37*
%TO.C,U4*%
X196483200Y-138858100D02*
X195083200Y-138858100D01*
X196493200Y-141178100D02*
X195083200Y-141178100D01*
X197103200Y-141458100D02*
X196623200Y-141458100D01*
X196863200Y-141128100D01*
X197103200Y-141458100D01*
G36*
X197103200Y-141458100D02*
G01*
X196623200Y-141458100D01*
X196863200Y-141128100D01*
X197103200Y-141458100D01*
G37*
%TO.C,U7*%
X208875600Y-136047900D02*
X210285600Y-136047900D01*
X208885600Y-138367900D02*
X210285600Y-138367900D01*
X208505600Y-136097900D02*
X208265600Y-135767900D01*
X208745600Y-135767900D01*
X208505600Y-136097900D01*
G36*
X208505600Y-136097900D02*
G01*
X208265600Y-135767900D01*
X208745600Y-135767900D01*
X208505600Y-136097900D01*
G37*
%TO.C,U16*%
X208875600Y-124707400D02*
X210285600Y-124707400D01*
X208885600Y-127027400D02*
X210285600Y-127027400D01*
X208505600Y-124757400D02*
X208265600Y-124427400D01*
X208745600Y-124427400D01*
X208505600Y-124757400D01*
G36*
X208505600Y-124757400D02*
G01*
X208265600Y-124427400D01*
X208745600Y-124427400D01*
X208505600Y-124757400D01*
G37*
%TO.C,SW1*%
D11*
X190287400Y-108601000D02*
X192389000Y-108601000D01*
X192389000Y-110499400D01*
X190287400Y-110499400D01*
X190287400Y-108601000D01*
D12*
%TO.C,R7*%
X198197800Y-145111736D02*
X198197800Y-145565864D01*
X199667800Y-145111736D02*
X199667800Y-145565864D01*
%TO.C,U3*%
D11*
X193145600Y-110064400D02*
X195177600Y-110064400D01*
X195177600Y-107016400D01*
X193145600Y-107016400D01*
X193145600Y-110064400D01*
X193067985Y-110369200D02*
G75*
G02*
X192613615Y-110369200I-227185J0D01*
G01*
X192613615Y-110369200D02*
G75*
G02*
X193067985Y-110369200I227185J0D01*
G01*
D12*
%TO.C,U14*%
X208828600Y-121790940D02*
X210238600Y-121790940D01*
X208838600Y-124110940D02*
X210238600Y-124110940D01*
X208458600Y-121840940D02*
X208218600Y-121510940D01*
X208698600Y-121510940D01*
X208458600Y-121840940D01*
G36*
X208458600Y-121840940D02*
G01*
X208218600Y-121510940D01*
X208698600Y-121510940D01*
X208458600Y-121840940D01*
G37*
%TO.C,U6*%
X196493400Y-135985000D02*
X195093400Y-135985000D01*
X196503400Y-138305000D02*
X195093400Y-138305000D01*
X197113400Y-138585000D02*
X196633400Y-138585000D01*
X196873400Y-138255000D01*
X197113400Y-138585000D01*
G36*
X197113400Y-138585000D02*
G01*
X196633400Y-138585000D01*
X196873400Y-138255000D01*
X197113400Y-138585000D01*
G37*
D11*
%TO.C,J1*%
X189687200Y-149884900D02*
X189687200Y-159884900D01*
X189687200Y-159884900D02*
X202666600Y-159884900D01*
X202666600Y-149884900D02*
X202666600Y-159884900D01*
D12*
%TO.C,C10*%
X197732764Y-110384000D02*
X197948436Y-110384000D01*
X197732764Y-111104000D02*
X197948436Y-111104000D01*
D13*
%TO.C,U1*%
X191632200Y-102058800D02*
X191632200Y-102863800D01*
X191632200Y-104253800D02*
X191632200Y-105058800D01*
X194632200Y-102058800D02*
X194632200Y-102863800D01*
X194632200Y-104253800D02*
X194632200Y-105058800D01*
D10*
X194432200Y-101163800D02*
G75*
G02*
X194232200Y-101163800I-100000J0D01*
G01*
X194232200Y-101163800D02*
G75*
G02*
X194432200Y-101163800I100000J0D01*
G01*
D12*
%TO.C,Y1*%
X209340600Y-104736100D02*
X211340600Y-104736100D01*
X209340600Y-105536100D02*
X209340600Y-104736100D01*
X209340600Y-108336100D02*
X209340600Y-107336100D01*
X209340600Y-108536100D02*
X211340600Y-108536100D01*
X211340600Y-104736100D02*
X211740600Y-104736100D01*
X211340600Y-108336100D02*
X209340600Y-108336100D01*
X211340600Y-108336100D02*
X211740600Y-108336100D01*
X211340600Y-108536100D02*
X211740600Y-108536100D01*
X211740600Y-104736100D02*
X211740600Y-105536100D01*
X211740600Y-107336100D02*
X211740600Y-108336100D01*
X211740600Y-107336100D02*
X212140600Y-107336100D01*
%TO.C,U15*%
X196448370Y-121532430D02*
X195048370Y-121532430D01*
X196458370Y-123852430D02*
X195048370Y-123852430D01*
X197068370Y-124132430D02*
X196588370Y-124132430D01*
X196828370Y-123802430D01*
X197068370Y-124132430D01*
G36*
X197068370Y-124132430D02*
G01*
X196588370Y-124132430D01*
X196828370Y-123802430D01*
X197068370Y-124132430D01*
G37*
%TO.C,R9*%
X210110400Y-148642336D02*
X210110400Y-149096464D01*
X211580400Y-148642336D02*
X211580400Y-149096464D01*
%TO.C,C7*%
X197618236Y-105583400D02*
X197402564Y-105583400D01*
X197618236Y-106303400D02*
X197402564Y-106303400D01*
%TO.C,R8*%
X196216600Y-145113636D02*
X196216600Y-145567764D01*
X197686600Y-145113636D02*
X197686600Y-145567764D01*
%TO.C,U17*%
X196457800Y-124405500D02*
X195057800Y-124405500D01*
X196467800Y-126725500D02*
X195057800Y-126725500D01*
X197077800Y-127005500D02*
X196597800Y-127005500D01*
X196837800Y-126675500D01*
X197077800Y-127005500D01*
G36*
X197077800Y-127005500D02*
G01*
X196597800Y-127005500D01*
X196837800Y-126675500D01*
X197077800Y-127005500D01*
G37*
%TO.C,C8*%
X197707636Y-101942700D02*
X197491964Y-101942700D01*
X197707636Y-102662700D02*
X197491964Y-102662700D01*
%TO.C,L1*%
X194023348Y-98356400D02*
X194545852Y-98356400D01*
X194023348Y-100576400D02*
X194545852Y-100576400D01*
%TO.C,U10*%
X196493400Y-130147600D02*
X195093400Y-130147600D01*
X196503400Y-132467600D02*
X195093400Y-132467600D01*
X197113400Y-132747600D02*
X196633400Y-132747600D01*
X196873400Y-132417600D01*
X197113400Y-132747600D01*
G36*
X197113400Y-132747600D02*
G01*
X196633400Y-132747600D01*
X196873400Y-132417600D01*
X197113400Y-132747600D01*
G37*
%TO.C,U8*%
X196493400Y-133114800D02*
X195093400Y-133114800D01*
X196503400Y-135434800D02*
X195093400Y-135434800D01*
X197113400Y-135714800D02*
X196633400Y-135714800D01*
X196873400Y-135384800D01*
X197113400Y-135714800D01*
G36*
X197113400Y-135714800D02*
G01*
X196633400Y-135714800D01*
X196873400Y-135384800D01*
X197113400Y-135714800D01*
G37*
%TO.C,U9*%
X208860400Y-133226800D02*
X210270400Y-133226800D01*
X208870400Y-135546800D02*
X210270400Y-135546800D01*
X208490400Y-133276800D02*
X208250400Y-132946800D01*
X208730400Y-132946800D01*
X208490400Y-133276800D01*
G36*
X208490400Y-133276800D02*
G01*
X208250400Y-132946800D01*
X208730400Y-132946800D01*
X208490400Y-133276800D01*
G37*
%TO.C,C5*%
X197504164Y-102941800D02*
X197719836Y-102941800D01*
X197504164Y-103661800D02*
X197719836Y-103661800D01*
%TO.C,U2*%
X199386800Y-102409600D02*
X200036800Y-102409600D01*
X199386800Y-103059600D02*
X199386800Y-102409600D01*
X199386800Y-108979600D02*
X199386800Y-109329600D01*
X200036800Y-109629600D02*
X199626800Y-109629600D01*
X206606800Y-102409600D02*
X205956800Y-102409600D01*
X206606800Y-103059600D02*
X206606800Y-102409600D01*
X206606800Y-108979600D02*
X206606800Y-109629600D01*
X206606800Y-109629600D02*
X205956800Y-109629600D01*
X199386800Y-109629600D02*
X199056800Y-109869600D01*
X199056800Y-109389600D01*
X199386800Y-109629600D01*
G36*
X199386800Y-109629600D02*
G01*
X199056800Y-109869600D01*
X199056800Y-109389600D01*
X199386800Y-109629600D01*
G37*
%TO.C,C4*%
X196572200Y-100083252D02*
X196572200Y-99560748D01*
X198042200Y-100083252D02*
X198042200Y-99560748D01*
%TO.C,U5*%
X208865400Y-138921000D02*
X210275400Y-138921000D01*
X208875400Y-141241000D02*
X210275400Y-141241000D01*
X208495400Y-138971000D02*
X208255400Y-138641000D01*
X208735400Y-138641000D01*
X208495400Y-138971000D01*
G36*
X208495400Y-138971000D02*
G01*
X208255400Y-138641000D01*
X208735400Y-138641000D01*
X208495400Y-138971000D01*
G37*
%TO.C,J4*%
X200142800Y-141258600D02*
X200142800Y-118278600D01*
X202742800Y-138658600D02*
X202742800Y-141258600D01*
X202742800Y-141258600D02*
X200142800Y-141258600D01*
X205342800Y-118278600D02*
X200142800Y-118278600D01*
X205342800Y-138658600D02*
X202742800Y-138658600D01*
X205342800Y-138658600D02*
X205342800Y-118278600D01*
X205342800Y-139928600D02*
X205342800Y-141258600D01*
X205342800Y-141258600D02*
X204012800Y-141258600D01*
%TO.C,C9*%
X200030200Y-100560864D02*
X200030200Y-100776536D01*
X200750200Y-100560864D02*
X200750200Y-100776536D01*
%TO.C,R11*%
X194190200Y-95270264D02*
X194190200Y-94816136D01*
X195660200Y-95270264D02*
X195660200Y-94816136D01*
%TO.C,U11*%
X208901000Y-130358300D02*
X210311000Y-130358300D01*
X208911000Y-132678300D02*
X210311000Y-132678300D01*
X208531000Y-130408300D02*
X208291000Y-130078300D01*
X208771000Y-130078300D01*
X208531000Y-130408300D01*
G36*
X208531000Y-130408300D02*
G01*
X208291000Y-130078300D01*
X208771000Y-130078300D01*
X208531000Y-130408300D01*
G37*
%TO.C,R10*%
X206530836Y-149353600D02*
X206984964Y-149353600D01*
X206530836Y-150823600D02*
X206984964Y-150823600D01*
D10*
%TO.C,J2*%
X197094800Y-88589000D02*
X197094800Y-89869000D01*
X197094800Y-93839000D02*
X197094800Y-92589000D01*
X206674800Y-88589000D02*
X197094800Y-88589000D01*
X206674800Y-89869000D02*
X206674800Y-88589000D01*
X206674800Y-93839000D02*
X206674800Y-92589000D01*
D12*
%TO.C,U18*%
X208865000Y-127522340D02*
X210275000Y-127522340D01*
X208875000Y-129842340D02*
X210275000Y-129842340D01*
X208495000Y-127572340D02*
X208255000Y-127242340D01*
X208735000Y-127242340D01*
X208495000Y-127572340D01*
G36*
X208495000Y-127572340D02*
G01*
X208255000Y-127242340D01*
X208735000Y-127242340D01*
X208495000Y-127572340D01*
G37*
%TO.C,C2*%
X190552400Y-99560748D02*
X190552400Y-100083252D01*
X192022400Y-99560748D02*
X192022400Y-100083252D01*
%TO.C,U13*%
X196457800Y-118665100D02*
X195057800Y-118665100D01*
X196467800Y-120985100D02*
X195057800Y-120985100D01*
X197077800Y-121265100D02*
X196597800Y-121265100D01*
X196837800Y-120935100D01*
X197077800Y-121265100D01*
G36*
X197077800Y-121265100D02*
G01*
X196597800Y-121265100D01*
X196837800Y-120935100D01*
X197077800Y-121265100D01*
G37*
%TO.C,R12*%
X208388800Y-94892336D02*
X208388800Y-95346464D01*
X209858800Y-94892336D02*
X209858800Y-95346464D01*
%TO.C,U12*%
X208835000Y-118875800D02*
X210245000Y-118875800D01*
X208845000Y-121195800D02*
X210245000Y-121195800D01*
X208465000Y-118925800D02*
X208225000Y-118595800D01*
X208705000Y-118595800D01*
X208465000Y-118925800D01*
G36*
X208465000Y-118925800D02*
G01*
X208225000Y-118595800D01*
X208705000Y-118595800D01*
X208465000Y-118925800D01*
G37*
D10*
%TO.C,J3*%
X204556800Y-154620200D02*
X204556800Y-155870200D01*
X204556800Y-158590200D02*
X204556800Y-159870200D01*
X204556800Y-159870200D02*
X214136800Y-159870200D01*
X214136800Y-154620200D02*
X214136800Y-155870200D01*
X214136800Y-159870200D02*
X214136800Y-158590200D01*
D12*
%TO.C,D2*%
X190386600Y-97793400D02*
X190386600Y-94533400D01*
X190386600Y-97793400D02*
X192086600Y-97793400D01*
X192086600Y-97793400D02*
X192086600Y-94533400D01*
%TD*%
M02*
