%TF.GenerationSoftware,KiCad,Pcbnew,8.0.2*%
%TF.CreationDate,2024-05-20T21:07:15-07:00*%
%TF.ProjectId,snifferlyzer,736e6966-6665-4726-9c79-7a65722e6b69,rev?*%
%TF.SameCoordinates,Original*%
%TF.FileFunction,Paste,Top*%
%TF.FilePolarity,Positive*%
%FSLAX46Y46*%
G04 Gerber Fmt 4.6, Leading zero omitted, Abs format (unit mm)*
G04 Created by KiCad (PCBNEW 8.0.2) date 2024-05-20 21:07:15*
%MOMM*%
%LPD*%
G01*
G04 APERTURE LIST*
G04 Aperture macros list*
%AMRoundRect*
0 Rectangle with rounded corners*
0 $1 Rounding radius*
0 $2 $3 $4 $5 $6 $7 $8 $9 X,Y pos of 4 corners*
0 Add a 4 corners polygon primitive as box body*
4,1,4,$2,$3,$4,$5,$6,$7,$8,$9,$2,$3,0*
0 Add four circle primitives for the rounded corners*
1,1,$1+$1,$2,$3*
1,1,$1+$1,$4,$5*
1,1,$1+$1,$6,$7*
1,1,$1+$1,$8,$9*
0 Add four rect primitives between the rounded corners*
20,1,$1+$1,$2,$3,$4,$5,0*
20,1,$1+$1,$4,$5,$6,$7,0*
20,1,$1+$1,$6,$7,$8,$9,0*
20,1,$1+$1,$8,$9,$2,$3,0*%
G04 Aperture macros list end*
%ADD10C,0.010000*%
%ADD11RoundRect,0.100000X0.225000X0.100000X-0.225000X0.100000X-0.225000X-0.100000X0.225000X-0.100000X0*%
%ADD12RoundRect,0.100000X-0.225000X-0.100000X0.225000X-0.100000X0.225000X0.100000X-0.225000X0.100000X0*%
%ADD13R,0.500000X0.550000*%
%ADD14RoundRect,0.250000X-0.450000X0.262500X-0.450000X-0.262500X0.450000X-0.262500X0.450000X0.262500X0*%
%ADD15R,0.300000X0.400000*%
%ADD16R,1.600000X0.200000*%
%ADD17RoundRect,0.079500X0.100500X-0.079500X0.100500X0.079500X-0.100500X0.079500X-0.100500X-0.079500X0*%
%ADD18RoundRect,0.140000X-0.140000X-0.170000X0.140000X-0.170000X0.140000X0.170000X-0.140000X0.170000X0*%
%ADD19RoundRect,0.007200X-0.112800X0.292800X-0.112800X-0.292800X0.112800X-0.292800X0.112800X0.292800X0*%
%ADD20R,1.900000X0.400000*%
%ADD21RoundRect,0.140000X0.140000X0.170000X-0.140000X0.170000X-0.140000X-0.170000X0.140000X-0.170000X0*%
%ADD22RoundRect,0.079500X-0.079500X-0.100500X0.079500X-0.100500X0.079500X0.100500X-0.079500X0.100500X0*%
%ADD23RoundRect,0.250000X-0.375000X-0.850000X0.375000X-0.850000X0.375000X0.850000X-0.375000X0.850000X0*%
%ADD24RoundRect,0.079500X0.079500X0.100500X-0.079500X0.100500X-0.079500X-0.100500X0.079500X-0.100500X0*%
%ADD25RoundRect,0.249999X0.395001X-0.395001X0.395001X0.395001X-0.395001X0.395001X-0.395001X-0.395001X0*%
%ADD26RoundRect,0.050000X0.050000X-0.387500X0.050000X0.387500X-0.050000X0.387500X-0.050000X-0.387500X0*%
%ADD27RoundRect,0.050000X0.387500X-0.050000X0.387500X0.050000X-0.387500X0.050000X-0.387500X-0.050000X0*%
%ADD28RoundRect,0.250000X0.475000X-0.250000X0.475000X0.250000X-0.475000X0.250000X-0.475000X-0.250000X0*%
%ADD29RoundRect,0.140000X-0.170000X0.140000X-0.170000X-0.140000X0.170000X-0.140000X0.170000X0.140000X0*%
%ADD30RoundRect,0.250000X0.450000X-0.262500X0.450000X0.262500X-0.450000X0.262500X-0.450000X-0.262500X0*%
%ADD31RoundRect,0.250000X-0.262500X-0.450000X0.262500X-0.450000X0.262500X0.450000X-0.262500X0.450000X0*%
%ADD32R,0.600000X1.150000*%
%ADD33R,0.300000X1.150000*%
%ADD34RoundRect,0.079500X-0.100500X0.079500X-0.100500X-0.079500X0.100500X-0.079500X0.100500X0.079500X0*%
%ADD35RoundRect,0.250000X-0.475000X0.250000X-0.475000X-0.250000X0.475000X-0.250000X0.475000X0.250000X0*%
%ADD36RoundRect,0.250000X0.250000X-0.250000X0.250000X0.250000X-0.250000X0.250000X-0.250000X-0.250000X0*%
G04 APERTURE END LIST*
D10*
%TO.C,U1*%
X191772200Y-103433800D02*
X191432200Y-103433800D01*
X191432200Y-103183800D01*
X191772200Y-103183800D01*
X191772200Y-103433800D01*
G36*
X191772200Y-103433800D02*
G01*
X191432200Y-103433800D01*
X191432200Y-103183800D01*
X191772200Y-103183800D01*
X191772200Y-103433800D01*
G37*
X191772200Y-103933800D02*
X191432200Y-103933800D01*
X191432200Y-103683800D01*
X191772200Y-103683800D01*
X191772200Y-103933800D01*
G36*
X191772200Y-103933800D02*
G01*
X191432200Y-103933800D01*
X191432200Y-103683800D01*
X191772200Y-103683800D01*
X191772200Y-103933800D01*
G37*
X193032200Y-104308800D02*
X191972200Y-104308800D01*
X191972200Y-102808800D01*
X193032200Y-102808800D01*
X193032200Y-104308800D01*
G36*
X193032200Y-104308800D02*
G01*
X191972200Y-104308800D01*
X191972200Y-102808800D01*
X193032200Y-102808800D01*
X193032200Y-104308800D01*
G37*
X194292200Y-104308800D02*
X193232200Y-104308800D01*
X193232200Y-102808800D01*
X194292200Y-102808800D01*
X194292200Y-104308800D01*
G36*
X194292200Y-104308800D02*
G01*
X193232200Y-104308800D01*
X193232200Y-102808800D01*
X194292200Y-102808800D01*
X194292200Y-104308800D01*
G37*
X194832200Y-103433800D02*
X194492200Y-103433800D01*
X194492200Y-103183800D01*
X194832200Y-103183800D01*
X194832200Y-103433800D01*
G36*
X194832200Y-103433800D02*
G01*
X194492200Y-103433800D01*
X194492200Y-103183800D01*
X194832200Y-103183800D01*
X194832200Y-103433800D01*
G37*
X194832200Y-103933800D02*
X194492200Y-103933800D01*
X194492200Y-103683800D01*
X194832200Y-103683800D01*
X194832200Y-103933800D01*
G36*
X194832200Y-103933800D02*
G01*
X194492200Y-103933800D01*
X194492200Y-103683800D01*
X194832200Y-103683800D01*
X194832200Y-103933800D01*
G37*
%TD*%
D11*
%TO.C,U19*%
X196707800Y-129087400D03*
X196707800Y-128437400D03*
X196707800Y-127787400D03*
X194807800Y-127787400D03*
X194807800Y-129087400D03*
%TD*%
%TO.C,U4*%
X196733200Y-140668100D03*
X196733200Y-140018100D03*
X196733200Y-139368100D03*
X194833200Y-139368100D03*
X194833200Y-140668100D03*
%TD*%
D12*
%TO.C,U7*%
X208635600Y-136557900D03*
X208635600Y-137207900D03*
X208635600Y-137857900D03*
X210535600Y-137857900D03*
X210535600Y-136557900D03*
%TD*%
%TO.C,U16*%
X208635600Y-125217400D03*
X208635600Y-125867400D03*
X208635600Y-126517400D03*
X210535600Y-126517400D03*
X210535600Y-125217400D03*
%TD*%
D13*
%TO.C,SW1*%
X191738200Y-108225200D03*
X190938200Y-108225200D03*
X191738200Y-110875200D03*
X190938200Y-110875200D03*
%TD*%
D14*
%TO.C,R7*%
X198932800Y-144426300D03*
X198932800Y-146251300D03*
%TD*%
D15*
%TO.C,U3*%
X193411600Y-109740400D03*
X193911600Y-109740400D03*
X194411600Y-109740400D03*
X194911600Y-109740400D03*
X194911600Y-107340400D03*
X194411600Y-107340400D03*
X193911600Y-107340400D03*
X193411600Y-107340400D03*
D16*
X194161600Y-108540400D03*
%TD*%
D12*
%TO.C,U14*%
X208588600Y-122300940D03*
X208588600Y-122950940D03*
X208588600Y-123600940D03*
X210488600Y-123600940D03*
X210488600Y-122300940D03*
%TD*%
D11*
%TO.C,U6*%
X196743400Y-137795000D03*
X196743400Y-137145000D03*
X196743400Y-136495000D03*
X194843400Y-136495000D03*
X194843400Y-137795000D03*
%TD*%
D17*
%TO.C,C11*%
X192532000Y-107355200D03*
X192532000Y-106665200D03*
%TD*%
D18*
%TO.C,C10*%
X197360600Y-110744000D03*
X198320600Y-110744000D03*
%TD*%
D19*
%TO.C,U1*%
X194132200Y-102158800D03*
X193632200Y-102158800D03*
X193132200Y-102158800D03*
X192632200Y-102158800D03*
X192132200Y-102158800D03*
X192132200Y-104958800D03*
X192632200Y-104958800D03*
X193132200Y-104958800D03*
X193632200Y-104958800D03*
X194132200Y-104958800D03*
%TD*%
D20*
%TO.C,Y1*%
X210540600Y-107736100D03*
X210540600Y-106536100D03*
X210540600Y-105336100D03*
%TD*%
D11*
%TO.C,U15*%
X196698370Y-123342430D03*
X196698370Y-122692430D03*
X196698370Y-122042430D03*
X194798370Y-122042430D03*
X194798370Y-123342430D03*
%TD*%
D14*
%TO.C,R9*%
X210845400Y-147956900D03*
X210845400Y-149781900D03*
%TD*%
D21*
%TO.C,C7*%
X197990400Y-105943400D03*
X197030400Y-105943400D03*
%TD*%
D22*
%TO.C,R5*%
X197355400Y-104292400D03*
X198045400Y-104292400D03*
%TD*%
D14*
%TO.C,R8*%
X196951600Y-144428200D03*
X196951600Y-146253200D03*
%TD*%
D11*
%TO.C,U17*%
X196707800Y-126215500D03*
X196707800Y-125565500D03*
X196707800Y-124915500D03*
X194807800Y-124915500D03*
X194807800Y-126215500D03*
%TD*%
D21*
%TO.C,C8*%
X198079800Y-102302700D03*
X197119800Y-102302700D03*
%TD*%
D23*
%TO.C,L1*%
X193209600Y-99466400D03*
X195359600Y-99466400D03*
%TD*%
D24*
%TO.C,R6*%
X194604200Y-111074200D03*
X193914200Y-111074200D03*
%TD*%
D11*
%TO.C,U10*%
X196743400Y-131957600D03*
X196743400Y-131307600D03*
X196743400Y-130657600D03*
X194843400Y-130657600D03*
X194843400Y-131957600D03*
%TD*%
%TO.C,U8*%
X196743400Y-134924800D03*
X196743400Y-134274800D03*
X196743400Y-133624800D03*
X194843400Y-133624800D03*
X194843400Y-134924800D03*
%TD*%
D12*
%TO.C,U9*%
X208620400Y-133736800D03*
X208620400Y-134386800D03*
X208620400Y-135036800D03*
X210520400Y-135036800D03*
X210520400Y-133736800D03*
%TD*%
D18*
%TO.C,C5*%
X197132000Y-103301800D03*
X198092000Y-103301800D03*
%TD*%
D25*
%TO.C,U2*%
X202196800Y-106819600D03*
X203796800Y-106819600D03*
X202196800Y-105219600D03*
X203796800Y-105219600D03*
D26*
X200396800Y-109457100D03*
X200796800Y-109457100D03*
X201196800Y-109457100D03*
X201596800Y-109457100D03*
X201996800Y-109457100D03*
X202396800Y-109457100D03*
X202796800Y-109457100D03*
X203196800Y-109457100D03*
X203596800Y-109457100D03*
X203996800Y-109457100D03*
X204396800Y-109457100D03*
X204796800Y-109457100D03*
X205196800Y-109457100D03*
X205596800Y-109457100D03*
D27*
X206434300Y-108619600D03*
X206434300Y-108219600D03*
X206434300Y-107819600D03*
X206434300Y-107419600D03*
X206434300Y-107019600D03*
X206434300Y-106619600D03*
X206434300Y-106219600D03*
X206434300Y-105819600D03*
X206434300Y-105419600D03*
X206434300Y-105019600D03*
X206434300Y-104619600D03*
X206434300Y-104219600D03*
X206434300Y-103819600D03*
X206434300Y-103419600D03*
D26*
X205596800Y-102582100D03*
X205196800Y-102582100D03*
X204796800Y-102582100D03*
X204396800Y-102582100D03*
X203996800Y-102582100D03*
X203596800Y-102582100D03*
X203196800Y-102582100D03*
X202796800Y-102582100D03*
X202396800Y-102582100D03*
X201996800Y-102582100D03*
X201596800Y-102582100D03*
X201196800Y-102582100D03*
X200796800Y-102582100D03*
X200396800Y-102582100D03*
D27*
X199559300Y-103419600D03*
X199559300Y-103819600D03*
X199559300Y-104219600D03*
X199559300Y-104619600D03*
X199559300Y-105019600D03*
X199559300Y-105419600D03*
X199559300Y-105819600D03*
X199559300Y-106219600D03*
X199559300Y-106619600D03*
X199559300Y-107019600D03*
X199559300Y-107419600D03*
X199559300Y-107819600D03*
X199559300Y-108219600D03*
X199559300Y-108619600D03*
%TD*%
D28*
%TO.C,C4*%
X197307200Y-100772000D03*
X197307200Y-98872000D03*
%TD*%
D12*
%TO.C,U5*%
X208625400Y-139431000D03*
X208625400Y-140081000D03*
X208625400Y-140731000D03*
X210525400Y-140731000D03*
X210525400Y-139431000D03*
%TD*%
D29*
%TO.C,C9*%
X200390200Y-100188700D03*
X200390200Y-101148700D03*
%TD*%
D30*
%TO.C,R11*%
X194925200Y-95955700D03*
X194925200Y-94130700D03*
%TD*%
D12*
%TO.C,U11*%
X208661000Y-130868300D03*
X208661000Y-131518300D03*
X208661000Y-132168300D03*
X210561000Y-132168300D03*
X210561000Y-130868300D03*
%TD*%
D31*
%TO.C,R10*%
X205845400Y-150088600D03*
X207670400Y-150088600D03*
%TD*%
D32*
%TO.C,J2*%
X205084800Y-95944000D03*
X204284800Y-95944000D03*
D33*
X203134800Y-95944000D03*
X202134800Y-95944000D03*
X201634800Y-95944000D03*
X200634800Y-95944000D03*
D32*
X198684800Y-95944000D03*
X199484800Y-95944000D03*
D33*
X200134800Y-95944000D03*
X201134800Y-95944000D03*
X202634800Y-95944000D03*
X203634800Y-95944000D03*
%TD*%
D12*
%TO.C,U18*%
X208625000Y-128032340D03*
X208625000Y-128682340D03*
X208625000Y-129332340D03*
X210525000Y-129332340D03*
X210525000Y-128032340D03*
%TD*%
D34*
%TO.C,R2*%
X208035600Y-105302100D03*
X208035600Y-105992100D03*
%TD*%
D35*
%TO.C,C2*%
X191287400Y-98872000D03*
X191287400Y-100772000D03*
%TD*%
D22*
%TO.C,R4*%
X197355400Y-105054400D03*
X198045400Y-105054400D03*
%TD*%
D24*
%TO.C,R3*%
X208812400Y-104224700D03*
X208122400Y-104224700D03*
%TD*%
D11*
%TO.C,U13*%
X196707800Y-120475100D03*
X196707800Y-119825100D03*
X196707800Y-119175100D03*
X194807800Y-119175100D03*
X194807800Y-120475100D03*
%TD*%
D14*
%TO.C,R12*%
X209123800Y-94206900D03*
X209123800Y-96031900D03*
%TD*%
D12*
%TO.C,U12*%
X208595000Y-119385800D03*
X208595000Y-120035800D03*
X208595000Y-120685800D03*
X210495000Y-120685800D03*
X210495000Y-119385800D03*
%TD*%
D34*
%TO.C,R1*%
X190754000Y-104455400D03*
X190754000Y-105145400D03*
%TD*%
D32*
%TO.C,J3*%
X206146800Y-152515200D03*
X206946800Y-152515200D03*
D33*
X208096800Y-152515200D03*
X209096800Y-152515200D03*
X209596800Y-152515200D03*
X210596800Y-152515200D03*
D32*
X212546800Y-152515200D03*
X211746800Y-152515200D03*
D33*
X211096800Y-152515200D03*
X210096800Y-152515200D03*
X208596800Y-152515200D03*
X207596800Y-152515200D03*
%TD*%
D36*
%TO.C,D2*%
X191236600Y-97033400D03*
X191236600Y-94533400D03*
%TD*%
D17*
%TO.C,C6*%
X203997000Y-101140700D03*
X203997000Y-100450700D03*
%TD*%
D24*
%TO.C,C3*%
X191454600Y-105918000D03*
X190764600Y-105918000D03*
%TD*%
M02*
