%TF.GenerationSoftware,KiCad,Pcbnew,8.0.2*%
%TF.CreationDate,2024-05-20T21:07:15-07:00*%
%TF.ProjectId,snifferlyzer,736e6966-6665-4726-9c79-7a65722e6b69,rev?*%
%TF.SameCoordinates,Original*%
%TF.FileFunction,Soldermask,Top*%
%TF.FilePolarity,Negative*%
%FSLAX46Y46*%
G04 Gerber Fmt 4.6, Leading zero omitted, Abs format (unit mm)*
G04 Created by KiCad (PCBNEW 8.0.2) date 2024-05-20 21:07:15*
%MOMM*%
%LPD*%
G01*
G04 APERTURE LIST*
G04 Aperture macros list*
%AMRoundRect*
0 Rectangle with rounded corners*
0 $1 Rounding radius*
0 $2 $3 $4 $5 $6 $7 $8 $9 X,Y pos of 4 corners*
0 Add a 4 corners polygon primitive as box body*
4,1,4,$2,$3,$4,$5,$6,$7,$8,$9,$2,$3,0*
0 Add four circle primitives for the rounded corners*
1,1,$1+$1,$2,$3*
1,1,$1+$1,$4,$5*
1,1,$1+$1,$6,$7*
1,1,$1+$1,$8,$9*
0 Add four rect primitives between the rounded corners*
20,1,$1+$1,$2,$3,$4,$5,0*
20,1,$1+$1,$4,$5,$6,$7,0*
20,1,$1+$1,$6,$7,$8,$9,0*
20,1,$1+$1,$8,$9,$2,$3,0*%
G04 Aperture macros list end*
%ADD10C,0.150000*%
%ADD11C,0.010000*%
%ADD12RoundRect,0.100000X0.225000X0.100000X-0.225000X0.100000X-0.225000X-0.100000X0.225000X-0.100000X0*%
%ADD13RoundRect,0.100000X-0.225000X-0.100000X0.225000X-0.100000X0.225000X0.100000X-0.225000X0.100000X0*%
%ADD14R,0.500000X0.550000*%
%ADD15RoundRect,0.250000X-0.450000X0.262500X-0.450000X-0.262500X0.450000X-0.262500X0.450000X0.262500X0*%
%ADD16R,0.300000X0.400000*%
%ADD17R,1.600000X0.200000*%
%ADD18C,1.650000*%
%ADD19O,2.250000X3.250000*%
%ADD20RoundRect,0.100000X0.100000X-0.130000X0.100000X0.130000X-0.100000X0.130000X-0.100000X-0.130000X0*%
%ADD21RoundRect,0.140000X-0.140000X-0.170000X0.140000X-0.170000X0.140000X0.170000X-0.140000X0.170000X0*%
%ADD22R,1.900000X0.400000*%
%ADD23RoundRect,0.140000X0.140000X0.170000X-0.140000X0.170000X-0.140000X-0.170000X0.140000X-0.170000X0*%
%ADD24RoundRect,0.100000X-0.130000X-0.100000X0.130000X-0.100000X0.130000X0.100000X-0.130000X0.100000X0*%
%ADD25RoundRect,0.250000X-0.375000X-0.850000X0.375000X-0.850000X0.375000X0.850000X-0.375000X0.850000X0*%
%ADD26RoundRect,0.100000X0.130000X0.100000X-0.130000X0.100000X-0.130000X-0.100000X0.130000X-0.100000X0*%
%ADD27RoundRect,0.050000X0.050000X-0.387500X0.050000X0.387500X-0.050000X0.387500X-0.050000X-0.387500X0*%
%ADD28RoundRect,0.050000X0.387500X-0.050000X0.387500X0.050000X-0.387500X0.050000X-0.387500X-0.050000X0*%
%ADD29R,3.200000X3.200000*%
%ADD30RoundRect,0.250000X0.475000X-0.250000X0.475000X0.250000X-0.475000X0.250000X-0.475000X-0.250000X0*%
%ADD31R,1.700000X1.700000*%
%ADD32O,1.700000X1.700000*%
%ADD33RoundRect,0.140000X-0.170000X0.140000X-0.170000X-0.140000X0.170000X-0.140000X0.170000X0.140000X0*%
%ADD34RoundRect,0.250000X0.450000X-0.262500X0.450000X0.262500X-0.450000X0.262500X-0.450000X-0.262500X0*%
%ADD35RoundRect,0.250000X-0.262500X-0.450000X0.262500X-0.450000X0.262500X0.450000X-0.262500X0.450000X0*%
%ADD36C,0.650000*%
%ADD37R,0.600000X1.150000*%
%ADD38R,0.300000X1.150000*%
%ADD39O,1.050000X2.100000*%
%ADD40O,1.000000X2.000000*%
%ADD41RoundRect,0.100000X-0.100000X0.130000X-0.100000X-0.130000X0.100000X-0.130000X0.100000X0.130000X0*%
%ADD42RoundRect,0.250000X-0.475000X0.250000X-0.475000X-0.250000X0.475000X-0.250000X0.475000X0.250000X0*%
%ADD43RoundRect,0.250000X0.250000X-0.250000X0.250000X0.250000X-0.250000X0.250000X-0.250000X-0.250000X0*%
G04 APERTURE END LIST*
D10*
G36*
X189803438Y-113282487D02*
G01*
X189792971Y-113202981D01*
X189768190Y-113130326D01*
X189729405Y-113065679D01*
X189676928Y-113010194D01*
X189611070Y-112965028D01*
X189553083Y-112938619D01*
X189487875Y-112919153D01*
X189415578Y-112907115D01*
X189336324Y-112902994D01*
X189260297Y-112906847D01*
X189191755Y-112918104D01*
X189130696Y-112936312D01*
X189060923Y-112970620D01*
X189004447Y-113015407D01*
X188961266Y-113069600D01*
X188931375Y-113132126D01*
X188914771Y-113201911D01*
X188911036Y-113258368D01*
X188916097Y-113322059D01*
X188935188Y-113387557D01*
X188967897Y-113442418D01*
X189013608Y-113488009D01*
X189071707Y-113525692D01*
X189105209Y-113541995D01*
X189169561Y-113566729D01*
X189231984Y-113585495D01*
X189292076Y-113600739D01*
X189359957Y-113616291D01*
X189423641Y-113630227D01*
X189483976Y-113645985D01*
X189544594Y-113672104D01*
X189591497Y-113718221D01*
X189604075Y-113775552D01*
X189592465Y-113836312D01*
X189551939Y-113889630D01*
X189494134Y-113920841D01*
X189429056Y-113935177D01*
X189378150Y-113937973D01*
X189309430Y-113932776D01*
X189249846Y-113917595D01*
X189191686Y-113887064D01*
X189144210Y-113835810D01*
X189121054Y-113769326D01*
X189119253Y-113747769D01*
X188884780Y-113747769D01*
X188891279Y-113817048D01*
X188907504Y-113879436D01*
X188943351Y-113951930D01*
X188994291Y-114012244D01*
X189059068Y-114060417D01*
X189115976Y-114088603D01*
X189179431Y-114109998D01*
X189248904Y-114124619D01*
X189323864Y-114132482D01*
X189376624Y-114133978D01*
X189450710Y-114130962D01*
X189520095Y-114121827D01*
X189584213Y-114106443D01*
X189642499Y-114084680D01*
X189710168Y-114045517D01*
X189765129Y-113994475D01*
X189806043Y-113931247D01*
X189831573Y-113855526D01*
X189839819Y-113790351D01*
X189840380Y-113767003D01*
X189834705Y-113697204D01*
X189814238Y-113629089D01*
X189781109Y-113575577D01*
X189729612Y-113528123D01*
X189667859Y-113492852D01*
X189658419Y-113488567D01*
X189596477Y-113464457D01*
X189535602Y-113445061D01*
X189469162Y-113426546D01*
X189398691Y-113408632D01*
X189337992Y-113393962D01*
X189313426Y-113388122D01*
X189248734Y-113369373D01*
X189192777Y-113343637D01*
X189145948Y-113297178D01*
X189133297Y-113242797D01*
X189150166Y-113179118D01*
X189200150Y-113134833D01*
X189261320Y-113114710D01*
X189328910Y-113107995D01*
X189341514Y-113107853D01*
X189405031Y-113112047D01*
X189467182Y-113128228D01*
X189521085Y-113162643D01*
X189555902Y-113213993D01*
X189572629Y-113282487D01*
X189803438Y-113282487D01*
G37*
G36*
X190684544Y-114094900D02*
G01*
X190684544Y-113502305D01*
X190679041Y-113436342D01*
X190657631Y-113365588D01*
X190621714Y-113308108D01*
X190573042Y-113264195D01*
X190513369Y-113234144D01*
X190444451Y-113218247D01*
X190399391Y-113215625D01*
X190338214Y-113219439D01*
X190274100Y-113233893D01*
X190211341Y-113263949D01*
X190160618Y-113307702D01*
X190120954Y-113364613D01*
X190120954Y-113235165D01*
X189904188Y-113235165D01*
X189904188Y-114094900D01*
X190131640Y-114094900D01*
X190131640Y-113602445D01*
X190137750Y-113535608D01*
X190160455Y-113474967D01*
X190207226Y-113428642D01*
X190266629Y-113408321D01*
X190308410Y-113405219D01*
X190369829Y-113411098D01*
X190426665Y-113445118D01*
X190450997Y-113509545D01*
X190455261Y-113574357D01*
X190455261Y-114094900D01*
X190684544Y-114094900D01*
G37*
G36*
X191016104Y-114094900D02*
G01*
X191016104Y-113235165D01*
X190788653Y-113235165D01*
X190788653Y-114094900D01*
X191016104Y-114094900D01*
G37*
G36*
X191016104Y-113134415D02*
G01*
X191016104Y-112922534D01*
X190788653Y-112922534D01*
X190788653Y-113134415D01*
X191016104Y-113134415D01*
G37*
G36*
X191432538Y-114094900D02*
G01*
X191432538Y-113396365D01*
X191579389Y-113396365D01*
X191579389Y-113235165D01*
X191432538Y-113235165D01*
X191438444Y-113173818D01*
X191478662Y-113121332D01*
X191544040Y-113107177D01*
X191574199Y-113106327D01*
X191574199Y-112922534D01*
X191508529Y-112925301D01*
X191431154Y-112937585D01*
X191365375Y-112959665D01*
X191311146Y-112991512D01*
X191259530Y-113045013D01*
X191225799Y-113113675D01*
X191211628Y-113179482D01*
X191208445Y-113235165D01*
X191080523Y-113235165D01*
X191080523Y-113396365D01*
X191208445Y-113396365D01*
X191208445Y-114094900D01*
X191432538Y-114094900D01*
G37*
G36*
X191947890Y-114094900D02*
G01*
X191947890Y-113396365D01*
X192094741Y-113396365D01*
X192094741Y-113235165D01*
X191947890Y-113235165D01*
X191953796Y-113173818D01*
X191994014Y-113121332D01*
X192059392Y-113107177D01*
X192089551Y-113106327D01*
X192089551Y-112922534D01*
X192023882Y-112925301D01*
X191946506Y-112937585D01*
X191880727Y-112959665D01*
X191826498Y-112991512D01*
X191774883Y-113045013D01*
X191741151Y-113113675D01*
X191726981Y-113179482D01*
X191723798Y-113235165D01*
X191595875Y-113235165D01*
X191595875Y-113396365D01*
X191723798Y-113396365D01*
X191723798Y-114094900D01*
X191947890Y-114094900D01*
G37*
G36*
X192516641Y-113216128D02*
G01*
X192585438Y-113223655D01*
X192647591Y-113240186D01*
X192719989Y-113276176D01*
X192780246Y-113328036D01*
X192817356Y-113377297D01*
X192847449Y-113435408D01*
X192870446Y-113502334D01*
X192886267Y-113578043D01*
X192894830Y-113662501D01*
X192896469Y-113723650D01*
X192303264Y-113723650D01*
X192311303Y-113780161D01*
X192332875Y-113838027D01*
X192373110Y-113889945D01*
X192427928Y-113922826D01*
X192495605Y-113934310D01*
X192560770Y-113924057D01*
X192617720Y-113890994D01*
X192649783Y-113838139D01*
X192884256Y-113838139D01*
X192873377Y-113870373D01*
X192845626Y-113929279D01*
X192810343Y-113980552D01*
X192756489Y-114033511D01*
X192692804Y-114073625D01*
X192635501Y-114096125D01*
X192573146Y-114109817D01*
X192506291Y-114114439D01*
X192429352Y-114110298D01*
X192359967Y-114097894D01*
X192298139Y-114077256D01*
X192243871Y-114048413D01*
X192183279Y-113997241D01*
X192136140Y-113931600D01*
X192109618Y-113872915D01*
X192090669Y-113806159D01*
X192079298Y-113731359D01*
X192075507Y-113648546D01*
X192077283Y-113600616D01*
X192080072Y-113580158D01*
X192310286Y-113580158D01*
X192661995Y-113580158D01*
X192661419Y-113568697D01*
X192645366Y-113498971D01*
X192605667Y-113441512D01*
X192549940Y-113407351D01*
X192485225Y-113396060D01*
X192460089Y-113397838D01*
X192399004Y-113419376D01*
X192350370Y-113463847D01*
X192321808Y-113520087D01*
X192310286Y-113580158D01*
X192080072Y-113580158D01*
X192086512Y-113532929D01*
X192103443Y-113470649D01*
X192127876Y-113414181D01*
X192171780Y-113348631D01*
X192228196Y-113295092D01*
X192296651Y-113254522D01*
X192355609Y-113233182D01*
X192420874Y-113220082D01*
X192492247Y-113215625D01*
X192516641Y-113216128D01*
G37*
G36*
X193201772Y-114094900D02*
G01*
X193201772Y-113650072D01*
X193208979Y-113580094D01*
X193235747Y-113516554D01*
X193282526Y-113472635D01*
X193349563Y-113448472D01*
X193409989Y-113443382D01*
X193470908Y-113448262D01*
X193472882Y-113448572D01*
X193472882Y-113215625D01*
X193443267Y-113215625D01*
X193374746Y-113219098D01*
X193308857Y-113235394D01*
X193253905Y-113267101D01*
X193209175Y-113311942D01*
X193187728Y-113341716D01*
X193187728Y-113235165D01*
X192974321Y-113235165D01*
X192974321Y-114094900D01*
X193201772Y-114094900D01*
G37*
G36*
X193763531Y-114094900D02*
G01*
X193763531Y-112922534D01*
X193536080Y-112922534D01*
X193536080Y-114094900D01*
X193763531Y-114094900D01*
G37*
G36*
X194407416Y-114113523D02*
G01*
X194399915Y-114176138D01*
X194374685Y-114235727D01*
X194329401Y-114283659D01*
X194272744Y-114307252D01*
X194249879Y-114309223D01*
X194189182Y-114302402D01*
X194127788Y-114273302D01*
X194088718Y-114223515D01*
X194071974Y-114155417D01*
X194071277Y-114135810D01*
X193859701Y-114135810D01*
X193863063Y-114198397D01*
X193877986Y-114273802D01*
X193904804Y-114339534D01*
X193943478Y-114395071D01*
X193993968Y-114439891D01*
X194056236Y-114473472D01*
X194130241Y-114495290D01*
X194193424Y-114503621D01*
X194239194Y-114505227D01*
X194319570Y-114498645D01*
X194394140Y-114479129D01*
X194461390Y-114447026D01*
X194519806Y-114402684D01*
X194567875Y-114346449D01*
X194604084Y-114278668D01*
X194622547Y-114220465D01*
X194632849Y-114156109D01*
X194634867Y-114109859D01*
X194634867Y-113235165D01*
X194407416Y-113235165D01*
X194407416Y-113752654D01*
X194394593Y-113815971D01*
X194358644Y-113866265D01*
X194303346Y-113899443D01*
X194242058Y-113911216D01*
X194232477Y-113911412D01*
X194169069Y-113901375D01*
X194115100Y-113860842D01*
X194090726Y-113798118D01*
X194087152Y-113752654D01*
X194087152Y-113235165D01*
X193859701Y-113235165D01*
X193859701Y-113785322D01*
X193865838Y-113852357D01*
X193883553Y-113912648D01*
X193920386Y-113977497D01*
X193971637Y-114029432D01*
X194035264Y-114067131D01*
X194093706Y-114086153D01*
X194157718Y-114094543D01*
X194174469Y-114094900D01*
X194242307Y-114088516D01*
X194303436Y-114069954D01*
X194360976Y-114034959D01*
X194400792Y-113986526D01*
X194407416Y-113972473D01*
X194407416Y-114113523D01*
G37*
G36*
X195450028Y-114094900D02*
G01*
X195450028Y-113909580D01*
X194998484Y-113909580D01*
X195437815Y-113418957D01*
X195437815Y-113235165D01*
X194737754Y-113235165D01*
X194737754Y-113415599D01*
X195147166Y-113415599D01*
X194707835Y-113919961D01*
X194707835Y-114094900D01*
X195450028Y-114094900D01*
G37*
G36*
X195903068Y-113216128D02*
G01*
X195971865Y-113223655D01*
X196034018Y-113240186D01*
X196106416Y-113276176D01*
X196166673Y-113328036D01*
X196203783Y-113377297D01*
X196233876Y-113435408D01*
X196256873Y-113502334D01*
X196272694Y-113578043D01*
X196281257Y-113662501D01*
X196282896Y-113723650D01*
X195689691Y-113723650D01*
X195697730Y-113780161D01*
X195719302Y-113838027D01*
X195759537Y-113889945D01*
X195814355Y-113922826D01*
X195882032Y-113934310D01*
X195947197Y-113924057D01*
X196004147Y-113890994D01*
X196036210Y-113838139D01*
X196270684Y-113838139D01*
X196259804Y-113870373D01*
X196232053Y-113929279D01*
X196196770Y-113980552D01*
X196142916Y-114033511D01*
X196079231Y-114073625D01*
X196021928Y-114096125D01*
X195959573Y-114109817D01*
X195892718Y-114114439D01*
X195815779Y-114110298D01*
X195746394Y-114097894D01*
X195684566Y-114077256D01*
X195630299Y-114048413D01*
X195569707Y-113997241D01*
X195522567Y-113931600D01*
X195496045Y-113872915D01*
X195477097Y-113806159D01*
X195465725Y-113731359D01*
X195461934Y-113648546D01*
X195463710Y-113600616D01*
X195466499Y-113580158D01*
X195696713Y-113580158D01*
X196048423Y-113580158D01*
X196047846Y-113568697D01*
X196031793Y-113498971D01*
X195992094Y-113441512D01*
X195936367Y-113407351D01*
X195871652Y-113396060D01*
X195846516Y-113397838D01*
X195785431Y-113419376D01*
X195736797Y-113463847D01*
X195708235Y-113520087D01*
X195696713Y-113580158D01*
X195466499Y-113580158D01*
X195472939Y-113532929D01*
X195489870Y-113470649D01*
X195514303Y-113414181D01*
X195558207Y-113348631D01*
X195614623Y-113295092D01*
X195683078Y-113254522D01*
X195742036Y-113233182D01*
X195807301Y-113220082D01*
X195878674Y-113215625D01*
X195903068Y-113216128D01*
G37*
G36*
X196588199Y-114094900D02*
G01*
X196588199Y-113650072D01*
X196595406Y-113580094D01*
X196622174Y-113516554D01*
X196668953Y-113472635D01*
X196735990Y-113448472D01*
X196796416Y-113443382D01*
X196857335Y-113448262D01*
X196859309Y-113448572D01*
X196859309Y-113215625D01*
X196829694Y-113215625D01*
X196761173Y-113219098D01*
X196695284Y-113235394D01*
X196640332Y-113267101D01*
X196595602Y-113311942D01*
X196574155Y-113341716D01*
X196574155Y-113235165D01*
X196360748Y-113235165D01*
X196360748Y-114094900D01*
X196588199Y-114094900D01*
G37*
G36*
X197011350Y-114094900D02*
G01*
X197011350Y-113858900D01*
X196768023Y-113858900D01*
X196768023Y-114094900D01*
X197011350Y-114094900D01*
G37*
G36*
X189393651Y-115042701D02*
G01*
X189477939Y-115052004D01*
X189556565Y-115072122D01*
X189628870Y-115102653D01*
X189694195Y-115143197D01*
X189751880Y-115193351D01*
X189801266Y-115252715D01*
X189841692Y-115320886D01*
X189872499Y-115397463D01*
X189893029Y-115482046D01*
X189900679Y-115542682D01*
X189903272Y-115606580D01*
X189900939Y-115670744D01*
X189888923Y-115761735D01*
X189867132Y-115845852D01*
X189836068Y-115922458D01*
X189796231Y-115990917D01*
X189748122Y-116050591D01*
X189692243Y-116100843D01*
X189629095Y-116141037D01*
X189559180Y-116170536D01*
X189482997Y-116188703D01*
X189401048Y-116194900D01*
X188914394Y-116194900D01*
X188914394Y-115997368D01*
X189150699Y-115997368D01*
X189351894Y-115997368D01*
X189371405Y-115996983D01*
X189442472Y-115987746D01*
X189502644Y-115966230D01*
X189563070Y-115922141D01*
X189600007Y-115873171D01*
X189627188Y-115812073D01*
X189644963Y-115738895D01*
X189652332Y-115676112D01*
X189654755Y-115606580D01*
X189652315Y-115537663D01*
X189641164Y-115458124D01*
X189620445Y-115392133D01*
X189580185Y-115327761D01*
X189522886Y-115282396D01*
X189463999Y-115258981D01*
X189392871Y-115246346D01*
X189331134Y-115243574D01*
X189150699Y-115243574D01*
X189150699Y-115997368D01*
X188914394Y-115997368D01*
X188914394Y-115042073D01*
X189364412Y-115042073D01*
X189393651Y-115042701D01*
G37*
G36*
X190402719Y-115316128D02*
G01*
X190471516Y-115323655D01*
X190533669Y-115340186D01*
X190606067Y-115376176D01*
X190666324Y-115428036D01*
X190703434Y-115477297D01*
X190733527Y-115535408D01*
X190756524Y-115602334D01*
X190772345Y-115678043D01*
X190780908Y-115762501D01*
X190782547Y-115823650D01*
X190189342Y-115823650D01*
X190197381Y-115880161D01*
X190218953Y-115938027D01*
X190259188Y-115989945D01*
X190314006Y-116022826D01*
X190381683Y-116034310D01*
X190446848Y-116024057D01*
X190503798Y-115990994D01*
X190535861Y-115938139D01*
X190770335Y-115938139D01*
X190759455Y-115970373D01*
X190731704Y-116029279D01*
X190696421Y-116080552D01*
X190642567Y-116133511D01*
X190578882Y-116173625D01*
X190521579Y-116196125D01*
X190459224Y-116209817D01*
X190392369Y-116214439D01*
X190315430Y-116210298D01*
X190246045Y-116197894D01*
X190184218Y-116177256D01*
X190129950Y-116148413D01*
X190069358Y-116097241D01*
X190022218Y-116031600D01*
X189995696Y-115972915D01*
X189976748Y-115906159D01*
X189965377Y-115831359D01*
X189961585Y-115748546D01*
X189963361Y-115700616D01*
X189966150Y-115680158D01*
X190196364Y-115680158D01*
X190548074Y-115680158D01*
X190547497Y-115668697D01*
X190531444Y-115598971D01*
X190491745Y-115541512D01*
X190436018Y-115507351D01*
X190371303Y-115496060D01*
X190346167Y-115497838D01*
X190285082Y-115519376D01*
X190236448Y-115563847D01*
X190207886Y-115620087D01*
X190196364Y-115680158D01*
X189966150Y-115680158D01*
X189972590Y-115632929D01*
X189989521Y-115570649D01*
X190013954Y-115514181D01*
X190057858Y-115448631D01*
X190114274Y-115395092D01*
X190182729Y-115354522D01*
X190241687Y-115333182D01*
X190306952Y-115320082D01*
X190378325Y-115315625D01*
X190402719Y-115316128D01*
G37*
G36*
X191597097Y-115597726D02*
G01*
X191587766Y-115532836D01*
X191562286Y-115463222D01*
X191520674Y-115406659D01*
X191462089Y-115363439D01*
X191402437Y-115338669D01*
X191330958Y-115322777D01*
X191269328Y-115316774D01*
X191224321Y-115315625D01*
X191154715Y-115318476D01*
X191093378Y-115326774D01*
X191023925Y-115345656D01*
X190967884Y-115372645D01*
X190915572Y-115416409D01*
X190881627Y-115469670D01*
X190864610Y-115530668D01*
X190861926Y-115570248D01*
X190869134Y-115631620D01*
X190896744Y-115693310D01*
X190942802Y-115742178D01*
X190970614Y-115761674D01*
X191027776Y-115791084D01*
X191091248Y-115814267D01*
X191160036Y-115834145D01*
X191231098Y-115852102D01*
X191257599Y-115858455D01*
X191322280Y-115876293D01*
X191378644Y-115909347D01*
X191395902Y-115954931D01*
X191368950Y-116011023D01*
X191308061Y-116037087D01*
X191243555Y-116043164D01*
X191177509Y-116036517D01*
X191118873Y-116013416D01*
X191074492Y-115963211D01*
X191064953Y-115915241D01*
X190830479Y-115915241D01*
X190838515Y-115978324D01*
X190859674Y-116035793D01*
X190893656Y-116086787D01*
X190940160Y-116130442D01*
X190998885Y-116165897D01*
X191069532Y-116192290D01*
X191130160Y-116205619D01*
X191197197Y-116213001D01*
X191245387Y-116214439D01*
X191311243Y-116211658D01*
X191389583Y-116199504D01*
X191456912Y-116178069D01*
X191513023Y-116147756D01*
X191567071Y-116097997D01*
X191602860Y-116035789D01*
X191619987Y-115961921D01*
X191621521Y-115929285D01*
X191614354Y-115864060D01*
X191589183Y-115805320D01*
X191546831Y-115760830D01*
X191488271Y-115727871D01*
X191479860Y-115724427D01*
X191417941Y-115704043D01*
X191354714Y-115686952D01*
X191294689Y-115671619D01*
X191231661Y-115654926D01*
X191222489Y-115652375D01*
X191161486Y-115633394D01*
X191105857Y-115604613D01*
X191082660Y-115555899D01*
X191117808Y-115502128D01*
X191179836Y-115487211D01*
X191217299Y-115485679D01*
X191284256Y-115491618D01*
X191341011Y-115518191D01*
X191373862Y-115577051D01*
X191378194Y-115599252D01*
X191597097Y-115597726D01*
G37*
G36*
X191918581Y-116194900D02*
G01*
X191918581Y-115335165D01*
X191691130Y-115335165D01*
X191691130Y-116194900D01*
X191918581Y-116194900D01*
G37*
G36*
X191918581Y-115234415D02*
G01*
X191918581Y-115022534D01*
X191691130Y-115022534D01*
X191691130Y-115234415D01*
X191918581Y-115234415D01*
G37*
G36*
X192400482Y-115316119D02*
G01*
X192465041Y-115325623D01*
X192528945Y-115351297D01*
X192582777Y-115392771D01*
X192622001Y-115442021D01*
X192622001Y-115335165D01*
X192849452Y-115335165D01*
X192849452Y-116196731D01*
X192848902Y-116221541D01*
X192840863Y-116291421D01*
X192823770Y-116354434D01*
X192788077Y-116427676D01*
X192739123Y-116488485D01*
X192678530Y-116536733D01*
X192607918Y-116572290D01*
X192549359Y-116590552D01*
X192486761Y-116601550D01*
X192420806Y-116605227D01*
X192376580Y-116603622D01*
X192313382Y-116595295D01*
X192235856Y-116573499D01*
X192167249Y-116539973D01*
X192108892Y-116495254D01*
X192062117Y-116439879D01*
X192028254Y-116374384D01*
X192008634Y-116299306D01*
X192004066Y-116237031D01*
X192215947Y-116237031D01*
X192217897Y-116266252D01*
X192236842Y-116324859D01*
X192280772Y-116374095D01*
X192336144Y-116400230D01*
X192404930Y-116409223D01*
X192469744Y-116401507D01*
X192526608Y-116379180D01*
X192579085Y-116336309D01*
X192612302Y-116277183D01*
X192622001Y-116215050D01*
X192622001Y-116072473D01*
X192615396Y-116086526D01*
X192575827Y-116134959D01*
X192518184Y-116169954D01*
X192456024Y-116188516D01*
X192385696Y-116194900D01*
X192310748Y-116189382D01*
X192245156Y-116173525D01*
X192188486Y-116148371D01*
X192126056Y-116102173D01*
X192077692Y-116043775D01*
X192042366Y-115975647D01*
X192019052Y-115900263D01*
X192006723Y-115820094D01*
X192004512Y-115768696D01*
X192240371Y-115768696D01*
X192240611Y-115782730D01*
X192248715Y-115847806D01*
X192272346Y-115913682D01*
X192309162Y-115964681D01*
X192365978Y-116003187D01*
X192434544Y-116016602D01*
X192444826Y-116016336D01*
X192511557Y-116000106D01*
X192566542Y-115960516D01*
X192601591Y-115909879D01*
X192623092Y-115845480D01*
X192629023Y-115782434D01*
X192628264Y-115748991D01*
X192619728Y-115675217D01*
X192596956Y-115604997D01*
X192560505Y-115554406D01*
X192500674Y-115519711D01*
X192434544Y-115510409D01*
X192400267Y-115512635D01*
X192332960Y-115535263D01*
X192283678Y-115582577D01*
X192256043Y-115643042D01*
X192243480Y-115707634D01*
X192240371Y-115768696D01*
X192004512Y-115768696D01*
X192004066Y-115758315D01*
X192008396Y-115686795D01*
X192020963Y-115620076D01*
X192041133Y-115558648D01*
X192068273Y-115502996D01*
X192114205Y-115438624D01*
X192169896Y-115386546D01*
X192233845Y-115347916D01*
X192304549Y-115323891D01*
X192380506Y-115315625D01*
X192400482Y-115316119D01*
G37*
G36*
X193729031Y-116194900D02*
G01*
X193729031Y-115602305D01*
X193723528Y-115536342D01*
X193702118Y-115465588D01*
X193666201Y-115408108D01*
X193617529Y-115364195D01*
X193557856Y-115334144D01*
X193488938Y-115318247D01*
X193443878Y-115315625D01*
X193382701Y-115319439D01*
X193318587Y-115333893D01*
X193255828Y-115363949D01*
X193205105Y-115407702D01*
X193165441Y-115464613D01*
X193165441Y-115335165D01*
X192948675Y-115335165D01*
X192948675Y-116194900D01*
X193176127Y-116194900D01*
X193176127Y-115702445D01*
X193182237Y-115635608D01*
X193204942Y-115574967D01*
X193251713Y-115528642D01*
X193311116Y-115508321D01*
X193352897Y-115505219D01*
X193414316Y-115511098D01*
X193471152Y-115545118D01*
X193495484Y-115609545D01*
X193499748Y-115674357D01*
X193499748Y-116194900D01*
X193729031Y-116194900D01*
G37*
G36*
X194249544Y-115316128D02*
G01*
X194318341Y-115323655D01*
X194380494Y-115340186D01*
X194452892Y-115376176D01*
X194513149Y-115428036D01*
X194550259Y-115477297D01*
X194580352Y-115535408D01*
X194603349Y-115602334D01*
X194619170Y-115678043D01*
X194627733Y-115762501D01*
X194629372Y-115823650D01*
X194036167Y-115823650D01*
X194044206Y-115880161D01*
X194065778Y-115938027D01*
X194106013Y-115989945D01*
X194160831Y-116022826D01*
X194228508Y-116034310D01*
X194293673Y-116024057D01*
X194350623Y-115990994D01*
X194382686Y-115938139D01*
X194617159Y-115938139D01*
X194606280Y-115970373D01*
X194578529Y-116029279D01*
X194543246Y-116080552D01*
X194489392Y-116133511D01*
X194425707Y-116173625D01*
X194368404Y-116196125D01*
X194306049Y-116209817D01*
X194239194Y-116214439D01*
X194162255Y-116210298D01*
X194092870Y-116197894D01*
X194031042Y-116177256D01*
X193976774Y-116148413D01*
X193916182Y-116097241D01*
X193869043Y-116031600D01*
X193842521Y-115972915D01*
X193823572Y-115906159D01*
X193812201Y-115831359D01*
X193808410Y-115748546D01*
X193810186Y-115700616D01*
X193812975Y-115680158D01*
X194043189Y-115680158D01*
X194394898Y-115680158D01*
X194394322Y-115668697D01*
X194378269Y-115598971D01*
X194338570Y-115541512D01*
X194282843Y-115507351D01*
X194218128Y-115496060D01*
X194192992Y-115497838D01*
X194131907Y-115519376D01*
X194083273Y-115563847D01*
X194054711Y-115620087D01*
X194043189Y-115680158D01*
X193812975Y-115680158D01*
X193819415Y-115632929D01*
X193836346Y-115570649D01*
X193860779Y-115514181D01*
X193904683Y-115448631D01*
X193961099Y-115395092D01*
X194029554Y-115354522D01*
X194088512Y-115333182D01*
X194153777Y-115320082D01*
X194225150Y-115315625D01*
X194249544Y-115316128D01*
G37*
G36*
X195522690Y-116194900D02*
G01*
X195303787Y-116194900D01*
X195302261Y-116086822D01*
X195291764Y-116102695D01*
X195250218Y-116149621D01*
X195193694Y-116187289D01*
X195127689Y-116208618D01*
X195062292Y-116214439D01*
X194983951Y-116206523D01*
X194912469Y-116183226D01*
X194848951Y-116145225D01*
X194794503Y-116093195D01*
X194750229Y-116027813D01*
X194724367Y-115970421D01*
X194705317Y-115906184D01*
X194693544Y-115835387D01*
X194690234Y-115772054D01*
X194920631Y-115772054D01*
X194920866Y-115786142D01*
X194928818Y-115852123D01*
X194952123Y-115920072D01*
X194988662Y-115973572D01*
X195045504Y-116014616D01*
X195114804Y-116029120D01*
X195124919Y-116028828D01*
X195190758Y-116011236D01*
X195245245Y-115968990D01*
X195280094Y-115915876D01*
X195301527Y-115849541D01*
X195307451Y-115785793D01*
X195305747Y-115736383D01*
X195295367Y-115664921D01*
X195275630Y-115607032D01*
X195239700Y-115555424D01*
X195181068Y-115519743D01*
X195116636Y-115510104D01*
X195069996Y-115514222D01*
X195012192Y-115535808D01*
X194962843Y-115584275D01*
X194935719Y-115645694D01*
X194923594Y-115710835D01*
X194920631Y-115772054D01*
X194690234Y-115772054D01*
X194689516Y-115758315D01*
X194691045Y-115710679D01*
X194698978Y-115642873D01*
X194713502Y-115579923D01*
X194742775Y-115504472D01*
X194782939Y-115439884D01*
X194833522Y-115387431D01*
X194894051Y-115348388D01*
X194964053Y-115324028D01*
X195043058Y-115315625D01*
X195082063Y-115317692D01*
X195145285Y-115331334D01*
X195202295Y-115357900D01*
X195253322Y-115397581D01*
X195298597Y-115450569D01*
X195298597Y-115022534D01*
X195522690Y-115022534D01*
X195522690Y-116194900D01*
G37*
G36*
X189143677Y-117550569D02*
G01*
X189168870Y-117518650D01*
X189217462Y-117473289D01*
X189271936Y-117441126D01*
X189332463Y-117421968D01*
X189399216Y-117415625D01*
X189459295Y-117420380D01*
X189531593Y-117440853D01*
X189594534Y-117476289D01*
X189647648Y-117525394D01*
X189690461Y-117586874D01*
X189722501Y-117659431D01*
X189739177Y-117720341D01*
X189749330Y-117786207D01*
X189752758Y-117856484D01*
X189748730Y-117934023D01*
X189736958Y-118005201D01*
X189717907Y-118069741D01*
X189692045Y-118127366D01*
X189647772Y-118192966D01*
X189593323Y-118245128D01*
X189529805Y-118283198D01*
X189458323Y-118306520D01*
X189379982Y-118314439D01*
X189360580Y-118313969D01*
X189297263Y-118304866D01*
X189233721Y-118280027D01*
X189179695Y-118239459D01*
X189140319Y-118190791D01*
X189138487Y-118294900D01*
X188919890Y-118294900D01*
X188919890Y-117885793D01*
X189135129Y-117885793D01*
X189135373Y-117899089D01*
X189143591Y-117961419D01*
X189167409Y-118025707D01*
X189204228Y-118076399D01*
X189260473Y-118115342D01*
X189327470Y-118129120D01*
X189358574Y-118126391D01*
X189422966Y-118100060D01*
X189467261Y-118057488D01*
X189499545Y-117998913D01*
X189515940Y-117939557D01*
X189521643Y-117872054D01*
X189520904Y-117840434D01*
X189512538Y-117770230D01*
X189490013Y-117702714D01*
X189453593Y-117653515D01*
X189393156Y-117619365D01*
X189325638Y-117610104D01*
X189291874Y-117612512D01*
X189225715Y-117636903D01*
X189177416Y-117687668D01*
X189150407Y-117752259D01*
X189138156Y-117821003D01*
X189135129Y-117885793D01*
X188919890Y-117885793D01*
X188919890Y-117122534D01*
X189143677Y-117122534D01*
X189143677Y-117550569D01*
G37*
G36*
X190384736Y-118313523D02*
G01*
X190377236Y-118376138D01*
X190352005Y-118435727D01*
X190306721Y-118483659D01*
X190250064Y-118507252D01*
X190227200Y-118509223D01*
X190166503Y-118502402D01*
X190105108Y-118473302D01*
X190066039Y-118423515D01*
X190049295Y-118355417D01*
X190048597Y-118335810D01*
X189837022Y-118335810D01*
X189840384Y-118398397D01*
X189855306Y-118473802D01*
X189882124Y-118539534D01*
X189920798Y-118595071D01*
X189971288Y-118639891D01*
X190033556Y-118673472D01*
X190107561Y-118695290D01*
X190170744Y-118703621D01*
X190216514Y-118705227D01*
X190296890Y-118698645D01*
X190371460Y-118679129D01*
X190438710Y-118647026D01*
X190497126Y-118602684D01*
X190545195Y-118546449D01*
X190581404Y-118478668D01*
X190599867Y-118420465D01*
X190610169Y-118356109D01*
X190612187Y-118309859D01*
X190612187Y-117435165D01*
X190384736Y-117435165D01*
X190384736Y-117952654D01*
X190371913Y-118015971D01*
X190335964Y-118066265D01*
X190280666Y-118099443D01*
X190219378Y-118111216D01*
X190209797Y-118111412D01*
X190146390Y-118101375D01*
X190092420Y-118060842D01*
X190068046Y-117998118D01*
X190064473Y-117952654D01*
X190064473Y-117435165D01*
X189837022Y-117435165D01*
X189837022Y-117985322D01*
X189843159Y-118052357D01*
X189860873Y-118112648D01*
X189897706Y-118177497D01*
X189948957Y-118229432D01*
X190012584Y-118267131D01*
X190071026Y-118286153D01*
X190135038Y-118294543D01*
X190151790Y-118294900D01*
X190219627Y-118288516D01*
X190280756Y-118269954D01*
X190338296Y-118234959D01*
X190378112Y-118186526D01*
X190384736Y-118172473D01*
X190384736Y-118313523D01*
G37*
G36*
X190041575Y-120394900D02*
G01*
X190041575Y-119242073D01*
X189691697Y-119242073D01*
X189481648Y-120087764D01*
X189271599Y-119242073D01*
X188914394Y-119242073D01*
X188914394Y-120394900D01*
X189140319Y-120394900D01*
X189140319Y-119608743D01*
X189355558Y-120394900D01*
X189597053Y-120394900D01*
X189814124Y-119605079D01*
X189814124Y-120394900D01*
X190041575Y-120394900D01*
G37*
G36*
X190368860Y-120394900D02*
G01*
X190368860Y-119535165D01*
X190141409Y-119535165D01*
X190141409Y-120394900D01*
X190368860Y-120394900D01*
G37*
G36*
X190368860Y-119434415D02*
G01*
X190368860Y-119222534D01*
X190141409Y-119222534D01*
X190141409Y-119434415D01*
X190368860Y-119434415D01*
G37*
G36*
X190960233Y-120050212D02*
G01*
X190954115Y-120113086D01*
X190927795Y-120173287D01*
X190873190Y-120210602D01*
X190827121Y-120216908D01*
X190761354Y-120202449D01*
X190715951Y-120154421D01*
X190698719Y-120093874D01*
X190695841Y-120046853D01*
X190695841Y-119696365D01*
X191172114Y-119696365D01*
X191172114Y-119535165D01*
X190695841Y-119535165D01*
X190695841Y-119300692D01*
X190472053Y-119300692D01*
X190472053Y-120069446D01*
X190476822Y-120137126D01*
X190491545Y-120201017D01*
X190516843Y-120259506D01*
X190553340Y-120310979D01*
X190601658Y-120353822D01*
X190662419Y-120386423D01*
X190736247Y-120407166D01*
X190800566Y-120413972D01*
X190823763Y-120414439D01*
X190888579Y-120410268D01*
X190963940Y-120392594D01*
X191027018Y-120362632D01*
X191078203Y-120322078D01*
X191117883Y-120272628D01*
X191146451Y-120215978D01*
X191164295Y-120153823D01*
X191171805Y-120087860D01*
X191172114Y-120070972D01*
X191172114Y-119828256D01*
X190960233Y-119828256D01*
X190960233Y-120050212D01*
G37*
G36*
X191810504Y-120080437D02*
G01*
X191793068Y-120142270D01*
X191750965Y-120191616D01*
X191690429Y-120218693D01*
X191642587Y-120223930D01*
X191578564Y-120207023D01*
X191530848Y-120164259D01*
X191499522Y-120106581D01*
X191482223Y-120043544D01*
X191474593Y-119966778D01*
X191474365Y-119949767D01*
X191477938Y-119886214D01*
X191491698Y-119822045D01*
X191519998Y-119765495D01*
X191566214Y-119724500D01*
X191631742Y-119705634D01*
X191649609Y-119704913D01*
X191716296Y-119717022D01*
X191768787Y-119751933D01*
X191802885Y-119807530D01*
X191812336Y-119846574D01*
X192041619Y-119846574D01*
X192029999Y-119774063D01*
X192006194Y-119709212D01*
X191970983Y-119652639D01*
X191925145Y-119604965D01*
X191869462Y-119566807D01*
X191804713Y-119538785D01*
X191731677Y-119521518D01*
X191651135Y-119515625D01*
X191585406Y-119519212D01*
X191524324Y-119530085D01*
X191450797Y-119556213D01*
X191387179Y-119596002D01*
X191334410Y-119649857D01*
X191293432Y-119718182D01*
X191271002Y-119779166D01*
X191256130Y-119848687D01*
X191249214Y-119926916D01*
X191248745Y-119954957D01*
X191252916Y-120036484D01*
X191265139Y-120110164D01*
X191284984Y-120175961D01*
X191312018Y-120233836D01*
X191358502Y-120298614D01*
X191415976Y-120349153D01*
X191483419Y-120385364D01*
X191559805Y-120407155D01*
X191622350Y-120413983D01*
X191644113Y-120414439D01*
X191719982Y-120408264D01*
X191790473Y-120390287D01*
X191854503Y-120361325D01*
X191910987Y-120322199D01*
X191958841Y-120273728D01*
X191996982Y-120216731D01*
X192024325Y-120152028D01*
X192039787Y-120080437D01*
X191810504Y-120080437D01*
G37*
G36*
X192886394Y-120394900D02*
G01*
X192886394Y-119790093D01*
X192880788Y-119729213D01*
X192858856Y-119662650D01*
X192821795Y-119607456D01*
X192771164Y-119564453D01*
X192708521Y-119534468D01*
X192635424Y-119518325D01*
X192587196Y-119515625D01*
X192523780Y-119521486D01*
X192464981Y-119538036D01*
X192405455Y-119568795D01*
X192359370Y-119609547D01*
X192333489Y-119650569D01*
X192333489Y-119222534D01*
X192106038Y-119222534D01*
X192106038Y-120394900D01*
X192333489Y-120394900D01*
X192333489Y-119904582D01*
X192340044Y-119842824D01*
X192363830Y-119780110D01*
X192404284Y-119731850D01*
X192460659Y-119702666D01*
X192510260Y-119696060D01*
X192576739Y-119704317D01*
X192630712Y-119742663D01*
X192652401Y-119801306D01*
X192657111Y-119864587D01*
X192657111Y-120394900D01*
X192886394Y-120394900D01*
G37*
G36*
X189437685Y-122748912D02*
G01*
X189399687Y-122678692D01*
X189365386Y-122607717D01*
X189334790Y-122536085D01*
X189307908Y-122463894D01*
X189284749Y-122391242D01*
X189265322Y-122318227D01*
X189249636Y-122244948D01*
X189237701Y-122171502D01*
X189229525Y-122097988D01*
X189225118Y-122024503D01*
X189224277Y-121975578D01*
X189226168Y-121902865D01*
X189231832Y-121830407D01*
X189241262Y-121758284D01*
X189254449Y-121686573D01*
X189271382Y-121615353D01*
X189292054Y-121544702D01*
X189316455Y-121474700D01*
X189344577Y-121405424D01*
X189376409Y-121336953D01*
X189411943Y-121269365D01*
X189437685Y-121224837D01*
X189271599Y-121224837D01*
X189220603Y-121286675D01*
X189174906Y-121350948D01*
X189134447Y-121417403D01*
X189099163Y-121485785D01*
X189068993Y-121555842D01*
X189043875Y-121627320D01*
X189023747Y-121699966D01*
X189008547Y-121773524D01*
X188998213Y-121847743D01*
X188992684Y-121922369D01*
X188991636Y-121972220D01*
X188994209Y-122050441D01*
X189001880Y-122128445D01*
X189014580Y-122205922D01*
X189032240Y-122282558D01*
X189054791Y-122358041D01*
X189082162Y-122432058D01*
X189114285Y-122504297D01*
X189151090Y-122574445D01*
X189192508Y-122642191D01*
X189238469Y-122707221D01*
X189271599Y-122748912D01*
X189437685Y-122748912D01*
G37*
G36*
X189995779Y-122494900D02*
G01*
X190305663Y-121635165D01*
X190065999Y-121635165D01*
X189883733Y-122203335D01*
X189703604Y-121635165D01*
X189449897Y-121635165D01*
X189757948Y-122494900D01*
X189995779Y-122494900D01*
G37*
G36*
X190793843Y-122494900D02*
G01*
X190793843Y-121342073D01*
X190608524Y-121342073D01*
X190594554Y-121408741D01*
X190560004Y-121468890D01*
X190500976Y-121510178D01*
X190441022Y-121528198D01*
X190364153Y-121536712D01*
X190328255Y-121537468D01*
X190328255Y-121695004D01*
X190566392Y-121695004D01*
X190566392Y-122494900D01*
X190793843Y-122494900D01*
G37*
G36*
X191019462Y-122748912D02*
G01*
X191068413Y-122685866D01*
X191112868Y-122619895D01*
X191152756Y-122551314D01*
X191188008Y-122480434D01*
X191218555Y-122407567D01*
X191244327Y-122333027D01*
X191265255Y-122257125D01*
X191281270Y-122180174D01*
X191292301Y-122102487D01*
X191298281Y-122024376D01*
X191299426Y-121972220D01*
X191297065Y-121897464D01*
X191289941Y-121822946D01*
X191277992Y-121748919D01*
X191261156Y-121675636D01*
X191239371Y-121603352D01*
X191212576Y-121532320D01*
X191180709Y-121462793D01*
X191143707Y-121395024D01*
X191101508Y-121329269D01*
X191054052Y-121265779D01*
X191019462Y-121224837D01*
X190853072Y-121224837D01*
X190891147Y-121291792D01*
X190925512Y-121359682D01*
X190956158Y-121428430D01*
X190983079Y-121497957D01*
X191006267Y-121568184D01*
X191025714Y-121639033D01*
X191041413Y-121710426D01*
X191053356Y-121782283D01*
X191061535Y-121854527D01*
X191065944Y-121927078D01*
X191066784Y-121975578D01*
X191064894Y-122048988D01*
X191059227Y-122122494D01*
X191049793Y-122195996D01*
X191036597Y-122269398D01*
X191019648Y-122342600D01*
X190998953Y-122415504D01*
X190974520Y-122488014D01*
X190946356Y-122560029D01*
X190914470Y-122631453D01*
X190878867Y-122702188D01*
X190853072Y-122748912D01*
X191019462Y-122748912D01*
G37*
D11*
%TO.C,U1*%
X192322200Y-102528800D02*
X191942200Y-102528800D01*
X191942200Y-101788800D01*
X192322200Y-101788800D01*
X192322200Y-102528800D01*
G36*
X192322200Y-102528800D02*
G01*
X191942200Y-102528800D01*
X191942200Y-101788800D01*
X192322200Y-101788800D01*
X192322200Y-102528800D01*
G37*
X192322200Y-105328800D02*
X191942200Y-105328800D01*
X191942200Y-104588800D01*
X192322200Y-104588800D01*
X192322200Y-105328800D01*
G36*
X192322200Y-105328800D02*
G01*
X191942200Y-105328800D01*
X191942200Y-104588800D01*
X192322200Y-104588800D01*
X192322200Y-105328800D01*
G37*
X192822200Y-102528800D02*
X192442200Y-102528800D01*
X192442200Y-101788800D01*
X192822200Y-101788800D01*
X192822200Y-102528800D01*
G36*
X192822200Y-102528800D02*
G01*
X192442200Y-102528800D01*
X192442200Y-101788800D01*
X192822200Y-101788800D01*
X192822200Y-102528800D01*
G37*
X192822200Y-105328800D02*
X192442200Y-105328800D01*
X192442200Y-104588800D01*
X192822200Y-104588800D01*
X192822200Y-105328800D01*
G36*
X192822200Y-105328800D02*
G01*
X192442200Y-105328800D01*
X192442200Y-104588800D01*
X192822200Y-104588800D01*
X192822200Y-105328800D01*
G37*
X193322200Y-102528800D02*
X192942200Y-102528800D01*
X192942200Y-101788800D01*
X193322200Y-101788800D01*
X193322200Y-102528800D01*
G36*
X193322200Y-102528800D02*
G01*
X192942200Y-102528800D01*
X192942200Y-101788800D01*
X193322200Y-101788800D01*
X193322200Y-102528800D01*
G37*
X193322200Y-105328800D02*
X192942200Y-105328800D01*
X192942200Y-104588800D01*
X193322200Y-104588800D01*
X193322200Y-105328800D01*
G36*
X193322200Y-105328800D02*
G01*
X192942200Y-105328800D01*
X192942200Y-104588800D01*
X193322200Y-104588800D01*
X193322200Y-105328800D01*
G37*
X193822200Y-102528800D02*
X193442200Y-102528800D01*
X193442200Y-101788800D01*
X193822200Y-101788800D01*
X193822200Y-102528800D01*
G36*
X193822200Y-102528800D02*
G01*
X193442200Y-102528800D01*
X193442200Y-101788800D01*
X193822200Y-101788800D01*
X193822200Y-102528800D01*
G37*
X193822200Y-105328800D02*
X193442200Y-105328800D01*
X193442200Y-104588800D01*
X193822200Y-104588800D01*
X193822200Y-105328800D01*
G36*
X193822200Y-105328800D02*
G01*
X193442200Y-105328800D01*
X193442200Y-104588800D01*
X193822200Y-104588800D01*
X193822200Y-105328800D01*
G37*
X194322200Y-102528800D02*
X193942200Y-102528800D01*
X193942200Y-101788800D01*
X194322200Y-101788800D01*
X194322200Y-102528800D01*
G36*
X194322200Y-102528800D02*
G01*
X193942200Y-102528800D01*
X193942200Y-101788800D01*
X194322200Y-101788800D01*
X194322200Y-102528800D01*
G37*
X194322200Y-105328800D02*
X193942200Y-105328800D01*
X193942200Y-104588800D01*
X194322200Y-104588800D01*
X194322200Y-105328800D01*
G36*
X194322200Y-105328800D02*
G01*
X193942200Y-105328800D01*
X193942200Y-104588800D01*
X194322200Y-104588800D01*
X194322200Y-105328800D01*
G37*
X194402200Y-103113800D02*
X194902200Y-103113800D01*
X194902200Y-103503800D01*
X194402200Y-103503800D01*
X194402200Y-103613800D01*
X194902200Y-103613800D01*
X194902200Y-104003800D01*
X194402200Y-104003800D01*
X194402200Y-104453800D01*
X191862200Y-104453800D01*
X191862200Y-104003800D01*
X191362200Y-104003800D01*
X191362200Y-103613800D01*
X191862200Y-103613800D01*
X191862200Y-103503800D01*
X191362200Y-103503800D01*
X191362200Y-103113800D01*
X191862200Y-103113800D01*
X191862200Y-102663800D01*
X194402200Y-102663800D01*
X194402200Y-103113800D01*
G36*
X194402200Y-103113800D02*
G01*
X194902200Y-103113800D01*
X194902200Y-103503800D01*
X194402200Y-103503800D01*
X194402200Y-103613800D01*
X194902200Y-103613800D01*
X194902200Y-104003800D01*
X194402200Y-104003800D01*
X194402200Y-104453800D01*
X191862200Y-104453800D01*
X191862200Y-104003800D01*
X191362200Y-104003800D01*
X191362200Y-103613800D01*
X191862200Y-103613800D01*
X191862200Y-103503800D01*
X191362200Y-103503800D01*
X191362200Y-103113800D01*
X191862200Y-103113800D01*
X191862200Y-102663800D01*
X194402200Y-102663800D01*
X194402200Y-103113800D01*
G37*
%TD*%
D12*
%TO.C,U19*%
X196707800Y-129087400D03*
X196707800Y-128437400D03*
X196707800Y-127787400D03*
X194807800Y-127787400D03*
X194807800Y-129087400D03*
%TD*%
%TO.C,U4*%
X196733200Y-140668100D03*
X196733200Y-140018100D03*
X196733200Y-139368100D03*
X194833200Y-139368100D03*
X194833200Y-140668100D03*
%TD*%
D13*
%TO.C,U7*%
X208635600Y-136557900D03*
X208635600Y-137207900D03*
X208635600Y-137857900D03*
X210535600Y-137857900D03*
X210535600Y-136557900D03*
%TD*%
%TO.C,U16*%
X208635600Y-125217400D03*
X208635600Y-125867400D03*
X208635600Y-126517400D03*
X210535600Y-126517400D03*
X210535600Y-125217400D03*
%TD*%
D14*
%TO.C,SW1*%
X191738200Y-108225200D03*
X190938200Y-108225200D03*
X191738200Y-110875200D03*
X190938200Y-110875200D03*
%TD*%
D15*
%TO.C,R7*%
X198932800Y-144426300D03*
X198932800Y-146251300D03*
%TD*%
D16*
%TO.C,U3*%
X193411600Y-109740400D03*
X193911600Y-109740400D03*
X194411600Y-109740400D03*
X194911600Y-109740400D03*
X194911600Y-107340400D03*
X194411600Y-107340400D03*
X193911600Y-107340400D03*
X193411600Y-107340400D03*
D17*
X194161600Y-108540400D03*
%TD*%
D13*
%TO.C,U14*%
X208588600Y-122300940D03*
X208588600Y-122950940D03*
X208588600Y-123600940D03*
X210488600Y-123600940D03*
X210488600Y-122300940D03*
%TD*%
D12*
%TO.C,U6*%
X196743400Y-137795000D03*
X196743400Y-137145000D03*
X196743400Y-136495000D03*
X194843400Y-136495000D03*
X194843400Y-137795000D03*
%TD*%
D18*
%TO.C,J1*%
X192715000Y-149906500D03*
X195215000Y-149906500D03*
X197215000Y-149906500D03*
X199715000Y-149906500D03*
D19*
X189745000Y-151246500D03*
X202685000Y-151246500D03*
%TD*%
D20*
%TO.C,C11*%
X192532000Y-107330200D03*
X192532000Y-106690200D03*
%TD*%
D21*
%TO.C,C10*%
X197360600Y-110744000D03*
X198320600Y-110744000D03*
%TD*%
D22*
%TO.C,Y1*%
X210540600Y-107736100D03*
X210540600Y-106536100D03*
X210540600Y-105336100D03*
%TD*%
D12*
%TO.C,U15*%
X196698370Y-123342430D03*
X196698370Y-122692430D03*
X196698370Y-122042430D03*
X194798370Y-122042430D03*
X194798370Y-123342430D03*
%TD*%
D15*
%TO.C,R9*%
X210845400Y-147956900D03*
X210845400Y-149781900D03*
%TD*%
D23*
%TO.C,C7*%
X197990400Y-105943400D03*
X197030400Y-105943400D03*
%TD*%
D24*
%TO.C,R5*%
X197380400Y-104292400D03*
X198020400Y-104292400D03*
%TD*%
D15*
%TO.C,R8*%
X196951600Y-144428200D03*
X196951600Y-146253200D03*
%TD*%
D12*
%TO.C,U17*%
X196707800Y-126215500D03*
X196707800Y-125565500D03*
X196707800Y-124915500D03*
X194807800Y-124915500D03*
X194807800Y-126215500D03*
%TD*%
D23*
%TO.C,C8*%
X198079800Y-102302700D03*
X197119800Y-102302700D03*
%TD*%
D25*
%TO.C,L1*%
X193209600Y-99466400D03*
X195359600Y-99466400D03*
%TD*%
D26*
%TO.C,R6*%
X194579200Y-111074200D03*
X193939200Y-111074200D03*
%TD*%
D12*
%TO.C,U10*%
X196743400Y-131957600D03*
X196743400Y-131307600D03*
X196743400Y-130657600D03*
X194843400Y-130657600D03*
X194843400Y-131957600D03*
%TD*%
%TO.C,U8*%
X196743400Y-134924800D03*
X196743400Y-134274800D03*
X196743400Y-133624800D03*
X194843400Y-133624800D03*
X194843400Y-134924800D03*
%TD*%
D13*
%TO.C,U9*%
X208620400Y-133736800D03*
X208620400Y-134386800D03*
X208620400Y-135036800D03*
X210520400Y-135036800D03*
X210520400Y-133736800D03*
%TD*%
D21*
%TO.C,C5*%
X197132000Y-103301800D03*
X198092000Y-103301800D03*
%TD*%
D27*
%TO.C,U2*%
X200396800Y-109457100D03*
X200796800Y-109457100D03*
X201196800Y-109457100D03*
X201596800Y-109457100D03*
X201996800Y-109457100D03*
X202396800Y-109457100D03*
X202796800Y-109457100D03*
X203196800Y-109457100D03*
X203596800Y-109457100D03*
X203996800Y-109457100D03*
X204396800Y-109457100D03*
X204796800Y-109457100D03*
X205196800Y-109457100D03*
X205596800Y-109457100D03*
D28*
X206434300Y-108619600D03*
X206434300Y-108219600D03*
X206434300Y-107819600D03*
X206434300Y-107419600D03*
X206434300Y-107019600D03*
X206434300Y-106619600D03*
X206434300Y-106219600D03*
X206434300Y-105819600D03*
X206434300Y-105419600D03*
X206434300Y-105019600D03*
X206434300Y-104619600D03*
X206434300Y-104219600D03*
X206434300Y-103819600D03*
X206434300Y-103419600D03*
D27*
X205596800Y-102582100D03*
X205196800Y-102582100D03*
X204796800Y-102582100D03*
X204396800Y-102582100D03*
X203996800Y-102582100D03*
X203596800Y-102582100D03*
X203196800Y-102582100D03*
X202796800Y-102582100D03*
X202396800Y-102582100D03*
X201996800Y-102582100D03*
X201596800Y-102582100D03*
X201196800Y-102582100D03*
X200796800Y-102582100D03*
X200396800Y-102582100D03*
D28*
X199559300Y-103419600D03*
X199559300Y-103819600D03*
X199559300Y-104219600D03*
X199559300Y-104619600D03*
X199559300Y-105019600D03*
X199559300Y-105419600D03*
X199559300Y-105819600D03*
X199559300Y-106219600D03*
X199559300Y-106619600D03*
X199559300Y-107019600D03*
X199559300Y-107419600D03*
X199559300Y-107819600D03*
X199559300Y-108219600D03*
X199559300Y-108619600D03*
D29*
X202996800Y-106019600D03*
%TD*%
D30*
%TO.C,C4*%
X197307200Y-100772000D03*
X197307200Y-98872000D03*
%TD*%
D13*
%TO.C,U5*%
X208625400Y-139431000D03*
X208625400Y-140081000D03*
X208625400Y-140731000D03*
X210525400Y-140731000D03*
X210525400Y-139431000D03*
%TD*%
D31*
%TO.C,J4*%
X204012800Y-139928600D03*
D32*
X201472800Y-139928600D03*
X204012800Y-137388600D03*
X201472800Y-137388600D03*
X204012800Y-134848600D03*
X201472800Y-134848600D03*
X204012800Y-132308600D03*
X201472800Y-132308600D03*
X204012800Y-129768600D03*
X201472800Y-129768600D03*
X204012800Y-127228600D03*
X201472800Y-127228600D03*
X204012800Y-124688600D03*
X201472800Y-124688600D03*
X204012800Y-122148600D03*
X201472800Y-122148600D03*
X204012800Y-119608600D03*
X201472800Y-119608600D03*
%TD*%
D33*
%TO.C,C9*%
X200390200Y-100188700D03*
X200390200Y-101148700D03*
%TD*%
D34*
%TO.C,R11*%
X194925200Y-95955700D03*
X194925200Y-94130700D03*
%TD*%
D13*
%TO.C,U11*%
X208661000Y-130868300D03*
X208661000Y-131518300D03*
X208661000Y-132168300D03*
X210561000Y-132168300D03*
X210561000Y-130868300D03*
%TD*%
D35*
%TO.C,R10*%
X205845400Y-150088600D03*
X207670400Y-150088600D03*
%TD*%
D36*
%TO.C,J2*%
X204774800Y-94869000D03*
X198994800Y-94869000D03*
D37*
X205084800Y-95944000D03*
X204284800Y-95944000D03*
D38*
X203134800Y-95944000D03*
X202134800Y-95944000D03*
X201634800Y-95944000D03*
X200634800Y-95944000D03*
D37*
X198684800Y-95944000D03*
X199484800Y-95944000D03*
D38*
X200134800Y-95944000D03*
X201134800Y-95944000D03*
X202634800Y-95944000D03*
X203634800Y-95944000D03*
D39*
X206204800Y-95369000D03*
D40*
X206204800Y-91189000D03*
X197564800Y-91189000D03*
D39*
X197564800Y-95369000D03*
%TD*%
D13*
%TO.C,U18*%
X208625000Y-128032340D03*
X208625000Y-128682340D03*
X208625000Y-129332340D03*
X210525000Y-129332340D03*
X210525000Y-128032340D03*
%TD*%
D41*
%TO.C,R2*%
X208035600Y-105327100D03*
X208035600Y-105967100D03*
%TD*%
D42*
%TO.C,C2*%
X191287400Y-98872000D03*
X191287400Y-100772000D03*
%TD*%
D24*
%TO.C,R4*%
X197380400Y-105054400D03*
X198020400Y-105054400D03*
%TD*%
D26*
%TO.C,R3*%
X208787400Y-104224700D03*
X208147400Y-104224700D03*
%TD*%
D12*
%TO.C,U13*%
X196707800Y-120475100D03*
X196707800Y-119825100D03*
X196707800Y-119175100D03*
X194807800Y-119175100D03*
X194807800Y-120475100D03*
%TD*%
D15*
%TO.C,R12*%
X209123800Y-94206900D03*
X209123800Y-96031900D03*
%TD*%
D13*
%TO.C,U12*%
X208595000Y-119385800D03*
X208595000Y-120035800D03*
X208595000Y-120685800D03*
X210495000Y-120685800D03*
X210495000Y-119385800D03*
%TD*%
D41*
%TO.C,R1*%
X190754000Y-104480400D03*
X190754000Y-105120400D03*
%TD*%
D36*
%TO.C,J3*%
X206456800Y-153590200D03*
X212236800Y-153590200D03*
D37*
X206146800Y-152515200D03*
X206946800Y-152515200D03*
D38*
X208096800Y-152515200D03*
X209096800Y-152515200D03*
X209596800Y-152515200D03*
X210596800Y-152515200D03*
D37*
X212546800Y-152515200D03*
X211746800Y-152515200D03*
D38*
X211096800Y-152515200D03*
X210096800Y-152515200D03*
X208596800Y-152515200D03*
X207596800Y-152515200D03*
D39*
X205026800Y-153090200D03*
D40*
X205026800Y-157270200D03*
X213666800Y-157270200D03*
D39*
X213666800Y-153090200D03*
%TD*%
D43*
%TO.C,D2*%
X191236600Y-97033400D03*
X191236600Y-94533400D03*
%TD*%
D20*
%TO.C,C6*%
X203997000Y-101115700D03*
X203997000Y-100475700D03*
%TD*%
D26*
%TO.C,C3*%
X191429600Y-105918000D03*
X190789600Y-105918000D03*
%TD*%
M02*
