%TF.GenerationSoftware,KiCad,Pcbnew,8.0.2*%
%TF.CreationDate,2024-05-20T21:07:15-07:00*%
%TF.ProjectId,snifferlyzer,736e6966-6665-4726-9c79-7a65722e6b69,rev?*%
%TF.SameCoordinates,Original*%
%TF.FileFunction,Copper,L2,Bot*%
%TF.FilePolarity,Positive*%
%FSLAX46Y46*%
G04 Gerber Fmt 4.6, Leading zero omitted, Abs format (unit mm)*
G04 Created by KiCad (PCBNEW 8.0.2) date 2024-05-20 21:07:15*
%MOMM*%
%LPD*%
G01*
G04 APERTURE LIST*
%TA.AperFunction,ComponentPad*%
%ADD10C,1.650000*%
%TD*%
%TA.AperFunction,ComponentPad*%
%ADD11O,2.250000X3.250000*%
%TD*%
%TA.AperFunction,ComponentPad*%
%ADD12R,1.700000X1.700000*%
%TD*%
%TA.AperFunction,ComponentPad*%
%ADD13O,1.700000X1.700000*%
%TD*%
%TA.AperFunction,ComponentPad*%
%ADD14O,1.050000X2.100000*%
%TD*%
%TA.AperFunction,ComponentPad*%
%ADD15O,1.000000X2.000000*%
%TD*%
%TA.AperFunction,ViaPad*%
%ADD16C,0.600000*%
%TD*%
%TA.AperFunction,ViaPad*%
%ADD17C,1.000000*%
%TD*%
%TA.AperFunction,Conductor*%
%ADD18C,0.350000*%
%TD*%
%TA.AperFunction,Conductor*%
%ADD19C,0.750000*%
%TD*%
%TA.AperFunction,Conductor*%
%ADD20C,0.200000*%
%TD*%
G04 APERTURE END LIST*
D10*
%TO.P,J1,1,VBUS*%
%TO.N,USB_VBUS*%
X192715000Y-149906500D03*
%TO.P,J1,2,D-*%
%TO.N,USB-DM*%
X195215000Y-149906500D03*
%TO.P,J1,3,D+*%
%TO.N,USB-DP*%
X197215000Y-149906500D03*
%TO.P,J1,4,GND*%
%TO.N,GND*%
X199715000Y-149906500D03*
D11*
%TO.P,J1,5,Shield*%
X189745000Y-151246500D03*
X202685000Y-151246500D03*
%TD*%
D12*
%TO.P,J4,1,Pin_1*%
%TO.N,USB-DP-IN1*%
X204012800Y-139928600D03*
D13*
%TO.P,J4,2,Pin_2*%
%TO.N,USB-DM-IN0*%
X201472800Y-139928600D03*
%TO.P,J4,3,Pin_3*%
%TO.N,IN3*%
X204012800Y-137388600D03*
%TO.P,J4,4,Pin_4*%
%TO.N,IN2*%
X201472800Y-137388600D03*
%TO.P,J4,5,Pin_5*%
%TO.N,IN5*%
X204012800Y-134848600D03*
%TO.P,J4,6,Pin_6*%
%TO.N,IN4*%
X201472800Y-134848600D03*
%TO.P,J4,7,Pin_7*%
%TO.N,IN7*%
X204012800Y-132308600D03*
%TO.P,J4,8,Pin_8*%
%TO.N,IN6*%
X201472800Y-132308600D03*
%TO.P,J4,9,Pin_9*%
%TO.N,IN9*%
X204012800Y-129768600D03*
%TO.P,J4,10,Pin_10*%
%TO.N,IN8*%
X201472800Y-129768600D03*
%TO.P,J4,11,Pin_11*%
%TO.N,IN11*%
X204012800Y-127228600D03*
%TO.P,J4,12,Pin_12*%
%TO.N,IN10*%
X201472800Y-127228600D03*
%TO.P,J4,13,Pin_13*%
%TO.N,IN13*%
X204012800Y-124688600D03*
%TO.P,J4,14,Pin_14*%
%TO.N,IN12*%
X201472800Y-124688600D03*
%TO.P,J4,15,Pin_15*%
%TO.N,IN15*%
X204012800Y-122148600D03*
%TO.P,J4,16,Pin_16*%
%TO.N,IN14*%
X201472800Y-122148600D03*
%TO.P,J4,17,Pin_17*%
%TO.N,GND*%
X204012800Y-119608600D03*
%TO.P,J4,18,Pin_18*%
X201472800Y-119608600D03*
%TD*%
D14*
%TO.P,J2,S1,SHELL_GND*%
%TO.N,GND*%
X206204800Y-95369000D03*
D15*
%TO.P,J2,S2,SHELL_GND*%
X206204800Y-91189000D03*
%TO.P,J2,S3,SHELL_GND*%
X197564800Y-91189000D03*
D14*
%TO.P,J2,S4,SHELL_GND*%
X197564800Y-95369000D03*
%TD*%
%TO.P,J3,S1,SHELL_GND*%
%TO.N,GND*%
X205026800Y-153090200D03*
D15*
%TO.P,J3,S2,SHELL_GND*%
X205026800Y-157270200D03*
%TO.P,J3,S3,SHELL_GND*%
X213666800Y-157270200D03*
D14*
%TO.P,J3,S4,SHELL_GND*%
X213666800Y-153090200D03*
%TD*%
D16*
%TO.N,GND*%
X212140800Y-144805400D03*
X211531200Y-144297400D03*
X207314800Y-133502400D03*
X209727800Y-117703600D03*
X207137000Y-113458652D03*
X194691000Y-143459200D03*
X192354200Y-103987600D03*
X193878200Y-103149400D03*
X209600800Y-121488200D03*
X207670400Y-130606800D03*
X209550000Y-124383800D03*
X195808600Y-109855000D03*
X193548000Y-106095800D03*
X213334600Y-117195600D03*
X201549000Y-116611400D03*
X193903600Y-103987600D03*
X197434200Y-129844800D03*
X203581000Y-105384600D03*
X193954400Y-143916400D03*
X202285600Y-106680000D03*
X209245200Y-146685000D03*
X195783200Y-127025400D03*
X207492600Y-139039600D03*
X212750400Y-145338800D03*
X213004400Y-117805200D03*
X210337400Y-99796600D03*
X201777600Y-117322600D03*
X198374000Y-121056400D03*
X198704200Y-138861800D03*
X202996800Y-106019600D03*
X196088000Y-102819200D03*
X193979800Y-143002000D03*
X213741000Y-117779800D03*
X207492600Y-136118600D03*
X198399400Y-135915400D03*
X211048600Y-99822000D03*
X199440800Y-133273800D03*
X210693000Y-99212400D03*
D17*
X192786000Y-97332800D03*
D16*
X200964800Y-117119400D03*
X197891400Y-123596400D03*
X209626200Y-127228600D03*
X192252600Y-103047800D03*
D17*
%TO.N,+3V3*%
X211366100Y-117817900D03*
D16*
X198729600Y-105740200D03*
D17*
X195732400Y-101447600D03*
D16*
X205079600Y-101066600D03*
X205359000Y-106172000D03*
D17*
X191541400Y-117195600D03*
D16*
X204190600Y-111531400D03*
X192760600Y-108153200D03*
D17*
%TO.N,VBUS_PRE*%
X200101200Y-93497400D03*
X193316882Y-93280872D03*
%TO.N,USB_VBUS*%
X212598000Y-148361400D03*
X204427443Y-149642734D03*
D16*
%TO.N,USB-DM*%
X208286361Y-154391671D03*
X209600800Y-154457400D03*
%TO.N,USB-DP*%
X198932800Y-146278600D03*
X198780400Y-148742400D03*
%TO.N,RP_USB-*%
X201625200Y-98069400D03*
X196172487Y-104146444D03*
%TO.N,RP_USB+*%
X196164200Y-104927400D03*
X202234800Y-97510600D03*
X202234800Y-98806000D03*
%TO.N,GPIO_10*%
X205602191Y-114898441D03*
X195441600Y-125356440D03*
%TO.N,GPIO_3*%
X204136499Y-117353989D03*
X209767200Y-137699640D03*
%TO.N,GPIO_12*%
X207346659Y-115278883D03*
X195482970Y-122407170D03*
%TO.N,GPIO_14*%
X195507600Y-119590640D03*
X208571498Y-115882024D03*
%TO.N,GPIO_4*%
X195601600Y-133798060D03*
X201816954Y-113580412D03*
%TO.N,GPIO_13*%
X209788800Y-123251200D03*
X208098265Y-116568676D03*
%TO.N,GPIO_9*%
X206507347Y-116874959D03*
X209891200Y-128916800D03*
%TO.N,GPIO_8*%
X204317600Y-114477800D03*
X195441600Y-128202940D03*
%TO.N,GPIO_15*%
X209193197Y-115316000D03*
X209744400Y-120295660D03*
%TO.N,GPIO_11*%
X209861200Y-126137660D03*
X207340200Y-116890800D03*
%TO.N,GPIO_0*%
X195601600Y-139536760D03*
X199339200Y-112877600D03*
%TO.N,GPIO_6*%
X203059722Y-114035486D03*
X195601600Y-130856260D03*
%TO.N,GPIO_1*%
X209762800Y-140562340D03*
X203301382Y-117409664D03*
%TO.N,GPIO_2*%
X195611800Y-136266400D03*
X200611276Y-113179864D03*
%TO.N,GPIO_7*%
X209802800Y-131944240D03*
X205694982Y-116986235D03*
%TO.N,GPIO_5*%
X204959245Y-117310687D03*
X209752000Y-134853140D03*
%TD*%
D18*
%TO.N,+3V3*%
X195732400Y-101447600D02*
X195072000Y-102108000D01*
X192760600Y-108153200D02*
X193268600Y-107645200D01*
X205079600Y-102717600D02*
X205079600Y-101066600D01*
X211099400Y-113182400D02*
X209473800Y-111556800D01*
X205359000Y-110363000D02*
X205359000Y-106172000D01*
X204647800Y-104317800D02*
X203479400Y-104317800D01*
X209473800Y-111556800D02*
X204216000Y-111556800D01*
X211099400Y-117551200D02*
X211099400Y-113182400D01*
X205359000Y-106172000D02*
X205359000Y-105029000D01*
X198170800Y-107645200D02*
X198729600Y-107086400D01*
X198170800Y-107645200D02*
X200152000Y-107645200D01*
X195072000Y-107619800D02*
X195046600Y-107645200D01*
X198729600Y-107086400D02*
X198729600Y-105740200D01*
X191541400Y-109372400D02*
X192760600Y-108153200D01*
X204190600Y-111531400D02*
X205359000Y-110363000D01*
X211366100Y-117817900D02*
X211099400Y-117551200D01*
X193268600Y-107645200D02*
X195046600Y-107645200D01*
X204216000Y-111556800D02*
X204190600Y-111531400D01*
X195046600Y-107645200D02*
X198170800Y-107645200D01*
X205359000Y-105029000D02*
X204647800Y-104317800D01*
X200152000Y-107645200D02*
X203479400Y-104317800D01*
X203479400Y-104317800D02*
X205079600Y-102717600D01*
X195072000Y-102108000D02*
X195072000Y-107619800D01*
X191541400Y-117195600D02*
X191541400Y-109372400D01*
D19*
%TO.N,VBUS_PRE*%
X193557554Y-93040200D02*
X199644000Y-93040200D01*
X199644000Y-93040200D02*
X200101200Y-93497400D01*
X193316882Y-93280872D02*
X193557554Y-93040200D01*
D18*
%TO.N,USB_VBUS*%
X205708777Y-148361400D02*
X212598000Y-148361400D01*
X204427443Y-149642734D02*
X205708777Y-148361400D01*
D19*
X195910200Y-145313400D02*
X210235800Y-145313400D01*
X192715000Y-149906500D02*
X192715000Y-148508600D01*
X210235800Y-145313400D02*
X212598000Y-147675600D01*
X192715000Y-148508600D02*
X195910200Y-145313400D01*
X192892800Y-150084300D02*
X192715000Y-149906500D01*
X212598000Y-147675600D02*
X212598000Y-148361400D01*
D20*
%TO.N,USB-DM*%
X208286361Y-154391671D02*
X208352090Y-154457400D01*
X208352090Y-154457400D02*
X209600800Y-154457400D01*
D18*
%TO.N,USB-DP*%
X198780400Y-148742400D02*
X198932800Y-148590000D01*
X198932800Y-148590000D02*
X198932800Y-146278600D01*
D20*
%TO.N,RP_USB-*%
X196318443Y-104292400D02*
X200596500Y-104292400D01*
X196172487Y-104146444D02*
X196318443Y-104292400D01*
X201625200Y-103263700D02*
X201625200Y-98069400D01*
X200596500Y-104292400D02*
X201625200Y-103263700D01*
%TO.N,RP_USB+*%
X202234800Y-98806000D02*
X202234800Y-103581200D01*
X202234800Y-103581200D02*
X200888600Y-104927400D01*
X200888600Y-104927400D02*
X196164200Y-104927400D01*
X202234800Y-97510600D02*
X202234800Y-98806000D01*
%TO.N,GPIO_10*%
X205413232Y-115087400D02*
X200380600Y-115087400D01*
X194233800Y-119430800D02*
X194233800Y-122072400D01*
X205602191Y-114898441D02*
X205413232Y-115087400D01*
X195249800Y-118414800D02*
X194233800Y-119430800D01*
X197053200Y-118414800D02*
X195249800Y-118414800D01*
X194233800Y-122072400D02*
X195441600Y-123280200D01*
X195441600Y-123280200D02*
X195441600Y-125356440D01*
X200380600Y-115087400D02*
X197053200Y-118414800D01*
%TO.N,GPIO_3*%
X205962200Y-136544000D02*
X207117840Y-137699640D01*
X204136499Y-117353989D02*
X204790910Y-118008400D01*
X204790910Y-118008400D02*
X205670686Y-118008400D01*
X207117840Y-137699640D02*
X209767200Y-137699640D01*
X205962200Y-118299914D02*
X205962200Y-136544000D01*
X205670686Y-118008400D02*
X205962200Y-118299914D01*
%TO.N,GPIO_12*%
X195427600Y-118821200D02*
X194665600Y-119583200D01*
X194665600Y-119583200D02*
X194665600Y-121589800D01*
X207346659Y-115278883D02*
X207131742Y-115493800D01*
X197231000Y-118821200D02*
X195427600Y-118821200D01*
X200558400Y-115493800D02*
X197231000Y-118821200D01*
X207131742Y-115493800D02*
X200558400Y-115493800D01*
X194665600Y-121589800D02*
X195482970Y-122407170D01*
%TO.N,GPIO_14*%
X208571498Y-115882024D02*
X208553322Y-115900200D01*
X208553322Y-115900200D02*
X200736200Y-115900200D01*
X200736200Y-115900200D02*
X197045760Y-119590640D01*
X197045760Y-119590640D02*
X195507600Y-119590640D01*
%TO.N,GPIO_4*%
X196519800Y-117170200D02*
X199898000Y-113792000D01*
X193903600Y-123571000D02*
X192938400Y-122605800D01*
X192938400Y-118922800D02*
X194691000Y-117170200D01*
X195601600Y-131822200D02*
X194919600Y-131140200D01*
X194919600Y-129235200D02*
X193903600Y-128219200D01*
X201605366Y-113792000D02*
X201816954Y-113580412D01*
X193903600Y-128219200D02*
X193903600Y-123571000D01*
X195601600Y-133798060D02*
X195601600Y-131822200D01*
X199898000Y-113792000D02*
X201605366Y-113792000D01*
X192938400Y-122605800D02*
X192938400Y-118922800D01*
X194919600Y-131140200D02*
X194919600Y-129235200D01*
X194691000Y-117170200D02*
X196519800Y-117170200D01*
%TO.N,GPIO_13*%
X208000600Y-116666341D02*
X208000600Y-122529600D01*
X208722200Y-123251200D02*
X209788800Y-123251200D01*
X208098265Y-116568676D02*
X208000600Y-116666341D01*
X208000600Y-122529600D02*
X208722200Y-123251200D01*
%TO.N,GPIO_9*%
X207187800Y-117754400D02*
X207187800Y-128016000D01*
X206507347Y-117073947D02*
X207187800Y-117754400D01*
X207187800Y-128016000D02*
X208088600Y-128916800D01*
X208088600Y-128916800D02*
X209891200Y-128916800D01*
X206507347Y-116874959D02*
X206507347Y-117073947D01*
%TO.N,GPIO_8*%
X193802000Y-119253000D02*
X193802000Y-122250200D01*
X200202800Y-114655600D02*
X196875400Y-117983000D01*
X195072000Y-117983000D02*
X193802000Y-119253000D01*
X194767200Y-123215400D02*
X194767200Y-127528540D01*
X204139800Y-114655600D02*
X200202800Y-114655600D01*
X204317600Y-114477800D02*
X204139800Y-114655600D01*
X194767200Y-127528540D02*
X195441600Y-128202940D01*
X193802000Y-122250200D02*
X194767200Y-123215400D01*
X196875400Y-117983000D02*
X195072000Y-117983000D01*
%TO.N,GPIO_15*%
X208400600Y-119703800D02*
X208992460Y-120295660D01*
X209193197Y-115316000D02*
X209193197Y-116345803D01*
X208400600Y-117138400D02*
X208400600Y-119703800D01*
X209193197Y-116345803D02*
X208400600Y-117138400D01*
X208992460Y-120295660D02*
X209744400Y-120295660D01*
%TO.N,GPIO_11*%
X207340200Y-117322600D02*
X207594200Y-117576600D01*
X207340200Y-116890800D02*
X207340200Y-117322600D01*
X207594200Y-117576600D02*
X207594200Y-125196600D01*
X207594200Y-125196600D02*
X208535260Y-126137660D01*
X208535260Y-126137660D02*
X209861200Y-126137660D01*
%TO.N,GPIO_0*%
X194329000Y-116363800D02*
X196194828Y-116363800D01*
X193090800Y-128549400D02*
X193090800Y-123926600D01*
X196194828Y-116363800D02*
X198729600Y-113829028D01*
X199339200Y-113207800D02*
X199339200Y-112877600D01*
X195601600Y-139536760D02*
X195601600Y-137283200D01*
X194106800Y-129565400D02*
X193090800Y-128549400D01*
X194970400Y-134823200D02*
X194106800Y-133959600D01*
X192074800Y-118618000D02*
X194329000Y-116363800D01*
X194970400Y-136652000D02*
X194970400Y-134823200D01*
X198729600Y-113817400D02*
X199339200Y-113207800D01*
X198729600Y-113829028D02*
X198729600Y-113817400D01*
X195601600Y-137283200D02*
X194970400Y-136652000D01*
X193090800Y-123926600D02*
X192074800Y-122910600D01*
X192074800Y-122910600D02*
X192074800Y-118618000D01*
X194106800Y-133959600D02*
X194106800Y-129565400D01*
%TO.N,GPIO_6*%
X194894200Y-117576600D02*
X193370200Y-119100600D01*
X203059722Y-114035486D02*
X202871408Y-114223800D01*
X202871408Y-114223800D02*
X200068914Y-114223800D01*
X200068914Y-114223800D02*
X196716114Y-117576600D01*
X195601600Y-129282200D02*
X195601600Y-130856260D01*
X194335400Y-128016000D02*
X195601600Y-129282200D01*
X194335400Y-123367800D02*
X194335400Y-128016000D01*
X193370200Y-119100600D02*
X193370200Y-122402600D01*
X193370200Y-122402600D02*
X194335400Y-123367800D01*
X196716114Y-117576600D02*
X194894200Y-117576600D01*
%TO.N,GPIO_1*%
X205562200Y-139192000D02*
X205562200Y-118668800D01*
X206932540Y-140562340D02*
X205562200Y-139192000D01*
X204300118Y-118408400D02*
X203301382Y-117409664D01*
X209762800Y-140562340D02*
X206932540Y-140562340D01*
X205301800Y-118408400D02*
X204300118Y-118408400D01*
X205562200Y-118668800D02*
X205301800Y-118408400D01*
%TO.N,GPIO_2*%
X194519600Y-133762800D02*
X194519600Y-129400886D01*
X196360514Y-116763800D02*
X199745928Y-113378386D01*
X194531714Y-116763800D02*
X196360514Y-116763800D01*
X194519600Y-129400886D02*
X193497200Y-128378486D01*
X200482831Y-113378386D02*
X200482831Y-113308309D01*
X193497200Y-128378486D02*
X193497200Y-123730286D01*
X195611800Y-136266400D02*
X195611800Y-134855000D01*
X192506600Y-118788914D02*
X194531714Y-116763800D01*
X195611800Y-134855000D02*
X194519600Y-133762800D01*
X199745928Y-113378386D02*
X200482831Y-113378386D01*
X200482831Y-113308309D02*
X200611276Y-113179864D01*
X193497200Y-123730286D02*
X192506600Y-122739686D01*
X192506600Y-122739686D02*
X192506600Y-118788914D01*
%TO.N,GPIO_7*%
X205748767Y-116986235D02*
X206781400Y-118018868D01*
X205694982Y-116986235D02*
X205748767Y-116986235D01*
X208093440Y-131944240D02*
X209802800Y-131944240D01*
X206781400Y-118018868D02*
X206781400Y-130632200D01*
X206781400Y-130632200D02*
X208093440Y-131944240D01*
%TO.N,GPIO_5*%
X207319340Y-134853140D02*
X209752000Y-134853140D01*
X205243193Y-117594635D02*
X205757807Y-117594635D01*
X206362200Y-118199028D02*
X206362200Y-133896000D01*
X204959245Y-117310687D02*
X205243193Y-117594635D01*
X206362200Y-133896000D02*
X207319340Y-134853140D01*
X205757807Y-117594635D02*
X206362200Y-118199028D01*
%TD*%
%TA.AperFunction,Conductor*%
%TO.N,GND*%
G36*
X203546875Y-119415607D02*
G01*
X203512800Y-119542774D01*
X203512800Y-119674426D01*
X203546875Y-119801593D01*
X203579788Y-119858600D01*
X201905812Y-119858600D01*
X201938725Y-119801593D01*
X201972800Y-119674426D01*
X201972800Y-119542774D01*
X201938725Y-119415607D01*
X201905812Y-119358600D01*
X203579788Y-119358600D01*
X203546875Y-119415607D01*
G37*
%TD.AperFunction*%
%TA.AperFunction,Conductor*%
G36*
X214295539Y-89044785D02*
G01*
X214341294Y-89097589D01*
X214352500Y-89149100D01*
X214352500Y-151558623D01*
X214332815Y-151625662D01*
X214280011Y-151671417D01*
X214210853Y-151681361D01*
X214159613Y-151661728D01*
X214152325Y-151656859D01*
X214152313Y-151656852D01*
X213965784Y-151579590D01*
X213965777Y-151579588D01*
X213916800Y-151569845D01*
X213916800Y-152373211D01*
X213906860Y-152355995D01*
X213851005Y-152300140D01*
X213782596Y-152260644D01*
X213706296Y-152240200D01*
X213627304Y-152240200D01*
X213551004Y-152260644D01*
X213482595Y-152300140D01*
X213426740Y-152355995D01*
X213416800Y-152373211D01*
X213416800Y-151569846D01*
X213416799Y-151569845D01*
X213367822Y-151579588D01*
X213367815Y-151579590D01*
X213181286Y-151656852D01*
X213181273Y-151656859D01*
X213013400Y-151769029D01*
X213013396Y-151769032D01*
X212870632Y-151911796D01*
X212870629Y-151911800D01*
X212758459Y-152079673D01*
X212758452Y-152079686D01*
X212681190Y-152266216D01*
X212681187Y-152266225D01*
X212641800Y-152464241D01*
X212641800Y-152840200D01*
X213366800Y-152840200D01*
X213366800Y-153340200D01*
X212710621Y-153340200D01*
X212643582Y-153320515D01*
X212622940Y-153303881D01*
X212528765Y-153209706D01*
X212528764Y-153209705D01*
X212420336Y-153147105D01*
X212420337Y-153147105D01*
X212347838Y-153127679D01*
X212299401Y-153114700D01*
X212174199Y-153114700D01*
X212125762Y-153127679D01*
X212053263Y-153147105D01*
X211944837Y-153209704D01*
X211944834Y-153209706D01*
X211856306Y-153298234D01*
X211856304Y-153298237D01*
X211793705Y-153406663D01*
X211793705Y-153406664D01*
X211761300Y-153527599D01*
X211761300Y-153652801D01*
X211793705Y-153773736D01*
X211856305Y-153882164D01*
X211944836Y-153970695D01*
X212053264Y-154033295D01*
X212174199Y-154065700D01*
X212174201Y-154065700D01*
X212299399Y-154065700D01*
X212299401Y-154065700D01*
X212420336Y-154033295D01*
X212528764Y-153970695D01*
X212528770Y-153970688D01*
X212533974Y-153966696D01*
X212599141Y-153941495D01*
X212667587Y-153955527D01*
X212717581Y-154004336D01*
X212724031Y-154017611D01*
X212758454Y-154100717D01*
X212758459Y-154100726D01*
X212870629Y-154268599D01*
X212870632Y-154268603D01*
X213013396Y-154411367D01*
X213013400Y-154411370D01*
X213181273Y-154523540D01*
X213181286Y-154523547D01*
X213367816Y-154600809D01*
X213367825Y-154600812D01*
X213416800Y-154610553D01*
X213416800Y-153807188D01*
X213426740Y-153824405D01*
X213482595Y-153880260D01*
X213551004Y-153919756D01*
X213627304Y-153940200D01*
X213706296Y-153940200D01*
X213782596Y-153919756D01*
X213851005Y-153880260D01*
X213906860Y-153824405D01*
X213916800Y-153807188D01*
X213916800Y-154610552D01*
X213965774Y-154600812D01*
X213965783Y-154600809D01*
X214152313Y-154523547D01*
X214152322Y-154523542D01*
X214159607Y-154518675D01*
X214226284Y-154497796D01*
X214293665Y-154516279D01*
X214340356Y-154568257D01*
X214352500Y-154621776D01*
X214352500Y-155793691D01*
X214332815Y-155860730D01*
X214280011Y-155906485D01*
X214210853Y-155916429D01*
X214159610Y-155896794D01*
X214140482Y-155884013D01*
X214140471Y-155884007D01*
X213958491Y-155808629D01*
X213958483Y-155808627D01*
X213916800Y-155800335D01*
X213916800Y-156703211D01*
X213906860Y-156685995D01*
X213851005Y-156630140D01*
X213782596Y-156590644D01*
X213706296Y-156570200D01*
X213627304Y-156570200D01*
X213551004Y-156590644D01*
X213482595Y-156630140D01*
X213426740Y-156685995D01*
X213416800Y-156703211D01*
X213416800Y-155800336D01*
X213416799Y-155800335D01*
X213375116Y-155808627D01*
X213375108Y-155808629D01*
X213193128Y-155884007D01*
X213193115Y-155884014D01*
X213029337Y-155993448D01*
X213029333Y-155993451D01*
X212890051Y-156132733D01*
X212890048Y-156132737D01*
X212780614Y-156296515D01*
X212780607Y-156296528D01*
X212705230Y-156478506D01*
X212705227Y-156478518D01*
X212666800Y-156671704D01*
X212666800Y-157020200D01*
X213366800Y-157020200D01*
X213366800Y-157520200D01*
X212666800Y-157520200D01*
X212666800Y-157868695D01*
X212705227Y-158061881D01*
X212705230Y-158061893D01*
X212780607Y-158243871D01*
X212780614Y-158243884D01*
X212890048Y-158407662D01*
X212890051Y-158407666D01*
X213029333Y-158546948D01*
X213029337Y-158546951D01*
X213110223Y-158600998D01*
X213155028Y-158654610D01*
X213163735Y-158723935D01*
X213133580Y-158786963D01*
X213074137Y-158823682D01*
X213041332Y-158828100D01*
X205652268Y-158828100D01*
X205585229Y-158808415D01*
X205539474Y-158755611D01*
X205529530Y-158686453D01*
X205558555Y-158622897D01*
X205583377Y-158600998D01*
X205664262Y-158546951D01*
X205664266Y-158546948D01*
X205803548Y-158407666D01*
X205803551Y-158407662D01*
X205912985Y-158243884D01*
X205912992Y-158243871D01*
X205988369Y-158061893D01*
X205988372Y-158061881D01*
X206026799Y-157868695D01*
X206026800Y-157868692D01*
X206026800Y-157520200D01*
X205326800Y-157520200D01*
X205326800Y-157020200D01*
X206026800Y-157020200D01*
X206026800Y-156671708D01*
X206026799Y-156671704D01*
X205988372Y-156478518D01*
X205988369Y-156478506D01*
X205912992Y-156296528D01*
X205912985Y-156296515D01*
X205803551Y-156132737D01*
X205803548Y-156132733D01*
X205664266Y-155993451D01*
X205664262Y-155993448D01*
X205500484Y-155884014D01*
X205500471Y-155884007D01*
X205318491Y-155808629D01*
X205318483Y-155808627D01*
X205276800Y-155800335D01*
X205276800Y-156703211D01*
X205266860Y-156685995D01*
X205211005Y-156630140D01*
X205142596Y-156590644D01*
X205066296Y-156570200D01*
X204987304Y-156570200D01*
X204911004Y-156590644D01*
X204842595Y-156630140D01*
X204786740Y-156685995D01*
X204776800Y-156703211D01*
X204776800Y-155800336D01*
X204776799Y-155800335D01*
X204735116Y-155808627D01*
X204735108Y-155808629D01*
X204553128Y-155884007D01*
X204553115Y-155884014D01*
X204389337Y-155993448D01*
X204389333Y-155993451D01*
X204250051Y-156132733D01*
X204250048Y-156132737D01*
X204140614Y-156296515D01*
X204140607Y-156296528D01*
X204065230Y-156478506D01*
X204065227Y-156478518D01*
X204026800Y-156671704D01*
X204026800Y-157020200D01*
X204726800Y-157020200D01*
X204726800Y-157520200D01*
X204026800Y-157520200D01*
X204026800Y-157868695D01*
X204065227Y-158061881D01*
X204065230Y-158061893D01*
X204140607Y-158243871D01*
X204140614Y-158243884D01*
X204250048Y-158407662D01*
X204250051Y-158407666D01*
X204389333Y-158546948D01*
X204389337Y-158546951D01*
X204470223Y-158600998D01*
X204515028Y-158654610D01*
X204523735Y-158723935D01*
X204493580Y-158786963D01*
X204434137Y-158823682D01*
X204401332Y-158828100D01*
X188844100Y-158828100D01*
X188777061Y-158808415D01*
X188731306Y-158755611D01*
X188720100Y-158704100D01*
X188720100Y-153250417D01*
X188739785Y-153183378D01*
X188792589Y-153137623D01*
X188861747Y-153127679D01*
X188900395Y-153139932D01*
X189121215Y-153252447D01*
X189121218Y-153252448D01*
X189364476Y-153331486D01*
X189617111Y-153371500D01*
X189872889Y-153371500D01*
X190125523Y-153331486D01*
X190368781Y-153252448D01*
X190368784Y-153252447D01*
X190596686Y-153136324D01*
X190803619Y-152985978D01*
X190967272Y-152822325D01*
X190967272Y-152822324D01*
X190254258Y-152109310D01*
X190298868Y-152042548D01*
X190345981Y-151928806D01*
X190370000Y-151808057D01*
X190370000Y-151517947D01*
X191241289Y-152389236D01*
X191250946Y-152370285D01*
X191329986Y-152127023D01*
X191370000Y-151874389D01*
X191370000Y-150689856D01*
X191389685Y-150622817D01*
X191442489Y-150577062D01*
X191511647Y-150567118D01*
X191575203Y-150596143D01*
X191595573Y-150618731D01*
X191695730Y-150761769D01*
X191859731Y-150925770D01*
X192049718Y-151058801D01*
X192259921Y-151156820D01*
X192483950Y-151216849D01*
X192648985Y-151231287D01*
X192714998Y-151237063D01*
X192715000Y-151237063D01*
X192715002Y-151237063D01*
X192772762Y-151232009D01*
X192946050Y-151216849D01*
X193170079Y-151156820D01*
X193380282Y-151058801D01*
X193570269Y-150925770D01*
X193734270Y-150761769D01*
X193863427Y-150577314D01*
X193918002Y-150533692D01*
X193987501Y-150526499D01*
X194049855Y-150558021D01*
X194066569Y-150577309D01*
X194195730Y-150761769D01*
X194359731Y-150925770D01*
X194549718Y-151058801D01*
X194759921Y-151156820D01*
X194983950Y-151216849D01*
X195148985Y-151231287D01*
X195214998Y-151237063D01*
X195215000Y-151237063D01*
X195215002Y-151237063D01*
X195272762Y-151232009D01*
X195446050Y-151216849D01*
X195670079Y-151156820D01*
X195880282Y-151058801D01*
X196070269Y-150925770D01*
X196127319Y-150868720D01*
X196188642Y-150835235D01*
X196258334Y-150840219D01*
X196302681Y-150868720D01*
X196359731Y-150925770D01*
X196549718Y-151058801D01*
X196759921Y-151156820D01*
X196983950Y-151216849D01*
X197148985Y-151231287D01*
X197214998Y-151237063D01*
X197215000Y-151237063D01*
X197215002Y-151237063D01*
X197272762Y-151232009D01*
X197446050Y-151216849D01*
X197670079Y-151156820D01*
X197880282Y-151058801D01*
X198070269Y-150925770D01*
X198234270Y-150761769D01*
X198363731Y-150576880D01*
X198418306Y-150533257D01*
X198487804Y-150526063D01*
X198550159Y-150557586D01*
X198566879Y-150576881D01*
X198618023Y-150649922D01*
X199232037Y-150035908D01*
X199249075Y-150099493D01*
X199314901Y-150213507D01*
X199407993Y-150306599D01*
X199522007Y-150372425D01*
X199585590Y-150389462D01*
X198971576Y-151003475D01*
X199049969Y-151058367D01*
X199260090Y-151156347D01*
X199260099Y-151156351D01*
X199484031Y-151216352D01*
X199484041Y-151216354D01*
X199714999Y-151236561D01*
X199715001Y-151236561D01*
X199945958Y-151216354D01*
X199945968Y-151216352D01*
X200169900Y-151156351D01*
X200169909Y-151156347D01*
X200380030Y-151058367D01*
X200380034Y-151058365D01*
X200458422Y-151003476D01*
X200458422Y-151003475D01*
X199844410Y-150389462D01*
X199907993Y-150372425D01*
X200022007Y-150306599D01*
X200115099Y-150213507D01*
X200180925Y-150099493D01*
X200197962Y-150035909D01*
X200811975Y-150649921D01*
X200834425Y-150617861D01*
X200889002Y-150574236D01*
X200958501Y-150567044D01*
X201020855Y-150598566D01*
X201056269Y-150658796D01*
X201060000Y-150688985D01*
X201060000Y-151874389D01*
X201100013Y-152127023D01*
X201179052Y-152370282D01*
X201179053Y-152370284D01*
X201188710Y-152389235D01*
X201188710Y-152389236D01*
X202060000Y-151517946D01*
X202060000Y-151808057D01*
X202084019Y-151928806D01*
X202131132Y-152042548D01*
X202175741Y-152109309D01*
X201462727Y-152822324D01*
X201462727Y-152822325D01*
X201626380Y-152985978D01*
X201833313Y-153136324D01*
X202061215Y-153252447D01*
X202061218Y-153252448D01*
X202304476Y-153331486D01*
X202557111Y-153371500D01*
X202812889Y-153371500D01*
X203065523Y-153331486D01*
X203308781Y-153252448D01*
X203308784Y-153252447D01*
X203536686Y-153136324D01*
X203743619Y-152985978D01*
X203857918Y-152871680D01*
X203919241Y-152838195D01*
X203950438Y-152840426D01*
X203950438Y-152840200D01*
X204726800Y-152840200D01*
X204726800Y-153340200D01*
X204001800Y-153340200D01*
X204001800Y-153716158D01*
X204041187Y-153914174D01*
X204041190Y-153914183D01*
X204118452Y-154100713D01*
X204118459Y-154100726D01*
X204230629Y-154268599D01*
X204230632Y-154268603D01*
X204373396Y-154411367D01*
X204373400Y-154411370D01*
X204541273Y-154523540D01*
X204541286Y-154523547D01*
X204727816Y-154600809D01*
X204727825Y-154600812D01*
X204776800Y-154610553D01*
X204776800Y-153807188D01*
X204786740Y-153824405D01*
X204842595Y-153880260D01*
X204911004Y-153919756D01*
X204987304Y-153940200D01*
X205066296Y-153940200D01*
X205142596Y-153919756D01*
X205211005Y-153880260D01*
X205266860Y-153824405D01*
X205276800Y-153807188D01*
X205276800Y-154610552D01*
X205325774Y-154600812D01*
X205325783Y-154600809D01*
X205512313Y-154523547D01*
X205512326Y-154523540D01*
X205680199Y-154411370D01*
X205680203Y-154411367D01*
X205699903Y-154391667D01*
X207480796Y-154391667D01*
X207480796Y-154391674D01*
X207500991Y-154570920D01*
X207500992Y-154570925D01*
X207560572Y-154741194D01*
X207601872Y-154806922D01*
X207656545Y-154893933D01*
X207784099Y-155021487D01*
X207936839Y-155117460D01*
X208107106Y-155177039D01*
X208107111Y-155177040D01*
X208286357Y-155197236D01*
X208286361Y-155197236D01*
X208286365Y-155197236D01*
X208465610Y-155177040D01*
X208465613Y-155177039D01*
X208465616Y-155177039D01*
X208635883Y-155117460D01*
X208684020Y-155087214D01*
X208700423Y-155076907D01*
X208766396Y-155057900D01*
X209018388Y-155057900D01*
X209085427Y-155077585D01*
X209095703Y-155084955D01*
X209098536Y-155087214D01*
X209098538Y-155087216D01*
X209251278Y-155183189D01*
X209421545Y-155242768D01*
X209421550Y-155242769D01*
X209600796Y-155262965D01*
X209600800Y-155262965D01*
X209600804Y-155262965D01*
X209780049Y-155242769D01*
X209780052Y-155242768D01*
X209780055Y-155242768D01*
X209950322Y-155183189D01*
X210103062Y-155087216D01*
X210230616Y-154959662D01*
X210326589Y-154806922D01*
X210386168Y-154636655D01*
X210386169Y-154636649D01*
X210406365Y-154457403D01*
X210406365Y-154457396D01*
X210386169Y-154278150D01*
X210386168Y-154278145D01*
X210326588Y-154107876D01*
X210230615Y-153955137D01*
X210103062Y-153827584D01*
X209950323Y-153731611D01*
X209780054Y-153672031D01*
X209780049Y-153672030D01*
X209600804Y-153651835D01*
X209600796Y-153651835D01*
X209421550Y-153672030D01*
X209421545Y-153672031D01*
X209251276Y-153731611D01*
X209098536Y-153827585D01*
X209095703Y-153829845D01*
X209093524Y-153830734D01*
X209092642Y-153831289D01*
X209092544Y-153831134D01*
X209031017Y-153856255D01*
X209018388Y-153856900D01*
X208935030Y-153856900D01*
X208867991Y-153837215D01*
X208847349Y-153820581D01*
X208788623Y-153761855D01*
X208635884Y-153665882D01*
X208465615Y-153606302D01*
X208465610Y-153606301D01*
X208286365Y-153586106D01*
X208286357Y-153586106D01*
X208107111Y-153606301D01*
X208107106Y-153606302D01*
X207936837Y-153665882D01*
X207784098Y-153761855D01*
X207656545Y-153889408D01*
X207560572Y-154042147D01*
X207500992Y-154212416D01*
X207500991Y-154212421D01*
X207480796Y-154391667D01*
X205699903Y-154391667D01*
X205822967Y-154268603D01*
X205822970Y-154268599D01*
X205935140Y-154100726D01*
X205935142Y-154100722D01*
X205969567Y-154017612D01*
X206013408Y-153963209D01*
X206079702Y-153941143D01*
X206147401Y-153958422D01*
X206159621Y-153966693D01*
X206164834Y-153970694D01*
X206164836Y-153970695D01*
X206273264Y-154033295D01*
X206394199Y-154065700D01*
X206394201Y-154065700D01*
X206519399Y-154065700D01*
X206519401Y-154065700D01*
X206640336Y-154033295D01*
X206748764Y-153970695D01*
X206837295Y-153882164D01*
X206899895Y-153773736D01*
X206932300Y-153652801D01*
X206932300Y-153527599D01*
X206899895Y-153406664D01*
X206837295Y-153298236D01*
X206748764Y-153209705D01*
X206640336Y-153147105D01*
X206640337Y-153147105D01*
X206567838Y-153127679D01*
X206519401Y-153114700D01*
X206394199Y-153114700D01*
X206345762Y-153127679D01*
X206273263Y-153147105D01*
X206164837Y-153209704D01*
X206164834Y-153209706D01*
X206070660Y-153303881D01*
X206009337Y-153337366D01*
X205982979Y-153340200D01*
X205326800Y-153340200D01*
X205326800Y-152840200D01*
X206051800Y-152840200D01*
X206051800Y-152464245D01*
X206051799Y-152464241D01*
X206012412Y-152266225D01*
X206012409Y-152266216D01*
X205935147Y-152079686D01*
X205935140Y-152079673D01*
X205822970Y-151911800D01*
X205822967Y-151911796D01*
X205680203Y-151769032D01*
X205680199Y-151769029D01*
X205512326Y-151656859D01*
X205512313Y-151656852D01*
X205325784Y-151579590D01*
X205325777Y-151579588D01*
X205276800Y-151569845D01*
X205276800Y-152373211D01*
X205266860Y-152355995D01*
X205211005Y-152300140D01*
X205142596Y-152260644D01*
X205066296Y-152240200D01*
X204987304Y-152240200D01*
X204911004Y-152260644D01*
X204842595Y-152300140D01*
X204786740Y-152355995D01*
X204776800Y-152373211D01*
X204776800Y-151569846D01*
X204776799Y-151569845D01*
X204727822Y-151579588D01*
X204727815Y-151579590D01*
X204541286Y-151656852D01*
X204541273Y-151656859D01*
X204502891Y-151682506D01*
X204436213Y-151703384D01*
X204368833Y-151684899D01*
X204322143Y-151632920D01*
X204310000Y-151579404D01*
X204310000Y-150772029D01*
X204329685Y-150704990D01*
X204382489Y-150659235D01*
X204421846Y-150648626D01*
X204427441Y-150648074D01*
X204427443Y-150648075D01*
X204623575Y-150628758D01*
X204812170Y-150571548D01*
X204820597Y-150567044D01*
X204985975Y-150478647D01*
X204985981Y-150478644D01*
X205138326Y-150353617D01*
X205263353Y-150201272D01*
X205356257Y-150027461D01*
X205413467Y-149838866D01*
X205432784Y-149642734D01*
X205432783Y-149642733D01*
X205433381Y-149636671D01*
X205434908Y-149636821D01*
X205452469Y-149577016D01*
X205469103Y-149556374D01*
X205952259Y-149073219D01*
X206013582Y-149039734D01*
X206039940Y-149036900D01*
X211800371Y-149036900D01*
X211867410Y-149056585D01*
X211882283Y-149068570D01*
X211882408Y-149068419D01*
X212039460Y-149197309D01*
X212039467Y-149197313D01*
X212213266Y-149290211D01*
X212213269Y-149290211D01*
X212213273Y-149290214D01*
X212401868Y-149347424D01*
X212598000Y-149366741D01*
X212794132Y-149347424D01*
X212982727Y-149290214D01*
X212997010Y-149282580D01*
X213084747Y-149235683D01*
X213156538Y-149197310D01*
X213308883Y-149072283D01*
X213433910Y-148919938D01*
X213504948Y-148787036D01*
X213526811Y-148746133D01*
X213526811Y-148746132D01*
X213526814Y-148746127D01*
X213584024Y-148557532D01*
X213603341Y-148361400D01*
X213584024Y-148165268D01*
X213526814Y-147976673D01*
X213526811Y-147976667D01*
X213488142Y-147904322D01*
X213473500Y-147845869D01*
X213473500Y-147589368D01*
X213473499Y-147589366D01*
X213439856Y-147420233D01*
X213439855Y-147420226D01*
X213439853Y-147420221D01*
X213373861Y-147260901D01*
X213373854Y-147260888D01*
X213278046Y-147117502D01*
X213278045Y-147117501D01*
X213156099Y-146995555D01*
X212349444Y-146188900D01*
X210793902Y-144633357D01*
X210793898Y-144633354D01*
X210650511Y-144537545D01*
X210650498Y-144537538D01*
X210491178Y-144471546D01*
X210491166Y-144471543D01*
X210322032Y-144437900D01*
X210322029Y-144437900D01*
X195996429Y-144437900D01*
X195823971Y-144437900D01*
X195823968Y-144437900D01*
X195654833Y-144471543D01*
X195654821Y-144471546D01*
X195495501Y-144537538D01*
X195495488Y-144537545D01*
X195352101Y-144633354D01*
X195352097Y-144633357D01*
X192867955Y-147117501D01*
X192156901Y-147828555D01*
X192108527Y-147876929D01*
X192034953Y-147950502D01*
X191939145Y-148093888D01*
X191939138Y-148093901D01*
X191873146Y-148253221D01*
X191873143Y-148253233D01*
X191839500Y-148422366D01*
X191839500Y-148856099D01*
X191819815Y-148923138D01*
X191803181Y-148943780D01*
X191695731Y-149051229D01*
X191695726Y-149051235D01*
X191562701Y-149241214D01*
X191562699Y-149241218D01*
X191464681Y-149451417D01*
X191404651Y-149675448D01*
X191404650Y-149675455D01*
X191384437Y-149906498D01*
X191384437Y-149906502D01*
X191390116Y-149971417D01*
X191376349Y-150039917D01*
X191327734Y-150090100D01*
X191259705Y-150106033D01*
X191247193Y-150104698D01*
X191241288Y-150103762D01*
X190370000Y-150975050D01*
X190370000Y-150684943D01*
X190345981Y-150564194D01*
X190298868Y-150450452D01*
X190254258Y-150383688D01*
X190967272Y-149670675D01*
X190967272Y-149670673D01*
X190803620Y-149507022D01*
X190803619Y-149507021D01*
X190596686Y-149356675D01*
X190368784Y-149240552D01*
X190368781Y-149240551D01*
X190125523Y-149161513D01*
X189872889Y-149121500D01*
X189617111Y-149121500D01*
X189364476Y-149161513D01*
X189121218Y-149240551D01*
X189121215Y-149240552D01*
X188900395Y-149353067D01*
X188831726Y-149365963D01*
X188766985Y-149339687D01*
X188726728Y-149282580D01*
X188720100Y-149242582D01*
X188720100Y-142671799D01*
X190064171Y-142671799D01*
X190064171Y-142671800D01*
X190083844Y-142884110D01*
X190142196Y-143089192D01*
X190142196Y-143089194D01*
X190237232Y-143280053D01*
X190365727Y-143450206D01*
X190365728Y-143450207D01*
X190523298Y-143593852D01*
X190704581Y-143706098D01*
X190903402Y-143783121D01*
X191112990Y-143822300D01*
X191112992Y-143822300D01*
X191326208Y-143822300D01*
X191326210Y-143822300D01*
X191535798Y-143783121D01*
X191734619Y-143706098D01*
X191915902Y-143593852D01*
X192073472Y-143450207D01*
X192201966Y-143280055D01*
X192297005Y-143089189D01*
X192355356Y-142884110D01*
X192375029Y-142671800D01*
X192375029Y-142671799D01*
X210697571Y-142671799D01*
X210697571Y-142671800D01*
X210717244Y-142884110D01*
X210775596Y-143089192D01*
X210775596Y-143089194D01*
X210870632Y-143280053D01*
X210999127Y-143450206D01*
X210999128Y-143450207D01*
X211156698Y-143593852D01*
X211337981Y-143706098D01*
X211536802Y-143783121D01*
X211746390Y-143822300D01*
X211746392Y-143822300D01*
X211959608Y-143822300D01*
X211959610Y-143822300D01*
X212169198Y-143783121D01*
X212368019Y-143706098D01*
X212549302Y-143593852D01*
X212706872Y-143450207D01*
X212835366Y-143280055D01*
X212930405Y-143089189D01*
X212988756Y-142884110D01*
X213008429Y-142671800D01*
X212988756Y-142459490D01*
X212930405Y-142254411D01*
X212930403Y-142254406D01*
X212930403Y-142254405D01*
X212835367Y-142063546D01*
X212706872Y-141893393D01*
X212633992Y-141826954D01*
X212549302Y-141749748D01*
X212368019Y-141637502D01*
X212368017Y-141637501D01*
X212268608Y-141598990D01*
X212169198Y-141560479D01*
X211959610Y-141521300D01*
X211746390Y-141521300D01*
X211536802Y-141560479D01*
X211536799Y-141560479D01*
X211536799Y-141560480D01*
X211337982Y-141637501D01*
X211337980Y-141637502D01*
X211156699Y-141749747D01*
X210999127Y-141893393D01*
X210870632Y-142063546D01*
X210775596Y-142254405D01*
X210775596Y-142254407D01*
X210717244Y-142459489D01*
X210697571Y-142671799D01*
X192375029Y-142671799D01*
X192355356Y-142459490D01*
X192297005Y-142254411D01*
X192297003Y-142254406D01*
X192297003Y-142254405D01*
X192201967Y-142063546D01*
X192073472Y-141893393D01*
X192000592Y-141826954D01*
X191915902Y-141749748D01*
X191734619Y-141637502D01*
X191734617Y-141637501D01*
X191635208Y-141598990D01*
X191535798Y-141560479D01*
X191326210Y-141521300D01*
X191112990Y-141521300D01*
X190903402Y-141560479D01*
X190903399Y-141560479D01*
X190903399Y-141560480D01*
X190704582Y-141637501D01*
X190704580Y-141637502D01*
X190523299Y-141749747D01*
X190365727Y-141893393D01*
X190237232Y-142063546D01*
X190142196Y-142254405D01*
X190142196Y-142254407D01*
X190083844Y-142459489D01*
X190064171Y-142671799D01*
X188720100Y-142671799D01*
X188720100Y-117195600D01*
X190536059Y-117195600D01*
X190555375Y-117391729D01*
X190612588Y-117580333D01*
X190705486Y-117754132D01*
X190705490Y-117754139D01*
X190830516Y-117906483D01*
X190982860Y-118031509D01*
X190982867Y-118031513D01*
X191156666Y-118124411D01*
X191156669Y-118124411D01*
X191156673Y-118124414D01*
X191345268Y-118181624D01*
X191426451Y-118189619D01*
X191491237Y-118215779D01*
X191531597Y-118272813D01*
X191534714Y-118342613D01*
X191521686Y-118375019D01*
X191515224Y-118386211D01*
X191515223Y-118386215D01*
X191474299Y-118538943D01*
X191474299Y-118538945D01*
X191474299Y-118707046D01*
X191474300Y-118707059D01*
X191474300Y-122823930D01*
X191474299Y-122823948D01*
X191474299Y-122989654D01*
X191474298Y-122989654D01*
X191474299Y-122989657D01*
X191515223Y-123142385D01*
X191515224Y-123142386D01*
X191519098Y-123149098D01*
X191519100Y-123149100D01*
X191594277Y-123279312D01*
X191594281Y-123279317D01*
X191713149Y-123398185D01*
X191713155Y-123398190D01*
X192453981Y-124139016D01*
X192487466Y-124200339D01*
X192490300Y-124226697D01*
X192490300Y-128462730D01*
X192490299Y-128462748D01*
X192490299Y-128628454D01*
X192490298Y-128628454D01*
X192531223Y-128781186D01*
X192542307Y-128800382D01*
X192542308Y-128800387D01*
X192542309Y-128800387D01*
X192610275Y-128918109D01*
X192610281Y-128918117D01*
X192729149Y-129036985D01*
X192729155Y-129036990D01*
X193469981Y-129777816D01*
X193503466Y-129839139D01*
X193506300Y-129865497D01*
X193506300Y-133872930D01*
X193506299Y-133872948D01*
X193506299Y-134038654D01*
X193506298Y-134038654D01*
X193547223Y-134191386D01*
X193558441Y-134210814D01*
X193558442Y-134210819D01*
X193558443Y-134210819D01*
X193626275Y-134328309D01*
X193626281Y-134328317D01*
X193745149Y-134447185D01*
X193745155Y-134447190D01*
X194333581Y-135035616D01*
X194367066Y-135096939D01*
X194369900Y-135123297D01*
X194369900Y-136565330D01*
X194369899Y-136565348D01*
X194369899Y-136731054D01*
X194369898Y-136731054D01*
X194410823Y-136883785D01*
X194427525Y-136912712D01*
X194427526Y-136912716D01*
X194489875Y-137020709D01*
X194489881Y-137020717D01*
X194608749Y-137139585D01*
X194608755Y-137139590D01*
X194964781Y-137495616D01*
X194998266Y-137556939D01*
X195001100Y-137583297D01*
X195001100Y-138954347D01*
X194981415Y-139021386D01*
X194974050Y-139031656D01*
X194971786Y-139034494D01*
X194875811Y-139187236D01*
X194816231Y-139357505D01*
X194816230Y-139357510D01*
X194796035Y-139536756D01*
X194796035Y-139536763D01*
X194816230Y-139716009D01*
X194816231Y-139716014D01*
X194875811Y-139886283D01*
X194910918Y-139942155D01*
X194971784Y-140039022D01*
X195099338Y-140166576D01*
X195252078Y-140262549D01*
X195422345Y-140322128D01*
X195422350Y-140322129D01*
X195601596Y-140342325D01*
X195601600Y-140342325D01*
X195601604Y-140342325D01*
X195780849Y-140322129D01*
X195780852Y-140322128D01*
X195780855Y-140322128D01*
X195951122Y-140262549D01*
X196103862Y-140166576D01*
X196231416Y-140039022D01*
X196327389Y-139886282D01*
X196386968Y-139716015D01*
X196389540Y-139693192D01*
X196407165Y-139536763D01*
X196407165Y-139536756D01*
X196386969Y-139357510D01*
X196386968Y-139357505D01*
X196327388Y-139187236D01*
X196245680Y-139057199D01*
X196231416Y-139034498D01*
X196231414Y-139034496D01*
X196231413Y-139034494D01*
X196229150Y-139031656D01*
X196228259Y-139029475D01*
X196227711Y-139028602D01*
X196227864Y-139028505D01*
X196202744Y-138966969D01*
X196202100Y-138954347D01*
X196202100Y-137372260D01*
X196202101Y-137372247D01*
X196202101Y-137204144D01*
X196188448Y-137153192D01*
X196161177Y-137051416D01*
X196134697Y-137005552D01*
X196118226Y-136937653D01*
X196141079Y-136871626D01*
X196154405Y-136855873D01*
X196241616Y-136768662D01*
X196337589Y-136615922D01*
X196397168Y-136445655D01*
X196407934Y-136350105D01*
X196417365Y-136266403D01*
X196417365Y-136266396D01*
X196397169Y-136087150D01*
X196397168Y-136087145D01*
X196391729Y-136071602D01*
X196337589Y-135916878D01*
X196241616Y-135764138D01*
X196241614Y-135764136D01*
X196241613Y-135764134D01*
X196239350Y-135761296D01*
X196238459Y-135759115D01*
X196237911Y-135758242D01*
X196238064Y-135758145D01*
X196212944Y-135696609D01*
X196212300Y-135683987D01*
X196212300Y-134775945D01*
X196212300Y-134775943D01*
X196171377Y-134623216D01*
X196171377Y-134623215D01*
X196122738Y-134538969D01*
X196106266Y-134471074D01*
X196129118Y-134405047D01*
X196142434Y-134389303D01*
X196231416Y-134300322D01*
X196327389Y-134147582D01*
X196386968Y-133977315D01*
X196386981Y-133977199D01*
X196407165Y-133798063D01*
X196407165Y-133798056D01*
X196386969Y-133618810D01*
X196386968Y-133618805D01*
X196372900Y-133578600D01*
X196327389Y-133448538D01*
X196231416Y-133295798D01*
X196231414Y-133295796D01*
X196231413Y-133295794D01*
X196229150Y-133292956D01*
X196228259Y-133290775D01*
X196227711Y-133289902D01*
X196227864Y-133289805D01*
X196202744Y-133228269D01*
X196202100Y-133215647D01*
X196202100Y-131911260D01*
X196202101Y-131911247D01*
X196202101Y-131743144D01*
X196183460Y-131673577D01*
X196161177Y-131590416D01*
X196149580Y-131570330D01*
X196133108Y-131502431D01*
X196155961Y-131436404D01*
X196169276Y-131420661D01*
X196231416Y-131358522D01*
X196327389Y-131205782D01*
X196386968Y-131035515D01*
X196391916Y-130991602D01*
X196407165Y-130856263D01*
X196407165Y-130856256D01*
X196386969Y-130677010D01*
X196386968Y-130677005D01*
X196327388Y-130506736D01*
X196262597Y-130403623D01*
X196231416Y-130353998D01*
X196231414Y-130353996D01*
X196231413Y-130353994D01*
X196229150Y-130351156D01*
X196228259Y-130348975D01*
X196227711Y-130348102D01*
X196227864Y-130348005D01*
X196202744Y-130286469D01*
X196202100Y-130273847D01*
X196202100Y-129203143D01*
X196200370Y-129196684D01*
X196161177Y-129050415D01*
X196149344Y-129029920D01*
X196119937Y-128978985D01*
X196082122Y-128913487D01*
X196082118Y-128913482D01*
X196060308Y-128891672D01*
X196026823Y-128830349D01*
X196031807Y-128760657D01*
X196060308Y-128716310D01*
X196071416Y-128705202D01*
X196167389Y-128552462D01*
X196226968Y-128382195D01*
X196234393Y-128316300D01*
X196247165Y-128202943D01*
X196247165Y-128202936D01*
X196226969Y-128023690D01*
X196226968Y-128023685D01*
X196185940Y-127906434D01*
X196167389Y-127853418D01*
X196071416Y-127700678D01*
X195943862Y-127573124D01*
X195791121Y-127477150D01*
X195620849Y-127417570D01*
X195533932Y-127407777D01*
X195469518Y-127380710D01*
X195460135Y-127372238D01*
X195404019Y-127316122D01*
X195370534Y-127254799D01*
X195367700Y-127228441D01*
X195367700Y-126281144D01*
X195387385Y-126214105D01*
X195440189Y-126168350D01*
X195477814Y-126157924D01*
X195542658Y-126150618D01*
X195620850Y-126141809D01*
X195620853Y-126141808D01*
X195620855Y-126141808D01*
X195791122Y-126082229D01*
X195943862Y-125986256D01*
X196071416Y-125858702D01*
X196167389Y-125705962D01*
X196226968Y-125535695D01*
X196229751Y-125510994D01*
X196247165Y-125356443D01*
X196247165Y-125356436D01*
X196226969Y-125177190D01*
X196226968Y-125177185D01*
X196167388Y-125006916D01*
X196134245Y-124954170D01*
X196071416Y-124854178D01*
X196071414Y-124854176D01*
X196071413Y-124854174D01*
X196069150Y-124851336D01*
X196068259Y-124849155D01*
X196067711Y-124848282D01*
X196067864Y-124848185D01*
X196042744Y-124786649D01*
X196042100Y-124774027D01*
X196042100Y-123201146D01*
X196042100Y-123201143D01*
X196038336Y-123187095D01*
X196013921Y-123095976D01*
X196015583Y-123026129D01*
X196046011Y-122976205D01*
X196112786Y-122909432D01*
X196208759Y-122756692D01*
X196268338Y-122586425D01*
X196275213Y-122525411D01*
X196288535Y-122407173D01*
X196288535Y-122407166D01*
X196268339Y-122227920D01*
X196268338Y-122227915D01*
X196208758Y-122057646D01*
X196169552Y-121995250D01*
X196112786Y-121904908D01*
X195985232Y-121777354D01*
X195832491Y-121681380D01*
X195662219Y-121621800D01*
X195575300Y-121612007D01*
X195510886Y-121584940D01*
X195501503Y-121576468D01*
X195302419Y-121377383D01*
X195268934Y-121316060D01*
X195266100Y-121289702D01*
X195266100Y-120507750D01*
X195285785Y-120440711D01*
X195338589Y-120394956D01*
X195403982Y-120384530D01*
X195469606Y-120391924D01*
X195507598Y-120396205D01*
X195507600Y-120396205D01*
X195507604Y-120396205D01*
X195686849Y-120376009D01*
X195686852Y-120376008D01*
X195686855Y-120376008D01*
X195857122Y-120316429D01*
X196009862Y-120220456D01*
X196009867Y-120220450D01*
X196012697Y-120218195D01*
X196014875Y-120217305D01*
X196015758Y-120216751D01*
X196015855Y-120216905D01*
X196077383Y-120191785D01*
X196090012Y-120191140D01*
X196959091Y-120191140D01*
X196959107Y-120191141D01*
X196966703Y-120191141D01*
X197124814Y-120191141D01*
X197124817Y-120191141D01*
X197277545Y-120150217D01*
X197327664Y-120121279D01*
X197414476Y-120071160D01*
X197526280Y-119959356D01*
X197526280Y-119959354D01*
X197536488Y-119949147D01*
X197536489Y-119949144D01*
X200948616Y-116537019D01*
X201009939Y-116503534D01*
X201036297Y-116500700D01*
X202812968Y-116500700D01*
X202880007Y-116520385D01*
X202925762Y-116573189D01*
X202935706Y-116642347D01*
X202906681Y-116705903D01*
X202878940Y-116729694D01*
X202799119Y-116779848D01*
X202671566Y-116907401D01*
X202575593Y-117060140D01*
X202516013Y-117230409D01*
X202516012Y-117230414D01*
X202495817Y-117409660D01*
X202495817Y-117409667D01*
X202516012Y-117588913D01*
X202516013Y-117588918D01*
X202575593Y-117759187D01*
X202612485Y-117817900D01*
X202671566Y-117911926D01*
X202799120Y-118039480D01*
X202951860Y-118135453D01*
X203122127Y-118195032D01*
X203209051Y-118204825D01*
X203273462Y-118231890D01*
X203282847Y-118240364D01*
X203314400Y-118271917D01*
X203347885Y-118333240D01*
X203342901Y-118402932D01*
X203301029Y-118458865D01*
X203297843Y-118461173D01*
X203141722Y-118570490D01*
X203141720Y-118570491D01*
X202974691Y-118737520D01*
X202974690Y-118737522D01*
X202844375Y-118923631D01*
X202789798Y-118967255D01*
X202720299Y-118974448D01*
X202657945Y-118942926D01*
X202641225Y-118923631D01*
X202510909Y-118737522D01*
X202510908Y-118737520D01*
X202343882Y-118570494D01*
X202150378Y-118434999D01*
X201936292Y-118335170D01*
X201936286Y-118335167D01*
X201722800Y-118277964D01*
X201722800Y-119175588D01*
X201665793Y-119142675D01*
X201538626Y-119108600D01*
X201406974Y-119108600D01*
X201279807Y-119142675D01*
X201222800Y-119175588D01*
X201222800Y-118277964D01*
X201222799Y-118277964D01*
X201009313Y-118335167D01*
X201009307Y-118335170D01*
X200795222Y-118434999D01*
X200795220Y-118435000D01*
X200601726Y-118570486D01*
X200601720Y-118570491D01*
X200434691Y-118737520D01*
X200434686Y-118737526D01*
X200299200Y-118931020D01*
X200299199Y-118931022D01*
X200199370Y-119145107D01*
X200199367Y-119145113D01*
X200142164Y-119358599D01*
X200142164Y-119358600D01*
X201039788Y-119358600D01*
X201006875Y-119415607D01*
X200972800Y-119542774D01*
X200972800Y-119674426D01*
X201006875Y-119801593D01*
X201039788Y-119858600D01*
X200142164Y-119858600D01*
X200199367Y-120072086D01*
X200199370Y-120072092D01*
X200299199Y-120286178D01*
X200434694Y-120479682D01*
X200601717Y-120646705D01*
X200787395Y-120776719D01*
X200831019Y-120831296D01*
X200838212Y-120900795D01*
X200806690Y-120963149D01*
X200787395Y-120979869D01*
X200601394Y-121110108D01*
X200434305Y-121277197D01*
X200298765Y-121470769D01*
X200298764Y-121470771D01*
X200198898Y-121684935D01*
X200198894Y-121684944D01*
X200137738Y-121913186D01*
X200137736Y-121913196D01*
X200117141Y-122148599D01*
X200117141Y-122148600D01*
X200137736Y-122384003D01*
X200137738Y-122384013D01*
X200198894Y-122612255D01*
X200198896Y-122612259D01*
X200198897Y-122612263D01*
X200262630Y-122748938D01*
X200298765Y-122826430D01*
X200298767Y-122826434D01*
X200403637Y-122976202D01*
X200434305Y-123020001D01*
X200601399Y-123187095D01*
X200601401Y-123187097D01*
X200601403Y-123187098D01*
X200786958Y-123317025D01*
X200830583Y-123371602D01*
X200837777Y-123441100D01*
X200806254Y-123503455D01*
X200786958Y-123520175D01*
X200601397Y-123650105D01*
X200434305Y-123817197D01*
X200298765Y-124010769D01*
X200298764Y-124010771D01*
X200198898Y-124224935D01*
X200198894Y-124224944D01*
X200137738Y-124453186D01*
X200137736Y-124453196D01*
X200117141Y-124688599D01*
X200117141Y-124688600D01*
X200137736Y-124924003D01*
X200137738Y-124924013D01*
X200198894Y-125152255D01*
X200198896Y-125152259D01*
X200198897Y-125152263D01*
X200210521Y-125177190D01*
X200298765Y-125366430D01*
X200298767Y-125366434D01*
X200404528Y-125517475D01*
X200434301Y-125559996D01*
X200434306Y-125560002D01*
X200601397Y-125727093D01*
X200601403Y-125727098D01*
X200786958Y-125857025D01*
X200830583Y-125911602D01*
X200837777Y-125981100D01*
X200806254Y-126043455D01*
X200786958Y-126060175D01*
X200601397Y-126190105D01*
X200434305Y-126357197D01*
X200298765Y-126550769D01*
X200298764Y-126550771D01*
X200198898Y-126764935D01*
X200198894Y-126764944D01*
X200137738Y-126993186D01*
X200137736Y-126993196D01*
X200117141Y-127228599D01*
X200117141Y-127228600D01*
X200137736Y-127464003D01*
X200137738Y-127464013D01*
X200198894Y-127692255D01*
X200198896Y-127692259D01*
X200198897Y-127692263D01*
X200222211Y-127742260D01*
X200298765Y-127906430D01*
X200298767Y-127906434D01*
X200380868Y-128023685D01*
X200434301Y-128099996D01*
X200434306Y-128100002D01*
X200601397Y-128267093D01*
X200601403Y-128267098D01*
X200786958Y-128397025D01*
X200830583Y-128451602D01*
X200837777Y-128521100D01*
X200806254Y-128583455D01*
X200786958Y-128600175D01*
X200601397Y-128730105D01*
X200434305Y-128897197D01*
X200298765Y-129090769D01*
X200298764Y-129090771D01*
X200198898Y-129304935D01*
X200198894Y-129304944D01*
X200137738Y-129533186D01*
X200137736Y-129533196D01*
X200117141Y-129768599D01*
X200117141Y-129768600D01*
X200137736Y-130004003D01*
X200137738Y-130004013D01*
X200198894Y-130232255D01*
X200198896Y-130232259D01*
X200198897Y-130232263D01*
X200278804Y-130403623D01*
X200298765Y-130446430D01*
X200298767Y-130446434D01*
X200340993Y-130506738D01*
X200434301Y-130639996D01*
X200434306Y-130640002D01*
X200601397Y-130807093D01*
X200601403Y-130807098D01*
X200786958Y-130937025D01*
X200830583Y-130991602D01*
X200837777Y-131061100D01*
X200806254Y-131123455D01*
X200786958Y-131140175D01*
X200601397Y-131270105D01*
X200434305Y-131437197D01*
X200298765Y-131630769D01*
X200298764Y-131630771D01*
X200198898Y-131844935D01*
X200198894Y-131844944D01*
X200137738Y-132073186D01*
X200137736Y-132073196D01*
X200117141Y-132308599D01*
X200117141Y-132308600D01*
X200137736Y-132544003D01*
X200137738Y-132544013D01*
X200198894Y-132772255D01*
X200198896Y-132772259D01*
X200198897Y-132772263D01*
X200202800Y-132780632D01*
X200298765Y-132986430D01*
X200298767Y-132986434D01*
X200407081Y-133141121D01*
X200434301Y-133179996D01*
X200434306Y-133180002D01*
X200601397Y-133347093D01*
X200601403Y-133347098D01*
X200786958Y-133477025D01*
X200830583Y-133531602D01*
X200837777Y-133601100D01*
X200806254Y-133663455D01*
X200786958Y-133680175D01*
X200601397Y-133810105D01*
X200434305Y-133977197D01*
X200298765Y-134170769D01*
X200298764Y-134170771D01*
X200198898Y-134384935D01*
X200198894Y-134384944D01*
X200137738Y-134613186D01*
X200137736Y-134613196D01*
X200117141Y-134848599D01*
X200117141Y-134848600D01*
X200137736Y-135084003D01*
X200137738Y-135084013D01*
X200198894Y-135312255D01*
X200198896Y-135312259D01*
X200198897Y-135312263D01*
X200274002Y-135473325D01*
X200298765Y-135526430D01*
X200298767Y-135526434D01*
X200391385Y-135658705D01*
X200434301Y-135719996D01*
X200434306Y-135720002D01*
X200601397Y-135887093D01*
X200601403Y-135887098D01*
X200786958Y-136017025D01*
X200830583Y-136071602D01*
X200837777Y-136141100D01*
X200806254Y-136203455D01*
X200786958Y-136220175D01*
X200601397Y-136350105D01*
X200434305Y-136517197D01*
X200298765Y-136710769D01*
X200298764Y-136710771D01*
X200198898Y-136924935D01*
X200198894Y-136924944D01*
X200137738Y-137153186D01*
X200137736Y-137153196D01*
X200117141Y-137388599D01*
X200117141Y-137388600D01*
X200137736Y-137624003D01*
X200137738Y-137624013D01*
X200198894Y-137852255D01*
X200198896Y-137852259D01*
X200198897Y-137852263D01*
X200278804Y-138023623D01*
X200298765Y-138066430D01*
X200298767Y-138066434D01*
X200378402Y-138180164D01*
X200434301Y-138259996D01*
X200434306Y-138260002D01*
X200601397Y-138427093D01*
X200601403Y-138427098D01*
X200786958Y-138557025D01*
X200830583Y-138611602D01*
X200837777Y-138681100D01*
X200806254Y-138743455D01*
X200786958Y-138760175D01*
X200601397Y-138890105D01*
X200434305Y-139057197D01*
X200298765Y-139250769D01*
X200298764Y-139250771D01*
X200198898Y-139464935D01*
X200198894Y-139464944D01*
X200137738Y-139693186D01*
X200137736Y-139693196D01*
X200117141Y-139928599D01*
X200117141Y-139928600D01*
X200137736Y-140164003D01*
X200137738Y-140164013D01*
X200198894Y-140392255D01*
X200198896Y-140392259D01*
X200198897Y-140392263D01*
X200278207Y-140562343D01*
X200298765Y-140606430D01*
X200298767Y-140606434D01*
X200393404Y-140741589D01*
X200434305Y-140800001D01*
X200601399Y-140967095D01*
X200698184Y-141034865D01*
X200794965Y-141102632D01*
X200794967Y-141102633D01*
X200794970Y-141102635D01*
X201009137Y-141202503D01*
X201237392Y-141263663D01*
X201413834Y-141279100D01*
X201472799Y-141284259D01*
X201472800Y-141284259D01*
X201472801Y-141284259D01*
X201531766Y-141279100D01*
X201708208Y-141263663D01*
X201936463Y-141202503D01*
X202150630Y-141102635D01*
X202344201Y-140967095D01*
X202466129Y-140845166D01*
X202527448Y-140811684D01*
X202597140Y-140816668D01*
X202653074Y-140858539D01*
X202669989Y-140889517D01*
X202719002Y-141020928D01*
X202719006Y-141020935D01*
X202805252Y-141136144D01*
X202805255Y-141136147D01*
X202920464Y-141222393D01*
X202920471Y-141222397D01*
X203055317Y-141272691D01*
X203055316Y-141272691D01*
X203062244Y-141273435D01*
X203114927Y-141279100D01*
X204910672Y-141279099D01*
X204970283Y-141272691D01*
X205105131Y-141222396D01*
X205220346Y-141136146D01*
X205306596Y-141020931D01*
X205356891Y-140886083D01*
X205363300Y-140826473D01*
X205363299Y-140141694D01*
X205382983Y-140074657D01*
X205435787Y-140028902D01*
X205504946Y-140018958D01*
X205568502Y-140047983D01*
X205574980Y-140054015D01*
X206447679Y-140926714D01*
X206447689Y-140926725D01*
X206452019Y-140931055D01*
X206452020Y-140931056D01*
X206563824Y-141042860D01*
X206563826Y-141042861D01*
X206563830Y-141042864D01*
X206667358Y-141102635D01*
X206700756Y-141121917D01*
X206812559Y-141151874D01*
X206853482Y-141162840D01*
X206853483Y-141162840D01*
X209180388Y-141162840D01*
X209247427Y-141182525D01*
X209257703Y-141189895D01*
X209260536Y-141192154D01*
X209260538Y-141192156D01*
X209374070Y-141263492D01*
X209388708Y-141272691D01*
X209413278Y-141288129D01*
X209583545Y-141347708D01*
X209583550Y-141347709D01*
X209762796Y-141367905D01*
X209762800Y-141367905D01*
X209762804Y-141367905D01*
X209942049Y-141347709D01*
X209942052Y-141347708D01*
X209942055Y-141347708D01*
X210112322Y-141288129D01*
X210265062Y-141192156D01*
X210392616Y-141064602D01*
X210488589Y-140911862D01*
X210548168Y-140741595D01*
X210563397Y-140606434D01*
X210568365Y-140562343D01*
X210568365Y-140562336D01*
X210548169Y-140383090D01*
X210548168Y-140383085D01*
X210533905Y-140342325D01*
X210488589Y-140212818D01*
X210457916Y-140164003D01*
X210443900Y-140141696D01*
X210392616Y-140060078D01*
X210265062Y-139932524D01*
X210191470Y-139886283D01*
X210112323Y-139836551D01*
X209942054Y-139776971D01*
X209942049Y-139776970D01*
X209762804Y-139756775D01*
X209762796Y-139756775D01*
X209583550Y-139776970D01*
X209583545Y-139776971D01*
X209413276Y-139836551D01*
X209260536Y-139932525D01*
X209257703Y-139934785D01*
X209255524Y-139935674D01*
X209254642Y-139936229D01*
X209254544Y-139936074D01*
X209193017Y-139961195D01*
X209180388Y-139961840D01*
X207232637Y-139961840D01*
X207165598Y-139942155D01*
X207144956Y-139925521D01*
X206199019Y-138979584D01*
X206165534Y-138918261D01*
X206162700Y-138891903D01*
X206162700Y-137893097D01*
X206182385Y-137826058D01*
X206235189Y-137780303D01*
X206304347Y-137770359D01*
X206367903Y-137799384D01*
X206374375Y-137805411D01*
X206749124Y-138180160D01*
X206749126Y-138180161D01*
X206749130Y-138180164D01*
X206886049Y-138259213D01*
X206886056Y-138259217D01*
X207038783Y-138300141D01*
X207038785Y-138300141D01*
X207204494Y-138300141D01*
X207204510Y-138300140D01*
X209184788Y-138300140D01*
X209251827Y-138319825D01*
X209262103Y-138327195D01*
X209264936Y-138329454D01*
X209264938Y-138329456D01*
X209417678Y-138425429D01*
X209468605Y-138443249D01*
X209587945Y-138485008D01*
X209587950Y-138485009D01*
X209767196Y-138505205D01*
X209767200Y-138505205D01*
X209767204Y-138505205D01*
X209946449Y-138485009D01*
X209946452Y-138485008D01*
X209946455Y-138485008D01*
X210116722Y-138425429D01*
X210269462Y-138329456D01*
X210397016Y-138201902D01*
X210492989Y-138049162D01*
X210552568Y-137878895D01*
X210555570Y-137852255D01*
X210572765Y-137699643D01*
X210572765Y-137699636D01*
X210552569Y-137520390D01*
X210552568Y-137520385D01*
X210492988Y-137350116D01*
X210401267Y-137204144D01*
X210397016Y-137197378D01*
X210269462Y-137069824D01*
X210191309Y-137020717D01*
X210116723Y-136973851D01*
X209946454Y-136914271D01*
X209946449Y-136914270D01*
X209767204Y-136894075D01*
X209767196Y-136894075D01*
X209587950Y-136914270D01*
X209587945Y-136914271D01*
X209417676Y-136973851D01*
X209264936Y-137069825D01*
X209262103Y-137072085D01*
X209259924Y-137072974D01*
X209259042Y-137073529D01*
X209258944Y-137073374D01*
X209197417Y-137098495D01*
X209184788Y-137099140D01*
X207417938Y-137099140D01*
X207350899Y-137079455D01*
X207330257Y-137062821D01*
X206599019Y-136331583D01*
X206565534Y-136270260D01*
X206562700Y-136243902D01*
X206562700Y-135245097D01*
X206582385Y-135178058D01*
X206635189Y-135132303D01*
X206704347Y-135122359D01*
X206767903Y-135151384D01*
X206774381Y-135157416D01*
X206834479Y-135217514D01*
X206834489Y-135217525D01*
X206838819Y-135221855D01*
X206838820Y-135221856D01*
X206950624Y-135333660D01*
X206950626Y-135333661D01*
X206950630Y-135333664D01*
X207087549Y-135412713D01*
X207087556Y-135412717D01*
X207199359Y-135442674D01*
X207240282Y-135453640D01*
X207240283Y-135453640D01*
X209169588Y-135453640D01*
X209236627Y-135473325D01*
X209246903Y-135480695D01*
X209249736Y-135482954D01*
X209249738Y-135482956D01*
X209402478Y-135578929D01*
X209572745Y-135638508D01*
X209572750Y-135638509D01*
X209751996Y-135658705D01*
X209752000Y-135658705D01*
X209752004Y-135658705D01*
X209931249Y-135638509D01*
X209931252Y-135638508D01*
X209931255Y-135638508D01*
X210101522Y-135578929D01*
X210254262Y-135482956D01*
X210381816Y-135355402D01*
X210477789Y-135202662D01*
X210537368Y-135032395D01*
X210557565Y-134853140D01*
X210557053Y-134848600D01*
X210537369Y-134673890D01*
X210537368Y-134673885D01*
X210516132Y-134613196D01*
X210477789Y-134503618D01*
X210466897Y-134486284D01*
X210415853Y-134405047D01*
X210381816Y-134350878D01*
X210254262Y-134223324D01*
X210238750Y-134213577D01*
X210101523Y-134127351D01*
X209931254Y-134067771D01*
X209931249Y-134067770D01*
X209752004Y-134047575D01*
X209751996Y-134047575D01*
X209572750Y-134067770D01*
X209572745Y-134067771D01*
X209402476Y-134127351D01*
X209249736Y-134223325D01*
X209246903Y-134225585D01*
X209244724Y-134226474D01*
X209243842Y-134227029D01*
X209243744Y-134226874D01*
X209182217Y-134251995D01*
X209169588Y-134252640D01*
X207619437Y-134252640D01*
X207552398Y-134232955D01*
X207531756Y-134216321D01*
X206999019Y-133683584D01*
X206965534Y-133622261D01*
X206962700Y-133595903D01*
X206962700Y-131962097D01*
X206982385Y-131895058D01*
X207035189Y-131849303D01*
X207104347Y-131839359D01*
X207167903Y-131868384D01*
X207174376Y-131874412D01*
X207724724Y-132424760D01*
X207724726Y-132424761D01*
X207724730Y-132424764D01*
X207861649Y-132503813D01*
X207861656Y-132503817D01*
X208014383Y-132544741D01*
X208014385Y-132544741D01*
X208180094Y-132544741D01*
X208180110Y-132544740D01*
X209220388Y-132544740D01*
X209287427Y-132564425D01*
X209297703Y-132571795D01*
X209300536Y-132574054D01*
X209300538Y-132574056D01*
X209453278Y-132670029D01*
X209623545Y-132729608D01*
X209623550Y-132729609D01*
X209802796Y-132749805D01*
X209802800Y-132749805D01*
X209802804Y-132749805D01*
X209982049Y-132729609D01*
X209982052Y-132729608D01*
X209982055Y-132729608D01*
X210152322Y-132670029D01*
X210305062Y-132574056D01*
X210432616Y-132446502D01*
X210528589Y-132293762D01*
X210588168Y-132123495D01*
X210588169Y-132123489D01*
X210608365Y-131944243D01*
X210608365Y-131944236D01*
X210588169Y-131764990D01*
X210588168Y-131764985D01*
X210528589Y-131594718D01*
X210432616Y-131441978D01*
X210305062Y-131314424D01*
X210293917Y-131307421D01*
X210152323Y-131218451D01*
X209982054Y-131158871D01*
X209982049Y-131158870D01*
X209802804Y-131138675D01*
X209802796Y-131138675D01*
X209623550Y-131158870D01*
X209623545Y-131158871D01*
X209453276Y-131218451D01*
X209300536Y-131314425D01*
X209297703Y-131316685D01*
X209295524Y-131317574D01*
X209294642Y-131318129D01*
X209294544Y-131317974D01*
X209233017Y-131343095D01*
X209220388Y-131343740D01*
X208393538Y-131343740D01*
X208326499Y-131324055D01*
X208305857Y-131307421D01*
X207418219Y-130419783D01*
X207384734Y-130358460D01*
X207381900Y-130332102D01*
X207381900Y-129358697D01*
X207401585Y-129291658D01*
X207454389Y-129245903D01*
X207523547Y-129235959D01*
X207587103Y-129264984D01*
X207593558Y-129270994D01*
X207719884Y-129397320D01*
X207719886Y-129397321D01*
X207719887Y-129397322D01*
X207719890Y-129397324D01*
X207856809Y-129476373D01*
X207856816Y-129476377D01*
X208009543Y-129517301D01*
X208009545Y-129517301D01*
X208175254Y-129517301D01*
X208175270Y-129517300D01*
X209308788Y-129517300D01*
X209375827Y-129536985D01*
X209386103Y-129544355D01*
X209388936Y-129546614D01*
X209388938Y-129546616D01*
X209541678Y-129642589D01*
X209711945Y-129702168D01*
X209711950Y-129702169D01*
X209891196Y-129722365D01*
X209891200Y-129722365D01*
X209891204Y-129722365D01*
X210070449Y-129702169D01*
X210070452Y-129702168D01*
X210070455Y-129702168D01*
X210240722Y-129642589D01*
X210393462Y-129546616D01*
X210521016Y-129419062D01*
X210616989Y-129266322D01*
X210676568Y-129096055D01*
X210676569Y-129096049D01*
X210696765Y-128916803D01*
X210696765Y-128916796D01*
X210676569Y-128737550D01*
X210676568Y-128737545D01*
X210626537Y-128594565D01*
X210616989Y-128567278D01*
X210607679Y-128552462D01*
X210559698Y-128476100D01*
X210521016Y-128414538D01*
X210393462Y-128286984D01*
X210361806Y-128267093D01*
X210240723Y-128191011D01*
X210070454Y-128131431D01*
X210070449Y-128131430D01*
X209891204Y-128111235D01*
X209891196Y-128111235D01*
X209711950Y-128131430D01*
X209711945Y-128131431D01*
X209541676Y-128191011D01*
X209388936Y-128286985D01*
X209386103Y-128289245D01*
X209383924Y-128290134D01*
X209383042Y-128290689D01*
X209382944Y-128290534D01*
X209321417Y-128315655D01*
X209308788Y-128316300D01*
X208388698Y-128316300D01*
X208321659Y-128296615D01*
X208301017Y-128279981D01*
X207824619Y-127803583D01*
X207791134Y-127742260D01*
X207788300Y-127715902D01*
X207788300Y-126539297D01*
X207807985Y-126472258D01*
X207860789Y-126426503D01*
X207929947Y-126416559D01*
X207993503Y-126445584D01*
X207999981Y-126451616D01*
X208050399Y-126502034D01*
X208050409Y-126502045D01*
X208054739Y-126506375D01*
X208054740Y-126506376D01*
X208166544Y-126618180D01*
X208253355Y-126668299D01*
X208253357Y-126668301D01*
X208291411Y-126690271D01*
X208303475Y-126697237D01*
X208456203Y-126738161D01*
X208456206Y-126738161D01*
X208621913Y-126738161D01*
X208621929Y-126738160D01*
X209278788Y-126738160D01*
X209345827Y-126757845D01*
X209356103Y-126765215D01*
X209358936Y-126767474D01*
X209358938Y-126767476D01*
X209511678Y-126863449D01*
X209681945Y-126923028D01*
X209681950Y-126923029D01*
X209861196Y-126943225D01*
X209861200Y-126943225D01*
X209861204Y-126943225D01*
X210040449Y-126923029D01*
X210040452Y-126923028D01*
X210040455Y-126923028D01*
X210210722Y-126863449D01*
X210363462Y-126767476D01*
X210491016Y-126639922D01*
X210586989Y-126487182D01*
X210646568Y-126316915D01*
X210646569Y-126316909D01*
X210666765Y-126137663D01*
X210666765Y-126137656D01*
X210646569Y-125958410D01*
X210646568Y-125958405D01*
X210616944Y-125873745D01*
X210586989Y-125788138D01*
X210491016Y-125635398D01*
X210363462Y-125507844D01*
X210352317Y-125500841D01*
X210210723Y-125411871D01*
X210040454Y-125352291D01*
X210040449Y-125352290D01*
X209861204Y-125332095D01*
X209861196Y-125332095D01*
X209681950Y-125352290D01*
X209681945Y-125352291D01*
X209511676Y-125411871D01*
X209358936Y-125507845D01*
X209356103Y-125510105D01*
X209353924Y-125510994D01*
X209353042Y-125511549D01*
X209352944Y-125511394D01*
X209291417Y-125536515D01*
X209278788Y-125537160D01*
X208835357Y-125537160D01*
X208768318Y-125517475D01*
X208747676Y-125500841D01*
X208231019Y-124984184D01*
X208197534Y-124922861D01*
X208194700Y-124896503D01*
X208194700Y-123854820D01*
X208214385Y-123787781D01*
X208267189Y-123742026D01*
X208336347Y-123732082D01*
X208380699Y-123747432D01*
X208490416Y-123810777D01*
X208643143Y-123851701D01*
X208643145Y-123851701D01*
X208808854Y-123851701D01*
X208808870Y-123851700D01*
X209206388Y-123851700D01*
X209273427Y-123871385D01*
X209283703Y-123878755D01*
X209286536Y-123881014D01*
X209286538Y-123881016D01*
X209439278Y-123976989D01*
X209609545Y-124036568D01*
X209609550Y-124036569D01*
X209788796Y-124056765D01*
X209788800Y-124056765D01*
X209788804Y-124056765D01*
X209968049Y-124036569D01*
X209968052Y-124036568D01*
X209968055Y-124036568D01*
X210138322Y-123976989D01*
X210291062Y-123881016D01*
X210418616Y-123753462D01*
X210514589Y-123600722D01*
X210574168Y-123430455D01*
X210575504Y-123418600D01*
X210594365Y-123251203D01*
X210594365Y-123251196D01*
X210574169Y-123071950D01*
X210574168Y-123071945D01*
X210514588Y-122901676D01*
X210467310Y-122826434D01*
X210418616Y-122748938D01*
X210291062Y-122621384D01*
X210235416Y-122586419D01*
X210138323Y-122525411D01*
X209968054Y-122465831D01*
X209968049Y-122465830D01*
X209788804Y-122445635D01*
X209788796Y-122445635D01*
X209609550Y-122465830D01*
X209609545Y-122465831D01*
X209439276Y-122525411D01*
X209286536Y-122621385D01*
X209283703Y-122623645D01*
X209281524Y-122624534D01*
X209280642Y-122625089D01*
X209280544Y-122624934D01*
X209219017Y-122650055D01*
X209206388Y-122650700D01*
X209022298Y-122650700D01*
X208955259Y-122631015D01*
X208934617Y-122614381D01*
X208637419Y-122317183D01*
X208603934Y-122255860D01*
X208601100Y-122229502D01*
X208601100Y-120974078D01*
X208620785Y-120907039D01*
X208673589Y-120861284D01*
X208742747Y-120851340D01*
X208757194Y-120854303D01*
X208760672Y-120855235D01*
X208760676Y-120855237D01*
X208872479Y-120885194D01*
X208913402Y-120896160D01*
X208913403Y-120896160D01*
X209161988Y-120896160D01*
X209229027Y-120915845D01*
X209239303Y-120923215D01*
X209242136Y-120925474D01*
X209242138Y-120925476D01*
X209394878Y-121021449D01*
X209565145Y-121081028D01*
X209565150Y-121081029D01*
X209744396Y-121101225D01*
X209744400Y-121101225D01*
X209744404Y-121101225D01*
X209923649Y-121081029D01*
X209923652Y-121081028D01*
X209923655Y-121081028D01*
X210093922Y-121021449D01*
X210246662Y-120925476D01*
X210374216Y-120797922D01*
X210470189Y-120645182D01*
X210529768Y-120474915D01*
X210533622Y-120440711D01*
X210549965Y-120295663D01*
X210549965Y-120295656D01*
X210529769Y-120116410D01*
X210529768Y-120116405D01*
X210527037Y-120108600D01*
X210470189Y-119946138D01*
X210374216Y-119793398D01*
X210246662Y-119665844D01*
X210211753Y-119643909D01*
X210093923Y-119569871D01*
X209923654Y-119510291D01*
X209923649Y-119510290D01*
X209744404Y-119490095D01*
X209744396Y-119490095D01*
X209565150Y-119510290D01*
X209565145Y-119510291D01*
X209394874Y-119569872D01*
X209307283Y-119624909D01*
X209240047Y-119643909D01*
X209173212Y-119623541D01*
X209153631Y-119607596D01*
X209037419Y-119491384D01*
X209003934Y-119430061D01*
X209001100Y-119403703D01*
X209001100Y-117438496D01*
X209020785Y-117371457D01*
X209037415Y-117350819D01*
X209551703Y-116836530D01*
X209551708Y-116836527D01*
X209561911Y-116826323D01*
X209561913Y-116826323D01*
X209673717Y-116714519D01*
X209752774Y-116577587D01*
X209784472Y-116459287D01*
X209793697Y-116424861D01*
X209793697Y-116266746D01*
X209793697Y-115898412D01*
X209813382Y-115831373D01*
X209820752Y-115821097D01*
X209823007Y-115818267D01*
X209823013Y-115818262D01*
X209918986Y-115665522D01*
X209978565Y-115495255D01*
X209998762Y-115316000D01*
X209986286Y-115205274D01*
X209978566Y-115136750D01*
X209978565Y-115136745D01*
X209918985Y-114966476D01*
X209860636Y-114873615D01*
X209823013Y-114813738D01*
X209695459Y-114686184D01*
X209636388Y-114649067D01*
X209542720Y-114590211D01*
X209372451Y-114530631D01*
X209372446Y-114530630D01*
X209193201Y-114510435D01*
X209193193Y-114510435D01*
X209013947Y-114530630D01*
X209013942Y-114530631D01*
X208843673Y-114590211D01*
X208690934Y-114686184D01*
X208563381Y-114813737D01*
X208467409Y-114966475D01*
X208467408Y-114966476D01*
X208445710Y-115028485D01*
X208404987Y-115085261D01*
X208369623Y-115104571D01*
X208276527Y-115137146D01*
X208206748Y-115140707D01*
X208146121Y-115105978D01*
X208118531Y-115061059D01*
X208085435Y-114966476D01*
X208072448Y-114929361D01*
X208042414Y-114881563D01*
X207999797Y-114813738D01*
X207976475Y-114776621D01*
X207848921Y-114649067D01*
X207696182Y-114553094D01*
X207525913Y-114493514D01*
X207525908Y-114493513D01*
X207346663Y-114473318D01*
X207346655Y-114473318D01*
X207167409Y-114493513D01*
X207167404Y-114493514D01*
X206997135Y-114553094D01*
X206844396Y-114649067D01*
X206716843Y-114776620D01*
X206716838Y-114776626D01*
X206679989Y-114835272D01*
X206627655Y-114881563D01*
X206574996Y-114893300D01*
X206517990Y-114893300D01*
X206450951Y-114873615D01*
X206405196Y-114820811D01*
X206394770Y-114783183D01*
X206387560Y-114719191D01*
X206387559Y-114719189D01*
X206387559Y-114719186D01*
X206327980Y-114548919D01*
X206232007Y-114396179D01*
X206104453Y-114268625D01*
X206009123Y-114208725D01*
X205951714Y-114172652D01*
X205781445Y-114113072D01*
X205781440Y-114113071D01*
X205602195Y-114092876D01*
X205602187Y-114092876D01*
X205422941Y-114113071D01*
X205422936Y-114113072D01*
X205252667Y-114172652D01*
X205225492Y-114189727D01*
X205158255Y-114208725D01*
X205091420Y-114188355D01*
X205046208Y-114135086D01*
X205044069Y-114129690D01*
X205043389Y-114128277D01*
X204947415Y-113975537D01*
X204819862Y-113847984D01*
X204667123Y-113752011D01*
X204496854Y-113692431D01*
X204496849Y-113692430D01*
X204317604Y-113672235D01*
X204317596Y-113672235D01*
X204138350Y-113692430D01*
X204138337Y-113692433D01*
X203968078Y-113752010D01*
X203961806Y-113755031D01*
X203961139Y-113753647D01*
X203901775Y-113770418D01*
X203834942Y-113750047D01*
X203789731Y-113696776D01*
X203786006Y-113687378D01*
X203785511Y-113685964D01*
X203785511Y-113685963D01*
X203689537Y-113533223D01*
X203561984Y-113405670D01*
X203409245Y-113309697D01*
X203238976Y-113250117D01*
X203238971Y-113250116D01*
X203059726Y-113229921D01*
X203059718Y-113229921D01*
X202880472Y-113250116D01*
X202880459Y-113250119D01*
X202703628Y-113311996D01*
X202702672Y-113309266D01*
X202646498Y-113318485D01*
X202582378Y-113290728D01*
X202544662Y-113236373D01*
X202542744Y-113230892D01*
X202542743Y-113230889D01*
X202470470Y-113115869D01*
X202446770Y-113078150D01*
X202319216Y-112950596D01*
X202266380Y-112917397D01*
X202166477Y-112854623D01*
X201996208Y-112795043D01*
X201996203Y-112795042D01*
X201816958Y-112774847D01*
X201816950Y-112774847D01*
X201637704Y-112795042D01*
X201637696Y-112795044D01*
X201466406Y-112854981D01*
X201396627Y-112858542D01*
X201336000Y-112823813D01*
X201320459Y-112803912D01*
X201241093Y-112677603D01*
X201113538Y-112550048D01*
X200960799Y-112454075D01*
X200790530Y-112394495D01*
X200790525Y-112394494D01*
X200611280Y-112374299D01*
X200611272Y-112374299D01*
X200432026Y-112394494D01*
X200432021Y-112394495D01*
X200261750Y-112454076D01*
X200192340Y-112497689D01*
X200125103Y-112516689D01*
X200058268Y-112496321D01*
X200021375Y-112458667D01*
X200018490Y-112454075D01*
X199969016Y-112375338D01*
X199841462Y-112247784D01*
X199688723Y-112151811D01*
X199518454Y-112092231D01*
X199518449Y-112092230D01*
X199339204Y-112072035D01*
X199339196Y-112072035D01*
X199159950Y-112092230D01*
X199159945Y-112092231D01*
X198989676Y-112151811D01*
X198836937Y-112247784D01*
X198709384Y-112375337D01*
X198613411Y-112528076D01*
X198553831Y-112698345D01*
X198553830Y-112698350D01*
X198533635Y-112877596D01*
X198533635Y-112877603D01*
X198553830Y-113056851D01*
X198554763Y-113060935D01*
X198554596Y-113063648D01*
X198554611Y-113063775D01*
X198554588Y-113063777D01*
X198550490Y-113130674D01*
X198521554Y-113176209D01*
X198360885Y-113336878D01*
X198360884Y-113336879D01*
X198353818Y-113343946D01*
X198353817Y-113343946D01*
X198249081Y-113448681D01*
X198249080Y-113448682D01*
X198241352Y-113462067D01*
X198221650Y-113487741D01*
X195982412Y-115726981D01*
X195921089Y-115760466D01*
X195894731Y-115763300D01*
X194249942Y-115763300D01*
X194097212Y-115804223D01*
X194067911Y-115821142D01*
X194067908Y-115821143D01*
X193960290Y-115883275D01*
X193960282Y-115883281D01*
X193848478Y-115995086D01*
X192741203Y-117102360D01*
X192679880Y-117135845D01*
X192610188Y-117130861D01*
X192554255Y-117088989D01*
X192530119Y-117026832D01*
X192527424Y-116999471D01*
X192527424Y-116999470D01*
X192527424Y-116999468D01*
X192470214Y-116810873D01*
X192470211Y-116810869D01*
X192470211Y-116810866D01*
X192377313Y-116637067D01*
X192377309Y-116637060D01*
X192248419Y-116480008D01*
X192249605Y-116479034D01*
X192219734Y-116424329D01*
X192216900Y-116397971D01*
X192216900Y-109703562D01*
X192236585Y-109636523D01*
X192253215Y-109615885D01*
X192905502Y-108963597D01*
X192952223Y-108934239D01*
X193110122Y-108878989D01*
X193262862Y-108783016D01*
X193390416Y-108655462D01*
X193486389Y-108502722D01*
X193521022Y-108403745D01*
X193561744Y-108346970D01*
X193626696Y-108321222D01*
X193638064Y-108320700D01*
X200218532Y-108320700D01*
X200218533Y-108320699D01*
X200349036Y-108294741D01*
X200471969Y-108243820D01*
X200582606Y-108169895D01*
X203722882Y-105029619D01*
X203784205Y-104996134D01*
X203810563Y-104993300D01*
X204316637Y-104993300D01*
X204383676Y-105012985D01*
X204404318Y-105029619D01*
X204647181Y-105272482D01*
X204680666Y-105333805D01*
X204683500Y-105360163D01*
X204683500Y-105706719D01*
X204664494Y-105772690D01*
X204633209Y-105822479D01*
X204573633Y-105992737D01*
X204573630Y-105992750D01*
X204553435Y-106171996D01*
X204553435Y-106172003D01*
X204573630Y-106351249D01*
X204573631Y-106351254D01*
X204633211Y-106521524D01*
X204664493Y-106571307D01*
X204683500Y-106637280D01*
X204683500Y-110031836D01*
X204663815Y-110098875D01*
X204647181Y-110119517D01*
X204045696Y-110721001D01*
X203998970Y-110750361D01*
X203841080Y-110805609D01*
X203688337Y-110901584D01*
X203560784Y-111029137D01*
X203464811Y-111181876D01*
X203405231Y-111352145D01*
X203405230Y-111352150D01*
X203385035Y-111531396D01*
X203385035Y-111531403D01*
X203405230Y-111710649D01*
X203405231Y-111710654D01*
X203464811Y-111880923D01*
X203560784Y-112033662D01*
X203688338Y-112161216D01*
X203778680Y-112217982D01*
X203831713Y-112251305D01*
X203841078Y-112257189D01*
X204011339Y-112316766D01*
X204011345Y-112316768D01*
X204011350Y-112316769D01*
X204190596Y-112336965D01*
X204190600Y-112336965D01*
X204190604Y-112336965D01*
X204369849Y-112316769D01*
X204369851Y-112316768D01*
X204369855Y-112316768D01*
X204369858Y-112316766D01*
X204369862Y-112316766D01*
X204540120Y-112257190D01*
X204540124Y-112257188D01*
X204544002Y-112254750D01*
X204549487Y-112251305D01*
X204615457Y-112232300D01*
X209142637Y-112232300D01*
X209209676Y-112251985D01*
X209230318Y-112268619D01*
X210387581Y-113425882D01*
X210421066Y-113487205D01*
X210423900Y-113513563D01*
X210423900Y-117458905D01*
X210418561Y-117494900D01*
X210380075Y-117621769D01*
X210360759Y-117817900D01*
X210380075Y-118014029D01*
X210437288Y-118202633D01*
X210530186Y-118376432D01*
X210530190Y-118376439D01*
X210655216Y-118528783D01*
X210807560Y-118653809D01*
X210807567Y-118653813D01*
X210981366Y-118746711D01*
X210981369Y-118746711D01*
X210981373Y-118746714D01*
X211169968Y-118803924D01*
X211366100Y-118823241D01*
X211562232Y-118803924D01*
X211750827Y-118746714D01*
X211924638Y-118653810D01*
X212076983Y-118528783D01*
X212202010Y-118376438D01*
X212248462Y-118289532D01*
X212294911Y-118202633D01*
X212294911Y-118202632D01*
X212294914Y-118202627D01*
X212352124Y-118014032D01*
X212371441Y-117817900D01*
X212352124Y-117621768D01*
X212294914Y-117433173D01*
X212294911Y-117433169D01*
X212294911Y-117433166D01*
X212202013Y-117259367D01*
X212202009Y-117259360D01*
X212076983Y-117107016D01*
X211924641Y-116981992D01*
X211924639Y-116981991D01*
X211924638Y-116981990D01*
X211840446Y-116936988D01*
X211790602Y-116888025D01*
X211774900Y-116827630D01*
X211774900Y-113115866D01*
X211759897Y-113040445D01*
X211748941Y-112985364D01*
X211700344Y-112868043D01*
X211698700Y-112863448D01*
X211624098Y-112751798D01*
X211624097Y-112751797D01*
X211624095Y-112751794D01*
X211530006Y-112657705D01*
X210753223Y-111880922D01*
X209904409Y-111032107D01*
X209904405Y-111032104D01*
X209793775Y-110958183D01*
X209793765Y-110958178D01*
X209670836Y-110907259D01*
X209670828Y-110907257D01*
X209540335Y-110881300D01*
X209540331Y-110881300D01*
X206057087Y-110881300D01*
X205990048Y-110861615D01*
X205944293Y-110808811D01*
X205934349Y-110739653D01*
X205953985Y-110688409D01*
X205957620Y-110682969D01*
X206008540Y-110560036D01*
X206034500Y-110429531D01*
X206034500Y-110296469D01*
X206034500Y-106637280D01*
X206053507Y-106571307D01*
X206084788Y-106521524D01*
X206144368Y-106351254D01*
X206144369Y-106351249D01*
X206164565Y-106172003D01*
X206164565Y-106171996D01*
X206144369Y-105992750D01*
X206144366Y-105992737D01*
X206084790Y-105822479D01*
X206053506Y-105772690D01*
X206034500Y-105706719D01*
X206034500Y-104962466D01*
X206020662Y-104892902D01*
X206020662Y-104892901D01*
X206008541Y-104831964D01*
X205959944Y-104714643D01*
X205958300Y-104710048D01*
X205883698Y-104598398D01*
X205883697Y-104598397D01*
X205883695Y-104598394D01*
X205789606Y-104504305D01*
X205106582Y-103821280D01*
X205073097Y-103759957D01*
X205078081Y-103690265D01*
X205106582Y-103645918D01*
X205331846Y-103420655D01*
X205604295Y-103148206D01*
X205636050Y-103100681D01*
X205678220Y-103037569D01*
X205701776Y-102980700D01*
X205729141Y-102914636D01*
X205755100Y-102784131D01*
X205755100Y-102651069D01*
X205755100Y-101531880D01*
X205774107Y-101465907D01*
X205805388Y-101416124D01*
X205864968Y-101245854D01*
X205864969Y-101245849D01*
X205885165Y-101066603D01*
X205885165Y-101066596D01*
X205864969Y-100887350D01*
X205864968Y-100887345D01*
X205812261Y-100736717D01*
X205805389Y-100717078D01*
X205709416Y-100564338D01*
X205581862Y-100436784D01*
X205429123Y-100340811D01*
X205258854Y-100281231D01*
X205258849Y-100281230D01*
X205079604Y-100261035D01*
X205079596Y-100261035D01*
X204900350Y-100281230D01*
X204900345Y-100281231D01*
X204730076Y-100340811D01*
X204577337Y-100436784D01*
X204449784Y-100564337D01*
X204353811Y-100717076D01*
X204294231Y-100887345D01*
X204294230Y-100887350D01*
X204274035Y-101066596D01*
X204274035Y-101066603D01*
X204294230Y-101245849D01*
X204294231Y-101245854D01*
X204353811Y-101416124D01*
X204385093Y-101465907D01*
X204404100Y-101531880D01*
X204404100Y-102386437D01*
X204384415Y-102453476D01*
X204367781Y-102474118D01*
X203048794Y-103793105D01*
X203035757Y-103806142D01*
X202974432Y-103839624D01*
X202904741Y-103834637D01*
X202848809Y-103792764D01*
X202824395Y-103727298D01*
X202828305Y-103686362D01*
X202832096Y-103672215D01*
X202835300Y-103660258D01*
X202835300Y-103502143D01*
X202835300Y-99388412D01*
X202854985Y-99321373D01*
X202862355Y-99311097D01*
X202864610Y-99308267D01*
X202864616Y-99308262D01*
X202960589Y-99155522D01*
X203020168Y-98985255D01*
X203040365Y-98806000D01*
X203022992Y-98651812D01*
X203020169Y-98626750D01*
X203020168Y-98626745D01*
X202960588Y-98456476D01*
X202864613Y-98303734D01*
X202862350Y-98300896D01*
X202861459Y-98298715D01*
X202860911Y-98297842D01*
X202861064Y-98297745D01*
X202835944Y-98236209D01*
X202835300Y-98223587D01*
X202835300Y-98093012D01*
X202854985Y-98025973D01*
X202862355Y-98015697D01*
X202864610Y-98012867D01*
X202864616Y-98012862D01*
X202960589Y-97860122D01*
X203020168Y-97689855D01*
X203040365Y-97510600D01*
X203032363Y-97439584D01*
X203020169Y-97331350D01*
X203020168Y-97331345D01*
X203000960Y-97276452D01*
X202960589Y-97161078D01*
X202864616Y-97008338D01*
X202737062Y-96880784D01*
X202735192Y-96879609D01*
X202584323Y-96784811D01*
X202414054Y-96725231D01*
X202414049Y-96725230D01*
X202234804Y-96705035D01*
X202234796Y-96705035D01*
X202055550Y-96725230D01*
X202055545Y-96725231D01*
X201885276Y-96784811D01*
X201732537Y-96880784D01*
X201604984Y-97008337D01*
X201509009Y-97161079D01*
X201488505Y-97219677D01*
X201447783Y-97276452D01*
X201412419Y-97295762D01*
X201275680Y-97343609D01*
X201122937Y-97439584D01*
X200995384Y-97567137D01*
X200899411Y-97719876D01*
X200839831Y-97890145D01*
X200839830Y-97890150D01*
X200819635Y-98069396D01*
X200819635Y-98069403D01*
X200839830Y-98248649D01*
X200839831Y-98248654D01*
X200899411Y-98418923D01*
X200995385Y-98571663D01*
X200997645Y-98574497D01*
X200998534Y-98576675D01*
X200999089Y-98577558D01*
X200998934Y-98577655D01*
X201024055Y-98639183D01*
X201024700Y-98651812D01*
X201024700Y-102963603D01*
X201005015Y-103030642D01*
X200988381Y-103051284D01*
X200384084Y-103655581D01*
X200322761Y-103689066D01*
X200296403Y-103691900D01*
X196900072Y-103691900D01*
X196833033Y-103672215D01*
X196807326Y-103649006D01*
X196807227Y-103649106D01*
X196805278Y-103647157D01*
X196803128Y-103645216D01*
X196802304Y-103644183D01*
X196674749Y-103516628D01*
X196522010Y-103420655D01*
X196351741Y-103361075D01*
X196351736Y-103361074D01*
X196172491Y-103340879D01*
X196172483Y-103340879D01*
X195993237Y-103361074D01*
X195993229Y-103361076D01*
X195912454Y-103389341D01*
X195842676Y-103392902D01*
X195782048Y-103358173D01*
X195749821Y-103296180D01*
X195747500Y-103272299D01*
X195747500Y-102563840D01*
X195767185Y-102496801D01*
X195819989Y-102451046D01*
X195859344Y-102440437D01*
X195928532Y-102433624D01*
X196117127Y-102376414D01*
X196290938Y-102283510D01*
X196443283Y-102158483D01*
X196568310Y-102006138D01*
X196661214Y-101832327D01*
X196718424Y-101643732D01*
X196737741Y-101447600D01*
X196718424Y-101251468D01*
X196661214Y-101062873D01*
X196661211Y-101062869D01*
X196661211Y-101062866D01*
X196568313Y-100889067D01*
X196568309Y-100889060D01*
X196443283Y-100736716D01*
X196290939Y-100611690D01*
X196290932Y-100611686D01*
X196117133Y-100518788D01*
X196117127Y-100518786D01*
X195928532Y-100461576D01*
X195928529Y-100461575D01*
X195732400Y-100442259D01*
X195536270Y-100461575D01*
X195347666Y-100518788D01*
X195173867Y-100611686D01*
X195173860Y-100611690D01*
X195021516Y-100736716D01*
X194896490Y-100889060D01*
X194896486Y-100889067D01*
X194803588Y-101062866D01*
X194746375Y-101251470D01*
X194726462Y-101453662D01*
X194724934Y-101453511D01*
X194707374Y-101513316D01*
X194690740Y-101533958D01*
X194547307Y-101677390D01*
X194547304Y-101677394D01*
X194473383Y-101788024D01*
X194473378Y-101788034D01*
X194422459Y-101910962D01*
X194422459Y-101910964D01*
X194403528Y-102006138D01*
X194403528Y-102006139D01*
X194396500Y-102041468D01*
X194396500Y-106845700D01*
X194376815Y-106912739D01*
X194324011Y-106958494D01*
X194272500Y-106969700D01*
X193202067Y-106969700D01*
X193071569Y-106995658D01*
X193071559Y-106995661D01*
X192948638Y-107046576D01*
X192948625Y-107046583D01*
X192876008Y-107095105D01*
X192876007Y-107095106D01*
X192837991Y-107120506D01*
X192615696Y-107342801D01*
X192568970Y-107372161D01*
X192411080Y-107427409D01*
X192258337Y-107523384D01*
X192130784Y-107650937D01*
X192034809Y-107803680D01*
X191979561Y-107961570D01*
X191950201Y-108008296D01*
X191016707Y-108941790D01*
X191016704Y-108941794D01*
X190942783Y-109052424D01*
X190942778Y-109052434D01*
X190891859Y-109175363D01*
X190891857Y-109175371D01*
X190865900Y-109305864D01*
X190865900Y-116397971D01*
X190846215Y-116465010D01*
X190834229Y-116479883D01*
X190834381Y-116480008D01*
X190705490Y-116637060D01*
X190705486Y-116637067D01*
X190612588Y-116810866D01*
X190555375Y-116999470D01*
X190536059Y-117195600D01*
X188720100Y-117195600D01*
X188720100Y-93280872D01*
X192311541Y-93280872D01*
X192330857Y-93477001D01*
X192388070Y-93665605D01*
X192480968Y-93839404D01*
X192480972Y-93839411D01*
X192605998Y-93991755D01*
X192758342Y-94116781D01*
X192758349Y-94116785D01*
X192932148Y-94209683D01*
X192932151Y-94209683D01*
X192932155Y-94209686D01*
X193120750Y-94266896D01*
X193316882Y-94286213D01*
X193513014Y-94266896D01*
X193701609Y-94209686D01*
X193737317Y-94190600D01*
X193788514Y-94163234D01*
X193875420Y-94116782D01*
X194027765Y-93991755D01*
X194036389Y-93981247D01*
X194052977Y-93961035D01*
X194110723Y-93921701D01*
X194148830Y-93915700D01*
X196744167Y-93915700D01*
X196811206Y-93935385D01*
X196856961Y-93988189D01*
X196866905Y-94057347D01*
X196837880Y-94120903D01*
X196831848Y-94127381D01*
X196768632Y-94190596D01*
X196768629Y-94190600D01*
X196656459Y-94358473D01*
X196656452Y-94358486D01*
X196579190Y-94545016D01*
X196579187Y-94545025D01*
X196539800Y-94743041D01*
X196539800Y-95119000D01*
X197264800Y-95119000D01*
X197264800Y-95619000D01*
X196539800Y-95619000D01*
X196539800Y-95994958D01*
X196579187Y-96192974D01*
X196579190Y-96192983D01*
X196656452Y-96379513D01*
X196656459Y-96379526D01*
X196768629Y-96547399D01*
X196768632Y-96547403D01*
X196911396Y-96690167D01*
X196911400Y-96690170D01*
X197079273Y-96802340D01*
X197079286Y-96802347D01*
X197265816Y-96879609D01*
X197265825Y-96879612D01*
X197314800Y-96889353D01*
X197314800Y-96085988D01*
X197324740Y-96103205D01*
X197380595Y-96159060D01*
X197449004Y-96198556D01*
X197525304Y-96219000D01*
X197604296Y-96219000D01*
X197680596Y-96198556D01*
X197749005Y-96159060D01*
X197804860Y-96103205D01*
X197814800Y-96085988D01*
X197814800Y-96889352D01*
X197863774Y-96879612D01*
X197863783Y-96879609D01*
X198050313Y-96802347D01*
X198050326Y-96802340D01*
X198218199Y-96690170D01*
X198218203Y-96690167D01*
X198360967Y-96547403D01*
X198360970Y-96547399D01*
X198473140Y-96379526D01*
X198473147Y-96379513D01*
X198550409Y-96192983D01*
X198550412Y-96192974D01*
X198589799Y-95994958D01*
X198589800Y-95994955D01*
X198589800Y-95619000D01*
X197864800Y-95619000D01*
X197864800Y-95119000D01*
X198520979Y-95119000D01*
X198588018Y-95138685D01*
X198608660Y-95155319D01*
X198614305Y-95160964D01*
X198702836Y-95249495D01*
X198811264Y-95312095D01*
X198932199Y-95344500D01*
X198932201Y-95344500D01*
X199057399Y-95344500D01*
X199057401Y-95344500D01*
X199178336Y-95312095D01*
X199286764Y-95249495D01*
X199375295Y-95160964D01*
X199437895Y-95052536D01*
X199470300Y-94931601D01*
X199470300Y-94806399D01*
X204299300Y-94806399D01*
X204299300Y-94931601D01*
X204331705Y-95052536D01*
X204394305Y-95160964D01*
X204482836Y-95249495D01*
X204591264Y-95312095D01*
X204712199Y-95344500D01*
X204712201Y-95344500D01*
X204837399Y-95344500D01*
X204837401Y-95344500D01*
X204958336Y-95312095D01*
X205066764Y-95249495D01*
X205155295Y-95160964D01*
X205155295Y-95160963D01*
X205160940Y-95155319D01*
X205222263Y-95121834D01*
X205248621Y-95119000D01*
X205904800Y-95119000D01*
X205904800Y-95619000D01*
X205179800Y-95619000D01*
X205179800Y-95994958D01*
X205219187Y-96192974D01*
X205219190Y-96192983D01*
X205296452Y-96379513D01*
X205296459Y-96379526D01*
X205408629Y-96547399D01*
X205408632Y-96547403D01*
X205551396Y-96690167D01*
X205551400Y-96690170D01*
X205719273Y-96802340D01*
X205719286Y-96802347D01*
X205905816Y-96879609D01*
X205905825Y-96879612D01*
X205954800Y-96889353D01*
X205954800Y-96085988D01*
X205964740Y-96103205D01*
X206020595Y-96159060D01*
X206089004Y-96198556D01*
X206165304Y-96219000D01*
X206244296Y-96219000D01*
X206320596Y-96198556D01*
X206389005Y-96159060D01*
X206444860Y-96103205D01*
X206454800Y-96085988D01*
X206454800Y-96889352D01*
X206503774Y-96879612D01*
X206503783Y-96879609D01*
X206690313Y-96802347D01*
X206690326Y-96802340D01*
X206858199Y-96690170D01*
X206858203Y-96690167D01*
X207000967Y-96547403D01*
X207000970Y-96547399D01*
X207113140Y-96379526D01*
X207113147Y-96379513D01*
X207190409Y-96192983D01*
X207190412Y-96192974D01*
X207229799Y-95994958D01*
X207229800Y-95994955D01*
X207229800Y-95619000D01*
X206504800Y-95619000D01*
X206504800Y-95119000D01*
X207229800Y-95119000D01*
X207229800Y-94743045D01*
X207229799Y-94743041D01*
X207190412Y-94545025D01*
X207190409Y-94545016D01*
X207113147Y-94358486D01*
X207113140Y-94358473D01*
X207000970Y-94190600D01*
X207000967Y-94190596D01*
X206858203Y-94047832D01*
X206858199Y-94047829D01*
X206690326Y-93935659D01*
X206690313Y-93935652D01*
X206503784Y-93858390D01*
X206503777Y-93858388D01*
X206454800Y-93848645D01*
X206454800Y-94652011D01*
X206444860Y-94634795D01*
X206389005Y-94578940D01*
X206320596Y-94539444D01*
X206244296Y-94519000D01*
X206165304Y-94519000D01*
X206089004Y-94539444D01*
X206020595Y-94578940D01*
X205964740Y-94634795D01*
X205954800Y-94652011D01*
X205954800Y-93848646D01*
X205954799Y-93848645D01*
X205905822Y-93858388D01*
X205905815Y-93858390D01*
X205719286Y-93935652D01*
X205719273Y-93935659D01*
X205551400Y-94047829D01*
X205551396Y-94047832D01*
X205408632Y-94190596D01*
X205408629Y-94190600D01*
X205296459Y-94358473D01*
X205296454Y-94358483D01*
X205262031Y-94441588D01*
X205218190Y-94495991D01*
X205151895Y-94518056D01*
X205084196Y-94500777D01*
X205071979Y-94492507D01*
X205066764Y-94488505D01*
X204958336Y-94425905D01*
X204958337Y-94425905D01*
X204918024Y-94415103D01*
X204837401Y-94393500D01*
X204712199Y-94393500D01*
X204631575Y-94415103D01*
X204591263Y-94425905D01*
X204482837Y-94488504D01*
X204482834Y-94488506D01*
X204394306Y-94577034D01*
X204394304Y-94577037D01*
X204331705Y-94685463D01*
X204331705Y-94685464D01*
X204299300Y-94806399D01*
X199470300Y-94806399D01*
X199437895Y-94685464D01*
X199375295Y-94577036D01*
X199286764Y-94488505D01*
X199178336Y-94425905D01*
X199178337Y-94425905D01*
X199138024Y-94415103D01*
X199057401Y-94393500D01*
X198932199Y-94393500D01*
X198851575Y-94415103D01*
X198811263Y-94425905D01*
X198702838Y-94488503D01*
X198697616Y-94492511D01*
X198632447Y-94517705D01*
X198564002Y-94503667D01*
X198514012Y-94454853D01*
X198507568Y-94441587D01*
X198473147Y-94358486D01*
X198473140Y-94358473D01*
X198360970Y-94190600D01*
X198360967Y-94190596D01*
X198297752Y-94127381D01*
X198264267Y-94066058D01*
X198269251Y-93996366D01*
X198311123Y-93940433D01*
X198376587Y-93916016D01*
X198385433Y-93915700D01*
X199116008Y-93915700D01*
X199183047Y-93935385D01*
X199225366Y-93981247D01*
X199265286Y-94055932D01*
X199265290Y-94055939D01*
X199390316Y-94208283D01*
X199542660Y-94333309D01*
X199542667Y-94333313D01*
X199716466Y-94426211D01*
X199716469Y-94426211D01*
X199716473Y-94426214D01*
X199905068Y-94483424D01*
X200101200Y-94502741D01*
X200297332Y-94483424D01*
X200485927Y-94426214D01*
X200659738Y-94333310D01*
X200812083Y-94208283D01*
X200937110Y-94055938D01*
X201030014Y-93882127D01*
X201087224Y-93693532D01*
X201106541Y-93497400D01*
X201087224Y-93301268D01*
X201030014Y-93112673D01*
X201030011Y-93112669D01*
X201030011Y-93112666D01*
X200937113Y-92938867D01*
X200937109Y-92938860D01*
X200812083Y-92786516D01*
X200659739Y-92661490D01*
X200659732Y-92661486D01*
X200485933Y-92568588D01*
X200485927Y-92568586D01*
X200407418Y-92544770D01*
X200355737Y-92513793D01*
X200202099Y-92360155D01*
X200202098Y-92360154D01*
X200202097Y-92360153D01*
X200058711Y-92264345D01*
X200058698Y-92264338D01*
X199899378Y-92198346D01*
X199899366Y-92198343D01*
X199730232Y-92164700D01*
X199730229Y-92164700D01*
X198635730Y-92164700D01*
X198568691Y-92145015D01*
X198522936Y-92092211D01*
X198512992Y-92023053D01*
X198521169Y-91993247D01*
X198526370Y-91980689D01*
X198526372Y-91980681D01*
X198564799Y-91787495D01*
X198564800Y-91787492D01*
X198564800Y-91439000D01*
X197864800Y-91439000D01*
X197864800Y-90939000D01*
X198564800Y-90939000D01*
X198564800Y-90590508D01*
X198564799Y-90590504D01*
X205204800Y-90590504D01*
X205204800Y-90939000D01*
X205904800Y-90939000D01*
X205904800Y-91439000D01*
X205204800Y-91439000D01*
X205204800Y-91787495D01*
X205243227Y-91980681D01*
X205243230Y-91980693D01*
X205318607Y-92162671D01*
X205318614Y-92162684D01*
X205428048Y-92326462D01*
X205428051Y-92326466D01*
X205567333Y-92465748D01*
X205567337Y-92465751D01*
X205731115Y-92575185D01*
X205731128Y-92575192D01*
X205913108Y-92650569D01*
X205954800Y-92658862D01*
X205954800Y-91755988D01*
X205964740Y-91773205D01*
X206020595Y-91829060D01*
X206089004Y-91868556D01*
X206165304Y-91889000D01*
X206244296Y-91889000D01*
X206320596Y-91868556D01*
X206389005Y-91829060D01*
X206444860Y-91773205D01*
X206454800Y-91755988D01*
X206454800Y-92658862D01*
X206496490Y-92650569D01*
X206496492Y-92650569D01*
X206678471Y-92575192D01*
X206678484Y-92575185D01*
X206842262Y-92465751D01*
X206842266Y-92465748D01*
X206981548Y-92326466D01*
X206981551Y-92326462D01*
X207090985Y-92162684D01*
X207090992Y-92162671D01*
X207166369Y-91980693D01*
X207166372Y-91980681D01*
X207204799Y-91787495D01*
X207204800Y-91787492D01*
X207204800Y-91524599D01*
X210697571Y-91524599D01*
X210697571Y-91524600D01*
X210717244Y-91736910D01*
X210775596Y-91941992D01*
X210775596Y-91941994D01*
X210870632Y-92132853D01*
X210978378Y-92275530D01*
X210999128Y-92303007D01*
X211156698Y-92446652D01*
X211337981Y-92558898D01*
X211536802Y-92635921D01*
X211746390Y-92675100D01*
X211746392Y-92675100D01*
X211959608Y-92675100D01*
X211959610Y-92675100D01*
X212169198Y-92635921D01*
X212368019Y-92558898D01*
X212549302Y-92446652D01*
X212706872Y-92303007D01*
X212835366Y-92132855D01*
X212889607Y-92023924D01*
X212930403Y-91941994D01*
X212930403Y-91941993D01*
X212930405Y-91941989D01*
X212988756Y-91736910D01*
X213008429Y-91524600D01*
X212988756Y-91312290D01*
X212930405Y-91107211D01*
X212930403Y-91107206D01*
X212930403Y-91107205D01*
X212835367Y-90916346D01*
X212706872Y-90746193D01*
X212626807Y-90673204D01*
X212549302Y-90602548D01*
X212368019Y-90490302D01*
X212368017Y-90490301D01*
X212268608Y-90451790D01*
X212169198Y-90413279D01*
X211959610Y-90374100D01*
X211746390Y-90374100D01*
X211536802Y-90413279D01*
X211536799Y-90413279D01*
X211536799Y-90413280D01*
X211337982Y-90490301D01*
X211337980Y-90490302D01*
X211156699Y-90602547D01*
X210999127Y-90746193D01*
X210870632Y-90916346D01*
X210775596Y-91107205D01*
X210775596Y-91107207D01*
X210717244Y-91312289D01*
X210697571Y-91524599D01*
X207204800Y-91524599D01*
X207204800Y-91439000D01*
X206504800Y-91439000D01*
X206504800Y-90939000D01*
X207204800Y-90939000D01*
X207204800Y-90590508D01*
X207204799Y-90590504D01*
X207166372Y-90397318D01*
X207166369Y-90397306D01*
X207090992Y-90215328D01*
X207090985Y-90215315D01*
X206981551Y-90051537D01*
X206981548Y-90051533D01*
X206842266Y-89912251D01*
X206842262Y-89912248D01*
X206678484Y-89802814D01*
X206678471Y-89802807D01*
X206496491Y-89727429D01*
X206496483Y-89727427D01*
X206454800Y-89719135D01*
X206454800Y-90622011D01*
X206444860Y-90604795D01*
X206389005Y-90548940D01*
X206320596Y-90509444D01*
X206244296Y-90489000D01*
X206165304Y-90489000D01*
X206089004Y-90509444D01*
X206020595Y-90548940D01*
X205964740Y-90604795D01*
X205954800Y-90622011D01*
X205954800Y-89719136D01*
X205954799Y-89719135D01*
X205913116Y-89727427D01*
X205913108Y-89727429D01*
X205731128Y-89802807D01*
X205731115Y-89802814D01*
X205567337Y-89912248D01*
X205567333Y-89912251D01*
X205428051Y-90051533D01*
X205428048Y-90051537D01*
X205318614Y-90215315D01*
X205318607Y-90215328D01*
X205243230Y-90397306D01*
X205243227Y-90397318D01*
X205204800Y-90590504D01*
X198564799Y-90590504D01*
X198526372Y-90397318D01*
X198526369Y-90397306D01*
X198450992Y-90215328D01*
X198450985Y-90215315D01*
X198341551Y-90051537D01*
X198341548Y-90051533D01*
X198202266Y-89912251D01*
X198202262Y-89912248D01*
X198038484Y-89802814D01*
X198038471Y-89802807D01*
X197856491Y-89727429D01*
X197856483Y-89727427D01*
X197814800Y-89719135D01*
X197814800Y-90622011D01*
X197804860Y-90604795D01*
X197749005Y-90548940D01*
X197680596Y-90509444D01*
X197604296Y-90489000D01*
X197525304Y-90489000D01*
X197449004Y-90509444D01*
X197380595Y-90548940D01*
X197324740Y-90604795D01*
X197314800Y-90622011D01*
X197314800Y-89719136D01*
X197314799Y-89719135D01*
X197273116Y-89727427D01*
X197273108Y-89727429D01*
X197091128Y-89802807D01*
X197091115Y-89802814D01*
X196927337Y-89912248D01*
X196927333Y-89912251D01*
X196788051Y-90051533D01*
X196788048Y-90051537D01*
X196678614Y-90215315D01*
X196678607Y-90215328D01*
X196603230Y-90397306D01*
X196603227Y-90397318D01*
X196564800Y-90590504D01*
X196564800Y-90939000D01*
X197264800Y-90939000D01*
X197264800Y-91439000D01*
X196564800Y-91439000D01*
X196564800Y-91787495D01*
X196603227Y-91980681D01*
X196603229Y-91980689D01*
X196608431Y-91993247D01*
X196615900Y-92062716D01*
X196584625Y-92125195D01*
X196524537Y-92160848D01*
X196493870Y-92164700D01*
X193471322Y-92164700D01*
X193302187Y-92198343D01*
X193302175Y-92198346D01*
X193142853Y-92264339D01*
X193142850Y-92264341D01*
X193134535Y-92269897D01*
X193126104Y-92275531D01*
X193126101Y-92275533D01*
X193092900Y-92297716D01*
X193060009Y-92313272D01*
X192932152Y-92352058D01*
X192758349Y-92444958D01*
X192758342Y-92444962D01*
X192605998Y-92569988D01*
X192480972Y-92722332D01*
X192480968Y-92722339D01*
X192388070Y-92896138D01*
X192330857Y-93084742D01*
X192311541Y-93280872D01*
X188720100Y-93280872D01*
X188720100Y-91524599D01*
X190064171Y-91524599D01*
X190064171Y-91524600D01*
X190083844Y-91736910D01*
X190142196Y-91941992D01*
X190142196Y-91941994D01*
X190237232Y-92132853D01*
X190344978Y-92275530D01*
X190365728Y-92303007D01*
X190523298Y-92446652D01*
X190704581Y-92558898D01*
X190903402Y-92635921D01*
X191112990Y-92675100D01*
X191112992Y-92675100D01*
X191326208Y-92675100D01*
X191326210Y-92675100D01*
X191535798Y-92635921D01*
X191734619Y-92558898D01*
X191915902Y-92446652D01*
X192073472Y-92303007D01*
X192201966Y-92132855D01*
X192256207Y-92023924D01*
X192297003Y-91941994D01*
X192297003Y-91941993D01*
X192297005Y-91941989D01*
X192355356Y-91736910D01*
X192375029Y-91524600D01*
X192355356Y-91312290D01*
X192297005Y-91107211D01*
X192297003Y-91107206D01*
X192297003Y-91107205D01*
X192201967Y-90916346D01*
X192073472Y-90746193D01*
X191993407Y-90673204D01*
X191915902Y-90602548D01*
X191734619Y-90490302D01*
X191734617Y-90490301D01*
X191635208Y-90451790D01*
X191535798Y-90413279D01*
X191326210Y-90374100D01*
X191112990Y-90374100D01*
X190903402Y-90413279D01*
X190903399Y-90413279D01*
X190903399Y-90413280D01*
X190704582Y-90490301D01*
X190704580Y-90490302D01*
X190523299Y-90602547D01*
X190365727Y-90746193D01*
X190237232Y-90916346D01*
X190142196Y-91107205D01*
X190142196Y-91107207D01*
X190083844Y-91312289D01*
X190064171Y-91524599D01*
X188720100Y-91524599D01*
X188720100Y-89149100D01*
X188739785Y-89082061D01*
X188792589Y-89036306D01*
X188844100Y-89025100D01*
X214228500Y-89025100D01*
X214295539Y-89044785D01*
G37*
%TD.AperFunction*%
%TA.AperFunction,Conductor*%
G36*
X209888833Y-146208585D02*
G01*
X209909475Y-146225219D01*
X211158475Y-147474219D01*
X211191960Y-147535542D01*
X211186976Y-147605234D01*
X211145104Y-147661167D01*
X211079640Y-147685584D01*
X211070794Y-147685900D01*
X205642241Y-147685900D01*
X205511748Y-147711857D01*
X205511740Y-147711859D01*
X205388811Y-147762778D01*
X205388801Y-147762783D01*
X205278171Y-147836704D01*
X205278167Y-147836707D01*
X204513801Y-148601074D01*
X204452478Y-148634559D01*
X204433485Y-148636601D01*
X204433505Y-148636796D01*
X204231313Y-148656709D01*
X204042709Y-148713922D01*
X203868910Y-148806820D01*
X203868903Y-148806824D01*
X203716559Y-148931850D01*
X203591533Y-149084194D01*
X203591529Y-149084201D01*
X203522641Y-149213082D01*
X203473679Y-149262927D01*
X203405541Y-149278387D01*
X203356988Y-149265114D01*
X203308784Y-149240553D01*
X203308781Y-149240551D01*
X203065523Y-149161513D01*
X202812889Y-149121500D01*
X202557111Y-149121500D01*
X202304476Y-149161513D01*
X202061218Y-149240551D01*
X202061215Y-149240552D01*
X201833310Y-149356677D01*
X201626390Y-149507012D01*
X201462727Y-149670674D01*
X202175741Y-150383688D01*
X202131132Y-150450452D01*
X202084019Y-150564194D01*
X202060000Y-150684943D01*
X202060000Y-150975052D01*
X201188709Y-150103762D01*
X201182297Y-150104778D01*
X201113004Y-150095822D01*
X201059552Y-150050825D01*
X201038914Y-149984073D01*
X201039373Y-149971494D01*
X201040746Y-149955797D01*
X201031345Y-149929966D01*
X201032181Y-149929661D01*
X201019834Y-149907048D01*
X201017000Y-149880690D01*
X201017000Y-149646227D01*
X201016999Y-149646225D01*
X200964851Y-149451599D01*
X200964847Y-149451590D01*
X200866867Y-149241471D01*
X200866866Y-149241469D01*
X200811975Y-149163077D01*
X200811975Y-149163076D01*
X200197962Y-149777089D01*
X200180925Y-149713507D01*
X200115099Y-149599493D01*
X200022007Y-149506401D01*
X199907993Y-149440575D01*
X199844409Y-149423537D01*
X200458422Y-148809523D01*
X200380030Y-148754633D01*
X200169909Y-148656652D01*
X200169900Y-148656648D01*
X199945968Y-148596647D01*
X199945958Y-148596645D01*
X199721492Y-148577006D01*
X199656423Y-148551553D01*
X199615445Y-148494962D01*
X199608300Y-148453478D01*
X199608300Y-146743880D01*
X199627307Y-146677907D01*
X199658588Y-146628124D01*
X199718168Y-146457854D01*
X199718169Y-146457849D01*
X199736065Y-146299017D01*
X199763131Y-146234603D01*
X199820726Y-146195048D01*
X199859285Y-146188900D01*
X209821794Y-146188900D01*
X209888833Y-146208585D01*
G37*
%TD.AperFunction*%
%TD*%
M02*
